<svg width="210" height="98" viewBox="0 0 210 98" fill="none" xmlns="http://www.w3.org/2000/svg">
<g filter="url(#filter0_bdd)">
<rect x="20" y="25" width="170" height="58" rx="15" fill="white" fill-opacity="0.8"/>
<path d="M64.6324 53.2787C64.6009 50.0542 67.5007 48.4855 67.6333 48.4125C65.991 46.2085 63.4455 45.9074 62.551 45.8834C60.413 45.6763 58.3392 47.0609 57.2501 47.0609C56.1393 47.0609 54.4622 45.9034 52.6547 45.9374C50.3287 45.9704 48.1527 47.2099 46.9593 49.1348C44.4964 53.0596 46.3333 58.8271 48.6929 61.9995C49.8733 63.5532 51.2526 65.288 53.0579 65.227C54.8242 65.16 55.4839 64.1905 57.6153 64.1905C59.7272 64.1905 60.3467 65.227 62.188 65.188C64.0835 65.16 65.2769 63.6273 66.416 62.0596C67.7801 60.2788 68.3279 58.525 68.3496 58.435C68.3051 58.421 64.6683 57.1434 64.6324 53.2787Z" fill="#414B54"/>
<path d="M61.1544 43.7964C62.1043 42.7029 62.7543 41.2152 62.5739 39.7056C61.1989 39.7616 59.4795 40.581 58.4893 41.6504C57.6132 42.5929 56.8307 44.1375 57.0328 45.5902C58.5773 45.6962 60.1631 44.8729 61.1544 43.7964Z" fill="#414B54"/>
<path d="M90.1928 59.634H87.7244L86.3723 55.7233H81.6725L80.3846 59.634H77.9814L82.6377 46.3201H85.5137L90.1928 59.634ZM85.9647 54.0825L84.742 50.606C84.6126 50.2508 84.3702 49.4145 84.0126 48.0979H83.9692C83.8268 48.6641 83.5975 49.5005 83.2822 50.606L82.0812 54.0825H85.9647Z" fill="#414B54"/>
<path d="M102.167 54.7158C102.167 56.3485 101.688 57.6391 100.729 58.5865C99.8702 59.4299 98.804 59.8511 97.5312 59.8511C96.1574 59.8511 95.1705 59.3969 94.5694 58.4885H94.5259V63.5457H92.2086V53.1941C92.2086 52.1676 92.1793 51.1142 92.1228 50.0337H94.1607L94.2901 51.5554H94.3335C95.1063 50.4089 96.2791 49.8366 97.8529 49.8366C99.0833 49.8366 100.11 50.2838 100.932 51.1792C101.756 52.0756 102.167 53.2541 102.167 54.7158ZM99.8061 54.7938C99.8061 53.8594 99.5779 53.0891 99.1192 52.4828C98.6181 51.8505 97.9453 51.5344 97.1019 51.5344C96.5302 51.5344 96.0106 51.7104 95.5465 52.0576C95.0813 52.4078 94.777 52.865 94.6346 53.4312C94.5629 53.6953 94.527 53.9114 94.527 54.0815V55.6822C94.527 56.3805 94.7596 56.9698 95.2248 57.451C95.69 57.9322 96.2943 58.1723 97.0378 58.1723C97.9105 58.1723 98.5899 57.8622 99.0757 57.2439C99.5626 56.6246 99.8061 55.8083 99.8061 54.7938Z" fill="#414B54"/>
<path d="M114.163 54.7158C114.163 56.3485 113.684 57.6391 112.724 58.5865C111.867 59.4299 110.8 59.8511 109.528 59.8511C108.154 59.8511 107.167 59.3969 106.567 58.4885H106.523V63.5457H104.206V53.1941C104.206 52.1676 104.177 51.1142 104.12 50.0337H106.158L106.288 51.5554H106.331C107.103 50.4089 108.276 49.8366 109.85 49.8366C111.08 49.8366 112.107 50.2838 112.931 51.1792C113.751 52.0756 114.163 53.2541 114.163 54.7158ZM111.803 54.7938C111.803 53.8594 111.573 53.0891 111.115 52.4828C110.613 51.8505 109.943 51.5344 109.098 51.5344C108.526 51.5344 108.007 51.7104 107.542 52.0576C107.077 52.4078 106.773 52.865 106.631 53.4312C106.56 53.6953 106.523 53.9114 106.523 54.0815V55.6822C106.523 56.3805 106.756 56.9698 107.219 57.451C107.684 57.9312 108.289 58.1723 109.034 58.1723C109.907 58.1723 110.586 57.8622 111.072 57.2439C111.559 56.6246 111.803 55.8083 111.803 54.7938Z" fill="#414B54"/>
<path d="M127.576 55.9004C127.576 57.0329 127.149 57.9543 126.291 58.6656C125.349 59.4429 124.037 59.8311 122.351 59.8311C120.795 59.8311 119.547 59.555 118.602 59.0017L119.139 57.224C120.157 57.7902 121.273 58.0743 122.489 58.0743C123.362 58.0743 124.041 57.8923 124.529 57.5301C125.015 57.1679 125.258 56.6817 125.258 56.0754C125.258 55.5352 125.058 55.08 124.656 54.7108C124.258 54.3417 123.591 53.9985 122.661 53.6814C120.128 52.812 118.863 51.5384 118.863 49.8637C118.863 48.7692 119.307 47.8718 120.195 47.1735C121.079 46.4742 122.26 46.125 123.736 46.125C125.052 46.125 126.146 46.3361 127.018 46.7573L126.439 48.4961C125.624 48.0879 124.702 47.8838 123.671 47.8838C122.855 47.8838 122.219 48.0689 121.762 48.437C121.376 48.7662 121.183 49.1674 121.183 49.6426C121.183 50.1688 121.403 50.604 121.847 50.9462C122.233 51.2623 122.934 51.6044 123.951 51.9736C125.196 52.4348 126.11 52.9741 126.698 53.5923C127.284 54.2086 127.576 54.98 127.576 55.9004Z" fill="#414B54"/>
<path d="M135.237 51.6345H132.683V56.2956C132.683 57.4811 133.133 58.0734 134.035 58.0734C134.449 58.0734 134.793 58.0404 135.064 57.9743L135.129 59.5941C134.672 59.7511 134.071 59.8302 133.326 59.8302C132.411 59.8302 131.696 59.5731 131.18 59.0598C130.666 58.5456 130.407 57.6832 130.407 56.4717V51.6325H128.885V50.0318H130.407V48.274L132.683 47.6417V50.0318H135.237V51.6345Z" fill="#414B54"/>
<path d="M146.762 54.7549C146.762 56.2306 146.303 57.4421 145.388 58.3895C144.428 59.365 143.154 59.8512 141.566 59.8512C140.036 59.8512 138.818 59.384 137.909 58.4496C137 57.5151 136.546 56.3356 136.546 54.914C136.546 53.4263 137.013 52.2078 137.951 51.2603C138.887 50.3119 140.15 49.8377 141.738 49.8377C143.268 49.8377 144.5 50.3049 145.429 51.2403C146.318 52.1477 146.762 53.3193 146.762 54.7549ZM144.358 54.8239C144.358 53.9385 144.152 53.1792 143.736 52.5459C143.25 51.7796 142.555 51.3974 141.656 51.3974C140.724 51.3974 140.016 51.7806 139.531 52.5459C139.114 53.1802 138.909 53.9515 138.909 54.864C138.909 55.7493 139.114 56.5087 139.531 57.141C140.032 57.9073 140.732 58.2895 141.635 58.2895C142.52 58.2895 143.214 57.8993 143.715 57.121C144.142 56.4757 144.358 55.7083 144.358 54.8239Z" fill="#414B54"/>
<path d="M154.294 51.9095C154.065 51.8705 153.82 51.8505 153.563 51.8505C152.748 51.8505 152.118 52.1336 151.674 52.7009C151.289 53.2011 151.095 53.8334 151.095 54.5967V59.634H148.779L148.801 53.057C148.801 51.9506 148.771 50.9431 148.714 50.0347H150.732L150.817 51.8715H150.881C151.126 51.2402 151.511 50.732 152.04 50.3508C152.556 50.0077 153.113 49.8366 153.715 49.8366C153.929 49.8366 154.122 49.8506 154.294 49.8756V51.9095Z" fill="#414B54"/>
<path d="M164.658 54.3797C164.658 54.7619 164.63 55.084 164.573 55.3471H157.621C157.648 56.2956 157.984 57.0209 158.63 57.5211C159.215 57.9683 159.973 58.1924 160.903 58.1924C161.933 58.1924 162.872 58.0413 163.716 57.7382L164.079 59.2189C163.092 59.615 161.927 59.8121 160.583 59.8121C158.965 59.8121 157.696 59.3739 156.772 58.4985C155.85 57.6231 155.388 56.4476 155.388 54.973C155.388 53.5253 155.818 52.3198 156.678 51.3584C157.577 50.3319 158.794 49.8187 160.324 49.8187C161.827 49.8187 162.965 50.3319 163.738 51.3584C164.35 52.1737 164.658 53.1822 164.658 54.3797ZM162.448 53.8265C162.463 53.1942 162.312 52.6479 161.998 52.1867C161.597 51.5935 160.981 51.2973 160.151 51.2973C159.394 51.2973 158.777 51.5865 158.307 52.1667C157.921 52.6279 157.692 53.1812 157.621 53.8255H162.448V53.8265Z" fill="#414B54"/>
</g>
<defs>
<filter id="filter0_bdd" x="0" y="0" width="210" height="98" filterUnits="userSpaceOnUse" color-interpolation-filters="sRGB">
<feFlood flood-opacity="0" result="BackgroundImageFix"/>
<feGaussianBlur in="BackgroundImage" stdDeviation="5.5"/>
<feComposite in2="SourceAlpha" operator="in" result="effect1_backgroundBlur"/>
<feColorMatrix in="SourceAlpha" type="matrix" values="0 0 0 0 0 0 0 0 0 0 0 0 0 0 0 0 0 0 127 0"/>
<feMorphology radius="4" operator="erode" in="SourceAlpha" result="effect2_dropShadow"/>
<feOffset dy="-5"/>
<feGaussianBlur stdDeviation="12"/>
<feColorMatrix type="matrix" values="0 0 0 0 0.0941176 0 0 0 0 0.152941 0 0 0 0 0.294118 0 0 0 0.08 0"/>
<feBlend mode="normal" in2="effect1_backgroundBlur" result="effect2_dropShadow"/>
<feColorMatrix in="SourceAlpha" type="matrix" values="0 0 0 0 0 0 0 0 0 0 0 0 0 0 0 0 0 0 127 0"/>
<feMorphology radius="6" operator="erode" in="SourceAlpha" result="effect3_dropShadow"/>
<feOffset dy="6"/>
<feGaussianBlur stdDeviation="6"/>
<feColorMatrix type="matrix" values="0 0 0 0 0.0941176 0 0 0 0 0.152941 0 0 0 0 0.294118 0 0 0 0.12 0"/>
<feBlend mode="normal" in2="effect2_dropShadow" result="effect3_dropShadow"/>
<feBlend mode="normal" in="SourceGraphic" in2="effect3_dropShadow" result="shape"/>
</filter>
</defs>
</svg>
