<svg width="273" height="120" viewBox="0 0 273 120" fill="none" xmlns="http://www.w3.org/2000/svg">
<g filter="url(#filter0_bdd)">
<rect x="20.8359" y="25" width="232" height="80" rx="20" fill="white" fill-opacity="0.8"/>
<path d="M80.2165 63.9008C80.1723 58.9874 84.2397 56.597 84.4257 56.4857C82.1222 53.1272 78.5518 52.6684 77.2971 52.6318C74.2985 52.3162 71.3897 54.4261 69.8622 54.4261C68.3042 54.4261 65.9519 52.6623 63.4167 52.7141C60.1543 52.7644 57.1022 54.6533 55.4283 57.5864C51.9738 63.5669 54.5502 72.3556 57.8599 77.1898C59.5155 79.5573 61.4501 82.2008 63.9823 82.1078C66.4595 82.0057 67.3849 80.5284 70.3744 80.5284C73.3365 80.5284 74.2055 82.1078 76.788 82.0483C79.4467 82.0057 81.1206 79.6701 82.7182 77.2813C84.6315 74.5677 85.3998 71.8952 85.4303 71.758C85.3678 71.7367 80.2669 69.7899 80.2165 63.9008Z" fill="#414B54"/>
<path d="M75.3382 49.4517C76.6706 47.7854 77.5822 45.5185 77.3292 43.218C75.4007 43.3034 72.989 44.5519 71.6001 46.1816C70.3714 47.6177 69.2738 49.9715 69.5573 52.1851C71.7236 52.3467 73.9479 51.092 75.3382 49.4517Z" fill="#414B54"/>
<path d="M116.068 73.585H112.605L110.709 67.6258H104.117L102.311 73.585H98.9399L105.471 53.2971H109.505L116.068 73.585ZM110.137 65.1256L108.422 59.828C108.241 59.2868 107.901 58.0124 107.399 56.0061H107.338C107.139 56.869 106.817 58.1435 106.375 59.828L104.69 65.1256H110.137Z" fill="#414B54"/>
<path d="M132.862 66.0907C132.862 68.5787 132.19 70.5453 130.846 71.989C129.641 73.2741 128.146 73.9159 126.361 73.9159C124.434 73.9159 123.049 73.2238 122.206 71.8396H122.145V79.5459H118.895V63.7719C118.895 62.2078 118.854 60.6025 118.775 58.9561H121.633L121.814 61.2748H121.875C122.959 59.5278 124.604 58.6558 126.812 58.6558C128.537 58.6558 129.978 59.3372 131.131 60.7016C132.286 62.0676 132.862 63.8634 132.862 66.0907ZM129.551 66.2096C129.551 64.7857 129.231 63.6119 128.588 62.688C127.885 61.7246 126.941 61.2428 125.758 61.2428C124.956 61.2428 124.228 61.5111 123.577 62.0401C122.924 62.5737 122.497 63.2704 122.298 64.1333C122.197 64.5357 122.147 64.865 122.147 65.1242V67.5634C122.147 68.6275 122.473 69.5254 123.126 70.2587C123.778 70.9919 124.626 71.3578 125.668 71.3578C126.893 71.3578 127.845 70.8852 128.527 69.9431C129.21 68.9994 129.551 67.7554 129.551 66.2096Z" fill="#414B54"/>
<path d="M149.689 66.0907C149.689 68.5787 149.016 70.5453 147.67 71.989C146.467 73.2741 144.972 73.9159 143.187 73.9159C141.26 73.9159 139.875 73.2238 139.034 71.8396H138.973V79.5459H135.723V63.7719C135.723 62.2078 135.682 60.6025 135.602 58.9561H138.461L138.642 61.2748H138.703C139.785 59.5278 141.43 58.6558 143.639 58.6558C145.364 58.6558 146.804 59.3372 147.96 60.7016C149.111 62.0676 149.689 63.8634 149.689 66.0907ZM146.377 66.2096C146.377 64.7857 146.056 63.6119 145.412 62.688C144.71 61.7246 143.769 61.2428 142.584 61.2428C141.781 61.2428 141.054 61.5111 140.401 62.0401C139.749 62.5737 139.324 63.2704 139.124 64.1333C139.025 64.5357 138.973 64.865 138.973 65.1242V67.5634C138.973 68.6275 139.299 69.5254 139.949 70.2587C140.601 70.9904 141.449 71.3578 142.495 71.3578C143.719 71.3578 144.671 70.8852 145.353 69.9431C146.036 68.9994 146.377 67.7554 146.377 66.2096Z" fill="#414B54"/>
<path d="M168.501 67.8958C168.501 69.6215 167.902 71.0256 166.699 72.1095C165.377 73.294 163.537 73.8855 161.173 73.8855C158.99 73.8855 157.24 73.4648 155.915 72.6217L156.668 69.9127C158.095 70.7756 159.66 71.2085 161.366 71.2085C162.591 71.2085 163.543 70.931 164.228 70.3792C164.909 69.8273 165.249 69.0864 165.249 68.1626C165.249 67.3394 164.969 66.6457 164.406 66.0832C163.847 65.5206 162.912 64.9977 161.607 64.5145C158.055 63.1897 156.281 61.249 156.281 58.697C156.281 57.0292 156.903 55.6618 158.148 54.5977C159.389 53.532 161.045 53 163.115 53C164.961 53 166.495 53.3217 167.719 53.9635L166.906 56.613C165.763 55.9911 164.47 55.6801 163.023 55.6801C161.88 55.6801 160.987 55.9621 160.346 56.5231C159.805 57.0247 159.534 57.636 159.534 58.3601C159.534 59.162 159.843 59.8251 160.465 60.3465C161.007 60.8283 161.99 61.3496 163.417 61.9122C165.162 62.615 166.444 63.4367 167.269 64.3788C168.091 65.3179 168.501 66.4933 168.501 67.8958Z" fill="#414B54"/>
<path d="M179.247 61.3953H175.664V68.4979C175.664 70.3044 176.296 71.2069 177.561 71.2069C178.142 71.2069 178.623 71.1566 179.005 71.056L179.095 73.5241C178.454 73.7635 177.611 73.8839 176.567 73.8839C175.283 73.8839 174.28 73.4921 173.556 72.71C172.835 71.9265 172.472 70.6123 172.472 68.7662V61.3922H170.338V58.953H172.472V56.2745L175.664 55.311V58.953H179.247V61.3953Z" fill="#414B54"/>
<path d="M195.411 66.1503C195.411 68.399 194.768 70.2451 193.484 71.6888C192.138 73.1752 190.351 73.9161 188.124 73.9161C185.978 73.9161 184.269 73.2042 182.994 71.7803C181.72 70.3564 181.083 68.559 181.083 66.3927C181.083 64.1258 181.738 62.269 183.054 60.8253C184.366 59.3801 186.138 58.6575 188.365 58.6575C190.511 58.6575 192.239 59.3694 193.542 60.7948C194.789 62.1775 195.411 63.9627 195.411 66.1503ZM192.039 66.2555C192.039 64.9064 191.751 63.7493 191.167 62.7843C190.486 61.6165 189.511 61.0342 188.249 61.0342C186.943 61.0342 185.95 61.618 185.269 62.7843C184.685 63.7508 184.397 64.9262 184.397 66.3165C184.397 67.6657 184.685 68.8228 185.269 69.7862C185.972 70.954 186.953 71.5364 188.22 71.5364C189.461 71.5364 190.435 70.9418 191.138 69.7558C191.737 68.7725 192.039 67.6032 192.039 66.2555Z" fill="#414B54"/>
<path d="M205.976 61.8145C205.654 61.7551 205.311 61.7246 204.951 61.7246C203.808 61.7246 202.924 62.156 202.302 63.0204C201.76 63.7826 201.489 64.7461 201.489 65.9093V73.5851H198.24L198.271 63.5631C198.271 61.877 198.23 60.3418 198.149 58.9576H200.98L201.099 61.7566H201.189C201.532 60.7946 202.073 60.0202 202.814 59.4393C203.538 58.9164 204.32 58.6558 205.163 58.6558C205.463 58.6558 205.735 58.6771 205.976 58.7152V61.8145Z" fill="#414B54"/>
<path d="M220.512 65.5786C220.512 66.1609 220.473 66.6518 220.393 67.0527H210.642C210.68 68.498 211.151 69.6032 212.057 70.3655C212.878 71.0469 213.941 71.3884 215.246 71.3884C216.69 71.3884 218.007 71.1582 219.191 70.6963L219.701 72.9525C218.316 73.5562 216.682 73.8565 214.796 73.8565C212.528 73.8565 210.747 73.1888 209.451 71.8549C208.159 70.521 207.511 68.7297 207.511 66.4826C207.511 64.2767 208.113 62.4396 209.319 60.9746C210.581 59.4105 212.287 58.6284 214.433 58.6284C216.542 58.6284 218.138 59.4105 219.222 60.9746C220.08 62.2171 220.512 63.7538 220.512 65.5786ZM217.412 64.7355C217.434 63.772 217.222 62.9397 216.781 62.2369C216.219 61.3329 215.354 60.8816 214.191 60.8816C213.128 60.8816 212.264 61.3222 211.604 62.2064C211.063 62.9092 210.741 63.7522 210.642 64.734H217.412V64.7355Z" fill="#414B54"/>
</g>
<defs>
<filter id="filter0_bdd" x="0.835938" y="0" width="272" height="120" filterUnits="userSpaceOnUse" color-interpolation-filters="sRGB">
<feFlood flood-opacity="0" result="BackgroundImageFix"/>
<feGaussianBlur in="BackgroundImage" stdDeviation="5.5"/>
<feComposite in2="SourceAlpha" operator="in" result="effect1_backgroundBlur"/>
<feColorMatrix in="SourceAlpha" type="matrix" values="0 0 0 0 0 0 0 0 0 0 0 0 0 0 0 0 0 0 127 0"/>
<feMorphology radius="4" operator="erode" in="SourceAlpha" result="effect2_dropShadow"/>
<feOffset dy="-5"/>
<feGaussianBlur stdDeviation="12"/>
<feColorMatrix type="matrix" values="0 0 0 0 0.0941176 0 0 0 0 0.152941 0 0 0 0 0.294118 0 0 0 0.08 0"/>
<feBlend mode="normal" in2="effect1_backgroundBlur" result="effect2_dropShadow"/>
<feColorMatrix in="SourceAlpha" type="matrix" values="0 0 0 0 0 0 0 0 0 0 0 0 0 0 0 0 0 0 127 0"/>
<feMorphology radius="6" operator="erode" in="SourceAlpha" result="effect3_dropShadow"/>
<feOffset dy="6"/>
<feGaussianBlur stdDeviation="6"/>
<feColorMatrix type="matrix" values="0 0 0 0 0.0941176 0 0 0 0 0.152941 0 0 0 0 0.294118 0 0 0 0.12 0"/>
<feBlend mode="normal" in2="effect2_dropShadow" result="effect3_dropShadow"/>
<feBlend mode="normal" in="SourceGraphic" in2="effect3_dropShadow" result="shape"/>
</filter>
</defs>
</svg>
