<svg width="287" height="135" viewBox="0 0 287 135" fill="none" xmlns="http://www.w3.org/2000/svg">
<g filter="url(#filter0_bdd)">
<rect x="20.5" y="25.5" width="246" height="94" rx="20" fill="white" fill-opacity="0.8"/>
<g clip-path="url(#clip0)">
<path d="M243.5 41.78C245.282 41.78 246.992 42.488 248.252 43.7482C249.512 45.0085 250.22 46.7177 250.22 48.5V96.5C250.22 98.2823 249.512 99.9915 248.252 101.252C246.992 102.512 245.282 103.22 243.5 103.22H43.5C41.7177 103.22 40.0085 102.512 38.7482 101.252C37.488 99.9915 36.78 98.2823 36.78 96.5V48.5C36.78 46.7177 37.488 45.0085 38.7482 43.7482C40.0085 42.488 41.7177 41.78 43.5 41.78H243.5ZM243.5 40.5H43.5C41.3783 40.5 39.3434 41.3429 37.8431 42.8431C36.3429 44.3434 35.5 46.3783 35.5 48.5V96.5C35.5 98.6217 36.3429 100.657 37.8431 102.157C39.3434 103.657 41.3783 104.5 43.5 104.5H243.5C245.622 104.5 247.657 103.657 249.157 102.157C250.657 100.657 251.5 98.6217 251.5 96.5V48.5C251.5 46.3783 250.657 44.3434 249.157 42.8431C247.657 41.3429 245.622 40.5 243.5 40.5Z" fill="#D2D8DC"/>
<path d="M86.8809 71.4008C86.8366 66.4874 90.904 64.097 91.09 63.9857C88.7865 60.6272 85.2161 60.1684 83.9615 60.1318C80.9628 59.8162 78.0541 61.9261 76.5265 61.9261C74.9685 61.9261 72.6162 60.1623 70.081 60.2141C66.8186 60.2644 63.7665 62.1533 62.0926 65.0864C58.6382 71.0669 61.2145 79.8556 64.5242 84.6898C66.1798 87.0573 68.1144 89.7008 70.6466 89.6078C73.1239 89.5057 74.0492 88.0284 77.0387 88.0284C80.0008 88.0284 80.8698 89.6078 83.4523 89.5483C86.111 89.5057 87.7849 87.1701 89.3825 84.7813C91.2958 82.0677 92.0641 79.3952 92.0946 79.258C92.0321 79.2367 86.9312 77.2899 86.8809 71.4008Z" fill="#414B54"/>
<path d="M82.0023 56.9514C83.3347 55.2851 84.2463 53.0182 83.9932 50.7178C82.0648 50.8031 79.653 52.0517 78.2642 53.6814C77.0355 55.1175 75.9378 57.4713 76.2214 59.6848C78.3877 59.8464 80.6119 58.5918 82.0023 56.9514Z" fill="#414B54"/>
<path d="M122.732 81.0853H119.27L117.374 75.126H110.782L108.975 81.0853H105.604L112.135 60.7974H116.169L122.732 81.0853ZM116.802 72.6259L115.087 67.3283C114.905 66.7871 114.565 65.5126 114.064 63.5064H114.003C113.803 64.3692 113.482 65.6437 113.039 67.3283L111.355 72.6259H116.802Z" fill="#414B54"/>
<path d="M139.527 73.5907C139.527 76.0787 138.855 78.0453 137.51 79.489C136.306 80.7741 134.81 81.4159 133.025 81.4159C131.098 81.4159 129.714 80.7238 128.871 79.3396H128.81V87.0459H125.56V71.2719C125.56 69.7078 125.519 68.1025 125.439 66.4561H128.298L128.479 68.7748H128.54C129.624 67.0278 131.269 66.1558 133.477 66.1558C135.202 66.1558 136.643 66.8372 137.795 68.2016C138.951 69.5676 139.527 71.3634 139.527 73.5907ZM136.216 73.7096C136.216 72.2857 135.896 71.1119 135.253 70.188C134.55 69.2246 133.606 68.7428 132.423 68.7428C131.621 68.7428 130.893 69.0111 130.242 69.5401C129.589 70.0737 129.162 70.7704 128.963 71.6333C128.862 72.0357 128.812 72.365 128.812 72.6242V75.0634C128.812 76.1275 129.138 77.0254 129.79 77.7587C130.443 78.4919 131.29 78.8578 132.333 78.8578C133.557 78.8578 134.51 78.3852 135.192 77.4431C135.875 76.4994 136.216 75.2554 136.216 73.7096Z" fill="#414B54"/>
<path d="M156.353 73.5907C156.353 76.0787 155.681 78.0453 154.335 79.489C153.132 80.7741 151.637 81.4159 149.851 81.4159C147.924 81.4159 146.54 80.7238 145.699 79.3396H145.638V87.0459H142.388V71.2719C142.388 69.7078 142.346 68.1025 142.267 66.4561H145.126L145.307 68.7748H145.368C146.45 67.0278 148.095 66.1558 150.304 66.1558C152.028 66.1558 153.469 66.8372 154.625 68.2016C155.776 69.5676 156.353 71.3634 156.353 73.5907ZM153.042 73.7096C153.042 72.2857 152.721 71.1119 152.077 70.188C151.374 69.2246 150.434 68.7428 149.249 68.7428C148.446 68.7428 147.719 69.0111 147.066 69.5401C146.414 70.0737 145.988 70.7704 145.789 71.6333C145.69 72.0357 145.638 72.365 145.638 72.6242V75.0634C145.638 76.1275 145.964 77.0254 146.613 77.7587C147.266 78.4904 148.114 78.8578 149.159 78.8578C150.383 78.8578 151.336 78.3852 152.018 77.4431C152.701 76.4994 153.042 75.2554 153.042 73.7096Z" fill="#414B54"/>
<path d="M175.165 75.3958C175.165 77.1215 174.566 78.5256 173.363 79.6095C172.042 80.794 170.202 81.3855 167.837 81.3855C165.654 81.3855 163.904 80.9648 162.579 80.1217L163.332 77.4127C164.759 78.2756 166.325 78.7085 168.031 78.7085C169.255 78.7085 170.208 78.431 170.892 77.8792C171.574 77.3273 171.914 76.5864 171.914 75.6626C171.914 74.8394 171.633 74.1457 171.071 73.5832C170.511 73.0206 169.577 72.4977 168.272 72.0145C164.719 70.6897 162.945 68.749 162.945 66.197C162.945 64.5292 163.567 63.1618 164.812 62.0977C166.053 61.032 167.709 60.5 169.779 60.5C171.625 60.5 173.159 60.8217 174.383 61.4635L173.571 64.113C172.427 63.4911 171.135 63.1801 169.688 63.1801C168.544 63.1801 167.651 63.4621 167.011 64.0231C166.47 64.5247 166.198 65.136 166.198 65.8601C166.198 66.662 166.508 67.3251 167.13 67.8465C167.671 68.3283 168.654 68.8496 170.081 69.4122C171.827 70.115 173.109 70.9367 173.934 71.8788C174.755 72.8179 175.165 73.9933 175.165 75.3958Z" fill="#414B54"/>
<path d="M185.912 68.8953H182.329V75.9979C182.329 77.8044 182.96 78.7069 184.225 78.7069C184.806 78.7069 185.288 78.6566 185.669 78.556L185.759 81.0241C185.119 81.2635 184.276 81.3839 183.232 81.3839C181.948 81.3839 180.945 80.9921 180.221 80.21C179.5 79.4265 179.137 78.1123 179.137 76.2662V68.8922H177.002V66.453H179.137V63.7745L182.329 62.811V66.453H185.912V68.8953Z" fill="#414B54"/>
<path d="M202.076 73.6506C202.076 75.8992 201.432 77.7454 200.149 79.1891C198.803 80.6754 197.016 81.4163 194.789 81.4163C192.642 81.4163 190.933 80.7044 189.659 79.2805C188.384 77.8567 187.747 76.0593 187.747 73.893C187.747 71.6261 188.403 69.7692 189.718 68.3255C191.031 66.8803 192.802 66.1577 195.03 66.1577C197.176 66.1577 198.903 66.8697 200.207 68.2951C201.454 69.6778 202.076 71.4629 202.076 73.6506ZM198.704 73.7558C198.704 72.4066 198.415 71.2495 197.832 70.2845C197.15 69.1168 196.176 68.5344 194.914 68.5344C193.607 68.5344 192.615 69.1183 191.933 70.2845C191.349 71.251 191.061 72.4264 191.061 73.8168C191.061 75.1659 191.349 76.323 191.933 77.2865C192.636 78.4543 193.618 79.0366 194.885 79.0366C196.126 79.0366 197.1 78.4421 197.803 77.256C198.402 76.2727 198.704 75.1034 198.704 73.7558Z" fill="#414B54"/>
<path d="M212.64 69.3145C212.319 69.2551 211.976 69.2246 211.616 69.2246C210.472 69.2246 209.588 69.656 208.966 70.5204C208.425 71.2826 208.154 72.2461 208.154 73.4093V81.0851H204.905L204.935 71.0631C204.935 69.377 204.894 67.8418 204.813 66.4576H207.644L207.763 69.2566H207.853C208.196 68.2946 208.738 67.5202 209.478 66.9393C210.203 66.4164 210.985 66.1558 211.828 66.1558C212.128 66.1558 212.399 66.1771 212.64 66.2152V69.3145Z" fill="#414B54"/>
<path d="M227.176 73.0786C227.176 73.6609 227.138 74.1518 227.057 74.5527H217.307C217.345 75.998 217.816 77.1032 218.721 77.8655C219.543 78.5469 220.606 78.8884 221.911 78.8884C223.354 78.8884 224.671 78.6582 225.856 78.1963L226.365 80.4525C224.981 81.0562 223.347 81.3565 221.461 81.3565C219.192 81.3565 217.412 80.6888 216.116 79.3549C214.823 78.021 214.175 76.2297 214.175 73.9826C214.175 71.7767 214.777 69.9396 215.983 68.4746C217.246 66.9105 218.952 66.1284 221.098 66.1284C223.206 66.1284 224.803 66.9105 225.886 68.4746C226.745 69.7171 227.176 71.2538 227.176 73.0786ZM224.077 72.2355C224.098 71.272 223.886 70.4397 223.446 69.7369C222.883 68.8329 222.019 68.3816 220.856 68.3816C219.793 68.3816 218.929 68.8222 218.269 69.7064C217.727 70.4092 217.406 71.2522 217.307 72.234H224.077V72.2355Z" fill="#414B54"/>
</g>
</g>
<defs>
<filter id="filter0_bdd" x="0.5" y="0.5" width="286" height="134" filterUnits="userSpaceOnUse" color-interpolation-filters="sRGB">
<feFlood flood-opacity="0" result="BackgroundImageFix"/>
<feGaussianBlur in="BackgroundImage" stdDeviation="5.5"/>
<feComposite in2="SourceAlpha" operator="in" result="effect1_backgroundBlur"/>
<feColorMatrix in="SourceAlpha" type="matrix" values="0 0 0 0 0 0 0 0 0 0 0 0 0 0 0 0 0 0 127 0"/>
<feMorphology radius="4" operator="erode" in="SourceAlpha" result="effect2_dropShadow"/>
<feOffset dy="-5"/>
<feGaussianBlur stdDeviation="12"/>
<feColorMatrix type="matrix" values="0 0 0 0 0.0941176 0 0 0 0 0.152941 0 0 0 0 0.294118 0 0 0 0.08 0"/>
<feBlend mode="normal" in2="effect1_backgroundBlur" result="effect2_dropShadow"/>
<feColorMatrix in="SourceAlpha" type="matrix" values="0 0 0 0 0 0 0 0 0 0 0 0 0 0 0 0 0 0 127 0"/>
<feMorphology radius="6" operator="erode" in="SourceAlpha" result="effect3_dropShadow"/>
<feOffset dy="6"/>
<feGaussianBlur stdDeviation="6"/>
<feColorMatrix type="matrix" values="0 0 0 0 0.0941176 0 0 0 0 0.152941 0 0 0 0 0.294118 0 0 0 0.12 0"/>
<feBlend mode="normal" in2="effect2_dropShadow" result="effect3_dropShadow"/>
<feBlend mode="normal" in="SourceGraphic" in2="effect3_dropShadow" result="shape"/>
</filter>
<clipPath id="clip0">
<rect width="216" height="64" fill="white" transform="translate(35.5 40.5)"/>
</clipPath>
</defs>
</svg>
