<svg width="287" height="135" viewBox="0 0 287 135" fill="none" xmlns="http://www.w3.org/2000/svg">
<g filter="url(#filter0_bdd)">
<rect x="20.5" y="25.5" width="246" height="94" rx="20" fill="white" fill-opacity="0.8"/>
<g clip-path="url(#clip0)">
<path d="M243.5 41.78C245.282 41.78 246.992 42.488 248.252 43.7482C249.512 45.0085 250.22 46.7177 250.22 48.5V96.5C250.22 98.2823 249.512 99.9915 248.252 101.252C246.992 102.512 245.282 103.22 243.5 103.22H43.5C41.7177 103.22 40.0085 102.512 38.7482 101.252C37.488 99.9915 36.78 98.2823 36.78 96.5V48.5C36.78 46.7177 37.488 45.0085 38.7482 43.7482C40.0085 42.488 41.7177 41.78 43.5 41.78H243.5ZM243.5 40.5H43.5C41.3783 40.5 39.3434 41.3429 37.8431 42.8431C36.3429 44.3434 35.5 46.3783 35.5 48.5V96.5C35.5 98.6217 36.3429 100.657 37.8431 102.157C39.3434 103.657 41.3783 104.5 43.5 104.5H243.5C245.622 104.5 247.657 103.657 249.157 102.157C250.657 100.657 251.5 98.6217 251.5 96.5V48.5C251.5 46.3783 250.657 44.3434 249.157 42.8431C247.657 41.3429 245.622 40.5 243.5 40.5Z" fill="#D2D8DC"/>
<path d="M144.524 68.108C143.181 68.1143 141.869 68.5185 140.755 69.2695C139.641 70.0206 138.775 71.0848 138.265 72.3279C137.755 73.5709 137.625 74.9372 137.891 76.2541C138.157 77.5711 138.807 78.7797 139.759 79.7275C140.711 80.6753 141.923 81.3198 143.241 81.5796C144.56 81.8394 145.925 81.7029 147.166 81.1873C148.407 80.6717 149.467 79.8001 150.212 78.6825C150.958 77.565 151.356 76.2515 151.356 74.908C151.369 74.0087 151.201 73.116 150.862 72.283C150.523 71.4499 150.02 70.6937 149.382 70.0592C148.745 69.4247 147.986 68.925 147.152 68.5898C146.317 68.2546 145.423 68.0907 144.524 68.108ZM144.524 79.036C143.698 79.0938 142.873 78.9017 142.158 78.4846C141.442 78.0676 140.869 77.4449 140.511 76.6975C140.154 75.9501 140.03 75.1126 140.156 74.2938C140.281 73.4751 140.65 72.7129 141.214 72.1065C141.778 71.5 142.512 71.0773 143.319 70.8932C144.127 70.7092 144.971 70.7724 145.742 71.0745C146.513 71.3767 147.176 71.9039 147.643 72.5875C148.111 73.2712 148.362 74.0797 148.364 74.908C148.39 75.4328 148.31 75.9575 148.13 76.4511C147.95 76.9447 147.673 77.3972 147.315 77.7819C146.957 78.1666 146.526 78.4758 146.046 78.6912C145.567 78.9066 145.05 79.0238 144.524 79.036ZM129.628 68.108C128.284 68.1112 126.971 68.5127 125.855 69.2618C124.739 70.0109 123.87 71.074 123.357 72.3168C122.845 73.5596 122.713 74.9264 122.977 76.2444C123.241 77.5624 123.89 78.7726 124.842 79.722C125.793 80.6714 127.005 81.3174 128.324 81.5785C129.642 81.8396 131.009 81.704 132.25 81.1888C133.492 80.6737 134.553 79.8021 135.299 78.6842C136.046 77.5663 136.444 76.2522 136.444 74.908C136.457 74.0087 136.289 73.116 135.95 72.283C135.611 71.4499 135.108 70.6937 134.47 70.0592C133.833 69.4247 133.074 68.925 132.24 68.5898C131.405 68.2546 130.511 68.0907 129.612 68.108H129.628ZM129.628 79.036C128.802 79.097 127.976 78.9078 127.258 78.4929C126.54 78.078 125.964 77.4566 125.605 76.7098C125.245 75.9629 125.119 75.125 125.242 74.3053C125.365 73.4856 125.733 72.722 126.296 72.1139C126.859 71.5058 127.593 71.0814 128.401 70.8959C129.208 70.7104 130.053 70.7724 130.826 71.0739C131.598 71.3754 132.261 71.9024 132.73 72.5862C133.198 73.27 133.45 74.0791 133.452 74.908C133.478 75.4328 133.398 75.9575 133.218 76.4511C133.038 76.9447 132.761 77.3972 132.403 77.7819C132.045 78.1666 131.614 78.4758 131.134 78.6912C130.655 78.9066 130.138 79.0238 129.612 79.036H129.628ZM111.884 70.204V73.084H118.796C118.688 74.4405 118.124 75.7205 117.196 76.716C116.505 77.4204 115.673 77.9722 114.756 78.3359C113.838 78.6997 112.855 78.8673 111.868 78.828C109.831 78.828 107.878 78.0189 106.438 76.5786C104.997 75.1383 104.188 73.1849 104.188 71.148C104.188 69.1111 104.997 67.1577 106.438 65.7174C107.878 64.2771 109.831 63.468 111.868 63.468C113.817 63.4362 115.698 64.1785 117.1 65.532L119.132 63.5C118.186 62.5416 117.057 61.783 115.812 61.2691C114.567 60.7551 113.231 60.4963 111.884 60.508C110.462 60.4526 109.043 60.685 107.712 61.1912C106.382 61.6973 105.167 62.4668 104.141 63.4536C103.116 64.4404 102.299 65.6241 101.742 66.9339C101.184 68.2437 100.897 69.6525 100.897 71.076C100.897 72.4995 101.184 73.9083 101.742 75.2181C102.299 76.5279 103.116 77.7116 104.141 78.6984C105.167 79.6852 106.382 80.4547 107.712 80.9609C109.043 81.467 110.462 81.6994 111.884 81.644C113.254 81.7059 114.621 81.4737 115.893 80.9632C117.165 80.4526 118.313 79.6754 119.26 78.684C120.937 76.8423 121.832 74.4212 121.756 71.932C121.761 71.3256 121.708 70.7201 121.596 70.124L111.884 70.204ZM184.38 72.444C183.963 71.2164 183.183 70.1445 182.143 69.3702C181.103 68.5959 179.852 68.1557 178.556 68.108C177.681 68.1063 176.815 68.2841 176.011 68.6305C175.207 68.9768 174.483 69.4843 173.883 70.1217C173.283 70.759 172.821 71.5126 172.524 72.3358C172.227 73.1591 172.102 74.0345 172.156 74.908C172.137 75.8023 172.298 76.6913 172.63 77.5219C172.961 78.3526 173.457 79.1078 174.088 79.7425C174.718 80.3772 175.47 80.8784 176.298 81.2161C177.126 81.5538 178.014 81.7211 178.908 81.708C180.027 81.714 181.131 81.4424 182.119 80.9175C183.108 80.3925 183.95 79.6306 184.572 78.7L182.252 77.1C181.906 77.6773 181.416 78.1547 180.83 78.4857C180.243 78.8166 179.581 78.9897 178.908 78.988C178.215 79.0144 177.53 78.8317 176.942 78.4636C176.355 78.0955 175.891 77.559 175.612 76.924L184.716 73.164L184.38 72.444ZM175.1 74.716C175.068 74.2211 175.134 73.7247 175.296 73.2559C175.458 72.7871 175.712 72.3553 176.043 71.9857C176.373 71.6162 176.775 71.3164 177.223 71.1039C177.671 70.8913 178.157 70.7704 178.652 70.748C179.168 70.714 179.683 70.8323 180.133 71.0883C180.582 71.3443 180.946 71.7267 181.18 72.188L175.1 74.716ZM167.708 81.308H170.7V61.308H167.708V81.308ZM162.812 69.628H162.7C162.249 69.1238 161.697 68.7207 161.079 68.4449C160.462 68.1692 159.793 68.0271 159.116 68.028C157.368 68.1128 155.719 68.8671 154.511 70.1345C153.304 71.402 152.63 73.0854 152.63 74.836C152.63 76.5866 153.304 78.27 154.511 79.5375C155.719 80.8049 157.368 81.5592 159.116 81.644C159.794 81.6554 160.467 81.5181 161.086 81.2416C161.705 80.9652 162.256 80.5564 162.7 80.044H162.796V81.02C162.796 83.628 161.404 85.02 159.164 85.02C158.418 85.0025 157.694 84.7635 157.084 84.3332C156.475 83.903 156.007 83.301 155.74 82.604L153.132 83.692C153.623 84.8862 154.46 85.9065 155.534 86.622C156.609 87.3375 157.873 87.7157 159.164 87.708C162.668 87.708 165.564 85.644 165.564 80.62V68.508H162.812V69.628ZM159.388 79.036C158.356 78.945 157.396 78.4708 156.696 77.7067C155.996 76.9426 155.608 75.9441 155.608 74.908C155.608 73.8719 155.996 72.8734 156.696 72.1093C157.396 71.3452 158.356 70.871 159.388 70.78C159.9 70.8063 160.401 70.9347 160.863 71.1577C161.324 71.3806 161.736 71.6937 162.074 72.0784C162.413 72.4631 162.671 72.9116 162.833 73.3976C162.996 73.8835 163.059 74.3971 163.02 74.908C163.064 75.4211 163.003 75.9377 162.841 76.4266C162.68 76.9156 162.42 77.3666 162.079 77.7525C161.738 78.1383 161.323 78.451 160.857 78.6717C160.392 78.8923 159.887 79.0162 159.372 79.036H159.388ZM198.396 61.308H191.244V81.308H194.236V73.724H198.412C199.265 73.7853 200.121 73.6702 200.927 73.386C201.734 73.1017 202.473 72.6545 203.099 72.072C203.724 71.4895 204.224 70.7844 204.565 70.0005C204.906 69.2167 205.082 68.3709 205.082 67.516C205.082 66.6611 204.906 65.8153 204.565 65.0315C204.224 64.2476 203.724 63.5425 203.099 62.96C202.473 62.3776 201.734 61.9303 200.927 61.646C200.121 61.3618 199.265 61.2467 198.412 61.308H198.396ZM198.396 70.908H194.22V64.092H198.46C199.37 64.092 200.243 64.4536 200.887 65.0972C201.531 65.7408 201.892 66.6138 201.892 67.524C201.892 68.4342 201.531 69.3072 200.887 69.9508C200.243 70.5944 199.37 70.956 198.46 70.956L198.396 70.908ZM216.844 68.028C215.755 67.9629 214.67 68.2174 213.724 68.7604C212.777 69.3033 212.01 70.1109 211.516 71.084L214.172 72.188C214.434 71.7054 214.831 71.3093 215.314 71.0479C215.797 70.7866 216.345 70.6713 216.892 70.716C217.272 70.6716 217.657 70.7034 218.024 70.8093C218.392 70.9153 218.734 71.0933 219.032 71.3331C219.33 71.5729 219.577 71.8696 219.759 72.206C219.941 72.5423 220.054 72.9115 220.092 73.292V73.5C219.131 72.9912 218.06 72.7274 216.972 72.732C214.108 72.732 211.212 74.332 211.212 77.228C211.241 77.8455 211.392 78.4511 211.659 79.0089C211.925 79.5667 212.3 80.0655 212.763 80.4757C213.225 80.8859 213.765 81.1992 214.351 81.3971C214.936 81.5951 215.556 81.6736 216.172 81.628C216.926 81.6821 217.68 81.5324 218.356 81.1946C219.031 80.8567 219.603 80.3432 220.012 79.708H220.108V81.308H222.988V73.612C222.988 70.108 220.332 68.076 216.924 68.076L216.844 68.028ZM216.476 78.988C215.5 78.988 214.14 78.492 214.14 77.292C214.14 75.692 215.836 75.164 217.34 75.164C218.291 75.1405 219.23 75.3726 220.06 75.836C219.96 76.7022 219.551 77.5031 218.907 78.0912C218.263 78.6792 217.428 79.0148 216.556 79.036L216.476 78.988ZM233.484 68.508L230.06 77.18H229.964L226.412 68.508H223.212L228.54 80.636L225.5 87.372H228.62L236.812 68.508H233.484ZM206.588 81.308H209.58V61.308H206.588V81.308Z" fill="#414B54"/>
<path d="M52.252 52.5642C51.7305 53.1899 51.4673 53.991 51.516 54.8042V90.1961C51.4673 91.0093 51.7305 91.8104 52.252 92.4361L52.364 92.5481L72.188 72.7401V72.2761L52.364 52.4521L52.252 52.5642Z" fill="url(#paint0_linear)"/>
<path d="M78.748 79.3483L72.188 72.7403V72.2763L78.748 65.6523L78.892 65.7323L86.748 70.1963C88.988 71.4603 88.988 73.5403 86.748 74.8203L78.924 79.2683L78.748 79.3483Z" fill="url(#paint1_linear)"/>
<path d="M78.9399 79.2525L72.188 72.5005L52.252 92.4365C52.7085 92.8379 53.291 93.0671 53.8986 93.0846C54.5063 93.1022 55.101 92.9069 55.58 92.5325L78.956 79.2525" fill="url(#paint2_linear)"/>
<path d="M78.9398 65.7483L55.5638 52.4683C55.0849 52.0939 54.4902 51.8986 53.8825 51.9161C53.2749 51.9337 52.6924 52.1629 52.2358 52.5643L72.1878 72.5003L78.9398 65.7483Z" fill="url(#paint3_linear)"/>
<path opacity="0.2" d="M78.748 79.1084L55.564 92.3084C55.102 92.6538 54.5407 92.8404 53.964 92.8404C53.3872 92.8404 52.8259 92.6538 52.364 92.3084L52.252 92.4204L52.364 92.5324C52.8248 92.8802 53.3865 93.0684 53.964 93.0684C54.5414 93.0684 55.1031 92.8802 55.564 92.5324L78.94 79.2524L78.748 79.1084Z" fill="#414B54"/>
<path opacity="0.12" d="M52.252 92.2125C51.7305 91.5867 51.4673 90.7856 51.516 89.9725V90.2125C51.4673 91.0256 51.7305 91.8267 52.252 92.4525L52.364 92.3405L52.252 92.2125ZM86.748 74.5805L78.748 79.1085L78.892 79.2525L86.748 74.8045C87.1938 74.5951 87.5764 74.2718 87.8573 73.8673C88.1382 73.4628 88.3075 72.9913 88.348 72.5005C88.258 72.9464 88.067 73.3658 87.7896 73.7264C87.5123 74.0869 87.1559 74.3791 86.748 74.5805Z" fill="#414B54"/>
<path opacity="0.25" d="M55.564 52.6919L86.748 70.4199C87.1559 70.6213 87.5123 70.9134 87.7896 71.274C88.067 71.6346 88.258 72.054 88.348 72.4999C88.3075 72.0091 88.1382 71.5376 87.8573 71.1331C87.5764 70.7286 87.1938 70.4053 86.748 70.1959L55.564 52.4679C53.324 51.2039 51.5 52.2599 51.5 54.8199V55.0599C51.548 52.4839 53.34 51.4279 55.564 52.6919Z" fill="white"/>
</g>
</g>
<defs>
<filter id="filter0_bdd" x="0.5" y="0.5" width="286" height="134" filterUnits="userSpaceOnUse" color-interpolation-filters="sRGB">
<feFlood flood-opacity="0" result="BackgroundImageFix"/>
<feGaussianBlur in="BackgroundImage" stdDeviation="5.5"/>
<feComposite in2="SourceAlpha" operator="in" result="effect1_backgroundBlur"/>
<feColorMatrix in="SourceAlpha" type="matrix" values="0 0 0 0 0 0 0 0 0 0 0 0 0 0 0 0 0 0 127 0"/>
<feMorphology radius="4" operator="erode" in="SourceAlpha" result="effect2_dropShadow"/>
<feOffset dy="-5"/>
<feGaussianBlur stdDeviation="12"/>
<feColorMatrix type="matrix" values="0 0 0 0 0.0941176 0 0 0 0 0.152941 0 0 0 0 0.294118 0 0 0 0.08 0"/>
<feBlend mode="normal" in2="effect1_backgroundBlur" result="effect2_dropShadow"/>
<feColorMatrix in="SourceAlpha" type="matrix" values="0 0 0 0 0 0 0 0 0 0 0 0 0 0 0 0 0 0 127 0"/>
<feMorphology radius="6" operator="erode" in="SourceAlpha" result="effect3_dropShadow"/>
<feOffset dy="6"/>
<feGaussianBlur stdDeviation="6"/>
<feColorMatrix type="matrix" values="0 0 0 0 0.0941176 0 0 0 0 0.152941 0 0 0 0 0.294118 0 0 0 0.12 0"/>
<feBlend mode="normal" in2="effect2_dropShadow" result="effect3_dropShadow"/>
<feBlend mode="normal" in="SourceGraphic" in2="effect3_dropShadow" result="shape"/>
</filter>
<linearGradient id="paint0_linear" x1="70.428" y1="54.4361" x2="43.58" y2="81.2841" gradientUnits="userSpaceOnUse">
<stop stop-color="#00A0FF"/>
<stop offset="0.01" stop-color="#00A1FF"/>
<stop offset="0.26" stop-color="#00BEFF"/>
<stop offset="0.51" stop-color="#00D2FF"/>
<stop offset="0.76" stop-color="#00DFFF"/>
<stop offset="1" stop-color="#00E3FF"/>
</linearGradient>
<linearGradient id="paint1_linear" x1="89.676" y1="72.5003" x2="50.972" y2="72.5003" gradientUnits="userSpaceOnUse">
<stop stop-color="#FFE000"/>
<stop offset="0.41" stop-color="#FFBD00"/>
<stop offset="0.78" stop-color="#FFA500"/>
<stop offset="1" stop-color="#FF9C00"/>
</linearGradient>
<linearGradient id="paint2_linear" x1="75.276" y1="76.1805" x2="38.86" y2="112.58" gradientUnits="userSpaceOnUse">
<stop stop-color="#FF3A44"/>
<stop offset="1" stop-color="#C31162"/>
</linearGradient>
<linearGradient id="paint3_linear" x1="47.2278" y1="40.7883" x2="63.4838" y2="57.0443" gradientUnits="userSpaceOnUse">
<stop stop-color="#32A071"/>
<stop offset="0.07" stop-color="#2DA771"/>
<stop offset="0.48" stop-color="#15CF74"/>
<stop offset="0.8" stop-color="#06E775"/>
<stop offset="1" stop-color="#00F076"/>
</linearGradient>
<clipPath id="clip0">
<rect width="216" height="64" fill="white" transform="translate(35.5 40.5)"/>
</clipPath>
</defs>
</svg>
