<svg width="273" height="120" viewBox="0 0 273 120" fill="none" xmlns="http://www.w3.org/2000/svg">
<g filter="url(#filter0_bdd)">
<rect x="20.8359" y="25" width="232" height="80" rx="20" fill="white" fill-opacity="0.8"/>
<path d="M137.86 60.608C136.517 60.6143 135.205 61.0185 134.091 61.7695C132.977 62.5206 132.11 63.5848 131.601 64.8279C131.091 66.0709 130.961 67.4372 131.227 68.7541C131.493 70.0711 132.143 71.2797 133.095 72.2275C134.047 73.1753 135.259 73.8198 136.577 74.0796C137.896 74.3394 139.261 74.2029 140.502 73.6873C141.742 73.1717 142.803 72.3001 143.548 71.1825C144.294 70.065 144.692 68.7515 144.692 67.408C144.705 66.5087 144.537 65.616 144.198 64.783C143.859 63.9499 143.356 63.1937 142.718 62.5592C142.081 61.9247 141.322 61.425 140.488 61.0898C139.653 60.7546 138.759 60.5907 137.86 60.608ZM137.86 71.536C137.034 71.5938 136.209 71.4017 135.494 70.9846C134.778 70.5676 134.204 69.9449 133.847 69.1975C133.49 68.4501 133.366 67.6126 133.492 66.7938C133.617 65.9751 133.986 65.2129 134.55 64.6065C135.114 64 135.847 63.5773 136.655 63.3932C137.463 63.2092 138.307 63.2724 139.078 63.5745C139.849 63.8767 140.512 64.4039 140.979 65.0875C141.447 65.7712 141.698 66.5797 141.7 67.408C141.726 67.9328 141.646 68.4575 141.466 68.9511C141.286 69.4447 141.009 69.8972 140.651 70.2819C140.293 70.6666 139.862 70.9758 139.382 71.1912C138.903 71.4066 138.386 71.5238 137.86 71.536ZM122.964 60.608C121.62 60.6112 120.307 61.0127 119.191 61.7618C118.075 62.5109 117.205 63.574 116.693 64.8168C116.181 66.0596 116.049 67.4264 116.313 68.7444C116.577 70.0624 117.226 71.2726 118.178 72.222C119.129 73.1714 120.341 73.8174 121.659 74.0785C122.978 74.3396 124.345 74.204 125.586 73.6888C126.828 73.1737 127.889 72.3021 128.635 71.1842C129.382 70.0663 129.78 68.7522 129.78 67.408C129.793 66.5087 129.625 65.616 129.286 64.783C128.947 63.9499 128.444 63.1937 127.806 62.5592C127.169 61.9247 126.41 61.425 125.576 61.0898C124.741 60.7546 123.847 60.5907 122.948 60.608H122.964ZM122.964 71.536C122.138 71.597 121.312 71.4078 120.594 70.9929C119.876 70.578 119.3 69.9566 118.941 69.2098C118.581 68.4629 118.455 67.625 118.578 66.8053C118.701 65.9856 119.069 65.222 119.632 64.6139C120.195 64.0058 120.929 63.5814 121.736 63.3959C122.544 63.2104 123.389 63.2724 124.162 63.5739C124.934 63.8754 125.597 64.4024 126.066 65.0862C126.534 65.77 126.786 66.5791 126.788 67.408C126.814 67.9328 126.734 68.4575 126.554 68.9511C126.374 69.4447 126.097 69.8972 125.739 70.2819C125.381 70.6666 124.95 70.9758 124.47 71.1912C123.991 71.4066 123.474 71.5238 122.948 71.536H122.964ZM105.22 62.704V65.584H112.132C112.024 66.9405 111.46 68.2205 110.532 69.216C109.841 69.9204 109.009 70.4722 108.092 70.8359C107.174 71.1997 106.191 71.3673 105.204 71.328C103.167 71.328 101.214 70.5189 99.7736 69.0786C98.3333 67.6383 97.5242 65.6849 97.5242 63.648C97.5242 61.6111 98.3333 59.6577 99.7736 58.2174C101.214 56.7771 103.167 55.968 105.204 55.968C107.153 55.9362 109.034 56.6785 110.436 58.032L112.468 56C111.522 55.0416 110.393 54.283 109.148 53.7691C107.903 53.2551 106.567 52.9963 105.22 53.008C103.798 52.9526 102.379 53.185 101.048 53.6912C99.7179 54.1973 98.5033 54.9668 97.4774 55.9536C96.4515 56.9404 95.6353 58.1241 95.0778 59.4339C94.5203 60.7437 94.2329 62.1525 94.2329 63.576C94.2329 64.9995 94.5203 66.4083 95.0778 67.7181C95.6353 69.0279 96.4515 70.2116 97.4774 71.1984C98.5033 72.1852 99.7179 72.9547 101.048 73.4609C102.379 73.967 103.798 74.1994 105.22 74.144C106.59 74.2059 107.957 73.9737 109.229 73.4632C110.501 72.9526 111.649 72.1754 112.596 71.184C114.272 69.3423 115.167 66.9212 115.092 64.432C115.097 63.8256 115.044 63.2201 114.932 62.624L105.22 62.704ZM177.716 64.944C177.299 63.7164 176.519 62.6445 175.479 61.8702C174.439 61.0959 173.188 60.6557 171.892 60.608C171.017 60.6063 170.151 60.7841 169.347 61.1305C168.543 61.4768 167.819 61.9843 167.219 62.6217C166.619 63.259 166.157 64.0126 165.86 64.8358C165.563 65.6591 165.438 66.5345 165.492 67.408C165.473 68.3023 165.634 69.1913 165.966 70.0219C166.297 70.8526 166.793 71.6078 167.423 72.2425C168.054 72.8772 168.805 73.3784 169.634 73.7161C170.462 74.0538 171.35 74.2211 172.244 74.208C173.363 74.214 174.467 73.9424 175.455 73.4175C176.444 72.8925 177.286 72.1306 177.908 71.2L175.588 69.6C175.242 70.1773 174.752 70.6547 174.166 70.9857C173.579 71.3166 172.917 71.4897 172.244 71.488C171.551 71.5144 170.866 71.3317 170.278 70.9636C169.691 70.5955 169.227 70.059 168.948 69.424L178.052 65.664L177.716 64.944ZM168.436 67.216C168.404 66.7211 168.47 66.2247 168.632 65.7559C168.794 65.2871 169.048 64.8553 169.379 64.4857C169.709 64.1162 170.111 63.8164 170.559 63.6039C171.007 63.3913 171.493 63.2704 171.988 63.248C172.504 63.214 173.019 63.3323 173.468 63.5883C173.918 63.8443 174.282 64.2267 174.516 64.688L168.436 67.216ZM161.044 73.808H164.036V53.808H161.044V73.808ZM156.148 62.128H156.036C155.585 61.6238 155.033 61.2207 154.415 60.9449C153.798 60.6692 153.129 60.5271 152.452 60.528C150.704 60.6128 149.055 61.3671 147.847 62.6345C146.64 63.902 145.966 65.5854 145.966 67.336C145.966 69.0866 146.64 70.77 147.847 72.0375C149.055 73.3049 150.704 74.0592 152.452 74.144C153.13 74.1554 153.803 74.0181 154.422 73.7416C155.041 73.4652 155.592 73.0564 156.036 72.544H156.132V73.52C156.132 76.128 154.74 77.52 152.5 77.52C151.754 77.5025 151.03 77.2635 150.42 76.8332C149.811 76.403 149.343 75.801 149.076 75.104L146.468 76.192C146.959 77.3862 147.796 78.4065 148.87 79.122C149.945 79.8375 151.209 80.2157 152.5 80.208C156.004 80.208 158.9 78.144 158.9 73.12V61.008H156.148V62.128ZM152.724 71.536C151.692 71.445 150.732 70.9708 150.032 70.2067C149.332 69.4426 148.944 68.4441 148.944 67.408C148.944 66.3719 149.332 65.3734 150.032 64.6093C150.732 63.8452 151.692 63.371 152.724 63.28C153.236 63.3063 153.737 63.4347 154.199 63.6577C154.66 63.8806 155.072 64.1937 155.41 64.5784C155.749 64.9631 156.007 65.4116 156.169 65.8976C156.332 66.3835 156.395 66.8971 156.356 67.408C156.4 67.9211 156.339 68.4377 156.177 68.9266C156.016 69.4156 155.756 69.8666 155.415 70.2525C155.074 70.6383 154.659 70.951 154.193 71.1717C153.728 71.3923 153.223 71.5162 152.708 71.536H152.724ZM191.732 53.808H184.58V73.808H187.572V66.224H191.748C192.601 66.2853 193.457 66.1702 194.263 65.886C195.07 65.6017 195.809 65.1545 196.435 64.572C197.06 63.9895 197.56 63.2844 197.901 62.5005C198.242 61.7167 198.418 60.8709 198.418 60.016C198.418 59.1611 198.242 58.3153 197.901 57.5315C197.56 56.7476 197.06 56.0425 196.435 55.46C195.809 54.8776 195.07 54.4303 194.263 54.146C193.457 53.8618 192.601 53.7467 191.748 53.808H191.732ZM191.732 63.408H187.556V56.592H191.796C192.706 56.592 193.579 56.9536 194.223 57.5972C194.867 58.2408 195.228 59.1138 195.228 60.024C195.228 60.9342 194.867 61.8072 194.223 62.4508C193.579 63.0944 192.706 63.456 191.796 63.456L191.732 63.408ZM210.18 60.528C209.091 60.4629 208.006 60.7174 207.06 61.2604C206.113 61.8033 205.346 62.6109 204.852 63.584L207.508 64.688C207.77 64.2054 208.167 63.8093 208.65 63.5479C209.132 63.2866 209.681 63.1713 210.228 63.216C210.608 63.1716 210.993 63.2034 211.36 63.3093C211.728 63.4153 212.07 63.5933 212.368 63.8331C212.666 64.0729 212.913 64.3696 213.095 64.706C213.277 65.0423 213.39 65.4115 213.428 65.792V66C212.467 65.4912 211.396 65.2274 210.308 65.232C207.444 65.232 204.548 66.832 204.548 69.728C204.576 70.3455 204.728 70.9511 204.995 71.5089C205.261 72.0667 205.636 72.5655 206.099 72.9757C206.561 73.3859 207.101 73.6992 207.687 73.8971C208.272 74.0951 208.892 74.1736 209.508 74.128C210.262 74.1821 211.016 74.0324 211.691 73.6946C212.367 73.3567 212.939 72.8432 213.348 72.208H213.444V73.808H216.324V66.112C216.324 62.608 213.668 60.576 210.26 60.576L210.18 60.528ZM209.812 71.488C208.836 71.488 207.476 70.992 207.476 69.792C207.476 68.192 209.172 67.664 210.676 67.664C211.627 67.6405 212.566 67.8726 213.396 68.336C213.296 69.2022 212.886 70.0031 212.243 70.5912C211.599 71.1792 210.764 71.5148 209.892 71.536L209.812 71.488ZM226.82 61.008L223.396 69.68H223.3L219.748 61.008H216.548L221.876 73.136L218.836 79.872H221.956L230.148 61.008H226.82ZM199.924 73.808H202.916V53.808H199.924V73.808Z" fill="#414B54"/>
<path d="M45.5879 45.0639C45.0664 45.6897 44.8032 46.4908 44.8519 47.3039V82.6959C44.8032 83.509 45.0664 84.3101 45.5879 84.9359L45.6999 85.0479L65.5239 65.2399V64.7759L45.6999 44.9519L45.5879 45.0639Z" fill="url(#paint0_linear)"/>
<path d="M72.0839 71.8481L65.5239 65.2401V64.7761L72.0839 58.1521L72.2279 58.2321L80.0839 62.6961C82.3239 63.9601 82.3239 66.0401 80.0839 67.3201L72.2599 71.7681L72.0839 71.8481Z" fill="url(#paint1_linear)"/>
<path d="M72.2759 71.752L65.5239 65L45.5879 84.936C46.0445 85.3374 46.6269 85.5666 47.2346 85.5842C47.8422 85.6017 48.4369 85.4064 48.9159 85.032L72.2919 71.752" fill="url(#paint2_linear)"/>
<path d="M72.276 58.248L48.9 44.968C48.4211 44.5937 47.8264 44.3984 47.2187 44.4159C46.611 44.4334 46.0286 44.6627 45.572 45.064L65.524 65L72.276 58.248Z" fill="url(#paint3_linear)"/>
<path opacity="0.2" d="M72.0839 71.6082L48.8999 84.8082C48.438 85.1535 47.8767 85.3402 47.2999 85.3402C46.7231 85.3402 46.1618 85.1535 45.6999 84.8082L45.5879 84.9202L45.6999 85.0322C46.1608 85.38 46.7225 85.5682 47.2999 85.5682C47.8773 85.5682 48.439 85.38 48.8999 85.0322L72.2759 71.7522L72.0839 71.6082Z" fill="#414B54"/>
<path opacity="0.12" d="M45.5879 84.712C45.0664 84.0862 44.8032 83.2851 44.8519 82.472V82.712C44.8032 83.5251 45.0664 84.3262 45.5879 84.952L45.6999 84.84L45.5879 84.712ZM80.0839 67.08L72.0839 71.608L72.2279 71.752L80.0839 67.304C80.5297 67.0946 80.9123 66.7713 81.1932 66.3668C81.4742 65.9623 81.6434 65.4908 81.6839 65C81.594 65.4459 81.4029 65.8653 81.1256 66.2259C80.8482 66.5865 80.4919 66.8786 80.0839 67.08Z" fill="#414B54"/>
<path opacity="0.25" d="M48.8999 45.1914L80.0839 62.9194C80.4919 63.1208 80.8482 63.413 81.1256 63.7735C81.403 64.1341 81.594 64.5535 81.6839 64.9994C81.6434 64.5086 81.4742 64.0371 81.1933 63.6326C80.9123 63.2281 80.5297 62.9048 80.0839 62.6954L48.8999 44.9674C46.6599 43.7034 44.8359 44.7594 44.8359 47.3194V47.5594C44.8839 44.9834 46.6759 43.9274 48.8999 45.1914Z" fill="white"/>
</g>
<defs>
<filter id="filter0_bdd" x="0.835938" y="0" width="272" height="120" filterUnits="userSpaceOnUse" color-interpolation-filters="sRGB">
<feFlood flood-opacity="0" result="BackgroundImageFix"/>
<feGaussianBlur in="BackgroundImage" stdDeviation="5.5"/>
<feComposite in2="SourceAlpha" operator="in" result="effect1_backgroundBlur"/>
<feColorMatrix in="SourceAlpha" type="matrix" values="0 0 0 0 0 0 0 0 0 0 0 0 0 0 0 0 0 0 127 0"/>
<feMorphology radius="4" operator="erode" in="SourceAlpha" result="effect2_dropShadow"/>
<feOffset dy="-5"/>
<feGaussianBlur stdDeviation="12"/>
<feColorMatrix type="matrix" values="0 0 0 0 0.0941176 0 0 0 0 0.152941 0 0 0 0 0.294118 0 0 0 0.08 0"/>
<feBlend mode="normal" in2="effect1_backgroundBlur" result="effect2_dropShadow"/>
<feColorMatrix in="SourceAlpha" type="matrix" values="0 0 0 0 0 0 0 0 0 0 0 0 0 0 0 0 0 0 127 0"/>
<feMorphology radius="6" operator="erode" in="SourceAlpha" result="effect3_dropShadow"/>
<feOffset dy="6"/>
<feGaussianBlur stdDeviation="6"/>
<feColorMatrix type="matrix" values="0 0 0 0 0.0941176 0 0 0 0 0.152941 0 0 0 0 0.294118 0 0 0 0.12 0"/>
<feBlend mode="normal" in2="effect2_dropShadow" result="effect3_dropShadow"/>
<feBlend mode="normal" in="SourceGraphic" in2="effect3_dropShadow" result="shape"/>
</filter>
<linearGradient id="paint0_linear" x1="63.7639" y1="46.9359" x2="36.9159" y2="73.7839" gradientUnits="userSpaceOnUse">
<stop stop-color="#00A0FF"/>
<stop offset="0.01" stop-color="#00A1FF"/>
<stop offset="0.26" stop-color="#00BEFF"/>
<stop offset="0.51" stop-color="#00D2FF"/>
<stop offset="0.76" stop-color="#00DFFF"/>
<stop offset="1" stop-color="#00E3FF"/>
</linearGradient>
<linearGradient id="paint1_linear" x1="83.0119" y1="65.0001" x2="44.3079" y2="65.0001" gradientUnits="userSpaceOnUse">
<stop stop-color="#FFE000"/>
<stop offset="0.41" stop-color="#FFBD00"/>
<stop offset="0.78" stop-color="#FFA500"/>
<stop offset="1" stop-color="#FF9C00"/>
</linearGradient>
<linearGradient id="paint2_linear" x1="68.6119" y1="68.68" x2="32.1959" y2="105.08" gradientUnits="userSpaceOnUse">
<stop stop-color="#FF3A44"/>
<stop offset="1" stop-color="#C31162"/>
</linearGradient>
<linearGradient id="paint3_linear" x1="40.564" y1="33.288" x2="56.82" y2="49.544" gradientUnits="userSpaceOnUse">
<stop stop-color="#32A071"/>
<stop offset="0.07" stop-color="#2DA771"/>
<stop offset="0.48" stop-color="#15CF74"/>
<stop offset="0.8" stop-color="#06E775"/>
<stop offset="1" stop-color="#00F076"/>
</linearGradient>
</defs>
</svg>
