<svg width="210" height="99" viewBox="0 0 210 99" fill="none" xmlns="http://www.w3.org/2000/svg">
<g filter="url(#filter0_bdd)">
<rect x="20" y="25" width="170" height="59" rx="15" fill="white" fill-opacity="0.8"/>
<path d="M105.73 51.5491C104.772 51.5534 103.837 51.8249 103.043 52.3295C102.249 52.8341 101.631 53.5491 101.267 54.3843C100.904 55.2195 100.811 56.1375 101.001 57.0223C101.191 57.9071 101.654 58.7192 102.333 59.356C103.012 59.9928 103.876 60.4258 104.816 60.6004C105.755 60.7749 106.729 60.6832 107.614 60.3368C108.498 59.9903 109.254 59.4047 109.786 58.6539C110.317 57.903 110.601 57.0206 110.601 56.1179C110.611 55.5137 110.491 54.9139 110.249 54.3542C110.007 53.7945 109.648 53.2864 109.194 52.8601C108.739 52.4338 108.198 52.0981 107.603 51.8728C107.008 51.6476 106.371 51.5375 105.73 51.5491ZM105.73 58.8914C105.141 58.9302 104.553 58.8011 104.043 58.5209C103.533 58.2407 103.124 57.8223 102.869 57.3202C102.615 56.8181 102.526 56.2553 102.616 55.7052C102.705 55.1551 102.968 54.6431 103.37 54.2356C103.772 53.8281 104.295 53.5441 104.871 53.4205C105.447 53.2968 106.049 53.3393 106.599 53.5423C107.148 53.7453 107.621 54.0995 107.954 54.5588C108.288 55.0181 108.467 55.5614 108.468 56.1179C108.486 56.4705 108.43 56.823 108.301 57.1546C108.173 57.4863 107.975 57.7903 107.72 58.0488C107.465 58.3073 107.157 58.515 106.815 58.6597C106.474 58.8044 106.105 58.8832 105.73 58.8914ZM95.11 51.5491C94.1516 51.5513 93.2154 51.821 92.4196 52.3243C91.6238 52.8276 91.0042 53.5419 90.639 54.3769C90.2738 55.2119 90.1794 56.1302 90.3678 57.0158C90.5561 57.9013 91.0188 58.7144 91.6972 59.3523C92.3757 59.9901 93.2396 60.4242 94.1797 60.5996C95.1199 60.775 96.0941 60.6839 96.9793 60.3378C97.8645 59.9917 98.621 59.4061 99.1532 58.655C99.6855 57.9039 99.9695 57.021 99.9695 56.1179C99.9788 55.5137 99.859 54.9139 99.6172 54.3542C99.3754 53.7945 99.0166 53.2864 98.5621 52.8601C98.1076 52.4338 97.5668 52.0981 96.9717 51.8728C96.3767 51.6476 95.7397 51.5375 95.0985 51.5491H95.11ZM95.11 58.8914C94.5206 58.9324 93.9317 58.8052 93.4201 58.5265C92.9085 58.2477 92.4977 57.8302 92.2414 57.3284C91.985 56.8266 91.895 56.2637 91.9828 55.713C92.0707 55.1622 92.3325 54.6492 92.7342 54.2406C93.1358 53.832 93.6586 53.5469 94.2346 53.4222C94.8106 53.2976 95.4131 53.3393 95.9636 53.5418C96.5142 53.7444 96.9872 54.0985 97.3212 54.5579C97.6552 55.0174 97.8347 55.5609 97.8363 56.1179C97.8547 56.4705 97.798 56.823 97.6695 57.1546C97.541 57.4863 97.3433 57.7903 97.0882 58.0488C96.833 58.3073 96.5255 58.515 96.1838 58.6597C95.8421 58.8044 95.4731 58.8832 95.0985 58.8914H95.11ZM82.4591 52.9574V54.8924H87.3871C87.3099 55.8038 86.9079 56.6638 86.2464 57.3326C85.7534 57.8059 85.1607 58.1766 84.5064 58.421C83.8522 58.6654 83.1509 58.778 82.4477 58.7516C80.9955 58.7516 79.6028 58.208 78.5759 57.2403C77.5491 56.2726 76.9722 54.9601 76.9722 53.5916C76.9722 52.2231 77.5491 50.9106 78.5759 49.943C79.6028 48.9753 80.9955 48.4316 82.4477 48.4316C83.8369 48.4103 85.1784 48.909 86.178 49.8184L87.6267 48.4531C86.9519 47.8092 86.1469 47.2995 85.2592 46.9542C84.3716 46.6089 83.4194 46.435 82.4591 46.4429C81.445 46.4057 80.4334 46.5618 79.4848 46.9019C78.5362 47.2419 77.6703 47.759 76.9388 48.422C76.2074 49.085 75.6255 49.8803 75.228 50.7603C74.8305 51.6403 74.6256 52.5868 74.6256 53.5433C74.6256 54.4997 74.8305 55.4462 75.228 56.3262C75.6255 57.2062 76.2074 58.0015 76.9388 58.6645C77.6703 59.3275 78.5362 59.8446 79.4848 60.1846C80.4334 60.5247 81.445 60.6808 82.4591 60.6436C83.4356 60.6852 84.4101 60.5292 85.3172 60.1862C86.2243 59.8431 87.0429 59.321 87.718 58.6549C88.9131 57.4175 89.5512 55.7908 89.4975 54.1184C89.5012 53.7109 89.463 53.3041 89.3834 52.9036L82.4591 52.9574ZM134.146 54.4624C133.849 53.6376 133.292 52.9174 132.551 52.3971C131.809 51.8769 130.918 51.5812 129.994 51.5491C129.37 51.548 128.752 51.6674 128.179 51.9002C127.606 52.1329 127.09 52.4738 126.662 52.902C126.234 53.3303 125.905 53.8366 125.693 54.3897C125.481 54.9428 125.392 55.531 125.431 56.1179C125.417 56.7187 125.532 57.316 125.768 57.8741C126.005 58.4322 126.358 58.9396 126.808 59.3661C127.257 59.7925 127.793 60.1293 128.384 60.3561C128.974 60.583 129.607 60.6954 130.245 60.6866C131.043 60.6907 131.829 60.5082 132.534 60.1555C133.239 59.8028 133.84 59.2909 134.283 58.6656L132.629 57.5906C132.382 57.9785 132.033 58.2993 131.615 58.5216C131.197 58.744 130.725 58.8603 130.245 58.8591C129.751 58.8769 129.262 58.7541 128.843 58.5068C128.424 58.2595 128.094 57.899 127.895 57.4724L134.386 54.9461L134.146 54.4624ZM127.53 55.9889C127.507 55.6564 127.554 55.3229 127.67 55.0079C127.785 54.6929 127.966 54.4028 128.202 54.1545C128.438 53.9062 128.724 53.7048 129.043 53.562C129.363 53.4192 129.709 53.3379 130.062 53.3229C130.43 53.3 130.797 53.3795 131.118 53.5515C131.438 53.7235 131.698 53.9805 131.865 54.2904L127.53 55.9889ZM122.26 60.4179H124.393V46.9804H122.26V60.4179ZM118.769 52.5704H118.689C118.368 52.2316 117.974 51.9608 117.533 51.7755C117.093 51.5902 116.616 51.4948 116.134 51.4954C114.887 51.5523 113.712 52.0591 112.851 52.9107C111.99 53.7623 111.51 54.8933 111.51 56.0695C111.51 57.2457 111.99 58.3767 112.851 59.2283C113.712 60.0799 114.887 60.5867 116.134 60.6436C116.617 60.6513 117.097 60.559 117.538 60.3733C117.979 60.1875 118.372 59.9129 118.689 59.5686H118.758V60.2244C118.758 61.9766 117.765 62.9119 116.168 62.9119C115.636 62.9001 115.12 62.7395 114.685 62.4505C114.25 62.1614 113.917 61.7569 113.727 61.2886L111.867 62.0196C112.217 62.822 112.814 63.5075 113.58 63.9882C114.346 64.469 115.248 64.7231 116.168 64.7179C118.666 64.7179 120.731 63.3311 120.731 59.9556V51.8179H118.769V52.5704ZM116.328 58.8914C115.592 58.8303 114.907 58.5116 114.408 57.9982C113.909 57.4849 113.633 56.814 113.633 56.1179C113.633 55.4218 113.909 54.7509 114.408 54.2375C114.907 53.7241 115.592 53.4055 116.328 53.3444C116.693 53.362 117.05 53.4483 117.379 53.5981C117.708 53.7479 118.002 53.9583 118.243 54.2167C118.484 54.4752 118.668 54.7766 118.784 55.1031C118.9 55.4296 118.945 55.7746 118.917 56.1179C118.948 56.4626 118.905 56.8097 118.79 57.1382C118.674 57.4667 118.49 57.7697 118.246 58.029C118.003 58.2883 117.707 58.4984 117.375 58.6466C117.043 58.7948 116.683 58.8781 116.316 58.8914H116.328ZM144.139 46.9804H139.04V60.4179H141.173V55.3224H144.15C144.758 55.3635 145.369 55.2862 145.944 55.0953C146.519 54.9043 147.045 54.6038 147.492 54.2124C147.938 53.8211 148.294 53.3473 148.537 52.8207C148.78 52.294 148.906 51.7258 148.906 51.1514C148.906 50.577 148.78 50.0087 148.537 49.4821C148.294 48.9554 147.938 48.4817 147.492 48.0903C147.045 47.699 146.519 47.3985 145.944 47.2075C145.369 47.0165 144.758 46.9392 144.15 46.9804H144.139ZM144.139 53.4304H141.162V48.8509H144.185C144.834 48.8509 145.456 49.0938 145.915 49.5263C146.374 49.9587 146.632 50.5452 146.632 51.1568C146.632 51.7683 146.374 52.3548 145.915 52.7873C145.456 53.2197 144.834 53.4626 144.185 53.4626L144.139 53.4304ZM157.292 51.4954C156.515 51.4516 155.742 51.6227 155.067 51.9874C154.392 52.3522 153.845 52.8948 153.493 53.5486L155.387 54.2904C155.573 53.9661 155.856 53.7 156.2 53.5244C156.545 53.3488 156.936 53.2713 157.326 53.3014C157.597 53.2716 157.871 53.2929 158.133 53.3641C158.395 53.4353 158.639 53.5549 158.852 53.716C159.064 53.8771 159.24 54.0765 159.37 54.3024C159.5 54.5284 159.581 54.7765 159.607 55.0321V55.1719C158.922 54.83 158.158 54.6528 157.383 54.6559C155.341 54.6559 153.276 55.7309 153.276 57.6766C153.296 58.0915 153.405 58.4984 153.595 58.8732C153.784 59.2479 154.052 59.5831 154.382 59.8587C154.712 60.1343 155.097 60.3448 155.514 60.4778C155.932 60.6107 156.373 60.6635 156.813 60.6329C157.35 60.6692 157.888 60.5686 158.369 60.3417C158.851 60.1147 159.259 59.7697 159.55 59.3429H159.619V60.4179H161.672V55.2471C161.672 52.8929 159.779 51.5276 157.349 51.5276L157.292 51.4954ZM157.029 58.8591C156.334 58.8591 155.364 58.5259 155.364 57.7196C155.364 56.6446 156.573 56.2899 157.645 56.2899C158.323 56.2741 158.993 56.43 159.585 56.7414C159.513 57.3234 159.221 57.8615 158.762 58.2566C158.303 58.6517 157.708 58.8771 157.086 58.8914L157.029 58.8591ZM169.155 51.8179L166.714 57.6444H166.646L164.113 51.8179H161.832L165.631 59.9664L163.463 64.4921H165.688L171.528 51.8179H169.155ZM149.98 60.4179H152.113V46.9804H149.98V60.4179Z" fill="#414B54"/>
<path d="M39.9435 41.1055C39.5717 41.526 39.384 42.0642 39.4188 42.6105V66.3895C39.384 66.9358 39.5717 67.4741 39.9435 67.8945L40.0234 67.9698L54.1571 54.6613V54.3495L40.0234 41.0303L39.9435 41.1055Z" fill="url(#paint0_linear)"/>
<path d="M58.8342 59.101L54.1571 54.6612V54.3495L58.8342 49.899L58.9368 49.9527L64.5379 52.952C66.1349 53.8012 66.1349 55.1987 64.5379 56.0587L58.9597 59.0472L58.8342 59.101Z" fill="url(#paint1_linear)"/>
<path d="M58.9711 59.0365L54.1572 54.5L39.9436 67.8945C40.2691 68.1642 40.6844 68.3182 41.1176 68.33C41.5508 68.3418 41.9748 68.2105 42.3163 67.959L58.9825 59.0365" fill="url(#paint2_linear)"/>
<path d="M58.9711 49.9635L42.3049 41.041C41.9634 40.7895 41.5394 40.6583 41.1062 40.67C40.673 40.6818 40.2577 40.8359 39.9322 41.1055L54.1572 54.5L58.9711 49.9635Z" fill="url(#paint3_linear)"/>
<path opacity="0.2" d="M58.8342 58.9398L42.3049 67.8085C41.9756 68.0406 41.5754 68.1659 41.1642 68.1659C40.7529 68.1659 40.3528 68.0406 40.0234 67.8085L39.9436 67.8838L40.0234 67.959C40.352 68.1927 40.7525 68.3191 41.1642 68.3191C41.5758 68.3191 41.9763 68.1927 42.3049 67.959L58.9711 59.0365L58.8342 58.9398Z" fill="#414B54"/>
<path opacity="0.12" d="M39.9435 67.744C39.5717 67.3236 39.384 66.7853 39.4188 66.239V66.4002C39.384 66.9466 39.5717 67.4848 39.9435 67.9052L40.0234 67.83L39.9435 67.744ZM64.5379 55.8975L58.8342 58.9398L58.9368 59.0365L64.5379 56.048C64.8557 55.9073 65.1285 55.6901 65.3288 55.4183C65.5291 55.1465 65.6497 54.8298 65.6786 54.5C65.6145 54.7996 65.4783 55.0814 65.2805 55.3236C65.0828 55.5659 64.8287 55.7622 64.5379 55.8975Z" fill="#414B54"/>
<path opacity="0.25" d="M42.305 41.1911L64.538 53.1021C64.8288 53.2374 65.0829 53.4337 65.2807 53.676C65.4784 53.9183 65.6146 54.2 65.6787 54.4996C65.6499 54.1699 65.5292 53.8531 65.3289 53.5813C65.1286 53.3095 64.8558 53.0923 64.538 52.9516L42.305 41.0406C40.7079 40.1914 39.4075 40.9009 39.4075 42.6209V42.7821C39.4417 41.0514 40.7193 40.3419 42.305 41.1911Z" fill="white"/>
</g>
<defs>
<filter id="filter0_bdd" x="0" y="0" width="210" height="99" filterUnits="userSpaceOnUse" color-interpolation-filters="sRGB">
<feFlood flood-opacity="0" result="BackgroundImageFix"/>
<feGaussianBlur in="BackgroundImage" stdDeviation="5.5"/>
<feComposite in2="SourceAlpha" operator="in" result="effect1_backgroundBlur"/>
<feColorMatrix in="SourceAlpha" type="matrix" values="0 0 0 0 0 0 0 0 0 0 0 0 0 0 0 0 0 0 127 0"/>
<feMorphology radius="4" operator="erode" in="SourceAlpha" result="effect2_dropShadow"/>
<feOffset dy="-5"/>
<feGaussianBlur stdDeviation="12"/>
<feColorMatrix type="matrix" values="0 0 0 0 0.0941176 0 0 0 0 0.152941 0 0 0 0 0.294118 0 0 0 0.08 0"/>
<feBlend mode="normal" in2="effect1_backgroundBlur" result="effect2_dropShadow"/>
<feColorMatrix in="SourceAlpha" type="matrix" values="0 0 0 0 0 0 0 0 0 0 0 0 0 0 0 0 0 0 127 0"/>
<feMorphology radius="6" operator="erode" in="SourceAlpha" result="effect3_dropShadow"/>
<feOffset dy="6"/>
<feGaussianBlur stdDeviation="6"/>
<feColorMatrix type="matrix" values="0 0 0 0 0.0941176 0 0 0 0 0.152941 0 0 0 0 0.294118 0 0 0 0.12 0"/>
<feBlend mode="normal" in2="effect2_dropShadow" result="effect3_dropShadow"/>
<feBlend mode="normal" in="SourceGraphic" in2="effect3_dropShadow" result="shape"/>
</filter>
<linearGradient id="paint0_linear" x1="52.9023" y1="42.3633" x2="34.8955" y2="61.4712" gradientUnits="userSpaceOnUse">
<stop stop-color="#00A0FF"/>
<stop offset="0.01" stop-color="#00A1FF"/>
<stop offset="0.26" stop-color="#00BEFF"/>
<stop offset="0.51" stop-color="#00D2FF"/>
<stop offset="0.76" stop-color="#00DFFF"/>
<stop offset="1" stop-color="#00E3FF"/>
</linearGradient>
<linearGradient id="paint1_linear" x1="66.6254" y1="54.5" x2="39.0309" y2="54.5" gradientUnits="userSpaceOnUse">
<stop stop-color="#FFE000"/>
<stop offset="0.41" stop-color="#FFBD00"/>
<stop offset="0.78" stop-color="#FFA500"/>
<stop offset="1" stop-color="#FF9C00"/>
</linearGradient>
<linearGradient id="paint2_linear" x1="56.3588" y1="56.9725" x2="31.9342" y2="82.8794" gradientUnits="userSpaceOnUse">
<stop stop-color="#FF3A44"/>
<stop offset="1" stop-color="#C31162"/>
</linearGradient>
<linearGradient id="paint3_linear" x1="36.3617" y1="33.1935" x2="47.2645" y2="44.7631" gradientUnits="userSpaceOnUse">
<stop stop-color="#32A071"/>
<stop offset="0.07" stop-color="#2DA771"/>
<stop offset="0.48" stop-color="#15CF74"/>
<stop offset="0.8" stop-color="#06E775"/>
<stop offset="1" stop-color="#00F076"/>
</linearGradient>
</defs>
</svg>
