<svg width="220" height="103" viewBox="0 0 220 103" fill="none" xmlns="http://www.w3.org/2000/svg">
<g clip-path="url(#clip0)">
<path fill-rule="evenodd" clip-rule="evenodd" d="M0 102.724H220V0H0V102.724ZM201.508 88.3424H195.344L192.776 93.9922H186.27L198.255 68.8249H201.508H204.76L217.087 93.9922H210.41L207.671 88.3424H201.508V88.3424ZM201.508 74.8171L201.339 74.6459L197.227 84.0623H201.508H205.617L201.508 74.8171ZM2.91051 68.8249H15.2374C17.6342 68.8249 19.5175 68.8249 20.7181 68.9961C21.9144 69.1652 22.9438 69.5097 23.9689 70.1924C24.827 70.7082 25.6809 71.3909 26.3679 72.249C26.8794 73.1051 27.2218 74.1323 27.2218 75.1595C27.2218 76.358 26.8794 77.3831 26.0233 78.4124C25.3385 79.4397 24.3113 80.1245 22.9438 80.6381C24.827 81.1496 26.1946 81.8344 27.2218 82.8638C28.249 84.0623 28.7626 85.2586 28.7626 86.8016C28.7626 87.8288 28.4202 89.0251 27.7354 90.0545C27.0527 91.0817 26.1946 91.9377 25.1695 92.6226C23.9689 93.3074 22.5992 93.6498 20.8893 93.821C20.0311 93.9922 18.15 93.9922 15.2374 93.9922C14.7237 93.9922 14.0411 93.9922 13.5274 93.9922H2.91051V68.8249V68.8249ZM15.2374 73.1051C14.5525 73.1051 13.6965 73.1051 12.8426 73.1051H9.24514V78.9261H13.3541C14.0411 78.9261 14.7237 78.9261 15.2374 78.9261C16.4358 78.7549 17.294 78.7549 17.8054 78.7549C18.8327 78.5837 19.6909 78.4125 20.3735 77.8988C20.8893 77.3831 21.2296 76.7004 21.2296 75.8422C21.2296 75.1595 20.8893 74.4747 20.3735 73.9589C19.8621 73.4475 19.1772 73.2741 18.15 73.1051C17.6342 73.1051 16.7782 73.1051 15.2374 73.1051V73.1051ZM15.2374 83.035C14.8949 83.035 14.5525 83.035 14.2101 83.035H9.24514V89.7121H14.8949C15.0683 89.7121 15.0683 89.7121 15.2374 89.7121C17.294 89.7121 18.6615 89.7121 19.1772 89.7121C20.2023 89.5409 20.8893 89.1984 21.4008 88.6827C22.0856 88.1712 22.2589 87.3152 22.2589 86.4591C22.2589 85.7743 22.0856 85.0895 21.7453 84.5759C21.2296 84.0623 20.5447 83.7177 19.6909 83.3753C19.0039 83.2062 17.463 83.035 15.2374 83.035ZM34.07 93.9922V68.8249H56.8405V73.1051H40.2335V78.7549H55.642V82.8638H40.2335V89.7121H57.3541V93.9922H34.07V93.9922ZM75.1595 73.1051C74.8171 73.1051 74.3035 73.1051 73.7899 73.1051H68.9961V79.4397H73.4475C74.1323 79.4397 74.6459 79.4397 75.1595 79.4397C77.214 79.4397 78.5837 79.2663 79.0973 79.0973C79.7821 78.9261 80.4669 78.5837 80.8093 78.0679C81.323 77.5564 81.4942 77.0428 81.4942 76.1846C81.4942 75.3307 81.1517 74.6459 80.6381 74.1323C80.1245 73.6187 79.2685 73.2741 78.2412 73.1051C77.8988 73.1051 76.8716 73.1051 75.1595 73.1051V73.1051ZM75.1595 84.9161C74.6459 84.4047 73.9611 84.0623 73.2763 83.7177C72.5914 83.5486 71.5642 83.5486 70.1946 83.5486H68.9961V93.9922H62.6615V68.8249H75.1595H75.8444C79.0973 68.8249 81.4942 68.9961 83.035 69.5097C84.4047 70.0233 85.6031 70.7082 86.4591 71.9066C87.4864 73.1051 87.8288 74.4747 87.8288 75.8422C87.8288 77.7255 87.144 79.2663 85.7743 80.6381C84.4047 81.8344 82.5214 82.5214 79.7821 82.8638C81.1517 83.5486 82.179 84.2335 83.035 85.0895C83.891 85.7743 85.0895 87.1418 86.6303 89.1984L90.3969 93.9922H82.8638L78.4124 88.5136C76.8716 86.6304 75.8444 85.4319 75.1595 84.9161V84.9161ZM92.1089 85.7743L98.2724 85.4319C98.6148 86.9728 99.2996 88.1712 100.498 89.0251C101.525 89.7121 103.066 90.2257 104.949 90.2257C107.004 90.2257 108.374 89.8833 109.401 89.1984C110.428 88.5136 110.942 87.6576 110.942 86.6303C110.942 86.1167 110.77 85.601 110.257 85.2586C109.914 84.7471 109.23 84.4047 108.031 84.0623C107.346 83.891 105.634 83.5486 103.066 83.035C99.8132 82.3502 97.4163 81.492 96.0467 80.4669C94.1634 79.0973 93.3074 77.3831 93.3074 75.4998C93.3074 74.1323 93.6498 72.9339 94.677 71.9066C95.5331 70.7082 96.7315 69.8521 98.4436 69.3385C100.156 68.6537 102.21 68.3113 104.436 68.3113C108.374 68.3113 111.284 69.1652 113.167 70.537C115.222 71.9066 116.249 73.7899 116.249 76.0156L110.086 76.1846C109.743 74.9883 109.23 73.959 108.374 73.4475C107.518 72.9339 106.148 72.5914 104.436 72.5914C102.553 72.5914 101.183 72.9339 100.156 73.4475C99.4708 73.959 99.1284 74.4747 99.1284 75.1595C99.1284 75.6732 99.4708 76.1846 100.156 76.5292C100.84 77.214 102.895 77.7255 105.805 78.2412C108.887 78.9261 111.113 79.4397 112.482 80.1245C114.023 80.8093 115.051 81.6654 115.907 82.6926C116.763 83.7177 117.105 85.0895 117.105 86.6303C117.105 88.1712 116.763 89.5409 115.735 90.7393C114.708 91.9377 113.339 92.965 111.626 93.4786C109.743 94.1634 107.518 94.5058 104.778 94.5058C101.012 94.5058 97.93 93.821 95.8755 92.2802C93.821 90.7393 92.6226 88.6827 92.1089 85.7743V85.7743ZM134.568 74.8171L134.397 74.6459L130.288 84.0623H134.568H138.677L134.568 74.8171ZM134.568 88.3424H128.405L125.837 93.9922H119.331L131.315 68.8249H134.568H137.821L150.148 93.9922H143.471L140.732 88.3424H134.568V88.3424ZM153.401 93.9922V68.8249H162.646L168.296 85.9455L173.772 68.8249H183.017V93.9922H177.37V74.1323L171.204 93.9922H165.214L159.222 74.1323V93.9922H153.401V93.9922ZM206.988 61.9745H213.15V8.2179H206.815L206.988 61.9745V61.9745ZM28.7434 47.4006L57.215 47.2551V63.9776H50.4459V54.6768H33.1027L27.3951 64.0311H17.463L28.249 47.4241L28.7455 47.437L28.7434 47.4006V47.4006ZM169.837 61.8054L203.048 10.2724L202.879 61.9745H195.86V33.214L177.539 63.0039H169.837H168.981L169.837 61.8054V61.8054ZM33.214 39.7198L30.8171 43.4864H33.214H45.5409H57.1829V8.38911H53.2451L45.5409 20.716L33.214 39.7198ZM45.5409 38.0099L42.1189 38.179L49.3074 26.7082H50.6792V38.0099H45.5409ZM33.214 32.5292L12.5002 64.0311H6.85039V60.0934L33.214 19.6887L40.578 8.38911H45.5409H48.965L45.5409 13.6965L33.214 32.5292ZM61.2918 64.0311H68.9961V8.38911H60.9494L61.2918 64.0311ZM92.6226 45.0272L79.9533 64.716H90.2257L92.6226 60.7782L113.681 25.3385H127.72H130.63L135.938 18.1479L127.72 18.3191L109.743 18.4903L92.6226 45.0272V45.0272ZM92.6226 37.8366L74.9883 64.716H70.7082V60.0934L92.6226 25.6809L92.965 25.1673H92.6226H71.7354L71.2218 23.1128L73.7899 18.6615L92.6226 18.4903H105.121L92.6226 37.8366V37.8366ZM92.6226 14.7237H76.1868L79.7821 8.38911H92.6226H127.72H143.128L138.506 14.5525H127.72L92.6226 14.7237ZM127.72 64.3735H122.584L127.72 56.4981L156.996 11.1284L158.706 8.38911H159.564V47.2529L156.996 51.1907L151.86 59.2374V32.8716L131.658 64.3735H127.72V64.3735ZM127.72 37.323L112.311 60.607L112.482 64.3735H117.619L127.72 49.1362L154.255 8.38911H146.724L127.72 37.323V37.323ZM156.996 58.8949L154.255 63.0039H156.996H164.187L167.097 58.3813L169.837 54.2724L199.969 8.2179H191.064L170.693 39.891V37.6654L169.837 38.8638L167.097 42.9728L156.996 58.8949ZM167.097 35.6109L163.844 40.7471L163.671 8.38911H167.097H169.837H170.693V30.3035L169.837 31.6732L167.097 35.6109V35.6109Z" fill="#2F318B"/>
<path fill-rule="evenodd" clip-rule="evenodd" d="M201.508 88.3424H195.344L192.776 93.9922H186.27L198.255 68.8249H201.508H204.76L217.087 93.9922H210.41L207.671 88.3424H201.508V88.3424ZM201.508 74.8171L201.339 74.6459L197.227 84.0623H201.508H205.617L201.508 74.8171Z" fill="#FEFEFE"/>
<path fill-rule="evenodd" clip-rule="evenodd" d="M206.988 61.9745H213.15V8.2179H206.815L206.988 61.9745V61.9745ZM28.7434 47.4006L57.215 47.2551V63.9776H50.4459V54.6768H33.1027L27.3952 64.0311H17.463L28.249 47.4241L28.7455 47.437L28.7434 47.4006V47.4006ZM169.837 61.8054L203.048 10.2724L202.879 61.9745H195.86V33.214L177.539 63.0039H169.837H168.981L169.837 61.8054V61.8054ZM33.214 39.7198L30.8171 43.4864H33.214H45.5409H57.1829V8.3891H53.2452L45.5409 20.716L33.214 39.7198ZM45.5409 38.0099L42.1189 38.179L49.3074 26.7082H50.6792V38.0099H45.5409ZM33.214 32.5292L12.5002 64.0311H6.8504V60.0934L33.214 19.6887L40.578 8.3891H45.5409H48.965L45.5409 13.6965L33.214 32.5292ZM61.2918 64.0311H68.9961V8.3891H60.9494L61.2918 64.0311ZM92.6226 45.0272L79.9533 64.7159H90.2257L92.6226 60.7782L113.681 25.3385H127.72H130.63L135.938 18.1479L127.72 18.3191L109.743 18.4903L92.6226 45.0272V45.0272ZM92.6226 37.8366L74.9883 64.7159H70.7082V60.0934L92.6226 25.6809L92.965 25.1673H92.6226H71.7354L71.2218 23.1128L73.7899 18.6615L92.6226 18.4903H105.121L92.6226 37.8366V37.8366ZM92.6226 14.7237H76.1868L79.7821 8.3891H92.6226H127.72H143.128L138.506 14.5525H127.72L92.6226 14.7237ZM127.72 64.3735H122.584L127.72 56.4981L156.996 11.1284L158.706 8.3891H159.564V47.2529L156.996 51.1907L151.86 59.2373V32.8716L131.658 64.3735H127.72V64.3735ZM127.72 37.323L112.311 60.607L112.483 64.3735H117.619L127.72 49.1362L154.255 8.3891H146.724L127.72 37.323V37.323ZM156.996 58.8949L154.255 63.0039H156.996H164.187L167.097 58.3813L169.837 54.2724L199.969 8.2179H191.064L170.693 39.891V37.6654L169.837 38.8638L167.097 42.9728L156.996 58.8949ZM167.097 35.6109L163.844 40.7471L163.671 8.3891H167.097H169.837H170.693V30.3035L169.837 31.6731L167.097 35.6109V35.6109Z" fill="#FEFEFE"/>
<path fill-rule="evenodd" clip-rule="evenodd" d="M153.401 93.9922V68.8249H162.646L168.296 85.9434L173.772 68.8249H183.019V93.9922H177.37V74.1323L171.204 93.9922H165.214L159.222 74.1323V93.9922H153.401Z" fill="#FEFEFE"/>
<path fill-rule="evenodd" clip-rule="evenodd" d="M134.568 88.3424H128.405L125.837 93.9922H119.331L131.315 68.8249H134.568H137.821L150.148 93.9922H143.471L140.732 88.3424H134.568V88.3424ZM134.568 74.8171L134.397 74.6459L130.288 84.0623H134.568H138.677L134.568 74.8171Z" fill="#FEFEFE"/>
<path fill-rule="evenodd" clip-rule="evenodd" d="M92.1089 85.7743L98.2724 85.4319C98.6148 86.9728 99.2996 88.1712 100.498 89.0251C101.525 89.7099 103.066 90.2257 104.949 90.2257C107.004 90.2257 108.374 89.8833 109.401 89.1984C110.428 88.5136 110.942 87.6576 110.942 86.6303C110.942 86.1167 110.77 85.601 110.257 85.2586C109.914 84.7471 109.23 84.4047 108.031 84.0622C107.346 83.891 105.634 83.5486 103.066 83.0329C99.8132 82.3502 97.4163 81.492 96.0467 80.4669C94.1634 79.0973 93.3074 77.3831 93.3074 75.4998C93.3074 74.1323 93.6498 72.9338 94.677 71.9066C95.5331 70.7082 96.7315 69.85 98.4436 69.3385C100.156 68.6537 102.21 68.3113 104.436 68.3113C108.374 68.3113 111.284 69.1652 113.167 70.537C115.222 71.9066 116.249 73.7899 116.249 76.0156L110.086 76.1846C109.743 74.9883 109.23 73.9611 108.374 73.4475C107.518 72.9338 106.148 72.5914 104.436 72.5914C102.553 72.5914 101.183 72.9338 100.156 73.4475C99.4708 73.9611 99.1284 74.4747 99.1284 75.1595C99.1284 75.6731 99.4708 76.1846 100.156 76.5292C100.84 77.214 102.895 77.7255 105.805 78.2412C108.887 78.9261 111.113 79.4397 112.482 80.1245C114.023 80.8093 115.051 81.6654 115.907 82.6926C116.763 83.7198 117.105 85.0895 117.105 86.6303C117.105 88.1712 116.763 89.5408 115.735 90.7393C114.708 91.9377 113.339 92.965 111.626 93.4786C109.743 94.1634 107.518 94.5058 104.778 94.5058C101.012 94.5058 97.93 93.821 95.8755 92.2801C93.821 90.7393 92.6226 88.6827 92.1089 85.7743Z" fill="#FEFEFE"/>
<path fill-rule="evenodd" clip-rule="evenodd" d="M75.1596 84.9161C74.6459 84.4047 73.9611 84.0623 73.2763 83.7198C72.5915 83.5486 71.5642 83.5486 70.1946 83.5486H68.9961V93.9922H62.6615V68.8249H75.1596H75.8444C79.0973 68.8249 81.4942 68.9961 83.035 69.5097C84.4047 70.0233 85.6031 70.7082 86.4592 71.9066C87.4864 73.1051 87.8288 74.4747 87.8288 75.8422C87.8288 77.7255 87.144 79.2663 85.7743 80.6381C84.4047 81.8344 82.5214 82.5214 79.7821 82.8638C81.1518 83.5486 82.179 84.2335 83.035 85.0895C83.8911 85.7743 85.0895 87.1418 86.6304 89.1984L90.3969 93.9922H82.8638L78.4125 88.5136C76.8716 86.6304 75.8444 85.4319 75.1596 84.9161V84.9161ZM75.1596 73.1051C74.8171 73.1051 74.3035 73.1051 73.7899 73.1051H68.9961V79.4397H73.4475C74.1323 79.4397 74.6459 79.4397 75.1596 79.4397C77.214 79.4397 78.5837 79.2663 79.0973 79.0973C79.7821 78.9261 80.467 78.5837 80.8094 78.07C81.323 77.5564 81.4942 77.0428 81.4942 76.1846C81.4942 75.3307 81.1518 74.6459 80.6382 74.1323C80.1245 73.6187 79.2685 73.2741 78.2413 73.1051C77.8989 73.1051 76.8716 73.1051 75.1596 73.1051V73.1051Z" fill="#FEFEFE"/>
<path fill-rule="evenodd" clip-rule="evenodd" d="M34.07 93.9922V68.8249H56.8404V73.1051H40.2334V78.7549H55.642V82.8638H40.2334V89.7099H57.354V93.9922H34.07Z" fill="#FEFEFE"/>
<path fill-rule="evenodd" clip-rule="evenodd" d="M2.91052 68.8249H15.2374C17.6343 68.8249 19.5175 68.8249 20.716 68.9961C21.9144 69.1652 22.9438 69.5097 23.9689 70.1924C24.8249 70.7082 25.6831 71.3909 26.3679 72.249C26.8794 73.1051 27.2218 74.1323 27.2218 75.1595C27.2218 76.358 26.8794 77.3831 26.0234 78.4124C25.3407 79.4397 24.3113 80.1245 22.9438 80.6381C24.8249 81.1496 26.1946 81.8344 27.2218 82.8638C28.249 84.0623 28.7627 85.2586 28.7627 86.8016C28.7627 87.8288 28.4202 89.0251 27.7354 90.0545C27.0527 91.0817 26.1946 91.9377 25.1695 92.6226C23.9689 93.3074 22.5992 93.6498 20.8872 93.821C20.0311 93.9922 18.1479 93.9922 15.2374 93.9922C14.7237 93.9922 14.0389 93.9922 13.5274 93.9922H2.91052V68.8249V68.8249ZM15.2374 73.1051C14.5525 73.1051 13.6965 73.1051 12.8405 73.1051H9.24515V78.9261H13.3541C14.0389 78.9261 14.7237 78.9261 15.2374 78.9261C16.4358 78.7549 17.294 78.7549 17.8055 78.7549C18.8327 78.5837 19.6909 78.4125 20.3736 77.8988C20.8872 77.3831 21.2317 76.7004 21.2317 75.8422C21.2317 75.1595 20.8872 74.4747 20.3736 73.9611C19.8621 73.4475 19.1773 73.2741 18.1479 73.1051C17.6343 73.1051 16.7782 73.1051 15.2374 73.1051V73.1051ZM15.2374 83.0329C14.895 83.0329 14.5525 83.0329 14.2101 83.0329H9.24515V89.7099H14.895C15.0683 89.7099 15.0683 89.7099 15.2374 89.7099C17.294 89.7099 18.6615 89.7099 19.1772 89.7099C20.2023 89.5409 20.8872 89.1984 21.4008 88.6827C22.0856 88.1712 22.259 87.3152 22.259 86.4591C22.259 85.7743 22.0856 85.0895 21.7453 84.5759C21.2317 84.0623 20.5448 83.7198 19.6909 83.3753C19.0039 83.2062 17.463 83.0329 15.2374 83.0329V83.0329Z" fill="#FEFEFE"/>
</g>
<defs>
<clipPath id="clip0">
<rect width="220" height="102.724" fill="white"/>
</clipPath>
</defs>
</svg>
