<svg width="179" height="27" viewBox="0 0 179 27" fill="none" xmlns="http://www.w3.org/2000/svg">
<path d="M29.7345 0H0.00158691V27H29.7345V0Z" fill="#76111C"/>
<path fill-rule="evenodd" clip-rule="evenodd" d="M3.74719 4.70654H19.6748L27.6454 13.4569L19.6748 23.0225H3.74719L10.8823 13.4569L3.74719 4.70654Z" fill="#EB2428"/>
<path fill-rule="evenodd" clip-rule="evenodd" d="M27.6454 13.4568L19.6748 4.70654H3.74719L10.8823 13.4568" fill="white"/>
<path d="M49.8728 9.71201C49.0508 8.76406 47.865 8.22048 46.3355 8.22048C43.216 8.22048 40.9185 10.6865 40.9185 14.0805C40.9185 17.4746 43.216 19.9406 46.2008 19.9406C47.865 19.9406 49.2125 19.218 50.0547 17.985L53.4909 20.4775C51.9345 22.6386 49.2933 23.6396 46.7263 23.6396C40.8916 23.6396 36.6334 19.9141 36.6334 14.0805C36.6334 8.24699 40.8848 4.52148 46.7263 4.52148C48.815 4.52148 51.4561 5.21753 53.0394 7.19298L49.8728 9.71201Z" fill="#76111C"/>
<path d="M55.6806 4.98535H59.804V23.182H55.6806V4.98535Z" fill="#76111C"/>
<path d="M69.7823 4.98535L74.0876 16.8579H74.1415L78.4738 4.98535H84.6791V23.182H80.5557V9.22792H80.5018L75.5901 23.1886H72.4437L67.7139 9.22792H67.66V23.1886H63.5366V4.98535H69.7823Z" fill="#76111C"/>
<path d="M88.4859 4.98535H95.4592C98.7337 4.98535 102.298 5.65488 102.298 9.61241C102.298 11.6409 101.004 13.033 99.0773 13.623V13.676C101.537 13.9876 103.174 15.7575 103.174 18.1241C103.174 21.9291 99.4748 23.1886 96.1465 23.1886H88.4859V4.98535ZM95.594 12.2574C96.8607 12.2574 98.1812 11.7403 98.1812 10.2753C98.1812 8.75726 96.699 8.37278 95.4053 8.37278H92.6025V12.2574H95.594ZM92.6092 19.788H96.3082C97.6018 19.788 99.0571 19.251 99.0571 17.6534C99.0571 15.9299 97.0763 15.6514 95.7287 15.6514H92.6092V19.788Z" fill="#76111C"/>
<path d="M108.874 4.98535H114.264C117.114 4.98535 120.287 5.6814 120.287 9.79139C120.287 11.6409 119.149 13.1324 116.932 13.5699V13.623C119.391 13.8019 121.102 15.552 121.102 18.0976C121.102 22.2871 117.377 23.1886 114.843 23.1886H108.874V4.98535ZM110.619 12.8474H114.237C117.855 12.8474 118.542 10.9183 118.542 9.79139C118.542 7.24585 116.696 6.52991 114.473 6.52991H110.619V12.8474ZM110.619 21.6441H114.607C118.704 21.6441 119.364 19.4366 119.364 18.1506C119.364 15.4526 117.094 14.3986 114.877 14.3986H110.626V21.6441H110.619Z" fill="#76111C"/>
<path d="M131.249 4.98535H133.048L140.918 23.182H138.964L136.929 18.3495H127.025L124.909 23.182H123.083L131.249 4.98535ZM132.065 6.83485L127.705 16.8049H136.289L132.065 6.83485Z" fill="#76111C"/>
<path d="M143.613 4.98535H145.856L157.243 20.9215H157.297V4.98535H159.042V23.182H156.798L145.412 7.24585H145.358V23.182H143.613V4.98535Z" fill="#76111C"/>
<path d="M164.156 4.98535H165.901V13.0065H166.062L175.124 4.98535H177.53L168.077 13.3114L178.062 23.182H175.556L166.076 13.7754H165.914V23.182H164.169V4.98535H164.156Z" fill="#76111C"/>
</svg>
