<svg width="90" height="24" viewBox="0 0 90 24" fill="none" xmlns="http://www.w3.org/2000/svg">
<g clip-path="url(#clip0)">
<path fill-rule="evenodd" clip-rule="evenodd" d="M-0.189941 8.55609L7.44075 17.8406L-0.189941 23.9395V8.55609Z" fill="#F15A23"/>
<path fill-rule="evenodd" clip-rule="evenodd" d="M2.88115 23.9395L8.62287 19.3065L12.5914 23.9395H2.88115Z" fill="#F15A23"/>
<path fill-rule="evenodd" clip-rule="evenodd" d="M-0.189941 3.58808L1.80139 6.0177L9.98897 15.8859L12.6421 13.8482C12.6421 13.8482 10.4395 11.3471 8.96062 8.55609C6.06918 3.09943 8.11625 -0.297903 8.11625 -0.297903H-0.189941V3.58808Z" fill="#F15A23"/>
<path fill-rule="evenodd" clip-rule="evenodd" d="M11.156 17.4093L13.858 15.2567C13.858 15.2567 16.4386 18.5332 19.4308 19.3065C23.352 20.32 25.0881 17.8406 25.0881 17.8406V23.9395H16.4755L18.4176 22.3199C18.4176 22.3199 17.4043 22.9715 14.9262 21.3159C13.4636 20.3387 11.156 17.4093 11.156 17.4093Z" fill="#F15A23"/>
<path fill-rule="evenodd" clip-rule="evenodd" d="M11.4044 -0.315674C11.4044 -0.315674 10.5424 0.816912 11.156 3.58808C11.8118 6.55008 14.42 9.68503 14.4139 9.61485C14.4139 9.61485 14.5816 6.50198 16.4755 4.67525C20.5124 0.78154 25.0881 3.09943 25.0881 3.09943V-0.297903L11.4044 -0.315674Z" fill="#F15A23"/>
<path fill-rule="evenodd" clip-rule="evenodd" d="M25.0881 7.2042C25.0881 7.2042 22.5352 5.09505 20.3157 5.09505C17.4764 5.09505 15.9267 7.45934 15.9267 9.17438C15.9267 11.6725 17.1698 13.0605 18.4176 14.264C20.2107 15.9935 22.3921 17.8589 25.0881 16.3575C25.0881 13.5161 25.0881 7.2042 25.0881 7.2042Z" fill="#F15A23"/>
<path fill-rule="evenodd" clip-rule="evenodd" d="M54.1618 -0.061554H60.1861C60.1861 -0.061554 65.5228 7.73244 68.1455 10.9526C70.7682 14.1727 73.5914 17.8406 73.5914 17.8406C73.5914 17.8406 73.5914 7.20422 73.5914 1.6839C73.5914 0.986109 71.6918 -0.061554 71.6918 -0.061554H78.6387C78.6387 -0.061554 76.3592 0.841736 76.3592 1.6839C76.3592 8.55611 76.3592 25.1881 76.3592 25.1881C76.3592 25.1881 74.1721 24.0182 71.6918 21.2384C68.9051 18.115 58.9921 5.50529 58.9921 5.50529C58.9921 5.50529 58.9921 17.4094 58.9921 21.8378C58.9921 22.6743 60.8916 23.9395 60.8916 23.9395H54.1618C54.1618 23.9395 56.0071 22.664 56.0071 21.8378C56.0071 15.886 56.0071 7.20422 56.0071 1.6839C56.0071 0.942196 54.1618 -0.061554 54.1618 -0.061554Z" fill="#005E6A"/>
<path fill-rule="evenodd" clip-rule="evenodd" d="M82.5294 -0.061554H90.2611C90.2611 -0.061554 88.185 0.886978 88.185 1.6839C88.185 7.20422 88.185 16.3576 88.185 21.8378C88.185 22.7087 90.2611 23.9395 90.2611 23.9395H82.5294C82.5294 23.9395 84.4624 22.6806 84.4624 21.8378C84.4624 15.2567 84.4624 7.20422 84.4624 1.6839C84.4624 0.917725 82.5294 -0.061554 82.5294 -0.061554Z" fill="#005E6A"/>
<path fill-rule="evenodd" clip-rule="evenodd" d="M31.4143 -0.061554C31.4143 -0.061554 33.4188 0.902476 33.4188 1.6839C33.4188 7.20422 33.4188 15.2567 33.4188 21.8378C33.4188 22.6945 31.4143 23.9395 31.4143 23.9395C31.4143 23.9395 41.4283 23.9395 42.8687 23.9395C43.5846 23.9395 51.6026 22.6749 51.6026 16.7125C51.6026 10.7501 45.3743 10.1918 45.3743 10.1918C45.3743 10.1918 49.1686 9.1744 49.1686 5.09507C49.1686 0.698008 43.5846 -0.061554 42.8687 -0.061554C41.3809 -0.061554 31.4143 -0.061554 31.4143 -0.061554ZM37.4994 9.79669V2.29323C37.4994 2.29323 40.8197 2.29323 42.1528 2.29323C42.8687 2.29323 45.3743 3.09945 45.3743 6.09064C45.3743 8.55611 42.8687 9.79669 42.1528 9.79669C40.5297 9.79669 37.4994 9.79669 37.4994 9.79669ZM37.4994 11.7647C37.4994 11.7647 42.1528 11.7647 42.8687 11.7647C43.5846 11.7647 47.8084 12.8229 47.8084 16.3576C47.8084 19.9613 43.5846 21.2384 42.8687 21.2384C42.1528 21.2384 37.4994 21.2384 37.4994 21.2384V11.7647Z" fill="#005E6A"/>
</g>
<defs>
<clipPath id="clip0">
<rect width="90" height="24" fill="white"/>
</clipPath>
</defs>
</svg>
