<svg width="105" height="32" viewBox="0 0 105 32" fill="none" xmlns="http://www.w3.org/2000/svg">
<g clip-path="url(#clip0)">
<path d="M0.522987 21.6994C0.522987 20.189 0.496442 18.9201 0.415039 17.7879H3.26591L3.401 19.7327H3.48063C4.12477 18.7064 5.30807 17.4902 7.51362 17.4902C9.23547 17.4902 10.5786 18.4638 11.1425 19.9185H11.198C11.6546 19.1906 12.1913 18.6514 12.8095 18.275C13.5357 17.7625 14.3709 17.4902 15.4451 17.4902C17.6229 17.4902 19.8267 18.974 19.8267 23.1855V30.9262H16.6013V23.669C16.6013 21.4857 15.8486 20.189 14.2618 20.189C13.1328 20.189 12.2981 20.9986 11.9495 21.9438C11.8693 22.2646 11.7885 22.6718 11.7885 23.047V30.9262H8.56183V23.3163C8.56183 21.4857 7.83687 20.189 6.3026 20.189C5.06799 20.189 4.23449 21.1602 3.93601 22.077C3.8027 22.4001 3.74843 22.7789 3.74843 23.1553V30.9262H0.522987V21.6994Z" fill="#003D79"/>
<path d="M32.3966 27.7704C32.3966 28.9565 32.4496 30.1153 32.5835 30.9261H29.5988L29.3841 29.4702H29.3027C28.4957 30.4965 27.1242 31.2221 25.4337 31.2221C22.7969 31.2221 21.3187 29.3086 21.3187 27.3112C21.3187 23.9909 24.2468 22.3213 29.0891 22.3474V22.132C29.0891 21.2685 28.7381 19.8386 26.4258 19.8386C25.1346 19.8386 23.7908 20.244 22.9037 20.8092L22.2589 18.6513C23.2269 18.0571 24.9205 17.4901 26.9897 17.4901C31.1855 17.4901 32.3966 20.1635 32.3966 23.0209V27.7704ZM29.1688 24.5076C26.8287 24.4526 24.5984 24.9645 24.5984 26.9608C24.5984 28.2557 25.4337 28.85 26.4807 28.85C27.7961 28.85 28.7659 27.9841 29.0614 27.0407C29.141 26.7969 29.1688 26.5293 29.1688 26.3133V24.5076Z" fill="#003D79"/>
<path d="M34.681 21.6994C34.681 20.189 34.6527 18.9201 34.5754 17.7879H37.4765L37.6375 19.7599H37.7195C38.2834 18.7337 39.7091 17.4902 41.8864 17.4902C44.1727 17.4902 46.5376 18.974 46.5376 23.1305V30.9262H43.2313V23.5092C43.2313 21.6195 42.5305 20.189 40.7302 20.189C39.4142 20.189 38.4981 21.133 38.1495 22.132C38.0427 22.4285 38.015 22.8328 38.015 23.2092V30.9262H34.681V21.6994Z" fill="#003D79"/>
<path d="M60.8744 12.5109V27.23C60.8744 28.5782 60.9298 30.0365 60.9823 30.926H58.0265L57.892 28.8498H57.8371C57.0573 30.3064 55.4705 31.2219 53.5629 31.2219C50.443 31.2219 47.9714 28.5516 47.9714 24.5075C47.9431 20.1089 50.6849 17.4906 53.8313 17.4906C55.6316 17.4906 56.9228 18.2458 57.5139 19.2206H57.5687V12.5109H60.8744ZM57.5687 23.264C57.5687 22.9953 57.5422 22.6716 57.4873 22.3999C57.1918 21.108 56.1448 20.0551 54.6382 20.0551C52.5141 20.0551 51.3296 21.9436 51.3296 24.398C51.3296 26.7967 52.5141 28.5515 54.6123 28.5515C55.9536 28.5515 57.1381 27.6342 57.4602 26.2037C57.5422 25.9078 57.5687 25.5829 57.5687 25.2331V23.264Z" fill="#003D79"/>
<path d="M63.2136 17.7884H66.5494V30.9261H63.2136V17.7884Z" fill="#003D79"/>
<path d="M68.8862 22.0244C68.8862 20.2436 68.8597 18.9741 68.7806 17.788H71.6575L71.763 20.2945H71.8722C72.5175 18.4355 74.0488 17.788 75.4498 17.788C75.7707 17.788 75.9588 17.7342 76.2266 17.788V20.7028C75.9588 20.6484 75.6639 20.5951 75.2604 20.5951C73.6725 20.5951 72.5965 21.6196 72.3016 23.101C72.2497 23.3987 72.1948 23.7508 72.1948 24.129V30.9263H68.8862V22.0244Z" fill="#003D79"/>
<path d="M77.7611 17.7884H81.0928V30.9261H77.7611V17.7884Z" fill="#003D79"/>
<path d="M77.0792 1.88354C75.0724 3.05065 68.5318 6.79998 68.5318 6.79998C66.0762 7.81558 64.1951 6.57862 63.5857 5.67192C63.5586 5.63759 63.5315 5.59675 63.5138 5.56301L63.4335 5.42513L63.0189 4.74569C62.8419 4.46515 62.6449 4.17633 62.419 3.87981C62.2172 3.62059 61.9931 3.36375 61.7494 3.11577C60.1733 1.5172 57.6504 0.394453 53.4475 2.40021C50.9057 3.85555 44.9952 7.24682 44.9952 7.24682C44.9946 7.2486 44.9946 7.24859 44.994 7.24859C42.5619 8.64356 40.6672 9.72899 40.6672 9.72899L42.9058 12.487C43.8473 13.3872 45.6181 14.8638 48.3575 13.6186C48.3575 13.6186 55.9173 9.22653 55.9468 9.21351C62.4101 5.65476 65.6002 9.05548 67.0094 11.3222C67.0583 11.3921 67.099 11.4696 67.1421 11.5383L67.1456 11.5412C67.1622 11.5684 67.1745 11.5945 67.1881 11.6205L67.3492 11.8827C68.0346 12.9273 69.1194 13.602 70.41 13.5712C71.1226 13.557 71.6063 13.3238 72.3094 12.9315L79.6245 8.67495C79.6292 8.67258 79.6327 8.6696 79.6404 8.66841C86.1833 5.06646 89.4265 8.68914 90.8121 10.9553C90.9194 11.1518 91.0433 11.3382 91.1672 11.5134C91.8526 12.4461 92.7994 13.0575 94.0004 13.0273C94.7932 13.0113 95.6839 12.5337 95.8148 12.4461L104.586 7.36874C104.586 7.36874 103.689 6.01107 101.843 3.89405C100.193 2.00548 98.4386 2.86008 97.0447 3.5555C96.459 3.8455 92.2249 6.25372 92.2249 6.25372C89.9055 7.21369 88.0987 6.16611 87.3896 5.28486C87.3165 5.19135 87.2534 5.10494 87.205 5.01972L87.0416 4.73268C86.7874 4.30241 86.4842 3.81711 86.1108 3.33771C85.9108 3.07789 85.6878 2.81806 85.443 2.57244C84.468 1.58406 83.1343 0.778577 81.2673 0.777986C80.0952 0.777986 78.7143 1.0952 77.0792 1.88354Z" fill="url(#paint0_linear)"/>
</g>
<defs>
<linearGradient id="paint0_linear" x1="40.1453" y1="7.91726" x2="108.503" y2="-23.5637" gradientUnits="userSpaceOnUse">
<stop stop-color="#FDB913"/>
<stop offset="0.224719" stop-color="#FFCB05"/>
<stop offset="0.393258" stop-color="#FAA61A"/>
<stop offset="0.52809" stop-color="#FFCB05"/>
<stop offset="0.646067" stop-color="#FAA61A"/>
<stop offset="0.764045" stop-color="#FFCB05"/>
<stop offset="1" stop-color="#FFCB05"/>
</linearGradient>
<clipPath id="clip0">
<rect width="104.643" height="30.9173" fill="white" transform="translate(0.178467 0.541336)"/>
</clipPath>
</defs>
</svg>
