<svg width="90" height="30" viewBox="0 0 90 30" fill="none" xmlns="http://www.w3.org/2000/svg">
<path fill-rule="evenodd" clip-rule="evenodd" d="M30.7008 1.14352H42.1245L42.1312 5.75728L39.3192 5.75222L45.9859 21.6778L52.5422 5.7674H49.6499V1.157L58.7905 1.15195L58.7771 3.78091L47.7769 29.6659C45.1223 29.6726 43.3949 28.703 42.4693 26.6744L33.409 5.7674L30.6992 5.76234L30.7008 1.14352ZM14.9889 0.334091C22.9327 0.334091 29.3718 6.86688 29.3718 14.9241C29.3718 22.9813 22.9327 29.5124 14.9889 29.5124C7.04505 29.5124 0.605957 22.9813 0.605957 14.9241C0.605957 6.86688 7.04505 0.334091 14.9889 0.334091ZM14.9454 5.10805C19.9551 5.10805 24.0157 9.5515 24.0157 15.032C24.0157 20.5142 19.9551 24.956 14.9454 24.956C9.93403 24.956 5.8734 20.5142 5.8734 15.032C5.8734 9.5515 9.93403 5.10805 14.9454 5.10805ZM75.0113 0.334091C82.9551 0.334091 89.3942 6.86688 89.3942 14.9241C89.3942 22.9813 82.9551 29.5124 75.0113 29.5124C67.0674 29.5124 60.6283 22.9813 60.6283 14.9241C60.6283 6.86688 67.0674 0.334091 75.0113 0.334091ZM74.9677 5.10805C79.9774 5.10805 84.038 9.5515 84.038 15.032C84.038 20.5142 79.9774 24.956 74.9677 24.956C69.9564 24.956 65.8958 20.5142 65.8958 15.032C65.8958 9.5515 69.9564 5.10805 74.9677 5.10805Z" fill="#4C3494"/>
</svg>
