<svg width="82" height="30" viewBox="0 0 82 30" fill="none" xmlns="http://www.w3.org/2000/svg">
<g clip-path="url(#clip0)">
<path d="M77.9632 18.3886V15.8062V10.6467H70.2213H65.0592V8.06433H77.9632V2.90219H65.0592H57.3173V8.06433V10.6467V15.8062H65.0592H70.2213V18.3886H57.3173V23.5507H70.2213H77.9632V18.3886Z" fill="#010101"/>
<path d="M54.7376 2.90219H49.5755V23.548H54.7376V2.90219Z" fill="#010101"/>
<path d="M26.3499 2.90219V8.06433H41.8336V10.6467H31.5093H26.3499V15.8062V23.5507H31.5093V15.8848L39.2539 23.5507H46.9958L38.9179 15.8062H41.8336H46.9958V10.6467V8.06433V2.90219H41.8336H26.3499Z" fill="#010101"/>
<path d="M10.8635 15.8061H16.0121V10.6576H10.8635V15.8061ZM12.1561 11.9366H14.7358V14.5163H12.1561V11.9366Z" fill="#010101"/>
<path d="M8.28384 2.90219H3.76663C3.59593 2.90349 3.43251 2.97158 3.31139 3.09188C3.25113 3.15193 3.20335 3.22331 3.17079 3.3019C3.13824 3.3805 3.12156 3.46476 3.12171 3.54983V22.9031C3.12156 22.9882 3.13824 23.0724 3.17079 23.151C3.20335 23.2296 3.25113 23.301 3.31139 23.361C3.43279 23.4806 3.59625 23.5477 3.76663 23.548H16.0257V18.3994H8.28384V2.90219Z" fill="#010101"/>
<path d="M23.1226 2.90219H10.8635V8.06433H18.6081V15.8062H23.7567V3.54983C23.7583 3.37933 23.6931 3.21497 23.5751 3.09188C23.4542 2.97294 23.2922 2.90503 23.1226 2.90219V2.90219Z" fill="#010101"/>
<path d="M23.7702 18.3886H18.6081V30.0027H23.7702V18.3886Z" fill="#010101"/>
<path d="M10.3243 0H0.644928C0.474102 0.00071327 0.310476 0.0688899 0.189683 0.189683C0.0688899 0.310476 0.00071327 0.474102 0 0.644928L0 10.3243H1.28986V1.92395C1.29339 1.75501 1.36281 1.59414 1.4833 1.47568C1.60379 1.35721 1.76581 1.29053 1.93478 1.28986H10.3351L10.3243 0Z" fill="#010101"/>
<path d="M80.0036 16.7736V25.1739C80.0029 25.3447 79.9347 25.5083 79.8139 25.6291C79.6931 25.7499 79.5295 25.8181 79.3587 25.8188H70.9583V27.0978H80.6377C80.7232 27.0989 80.8081 27.083 80.8874 27.0511C80.9667 27.0192 81.039 26.972 81.0999 26.912C81.1609 26.852 81.2094 26.7806 81.2426 26.7018C81.2758 26.623 81.2931 26.5384 81.2935 26.4529V16.7736H80.0036Z" fill="#010101"/>
</g>
<defs>
<clipPath id="clip0">
<rect width="81.2935" height="30" fill="white"/>
</clipPath>
</defs>
</svg>
