<svg width="220" height="220" viewBox="0 0 220 220" fill="none" xmlns="http://www.w3.org/2000/svg">
<path d="M22.911 53.7853H197.325C204.917 53.7853 211.362 59.9264 211.362 67.8221V152.245C211.362 159.837 205.221 166.282 197.325 166.282H22.911C15.319 166.282 8.87424 160.141 8.87424 152.245V67.7883C9.17792 59.9264 15.319 53.7853 22.911 53.7853Z" fill="#FFC600"/>
<path d="M115.804 132.641C114.926 132.641 114.353 132.945 113.475 132.945V143.742C114.049 144.046 114.926 144.046 115.534 144.046C118.469 144.046 120.494 141.988 120.494 138.209C120.494 134.429 118.739 132.641 115.804 132.641ZM114.926 149.006C111.721 149.006 108.785 148.433 105.883 147.555V118.942H113.172V128.558C114.353 128.255 115.804 127.985 116.985 127.985C123.396 127.985 127.512 131.494 127.512 137.635C127.782 145.497 123.396 149.006 114.926 149.006Z" fill="black"/>
<path d="M142.696 139.086C138.613 139.39 135.678 139.66 135.678 142.021C135.678 143.776 137.432 144.653 140.064 144.653C140.942 144.653 141.819 144.653 142.696 144.35V139.086ZM140.368 148.736C132.776 148.736 128.963 146.408 128.963 142.021C128.963 136.758 135.678 135.307 143 135.003V134.126C143 132.371 141.549 131.798 139.187 131.798C136.825 131.798 134.497 132.371 132.169 132.979L130.414 128.896C133.62 127.715 136.825 127.141 140.064 127.141C146.779 127.141 149.985 129.469 149.985 134.733V147.015C146.779 148.433 143.574 149.006 140.368 148.736Z" fill="black"/>
<path d="M166.08 148.433V135.273C166.08 133.518 165.202 132.337 162.571 132.337C161.693 132.337 160.816 132.641 159.939 132.911V148.399H152.65V129.132C155.856 127.951 159.365 127.377 162.874 127.377C170.466 127.377 173.975 130.009 173.975 134.396V148.433H166.08Z" fill="black"/>
<path d="M191.488 148.433L183.896 138.512V148.433H176.574V118.942H183.896V137.028L190.61 128.288H199.08L191.488 137.635L199.653 148.433H191.488Z" fill="black"/>
<path d="M91.8466 156.598H84.2546L87.7638 148.433L78.7209 128.288H86.8865L91.5767 142.595L96.5368 128.288H104.702L91.8466 156.598Z" fill="black"/>
<path d="M53.3129 121.27H44.5399L38.9724 138.209L33.135 121.27H24.362L20.5828 148.433H27.6012L29.9294 129.739L36.6442 148.433H41.3344L47.7454 129.739L50.0736 148.433H57.092L53.3129 121.27Z" fill="black"/>
<path d="M72.0062 139.086C67.9233 139.39 64.9878 139.66 64.9878 142.021C64.9878 143.776 66.7424 144.653 69.3743 144.653C70.2516 144.653 71.1289 144.653 72.0062 144.35V139.086V139.086ZM69.6442 148.736C62.0522 148.736 58.2393 146.408 58.2393 142.021C58.2393 136.758 64.954 135.307 72.2761 135.003V134.126C72.2761 132.371 70.8252 131.798 68.4632 131.798C66.1013 131.798 63.773 132.371 61.4448 132.979L59.724 128.862C62.9295 127.985 66.135 127.411 69.3743 127.107C76.089 127.107 79.2945 129.436 79.2945 134.699V146.982C76.089 148.433 72.8835 149.006 69.6442 148.736Z" fill="black"/>
<path d="M133.046 85.3344C133.046 97.8865 122.822 108.11 110.27 108.11C97.7178 108.11 87.4939 97.8865 87.4939 85.3344C87.4939 72.7822 97.7178 62.5583 110.27 62.5583C122.822 62.5583 133.046 72.7822 133.046 85.3344Z" fill="#FFC600"/>
<path d="M110.27 108.11C97.7178 108.11 87.4939 97.8865 87.4939 85.3343C87.4939 72.7822 97.7178 62.5583 110.27 62.5583C122.822 62.5583 133.046 72.7822 133.046 85.3343C133.046 97.8865 122.822 107.84 110.27 108.11ZM110.27 60.5C96.5368 60.5 85.4356 71.6012 85.4356 85.3343C85.4356 99.0675 96.5368 110.169 110.27 110.169C124.003 110.169 135.104 99.0675 135.104 85.3343C135.104 71.6012 124.003 60.5 110.27 60.5Z" fill="black"/>
<path d="M100.316 84.1534C98.5613 83.8497 97.1104 85.908 96.2331 87.3589C96.5368 85.0307 99.1687 81.5215 100.316 84.1534Z" fill="black"/>
<path d="M96.5368 84.1534C97.1104 82.0951 98.5951 81.2178 99.1687 81.8252C97.9877 82.3988 97.1104 83.0062 96.5368 84.1534Z" fill="black"/>
<path d="M100.923 87.3926C101.801 86.5153 101.801 85.638 100.35 85.0644C98.8988 84.4908 97.1442 86.819 96.8405 88.8773C97.7178 87.6626 100.316 85.638 100.923 87.3926Z" fill="black"/>
<path d="M115.23 92.9264C115.534 90.2945 112.902 88.8436 112.294 86.2116C111.721 83.5797 116.377 79.1932 113.475 74.5368C119.043 78.9233 114.656 81.5552 117.288 85.0644C116.411 84.7607 115.534 84.1871 114.96 83.3098C113.475 85.3343 118.739 87.9662 115.23 92.9264Z" fill="black"/>
<path d="M106.457 71.2976C107.031 71.2976 108.212 71.8712 107.908 72.1749C106.457 73.6258 104.399 73.0522 102.644 74.5031C103.252 72.7822 106.187 72.4786 106.457 71.2976Z" fill="black"/>
<path d="M104.702 77.135C104.399 77.135 104.399 76.8313 104.399 76.5614C104.702 77.135 105.276 76.865 104.972 75.9877H106.153C105.31 76.2577 105.006 77.135 104.702 77.135ZM111.417 73.0522C111.991 72.4785 111.417 71.2975 108.785 70.9939C111.417 72.1748 107.031 72.4448 107.031 74.8068C105.58 75.3804 104.399 74.5031 103.825 75.1104C103.252 75.7178 102.374 75.4141 102.644 74.5368C102.071 74.8405 102.071 75.4141 102.34 75.9877C102.34 76.2914 102.644 76.2914 102.914 76.5614L103.218 76.865C102.34 77.7423 102.037 78.316 102.914 79.1933C103.218 78.6196 103.791 78.0123 104.365 77.4387C104.939 77.7423 105.816 77.4387 106.997 76.2577C106.12 79.7669 103.488 80.0706 102.61 80.0706C103.184 80.6442 106.423 81.2515 106.693 79.7669C107.571 76.5614 110.776 75.0767 108.144 75.0767C108.212 74.5368 110.844 73.6595 111.417 73.0522Z" fill="black"/>
<path d="M112.598 71.6012C113.779 72.1748 114.656 73.0521 115.23 73.9294C115.534 72.1748 114.656 70.4202 113.475 69.2393C113.172 68.9693 112.294 70.7239 112.598 71.6012Z" fill="black"/>
<path d="M92.1503 82.3988C93.3313 79.4632 95.6595 77.135 98.2914 75.6841C99.1687 73.6258 98.865 72.4785 106.761 69.273C107.064 68.092 107.064 66.6411 107.334 66.6411C108.212 66.9448 109.089 67.5184 109.663 68.3957H110.54C110.844 67.2147 111.114 66.0675 111.721 64.8865C112.294 64.0092 113.475 64.0092 114.926 65.1902C116.681 66.3712 118.132 67.8221 119.617 69.5767C122.248 70.454 124.577 72.2086 126.331 74.2669C125.454 73.6933 124.273 73.3896 123.126 73.0859C125.454 75.1442 126.331 78.6534 125.454 81.5552C124.88 78.6196 123.126 76.2914 120.764 75.1442C121.641 78.3497 117.828 77.2025 116.377 74.8405C116.681 75.1442 116.951 75.1442 117.558 74.8405C117.558 71.635 116.377 68.6994 114.049 66.3712C112.868 65.1902 111.991 67.8221 111.721 69.8804C111.721 70.454 110.844 71.0614 110.27 71.0614C110.574 70.7577 110.574 70.4877 110.574 69.8804C108.515 70.1841 106.761 70.7577 105.006 71.9387C101.497 73.3896 100.62 74.2669 99.7423 76.8988C96.5368 78.0123 94.2086 80.0706 92.1503 82.3988Z" fill="black"/>
<path d="M101.801 95.862C101.497 95.5583 101.227 94.9847 101.227 94.4111C101.531 94.7147 102.104 94.9847 102.678 94.9847C102.374 95.5583 102.071 95.862 101.801 95.862ZM105.31 92.0491C105.614 92.0491 105.883 92.3528 106.187 92.0491C106.491 91.7454 106.187 90.8681 105.883 90.5982C106.187 90.5982 107.334 90.5982 107.334 91.1718C107.334 92.3528 106.457 92.6227 104.702 93.5C105.006 93.2301 105.006 92.6227 105.31 92.0491ZM98.2914 90.8681C98.5951 90.5644 98.865 90.2945 99.4724 89.9908C99.4724 90.8681 99.4724 91.4417 99.7761 92.319C99.4387 92.6227 98.2914 91.7454 98.2914 90.8681ZM93.6012 86.5154C93.0276 85.9417 92.4203 85.3344 91.8466 84.7608C92.1503 84.4571 92.7239 83.8835 93.2976 83.8835C93.8712 83.8835 94.1749 84.1871 93.8712 84.1871C93.5675 84.1871 93.2976 84.1871 93.2976 84.7608C93.2976 85.3344 93.6012 85.6381 93.8712 85.9417C94.2086 85.908 93.9049 86.5154 93.6012 86.5154ZM127.512 75.4141C129.267 80.6779 128.963 86.2117 126.939 91.2055C127.242 88.8773 125.184 85.6381 126.061 81.8589C122.248 85.3681 128.12 94.4111 119.65 100.248C120.831 97.3129 121.405 94.4111 121.101 91.2055C121.675 91.5092 121.979 91.7792 122.282 92.3865C123.16 89.4509 122.856 86.2454 121.709 83.3436C122.282 83.3436 123.16 83.9172 123.463 84.2209C123.767 78.9571 119.954 78.6534 119.077 77.2025C119.077 78.6534 120.831 79.8344 121.135 81.8927C120.258 81.319 119.077 81.319 118.199 81.319C120.258 83.6473 121.135 86.5828 120.528 89.4847C119.65 88.9111 118.773 88.3037 117.896 88.3037C119.347 90.9356 119.347 93.8712 118.199 96.4693C118.199 95.592 117.896 94.7147 117.626 94.1411C117.052 96.1994 115.567 97.6503 113.543 97.954C114.994 96.773 114.994 94.4448 113.847 93.2638C113.543 92.9601 112.969 92.6902 112.666 92.3865C110.337 91.5092 107.706 92.9601 106.525 98.2239C105.074 98.7976 100.114 97.6503 103.015 94.7147C104.77 95.2884 109.156 92.3865 108.853 90.3282C108.279 88 106.221 86.2454 103.589 86.5154C100.957 86.5154 99.2025 88.8436 97.1779 90.0246C95.4233 89.7209 94.8497 89.4509 93.9724 87.089C93.9724 85.6381 95.4233 84.7608 95.4233 83.2761C94.2423 83.5798 93.9724 81.5215 91.3405 83.5798C91.0368 83.2761 91.3405 82.3988 91.3405 82.3988C90.7669 82.9724 90.4632 83.5798 90.1595 84.4571C90.7331 85.3344 91.3405 86.2117 92.4877 86.7853C93.9387 90.5982 95.4233 91.1718 96.8742 91.1718C97.4479 92.0491 98.6288 92.9264 99.8098 93.2301C99.5061 92.0491 99.5061 91.1718 99.8098 90.0246C103.015 86.819 105.377 88.8436 105.647 89.7209C103.015 90.2945 104.77 96.1319 100.383 93.5338C100.383 94.4111 100.383 95.592 100.957 96.4693C101.531 100.552 106.525 99.4049 107.975 100.282C107.672 96.4693 110.034 93.5675 111.788 93.8712C113.543 94.1749 114.117 97.0767 110.911 100.012C112.969 100.316 114.994 99.7086 116.748 98.5614C116.445 100.89 115.567 102.948 114.117 104.702C124.914 102.374 131.629 91.8466 129.301 81.0491C129.267 78.8896 128.66 76.865 127.512 75.4141Z" fill="black"/>
</svg>
