<svg width="114" height="36" viewBox="0 0 114 36" fill="none" xmlns="http://www.w3.org/2000/svg">
<g clip-path="url(#clip0)">
<path fill-rule="evenodd" clip-rule="evenodd" d="M44.7806 11.7806L48.9777 3.90354C48.9777 3.90354 50.4453 3.90354 60.3347 3.90354C70.1418 3.90354 69.122 13.671 62.2275 16.6643C68.8298 19.8582 64.5094 30.6854 54.9031 30.6066C45.7906 30.6066 41.7356 30.6066 41.7356 30.6066L46.7557 11.7806H44.7806ZM54.0801 14.6951L54.9031 10.9929C54.9031 10.9929 56.8782 10.9929 58.0304 10.9929C61.0517 11.7018 58.4419 14.8526 56.8782 14.6951C55.973 14.6951 54.0801 14.6951 54.0801 14.6951ZM51.6112 23.7536L52.8457 19.5C52.8457 19.5 54.9031 19.5 55.973 19.5C59.6763 20.209 57.372 23.9112 54.9031 23.7536C54.0801 23.7536 51.6112 23.7536 51.6112 23.7536Z" fill="#005FAF"/>
<path fill-rule="evenodd" clip-rule="evenodd" d="M48.9777 3.79061H60.3347C62.8064 3.79061 64.6114 4.40619 65.814 5.39066C67.0177 6.37594 67.6065 7.72144 67.6621 9.15726C67.7709 11.9638 65.8457 15.119 62.4923 16.6703C64.0461 17.4887 64.9689 18.7439 65.3339 20.1745C65.7146 21.6662 65.4877 23.3423 64.7511 24.9091C63.2777 28.043 59.7556 30.7592 54.9025 30.7196H41.7356C41.7356 30.7196 41.7356 30.7196 41.7356 30.6066L41.7356 30.7196H41.5837L46.6038 11.8935H44.5879L48.9054 3.79061H48.9777ZM41.8875 30.4937H54.9031L54.9041 30.4937C59.6571 30.5327 63.0981 27.8747 64.5359 24.8164C65.255 23.2869 65.4707 21.6624 65.1047 20.2281C64.7394 18.7965 63.7935 17.5484 62.1743 16.7651L61.9546 16.6588L62.1788 16.5615C65.5867 15.0819 67.5335 11.9315 67.4263 9.16564C67.3728 7.78543 66.8086 6.50197 65.6607 5.56231C64.5117 4.62183 62.7666 4.01647 60.3347 4.01647H49.05L44.9732 11.6676H46.9076L41.8875 30.4937ZM54.9031 10.8799H58.0446L58.0585 10.8832C58.8363 11.0657 59.2809 11.4131 59.4552 11.8525C59.6276 12.2871 59.5216 12.7779 59.2781 13.2214C59.0337 13.6667 58.6424 14.081 58.2112 14.3748C57.7849 14.6652 57.3023 14.8491 56.8722 14.808H54.0802H53.9344L54.8076 10.8799H54.9031ZM54.2259 14.5821H56.8844L56.8906 14.5827C57.2407 14.618 57.6681 14.4675 58.0744 14.1907C58.4779 13.9158 58.8434 13.5277 59.0692 13.1164C59.296 12.7033 59.3737 12.2833 59.2346 11.9327C59.0982 11.5889 58.7397 11.2784 58.016 11.1058H54.9986L54.2259 14.5821ZM52.756 19.3871H55.9846L55.9961 19.3893C56.9421 19.5704 57.5289 19.9476 57.8177 20.4297C58.1067 20.9121 58.0824 21.4744 57.862 21.9942C57.4251 23.0243 56.192 23.947 54.8992 23.8666H51.6113C51.6113 23.8666 51.6112 23.8666 51.6112 23.849C51.6112 23.8339 51.6112 23.8058 51.6112 23.7536L51.6113 23.8666H51.456L52.756 19.3871ZM51.7664 23.6407H54.907L54.9109 23.6409C56.0857 23.7159 57.2371 22.8671 57.6433 21.9093C57.8446 21.4346 57.8564 20.9483 57.613 20.5421C57.3705 20.1373 56.8598 19.7871 55.9612 19.613H52.9354L51.7664 23.6407Z" fill="#005FAF"/>
<path fill-rule="evenodd" clip-rule="evenodd" d="M89.1878 13.9638L93.4994 6.67857L87.6655 3.76592L86.9044 4.66504C83.7572 3.07051 67.2767 5.2722 66.2449 20.8327C66.8617 33.8861 82.1433 31.5382 83.6423 30.7099L87.8452 22.3938C83.7286 24.9889 75.3 26.2346 74.9436 18.439C75.6829 12.01 83.6125 9.60942 89.1878 13.9638Z" fill="#005FAF"/>
<path fill-rule="evenodd" clip-rule="evenodd" d="M87.6346 3.62309L93.6623 6.63251L89.2215 14.1359L89.1132 14.0513C86.3556 11.8976 83.021 11.4178 80.2885 12.265C77.5604 13.111 75.429 15.28 75.0619 18.4427C75.1515 20.3672 75.7376 21.7206 76.6177 22.6341C77.4993 23.5491 78.687 24.0342 79.9998 24.2009C82.6314 24.5352 85.7396 23.5859 87.7803 22.2995L88.1379 22.0741L83.7328 30.7903L83.7013 30.8077C83.4968 30.9207 83.0782 31.0509 82.515 31.169C81.947 31.2881 81.2195 31.3975 80.3882 31.4642C78.7262 31.5976 76.643 31.5609 74.5852 31.0867C72.5272 30.6126 70.4889 29.6995 68.9259 28.0759C67.3616 26.451 66.2823 24.1236 66.127 20.8378L66.1267 20.8316L66.1272 20.8255C66.6461 13 71.0535 8.52701 75.7272 6.2154C78.0621 5.06059 80.4633 4.44495 82.48 4.21819C83.4883 4.1048 84.4024 4.08843 85.1655 4.1512C85.8744 4.20951 86.461 4.33674 86.8724 4.52344L87.6346 3.62309ZM87.6965 3.90874L86.9349 4.80831L86.8492 4.76485C86.476 4.57578 85.8924 4.43768 85.1453 4.37623C84.4007 4.31499 83.5028 4.33059 82.5075 4.44251C80.5167 4.66636 78.1432 5.2747 75.8356 6.41606C71.2255 8.69617 66.8779 13.1025 66.3631 20.8337C66.5173 24.0713 67.5791 26.3436 69.0994 27.9229C70.6221 29.5045 72.6136 30.4001 74.6404 30.8671C76.6675 31.3342 78.7243 31.371 80.3685 31.2391C81.1903 31.1732 81.9074 31.0652 82.4645 30.9484C82.9946 30.8372 83.369 30.7201 83.5525 30.6282L87.5594 22.7C85.489 23.8991 82.5218 24.7491 79.9688 24.4248C78.6154 24.2529 77.3718 23.75 76.4442 22.7872C75.5163 21.8241 74.9157 20.4126 74.8258 18.4439L74.8254 18.4352L74.8263 18.4266C75.2014 15.165 77.403 12.9224 80.2158 12.0502C82.9907 11.1897 86.357 11.663 89.1536 13.7924L93.3365 6.72463L87.6965 3.90874Z" fill="#005FAF"/>
<path fill-rule="evenodd" clip-rule="evenodd" d="M93.2349 11.5448H95.3992L85.4102 30.6066H95.079L97.064 26.0087H102.999L103.147 30.6066H112.047L110.703 3.90354H97.4482L93.2349 11.5448ZM103.147 19.8187L102.999 12.4029L99.7533 19.8187H103.147Z" fill="#005FAF"/>
<path fill-rule="evenodd" clip-rule="evenodd" d="M97.377 3.79061H110.815L112.171 30.7196H103.033L102.885 26.1216H97.1429L95.1579 30.7196H85.2191L95.208 11.6578H93.0392L97.377 3.79061ZM97.5193 4.01647L93.4306 11.4319H95.5904L85.6014 30.4937H95.0001L96.9851 25.8958H103.113L103.261 30.4937H111.924L110.59 4.01647H97.5193ZM102.89 12.3592L103.117 12.4007L103.267 19.9316H99.576L102.89 12.3592ZM99.9307 19.7057H103.027L102.892 12.9403L99.9307 19.7057Z" fill="#005FAF"/>
<path fill-rule="evenodd" clip-rule="evenodd" d="M33.5281 4.86C37.9609 14.1026 37.3415 22.9654 33.5907 30.3311C25.61 34.1676 15.7929 34.4506 6.91659 30.1513C2.62974 21.4759 2.76198 11.6809 6.91659 4.6802C14.9734 0.85129 25.0721 0.736659 33.5281 4.86ZM34.0301 4.26354C38.6402 13.8753 37.996 23.0922 34.0953 30.7522C25.7953 34.7419 15.5857 35.0363 6.35442 30.5652C1.89614 21.5432 2.03366 11.357 6.35442 4.07656C14.7334 0.0946875 25.2359 -0.0245223 34.0301 4.26354Z" fill="#005FAF"/>
<path fill-rule="evenodd" clip-rule="evenodd" d="M6.43923 4.16237C2.16328 11.3945 2.02308 21.5089 6.4438 30.4819C15.6183 34.9118 25.7567 34.6209 34.0067 30.6684C37.8719 23.0545 38.5095 13.8996 33.94 4.34637C25.1984 0.098415 14.7683 0.216685 6.43923 4.16237ZM6.30195 3.97541C14.7138 -0.0221059 25.2557 -0.141622 34.0837 4.16292L34.1203 4.18074L34.1374 4.21643C38.7625 13.8596 38.1172 23.1119 34.2013 30.8016L34.1839 30.836L34.1482 30.8531C25.8156 34.8586 15.5665 35.1536 6.30115 30.666L6.26506 30.6485L6.24776 30.6135C1.77569 21.5636 1.90922 11.338 6.25183 4.02079L6.26965 3.99077L6.30195 3.97541ZM7.0014 4.76601C2.89159 11.7185 2.75669 21.4416 7.00598 30.068C15.8255 34.3262 25.5713 34.0466 33.5021 30.2473C37.2173 22.9277 37.8302 14.1268 33.438 4.94283C25.0345 0.859596 15.0083 0.973286 7.0014 4.76601ZM6.86412 4.57905C14.9538 0.734496 25.0918 0.619559 33.5817 4.75937L33.6182 4.7772L33.6353 4.81289C38.0831 14.0868 37.4627 22.9851 33.6968 30.3806L33.6793 30.4149L33.6437 30.432C25.6302 34.2842 15.7737 34.5679 6.86332 30.252L6.82723 30.2346L6.80993 30.1996C2.5093 21.4962 2.63754 11.6619 6.814 4.62443L6.83182 4.59441L6.86412 4.57905Z" fill="#005FAF"/>
<path fill-rule="evenodd" clip-rule="evenodd" d="M17.4901 26.0087H18.092C18.092 26.0087 18.4581 23.7076 15.9069 21.9584C14.2984 20.8556 9.66484 20.6196 8.92538 19.1787C7.43235 21.313 8.64606 23.7803 10.3178 24.3492C12.9809 25.2851 16.3057 22.5335 17.4901 26.0087Z" fill="#005FAF"/>
<path fill-rule="evenodd" clip-rule="evenodd" d="M8.94112 18.9533L9.03128 19.129C9.19685 19.4516 9.59134 19.7228 10.1503 19.9628C10.7046 20.2008 11.3954 20.3979 12.1212 20.5863C12.3312 20.6409 12.5444 20.6947 12.7577 20.7486C13.2775 20.8799 13.798 21.0114 14.2764 21.1536C14.95 21.3537 15.557 21.5795 15.9756 21.8666C17.2754 22.7578 17.8362 23.7933 18.0699 24.6097C18.1866 25.017 18.2216 25.3687 18.2273 25.6194C18.2302 25.7448 18.2257 25.845 18.2204 25.9146C18.2178 25.9494 18.2149 25.9765 18.2127 25.9952C18.2116 26.0046 18.2106 26.0119 18.2099 26.017L18.209 26.023L18.2088 26.0248L18.2087 26.0253C18.2087 26.0254 18.2086 26.0257 18.092 26.0087L18.2086 26.0257L18.1934 26.1216H17.4045L17.378 26.0437C17.0886 25.1946 16.6755 24.7443 16.1921 24.5162C15.7033 24.2855 15.1215 24.2713 14.4712 24.339C14.155 24.3719 13.8274 24.4235 13.4899 24.4766L13.4643 24.4807C13.1191 24.535 12.7641 24.5905 12.4079 24.6269C11.6962 24.6997 10.9682 24.6979 10.2777 24.4554C8.53285 23.8611 7.29223 21.3103 8.82734 19.1159L8.94112 18.9533ZM17.9852 25.8958C17.99 25.8327 17.994 25.7404 17.9914 25.6243C17.986 25.3889 17.9531 25.056 17.8424 24.6694C17.6214 23.8979 17.0896 22.9083 15.8382 22.0502C15.4526 21.7858 14.8772 21.5686 14.2065 21.3693C13.7331 21.2286 13.2205 21.0991 12.7029 20.9684C12.4884 20.9142 12.2731 20.8598 12.0594 20.8043C11.3333 20.6158 10.6265 20.4148 10.0537 20.1689C9.56683 19.9598 9.15787 19.7106 8.92237 19.3932C7.63048 21.4301 8.79782 23.712 10.3574 24.2428L10.3585 24.2432C10.9994 24.4684 11.6854 24.4736 12.3829 24.4023C12.7314 24.3667 13.08 24.3123 13.426 24.2578L13.4544 24.2533C13.7897 24.2005 14.1229 24.148 14.4457 24.1144C15.1076 24.0456 15.7455 24.0536 16.2965 24.3136C16.8363 24.5684 17.2729 25.0552 17.575 25.8958H17.9852Z" fill="#005FAF"/>
<path fill-rule="evenodd" clip-rule="evenodd" d="M21.8883 26.0087H22.4438C24.1257 22.2574 27.247 26.1457 30.5023 23.9111C31.8121 23.012 32.2631 21.2585 31.0086 19.1787C30.2831 21.2767 22.3461 19.9635 21.8883 26.0087Z" fill="#005FAF"/>
<path fill-rule="evenodd" clip-rule="evenodd" d="M30.9792 18.9042L31.1108 19.1223C31.7481 20.1789 31.958 21.1624 31.8339 22.0035C31.7096 22.8455 31.2515 23.5358 30.5711 24.0028C29.0511 25.0462 27.5522 24.7899 26.2546 24.568C26.1221 24.5454 25.9917 24.523 25.8635 24.5025C25.1642 24.3905 24.5425 24.3319 23.9943 24.519C23.4545 24.7032 22.9642 25.1343 22.5522 26.0532L22.5216 26.1216H21.7614L21.7706 26.0005C21.8871 24.4626 22.4809 23.3849 23.3224 22.6051C24.1606 21.8282 25.2376 21.3534 26.3103 21.0065C26.8471 20.8329 27.3853 20.6905 27.8939 20.5588C27.9463 20.5452 27.9982 20.5318 28.0499 20.5184C28.5015 20.4017 28.9256 20.292 29.3053 20.1735C29.7288 20.0413 30.0888 19.9004 30.3634 19.7316C30.6372 19.5633 30.8172 19.3726 30.8966 19.1433L30.9792 18.9042ZM31.0184 19.4282C30.8975 19.6231 30.7147 19.784 30.4909 19.9216C30.1908 20.1061 29.8082 20.2541 29.3784 20.3882C28.9926 20.5087 28.5623 20.6199 28.1119 20.7364C28.06 20.7498 28.0079 20.7632 27.9556 20.7768C27.4471 20.9085 26.9151 21.0493 26.3858 21.2205C25.3264 21.5631 24.2879 22.0247 23.4865 22.7674C22.7102 23.4868 22.1498 24.4762 22.0162 25.8958H22.3666C22.7899 24.984 23.3098 24.5128 23.9151 24.3062C24.5269 24.0975 25.2043 24.1679 25.9025 24.2798C26.0319 24.3005 26.1625 24.3227 26.294 24.345C27.5971 24.5665 28.9983 24.8046 30.4336 23.8193C31.063 23.3873 31.4852 22.7512 31.6002 21.9719C31.7081 21.2408 31.5466 20.3758 31.0184 19.4282Z" fill="#005FAF"/>
<path fill-rule="evenodd" clip-rule="evenodd" d="M19.6661 26.0087H20.3605C20.3614 23.484 19.872 19.337 21.1575 16.1714C22.7311 13.2184 23.9952 13.6444 25.2593 10.68C25.9942 7.71511 24.6701 4.53067 20.3605 4.10726C15.3895 4.36314 13.91 7.68639 14.7792 10.7576C15.3283 12.6979 17.8061 13.7785 18.7851 16.1806C20.0775 19.3491 19.6045 23.6547 19.6661 26.0087Z" fill="#005FAF"/>
<path fill-rule="evenodd" clip-rule="evenodd" d="M20.3634 3.99401L20.3725 3.99492C22.5584 4.20968 24.0025 5.12766 24.8023 6.38173C25.5998 7.63225 25.747 9.20153 25.3741 10.7061L25.372 10.7146L25.3685 10.7227C24.7284 12.224 24.0847 12.871 23.4073 13.5104C23.3759 13.5401 23.3444 13.5697 23.3128 13.5994C22.6736 14.2011 22.0055 14.83 21.2653 16.2176C20.6317 17.7809 20.4335 19.5913 20.3952 21.3328C20.3761 22.2037 20.3969 23.0553 20.4226 23.8482C20.4277 24.0067 20.433 24.163 20.4383 24.3166C20.4592 24.9303 20.4787 25.5021 20.4785 26.0087L20.4784 26.1216H19.551L19.5481 26.0115C19.5344 25.4881 19.547 24.869 19.5608 24.1912C19.5626 24.1029 19.5644 24.0136 19.5662 23.9234C19.5817 23.1394 19.5946 22.2838 19.5692 21.4032C19.5183 19.6405 19.3139 17.7876 18.6752 16.2217C18.1953 15.0443 17.3477 14.1885 16.5356 13.3739L16.5107 13.349C15.7144 12.5502 14.9462 11.7798 14.6653 10.7871C14.2238 9.2274 14.376 7.59318 15.2821 6.31333C16.19 5.03083 17.841 4.12386 20.3542 3.99449L20.3634 3.99401ZM15.4774 6.44003C14.6183 7.65357 14.4653 9.21655 14.893 10.728C15.1583 11.6652 15.8903 12.3995 16.7059 13.2176L16.7063 13.218C17.5151 14.0293 18.3959 14.9148 18.8951 16.1396C19.5487 17.7422 19.754 19.6263 19.8051 21.397C19.8306 22.2832 19.8176 23.1433 19.8021 23.9277C19.8003 24.018 19.7985 24.1073 19.7967 24.1955C19.7839 24.8269 19.7722 25.4017 19.7815 25.8958H20.2422C20.2398 25.4218 20.2218 24.8937 20.2025 24.326C20.1972 24.1719 20.1919 24.0149 20.1867 23.8552C20.161 23.0615 20.14 22.2051 20.1593 21.328C20.1979 19.5753 20.3973 17.7316 21.0475 16.1305L21.0496 16.1252L21.0523 16.1201C21.8111 14.6963 22.5016 14.0463 23.1474 13.4383C23.1789 13.4087 23.2103 13.3791 23.2416 13.3496C23.9045 12.7238 24.5238 12.1028 25.1466 10.6455C25.5059 9.18777 25.3576 7.6859 24.6009 6.49942C23.8461 5.31589 22.4761 4.43081 20.3576 4.22051C17.9051 4.34875 16.3336 5.23066 15.4774 6.44003Z" fill="#005FAF"/>
<path fill-rule="evenodd" clip-rule="evenodd" d="M18.6564 26.0083C18.5273 24.6296 18.1829 23.471 17.4443 22.5843C14.0576 18.5188 7.13388 21.5795 8.91304 14.6706C9.83809 11.1384 20.3892 9.05531 19.1778 26.0026L18.6564 26.0083Z" fill="#005FAF"/>
<path fill-rule="evenodd" clip-rule="evenodd" d="M11.1219 12.6725C10.0452 13.0905 9.24711 13.8598 9.02754 14.6978C8.5856 16.4141 8.69219 17.4829 9.12137 18.1936C9.55033 18.9039 10.3183 19.285 11.2783 19.5864C11.6734 19.7105 12.0955 19.8195 12.5354 19.9331C12.629 19.9573 12.7234 19.9817 12.8185 20.0065C13.3588 20.1472 13.9195 20.3002 14.4737 20.4984C15.5831 20.8954 16.672 21.4761 17.5366 22.5139C18.2766 23.4023 18.6262 24.5499 18.7637 25.8942L19.0673 25.8909C19.6458 17.502 17.3177 13.8793 14.7969 12.7592C13.5285 12.1956 12.195 12.2559 11.1219 12.6725ZM14.8963 12.5544C17.569 13.7419 19.902 17.5261 19.2955 26.0103L19.288 26.1144L18.5486 26.1224L18.5388 26.0184C18.4108 24.6501 18.0702 23.5168 17.3521 22.6547C16.5233 21.6598 15.4767 21.0985 14.391 20.71C13.8476 20.5156 13.2958 20.3649 12.7566 20.2244C12.6627 20.2 12.5691 20.1758 12.476 20.1517C12.036 20.0381 11.6064 19.9272 11.2047 19.801C10.2327 19.4958 9.39174 19.0926 8.91706 18.3066C8.4426 17.521 8.35091 16.3816 8.79848 14.6435L8.79859 14.6431C9.04163 13.7151 9.9093 12.8995 11.0332 12.4632C12.1607 12.0254 13.5627 11.9618 14.8963 12.5544Z" fill="#005FAF"/>
<path fill-rule="evenodd" clip-rule="evenodd" d="M20.8239 26.0333H21.4422C21.4529 24.059 22.1704 22.7567 23.5343 21.6214C27.1423 19.1119 32.775 20.7903 31.0257 14.6709C29.749 11.6212 23.9917 10.423 21.4758 17.2035C20.7198 19.2408 20.7868 22.0567 20.8239 26.0333Z" fill="#005FAF"/>
<path fill-rule="evenodd" clip-rule="evenodd" d="M26.7047 12.1384C28.6682 11.9672 30.4768 13.056 31.1353 14.6288L31.1378 14.6348L31.1396 14.6411C31.5799 16.1815 31.5628 17.254 31.2087 18.0308C30.8529 18.8112 30.1681 19.2692 29.3347 19.604C28.757 19.8361 28.0938 20.0138 27.407 20.1979C27.1098 20.2776 26.8081 20.3584 26.507 20.4454C25.5042 20.735 24.4926 21.0956 23.6078 21.7098C22.9372 22.2688 22.4296 22.8652 22.0876 23.5608C21.7449 24.2577 21.5655 25.0601 21.5602 26.0339L21.5596 26.1462H20.707L20.706 26.0343C20.7042 25.8423 20.7023 25.653 20.7005 25.4662C20.6833 23.721 20.6684 22.2044 20.7346 20.8857C20.8079 19.426 20.9809 18.1998 21.3646 17.1657C22.6329 13.7476 24.7321 12.3103 26.7047 12.1384ZM26.7261 12.3633C24.872 12.5249 22.8346 13.8788 21.587 17.2413C21.2147 18.2445 21.0432 19.4449 20.9703 20.8966C20.9044 22.2084 20.9193 23.718 20.9364 25.4652C20.9379 25.6152 20.9394 25.7669 20.9409 25.9204H21.3256C21.3438 24.9693 21.5279 24.1687 21.8741 23.4646C22.2337 22.7331 22.7656 22.1116 23.4568 21.5362L23.4607 21.5329L23.4649 21.53C24.3832 20.8913 25.427 20.5214 26.4389 20.2291C26.7515 20.1388 27.0597 20.0562 27.3602 19.9757C28.0396 19.7937 28.6798 19.6221 29.2433 19.3957C30.0505 19.0715 30.6713 18.6449 30.9924 17.9405C31.3147 17.2334 31.3462 16.2228 30.9137 14.7069C30.2933 13.2332 28.587 12.2011 26.7261 12.3633Z" fill="#005FAF"/>
<path fill-rule="evenodd" clip-rule="evenodd" d="M11.8278 28.8443L12.6625 29.1106L12.2606 30.4422L11.9205 30.3534L11.9515 30.1463C11.5353 30.3278 10.7733 30.1918 10.684 29.732C10.5944 29.3627 10.8654 28.2431 11.3023 27.7199C11.7268 27.2114 12.7609 27.7086 12.7861 28.0158C12.8113 28.3222 12.685 28.6668 12.685 28.6668L12.2957 28.5964C12.2957 28.5964 12.3194 28.4857 12.3533 28.3117C12.3894 28.1269 11.8862 27.942 11.7351 28.1342C11.5943 28.3132 11.3122 28.9378 11.2713 29.4361C11.228 29.9638 11.7576 29.8527 11.8896 29.7912C11.9961 29.7416 12.0751 29.3178 12.0751 29.3178L11.7041 29.1994L11.8278 28.8443Z" fill="#005FAF"/>
<path fill-rule="evenodd" clip-rule="evenodd" d="M12.1571 27.6693C11.8576 27.5749 11.5594 27.5928 11.3944 27.7904C11.1906 28.0345 11.019 28.428 10.9096 28.8133C10.8553 29.0044 10.8174 29.1897 10.7986 29.3482C10.7794 29.5097 10.7812 29.6334 10.7989 29.7065L10.7995 29.7089L10.8 29.7114C10.8328 29.8801 10.9932 30.0075 11.2273 30.071C11.4594 30.1339 11.7245 30.1212 11.9025 30.0435L12.0988 29.9579L12.0521 30.2707L12.1795 30.304L12.5177 29.1835L11.9024 28.9872L11.8534 29.128L12.2092 29.2415L12.1913 29.3376L12.0751 29.3178C12.1913 29.3376 12.1913 29.3376 12.1913 29.3376L12.1912 29.3381L12.191 29.3392L12.1902 29.3432C12.1896 29.3465 12.1886 29.3514 12.1873 29.3576C12.1849 29.3699 12.1812 29.3874 12.1765 29.4084C12.1671 29.4504 12.1533 29.5074 12.1359 29.5666C12.1187 29.625 12.0969 29.689 12.0708 29.7434C12.0578 29.7706 12.0423 29.7984 12.0238 29.8229C12.0064 29.8458 11.9797 29.8749 11.9412 29.8928C11.8962 29.9137 11.8272 29.935 11.7507 29.9472C11.6739 29.9595 11.5804 29.9642 11.4892 29.9448C11.3963 29.9251 11.3008 29.879 11.2342 29.7873C11.1683 29.6966 11.1415 29.576 11.1537 29.4273C11.1753 29.1638 11.2598 28.8722 11.3551 28.6262C11.4495 28.3823 11.5599 28.1691 11.6408 28.0663C11.7046 27.9851 11.7999 27.9514 11.8882 27.9425C11.9766 27.9337 12.0699 27.948 12.1522 27.9746C12.2342 28.0011 12.3146 28.0428 12.3744 28.097C12.4319 28.1491 12.489 28.2317 12.4693 28.3325C12.4559 28.4013 12.444 28.4603 12.4346 28.5066L12.6028 28.537C12.6113 28.5073 12.6207 28.4717 12.6298 28.4321C12.6571 28.3123 12.6798 28.1619 12.6685 28.0247C12.6677 28.0141 12.661 27.9923 12.6367 27.9599C12.6131 27.9284 12.5773 27.8931 12.5297 27.8567C12.4345 27.784 12.3023 27.715 12.1571 27.6693ZM12.685 28.6668C12.7963 28.7042 12.7964 28.7042 12.7964 28.7041L12.7965 28.7036L12.7969 28.7026L12.7982 28.699C12.7992 28.696 12.8007 28.6918 12.8026 28.6863C12.8063 28.6754 12.8115 28.6598 12.8175 28.6401C12.8296 28.601 12.8454 28.5457 12.8603 28.4803C12.8898 28.3511 12.9177 28.176 12.9038 28.007C12.8983 27.9407 12.8671 27.8798 12.8284 27.8282C12.789 27.7756 12.7365 27.7257 12.677 27.6802C12.5579 27.5892 12.4003 27.5081 12.2308 27.4547C11.9008 27.3508 11.4697 27.3385 11.2101 27.6494C10.977 27.9286 10.7948 28.3564 10.6818 28.7541C10.6249 28.9544 10.5845 29.151 10.5641 29.3226C10.5442 29.49 10.542 29.6438 10.5684 29.7551C10.626 30.0446 10.8905 30.2144 11.163 30.2883C11.3695 30.3443 11.6034 30.3526 11.8079 30.3095L11.789 30.4361L12.3417 30.5804L12.8073 29.0378L11.7532 28.7015L11.5549 29.2708L11.9383 29.3932C11.9304 29.4267 11.9204 29.4657 11.9087 29.5052C11.8929 29.559 11.875 29.6103 11.8563 29.6492C11.8469 29.6688 11.8388 29.6822 11.8326 29.6904C11.8319 29.6914 11.8312 29.6922 11.8307 29.6929C11.8072 29.7026 11.7642 29.7161 11.7117 29.7245C11.6535 29.7338 11.5925 29.7354 11.5403 29.7243C11.4897 29.7136 11.4526 29.6923 11.428 29.6584C11.4026 29.6235 11.3795 29.5601 11.389 29.445C11.4082 29.2101 11.4852 28.9402 11.5764 28.7046C11.6684 28.4668 11.7694 28.2783 11.8293 28.2021C11.8411 28.1871 11.8654 28.1719 11.9128 28.1672C11.9601 28.1624 12.0188 28.1699 12.0767 28.1886C12.1348 28.2074 12.1829 28.2345 12.2121 28.261C12.2322 28.2792 12.2362 28.2898 12.237 28.2929C12.2202 28.3786 12.206 28.4487 12.196 28.4975C12.191 28.5221 12.187 28.5412 12.1843 28.5542L12.1812 28.5689L12.1801 28.5738L12.1561 28.6861L12.7628 28.7958L12.7964 28.7041L12.685 28.6668ZM12.2371 28.2939C12.2371 28.2939 12.2371 28.2937 12.2371 28.2934L12.2371 28.2939ZM11.8279 29.6959C11.8279 29.6959 11.828 29.6958 11.8282 29.6957L11.8279 29.6959Z" fill="#005FAF"/>
<path fill-rule="evenodd" clip-rule="evenodd" d="M13.2013 30.6538L13.8005 28.0728C15.2648 28.2254 15.3931 28.6158 15.422 29.0343C15.3643 29.3594 15.2737 29.586 14.9814 29.6417C15.3238 29.9389 14.9856 30.5618 14.9814 31.025L14.4703 30.9069C14.5302 30.5025 15.0312 29.6801 14.0409 29.6801L13.7653 30.755L13.2013 30.6538ZM14.153 29.2368L14.3117 28.6295C14.8968 28.6351 14.8871 28.8597 14.8757 29.085C14.7066 29.4447 14.408 29.2467 14.153 29.2368Z" fill="#005FAF"/>
<path fill-rule="evenodd" clip-rule="evenodd" d="M13.7083 27.9495L13.8133 27.9605C14.5502 28.0373 14.9773 28.1756 15.2237 28.366C15.4813 28.565 15.5246 28.8074 15.5398 29.0269L15.5407 29.0401L15.5384 29.0533C15.5091 29.2179 15.4693 29.3741 15.3904 29.4978C15.3367 29.5822 15.2661 29.6496 15.1743 29.696C15.2755 29.8742 15.2609 30.0932 15.2279 30.2891C15.213 30.3775 15.1924 30.4703 15.1726 30.5598C15.1638 30.5999 15.155 30.6394 15.147 30.6775C15.1203 30.8047 15.1003 30.9216 15.0994 31.0259L15.0981 31.1681L14.3384 30.9926L14.3535 30.891C14.3669 30.8005 14.4002 30.6915 14.4325 30.5856C14.4399 30.5614 14.4472 30.5373 14.4543 30.5136C14.4942 30.3795 14.5276 30.2508 14.5315 30.1381C14.5354 30.0265 14.5101 29.9489 14.4528 29.8966C14.4015 29.8497 14.3069 29.8069 14.1327 29.7958L13.8533 30.8857L13.0596 30.7433L13.7083 27.9495ZM13.8926 28.1967L13.3429 30.5643L13.6773 30.6244L13.9484 29.5672H14.0409C14.3021 29.5672 14.4927 29.6209 14.6157 29.7332C14.7411 29.8477 14.7724 30.001 14.7674 30.1456C14.7624 30.289 14.7211 30.4417 14.6812 30.5756C14.6728 30.6037 14.6646 30.6309 14.6566 30.657C14.6382 30.7176 14.6214 30.7728 14.6084 30.8226L14.8727 30.8837C14.8823 30.8001 14.8983 30.7154 14.9157 30.633C14.9247 30.5898 14.9341 30.5477 14.9433 30.5062C14.9624 30.4196 14.9809 30.3361 14.9949 30.2531C15.0372 30.002 15.0229 29.8302 14.9021 29.7253L14.7286 29.5746L14.9584 29.5309C15.0713 29.5094 15.1393 29.4583 15.189 29.3803C15.2415 29.2978 15.2753 29.1824 15.3034 29.0286C15.2889 28.8356 15.2512 28.6775 15.0754 28.5417C14.8938 28.4014 14.5511 28.274 13.8926 28.1967ZM14.2198 28.5156L14.3128 28.5165C14.6126 28.5194 14.8059 28.5772 14.9104 28.7054C15.0075 28.8245 14.9995 28.9758 14.9941 29.0781C14.9939 29.0823 14.9937 29.0864 14.9935 29.0904L14.9924 29.1118L14.9833 29.1313C14.934 29.2361 14.8696 29.312 14.7878 29.3588C14.7058 29.4056 14.6194 29.4158 14.541 29.4123C14.4672 29.409 14.3926 29.3929 14.3297 29.3793C14.3277 29.3789 14.3257 29.3784 14.3238 29.378C14.2552 29.3632 14.1994 29.3516 14.1482 29.3496L14.0034 29.344L14.2198 28.5156ZM14.403 28.7455L14.2995 29.1419C14.3249 29.1467 14.3494 29.152 14.3723 29.1569L14.3756 29.1577C14.4445 29.1725 14.5005 29.1844 14.5521 29.1867C14.6013 29.1889 14.6372 29.1818 14.6668 29.1649C14.6938 29.1494 14.7265 29.1195 14.7589 29.0572C14.7636 28.9483 14.7595 28.8875 14.7243 28.8443C14.6942 28.8074 14.6171 28.7583 14.403 28.7455Z" fill="#005FAF"/>
<path fill-rule="evenodd" clip-rule="evenodd" d="M16.288 28.4896L16.8195 28.5691L16.587 30.3812C16.6163 30.9809 17.2447 30.945 17.3675 30.5084L17.6166 28.6168L18.065 28.6486L17.8657 30.7309C17.6646 31.6478 16.2358 31.5251 16.0555 30.6514L16.288 28.4896Z" fill="#005FAF"/>
<path fill-rule="evenodd" clip-rule="evenodd" d="M16.1834 28.3596L16.9505 28.4744L16.7053 30.3851C16.7131 30.5113 16.7508 30.5931 16.7944 30.6429C16.8384 30.6931 16.8936 30.717 16.9501 30.7207C17.0631 30.728 17.2015 30.6525 17.2515 30.4861L17.5136 28.4962L18.1935 28.5444L17.9826 30.7477L17.9812 30.7541C17.8658 31.2803 17.3939 31.5033 16.9451 31.4753C16.4998 31.4476 16.0426 31.1716 15.9398 30.6733L15.9364 30.6567L16.1834 28.3596ZM16.3927 28.6195L16.1748 30.6456C16.2587 31.0113 16.6012 31.2275 16.9605 31.25C17.3195 31.2724 17.6609 31.1002 17.7489 30.7139L17.9366 28.7527L17.7197 28.7373L17.4836 30.5302L17.4815 30.5377C17.4068 30.803 17.1719 30.9615 16.9342 30.9461C16.8147 30.9383 16.6995 30.8861 16.6136 30.788C16.5283 30.6907 16.4773 30.5549 16.4691 30.3865L16.4686 30.3769L16.6884 28.6638L16.3927 28.6195Z" fill="#005FAF"/>
<path fill-rule="evenodd" clip-rule="evenodd" d="M18.8124 31.4303L18.9618 28.7121C19.9983 28.7326 20.5926 28.8699 20.5727 29.5705C20.5112 30.528 19.7013 30.3127 19.3272 30.3017L19.2275 31.4462L18.8124 31.4303ZM19.4767 29.2049L19.377 29.8725C19.6333 29.8484 19.9487 30.06 20.0745 29.5864C20.065 29.2171 19.7716 29.1969 19.4767 29.2049Z" fill="#005FAF"/>
<path fill-rule="evenodd" clip-rule="evenodd" d="M18.85 28.597L18.9643 28.5992C19.4809 28.6094 19.9126 28.6482 20.2138 28.7842C20.3681 28.8538 20.4931 28.951 20.5767 29.0862C20.66 29.2208 20.6961 29.3831 20.6907 29.5736L20.6906 29.5755L20.6905 29.5774C20.6742 29.8316 20.6073 30.0213 20.4988 30.1584C20.3892 30.2969 20.2455 30.3713 20.0971 30.4085C19.951 30.4452 19.7984 30.4465 19.6645 30.4395C19.6004 30.4362 19.5385 30.4308 19.483 30.4259L19.4749 30.4252C19.4611 30.424 19.4479 30.4228 19.4351 30.4218L19.3357 31.5634L18.6883 31.5386L18.85 28.597ZM19.0736 28.8279L18.9365 31.322L19.1193 31.329L19.2189 30.1855L19.3308 30.1888C19.3818 30.1903 19.439 30.1953 19.4963 30.2003L19.5034 30.2009C19.5597 30.2058 19.6177 30.2109 19.6774 30.214C19.8025 30.2205 19.9264 30.2179 20.0372 30.1901C20.1457 30.1628 20.2394 30.1122 20.3107 30.0221C20.3828 29.9309 20.4402 29.789 20.4549 29.5655C20.4591 29.4066 20.4284 29.2897 20.3737 29.2013C20.319 29.113 20.2344 29.0432 20.1131 28.9884C19.8817 28.8839 19.5358 28.8417 19.0736 28.8279ZM20.1199 29.312C20.1663 29.3865 20.1897 29.4773 20.1925 29.5836L20.1929 29.5991L20.1889 29.6142C20.1544 29.7441 20.1032 29.8419 20.0302 29.909C19.9546 29.9785 19.8672 30.0045 19.7837 30.0106C19.709 30.0161 19.6321 30.0058 19.5696 29.9974C19.5664 29.9969 19.5632 29.9965 19.5601 29.9961C19.4901 29.9867 19.4363 29.9804 19.3886 29.9849L19.2389 29.999L19.3739 29.0947L19.4733 29.092C19.6181 29.0881 19.7926 29.0888 19.9329 29.152C20.0069 29.1854 20.0728 29.2365 20.1199 29.312ZM19.5791 29.3168C19.6835 29.3179 19.7689 29.3277 19.8323 29.3563C19.8697 29.3732 19.8974 29.3958 19.9172 29.4277C19.9364 29.4584 19.9523 29.5042 19.956 29.5738C19.9283 29.6707 19.8949 29.7202 19.8668 29.7461C19.8398 29.7708 19.8088 29.7823 19.7657 29.7854C19.7176 29.789 19.6639 29.7819 19.5928 29.7724L19.5911 29.7722C19.5669 29.7689 19.5404 29.7654 19.5126 29.7626L19.5791 29.3168Z" fill="#005FAF"/>
<path fill-rule="evenodd" clip-rule="evenodd" d="M22.8646 31.3349L22.4162 28.7121C22.648 28.6758 23.7842 28.2775 24.0603 28.9983C24.1966 29.4386 24.0553 29.5967 23.8942 29.793C24.1995 29.8871 24.3028 30.1147 24.3758 30.3653C24.399 30.7611 24.2587 31.0242 23.9939 31.1124L22.8646 31.3349ZM22.9808 28.9983L23.1137 29.6818C23.4395 29.6125 23.6072 29.4278 23.5787 29.189C23.5361 29.0073 23.3774 28.873 22.9808 28.9983ZM23.2299 30.1904L23.3462 30.8898C23.6182 30.8964 23.8665 30.7399 23.7946 30.413C23.7254 30.0986 23.4494 30.1484 23.2299 30.1904Z" fill="#005FAF"/>
<path fill-rule="evenodd" clip-rule="evenodd" d="M22.5506 28.7988L22.9612 31.2006L23.962 31.0034C24.1491 30.9374 24.2767 30.7436 24.2587 30.3837C24.1884 30.1468 24.0991 29.9748 23.8581 29.9005L23.6968 29.8508L23.8014 29.7233C23.8032 29.7212 23.8049 29.7191 23.8066 29.717C23.8877 29.6182 23.9459 29.5472 23.976 29.4538C24.0053 29.363 24.011 29.2381 23.9483 29.0339C23.8907 28.886 23.7922 28.7989 23.6715 28.7475C23.5458 28.694 23.3911 28.6775 23.2266 28.6841C23.0631 28.6907 22.8987 28.7197 22.7582 28.7503C22.6944 28.7642 22.6365 28.7781 22.5858 28.7904C22.5807 28.7916 22.5758 28.7928 22.5709 28.794C22.564 28.7956 22.5572 28.7972 22.5506 28.7988ZM23.7675 28.5412C23.9439 28.6163 24.0904 28.7488 24.1711 28.9594L24.1724 28.9627L24.1734 28.9662C24.2458 29.2001 24.2489 29.3736 24.2015 29.5204C24.1732 29.6081 24.128 29.6816 24.0794 29.7471C24.3305 29.8817 24.4256 30.1158 24.4895 30.3349L24.4929 30.3467L24.4937 30.359C24.5182 30.7785 24.3693 31.1069 24.0327 31.219L24.0253 31.2215L22.768 31.4693L22.2807 28.6189L22.3971 28.6007C22.4201 28.5971 22.4576 28.5883 22.5133 28.5749C22.5181 28.5738 22.5231 28.5725 22.5282 28.5713C22.5788 28.5591 22.6393 28.5445 22.7059 28.53C22.8523 28.4982 23.0326 28.4659 23.2167 28.4585C23.3997 28.4511 23.5953 28.4679 23.7675 28.5412ZM23.4608 28.8755C23.5988 28.9348 23.667 29.0498 23.6938 29.1643L23.6952 29.1702L23.6959 29.1762C23.7138 29.3263 23.6694 29.4646 23.567 29.5742C23.4668 29.6815 23.3185 29.7539 23.1393 29.792L23.02 29.8174L22.846 28.9219L22.9439 28.891C23.1553 28.8242 23.3279 28.8184 23.4608 28.8755ZM23.1165 29.0789L23.2058 29.5381C23.2894 29.5074 23.3502 29.4674 23.3911 29.4237C23.4456 29.3654 23.4709 29.2939 23.4621 29.2079C23.4459 29.144 23.4138 29.1029 23.3642 29.0816C23.3188 29.0621 23.2417 29.0516 23.1165 29.0789ZM23.7931 30.1614C23.851 30.219 23.8894 30.2957 23.91 30.3897C23.9532 30.5857 23.9016 30.7483 23.7806 30.8583C23.6649 30.9636 23.5011 31.0065 23.3432 31.0027L23.2451 31.0004L23.0956 30.101L23.2068 30.0797C23.2086 30.0793 23.2105 30.079 23.2123 30.0786C23.316 30.0587 23.4623 30.0307 23.5934 30.0576C23.6644 30.0722 23.7348 30.1033 23.7931 30.1614ZM23.3646 30.2817L23.4458 30.7705C23.5173 30.7588 23.5771 30.7319 23.6181 30.6946C23.6713 30.6462 23.7079 30.5671 23.6791 30.4362C23.6652 30.373 23.6432 30.3381 23.623 30.3179C23.6032 30.2982 23.578 30.2855 23.5439 30.2785C23.4932 30.268 23.4329 30.2716 23.3646 30.2817Z" fill="#005FAF"/>
<path fill-rule="evenodd" clip-rule="evenodd" d="M26.0864 28.9188L26.568 28.8393C26.4673 28.5039 26.533 28.0254 25.4221 28.1876C24.7453 28.3364 24.9425 29.1498 25.0567 29.9202C25.2529 30.8203 25.3949 30.9555 26.1196 30.9057C26.4575 30.8435 26.9093 30.7506 26.7839 29.8407L26.3023 29.9043C26.3546 30.1471 26.4122 30.3332 26.1362 30.5242C25.8982 30.5536 25.793 30.6071 25.638 30.3176L25.3889 29.0618C25.3409 28.7941 25.4322 28.6357 25.6546 28.5373C25.8988 28.5161 26.0096 28.6306 26.0864 28.9188Z" fill="#005FAF"/>
<path fill-rule="evenodd" clip-rule="evenodd" d="M26.6508 28.6848C26.6609 28.7301 26.6701 28.7705 26.6814 28.8081L26.7178 28.9292L25.999 29.0478L25.9721 28.9467C25.935 28.8074 25.8947 28.7329 25.8518 28.6937C25.8185 28.6633 25.7722 28.6439 25.6855 28.6483C25.6021 28.6883 25.5532 28.7344 25.5259 28.7866C25.4962 28.8433 25.4839 28.9231 25.505 29.0418L25.7507 30.2802C25.8197 30.4051 25.8621 30.4252 25.8862 30.4313C25.9033 30.4357 25.9268 30.4368 25.9674 30.4327C25.9924 30.4302 26.0147 30.427 26.0408 30.4232C26.0555 30.4211 26.0715 30.4187 26.09 30.4163C26.1886 30.3422 26.2173 30.2787 26.2253 30.2192C26.2348 30.1486 26.2182 30.0723 26.1938 29.9597C26.1915 29.9492 26.1892 29.9383 26.1867 29.9271L26.1613 29.8089L26.8854 29.7133L26.9009 29.826C26.9656 30.2956 26.8861 30.5872 26.7122 30.7677C26.5435 30.9426 26.3084 30.986 26.1441 31.0162L26.135 31.0179L26.1281 31.0184C25.7684 31.0431 25.4999 31.0289 25.3077 30.8501C25.2143 30.7632 25.1479 30.6456 25.0927 30.4992C25.0375 30.3529 24.9905 30.1692 24.9412 29.9433L24.9405 29.9397L24.9399 29.9361C24.93 29.8694 24.9194 29.8016 24.9086 29.7332C24.8587 29.4164 24.8069 29.0878 24.825 28.8136C24.8362 28.6446 24.8742 28.4829 24.9648 28.3507C25.0579 28.2149 25.1997 28.1206 25.3957 28.0775L25.4 28.0766L25.4043 28.0759C25.9679 27.9937 26.2836 28.0651 26.4609 28.2506C26.5469 28.3406 26.5892 28.4468 26.6166 28.5436C26.6296 28.5894 26.6399 28.6357 26.6493 28.6779C26.6498 28.6802 26.6503 28.6825 26.6508 28.6848ZM25.4444 28.2986C25.3044 28.3302 25.2182 28.3929 25.1621 28.4747C25.1029 28.561 25.0704 28.6787 25.0605 28.8279C25.0442 29.0755 25.0909 29.3733 25.1405 29.6894C25.1514 29.7591 25.1625 29.8296 25.173 29.9007C25.2216 30.1231 25.2657 30.2927 25.3146 30.4226C25.3639 30.5532 25.415 30.635 25.4722 30.6882C25.5805 30.7889 25.744 30.8178 26.1042 30.7936C26.275 30.7619 26.4306 30.7267 26.5388 30.6145C26.6345 30.5152 26.7124 30.3325 26.6799 29.9685L26.4433 29.9997C26.4592 30.0804 26.4705 30.1656 26.4594 30.2481C26.4408 30.3858 26.3641 30.5059 26.2054 30.6157L26.1811 30.6326L26.1513 30.6362C26.1312 30.6387 26.1083 30.642 26.0851 30.6453C26.052 30.6499 26.0185 30.6547 25.9921 30.6574C25.9412 30.6625 25.8841 30.6645 25.8257 30.6497C25.6999 30.6177 25.6144 30.5211 25.533 30.3691L25.5253 30.3546L25.2726 29.0809C25.246 28.9324 25.2553 28.7994 25.3149 28.6855C25.3748 28.5707 25.4776 28.4912 25.6051 28.4348L25.6236 28.4266L25.644 28.4248C25.7882 28.4123 25.9149 28.4391 26.0147 28.5303C26.0858 28.5953 26.1339 28.685 26.1703 28.7903L26.4238 28.7485C26.4225 28.7429 26.4213 28.7374 26.4201 28.7319L26.4189 28.7269C26.4092 28.6832 26.4001 28.6424 26.3888 28.6027C26.3655 28.5206 26.3359 28.4544 26.2868 28.4031C26.1944 28.3064 25.9883 28.2198 25.4444 28.2986Z" fill="#005FAF"/>
<path fill-rule="evenodd" clip-rule="evenodd" d="M27.5811 30.5242L27.4316 27.7902L27.9963 27.6471L29.3913 29.9043L29.0093 30.1427L28.5443 29.5069L28.0129 29.6977L28.0627 30.3653L27.5811 30.5242ZM27.88 28.4419L27.9298 29.3321L28.4447 29.189L27.88 28.4419Z" fill="#005FAF"/>
<path fill-rule="evenodd" clip-rule="evenodd" d="M28.0524 27.5161L29.5503 29.9399L28.9781 30.297L28.5001 29.6434L28.1368 29.7738L28.1868 30.4438L27.4714 30.6799L27.3088 27.7045L28.0524 27.5161ZM27.5544 27.8759L27.6907 30.3686L27.9385 30.2868L27.8889 29.6216L28.5885 29.3704L29.0405 29.9885L29.2322 29.8688L27.9402 27.7782L27.5544 27.8759ZM27.7408 28.065L28.6385 29.2527L27.82 29.4802L27.7408 28.065ZM28.0193 28.8188L28.0397 29.1839L28.2509 29.1253L28.0193 28.8188Z" fill="#005FAF"/>
</g>
<defs>
<clipPath id="clip0">
<rect width="112.571" height="34.0883" fill="white" transform="translate(0.7146 0.955841)"/>
</clipPath>
</defs>
</svg>
