<svg width="54" height="46" viewBox="0 0 54 46" fill="none" xmlns="http://www.w3.org/2000/svg">
<g clip-path="url(#clip0)">
<path fill-rule="evenodd" clip-rule="evenodd" d="M10.7447 4.70306C10.7447 2.11415 12.8337 0.0156918 15.4103 0.0156918H38.618C41.1951 0.0156918 43.2836 2.11415 43.2836 4.70306V28.0173C43.2836 30.6058 41.1951 32.7042 38.618 32.7042H15.4103C12.8337 32.7042 10.7447 30.6058 10.7447 28.0173V4.70306ZM16.4211 29.5014C15.0471 29.5014 13.933 28.3821 13.933 27.0015V5.7261C13.933 4.34544 15.0471 3.2266 16.4211 3.2266H19.2597C22.9997 3.2266 25.7692 7.03354 23.3773 9.44024L16.4372 16.4215L22.3933 22.6896C25.281 25.7285 21.8995 29.5014 18.6952 29.5014H16.4211ZM25.4277 3.2266H27.8264C31.5664 3.2266 34.3363 7.03354 31.944 9.44024L25.0039 16.4215L37.7619 29.4963L24.2982 29.4937C27.1915 29.4937 29.0177 24.6046 25.9214 21.3664L21.1935 16.4215L26.6978 10.7217C29.6614 7.65214 27.5102 3.70343 25.4277 3.2266ZM40.0924 27.0015L29.7606 16.4215L35.2644 10.7217C38.2285 7.65214 36.0769 3.70343 33.9947 3.2266H37.5991C38.9735 3.2266 40.0877 4.34544 40.0877 5.7261L40.0924 27.0015ZM2.15224 42.5847V44.4895H2.99941C3.43847 44.4895 3.772 44.4069 3.99873 44.2413C4.22588 44.0761 4.33946 43.8355 4.33946 43.5201C4.33946 43.208 4.23563 42.9743 4.02712 42.8185C3.81904 42.6626 3.50882 42.5847 3.09604 42.5847H2.15224ZM2.15224 39.3351V41.147H2.80616C3.2609 41.147 3.60121 41.0695 3.82667 40.9154C4.05213 40.7613 4.16486 40.5259 4.16486 40.2095C4.16486 39.9239 4.05891 39.7067 3.84659 39.5582C3.63426 39.4096 3.3215 39.3351 2.90872 39.3351H2.15224ZM0.0463867 37.8744H3.35201C4.32887 37.8744 5.06331 38.0502 5.55576 38.4027C6.04822 38.7548 6.29444 39.2789 6.29444 39.9758C6.29444 40.4441 6.16519 40.8332 5.90752 41.1436C5.65027 41.4535 5.27521 41.6771 4.78276 41.8146C5.33539 41.9172 5.76046 42.1347 6.05754 42.4681C6.35505 42.8006 6.50338 43.2259 6.50338 43.7432C6.50338 44.5039 6.23299 45.068 5.69138 45.435C5.14977 45.802 4.31531 45.9859 3.18716 45.9859H0.0463867V37.8744H0.0463867ZM11.1143 39.6833L10.0688 42.7248H12.1255L11.1143 39.6833ZM9.85859 37.8744H12.4552L15.5116 45.9859H13.2108L12.637 44.2677H9.52887L8.92708 45.9859H6.79749L9.85859 37.8744ZM15.9774 37.8744H18.6638L21.0024 42.7376C21.082 42.9015 21.1748 43.1288 21.2808 43.42C21.3867 43.7108 21.5041 44.0676 21.6325 44.4903C21.5647 44.0906 21.5143 43.7236 21.4821 43.3885C21.4503 43.0539 21.4338 42.7474 21.4338 42.4698V37.8744H23.3769V45.9859H20.7015L18.2723 40.9452C18.1587 40.7132 18.0544 40.4611 17.9599 40.1891C17.8654 39.9166 17.7781 39.6212 17.6989 39.301C17.7743 39.7847 17.8302 40.2291 17.8663 40.6344C17.9023 41.0393 17.9205 41.3961 17.9205 41.7047V45.9859H15.9774V37.8744ZM24.9055 37.8744H27.0576V41.379L29.558 37.8744H31.9673L29.0011 41.6017L32.2699 45.9859H29.5957L27.0576 42.2241V45.9859H24.9055V37.8744ZM38.5336 42.5847V44.4895H39.3808C39.8203 44.4895 40.1534 44.4069 40.3805 44.2413C40.6073 44.0761 40.7208 43.8355 40.7208 43.5201C40.7208 43.208 40.617 42.9743 40.4085 42.8185C40.2004 42.6626 39.8902 42.5847 39.4774 42.5847H38.5336ZM38.5336 39.3351V41.147H39.1875C39.6423 41.147 39.9826 41.0695 40.208 40.9154C40.4335 40.7613 40.5467 40.5259 40.5467 40.2095C40.5467 39.9239 40.4403 39.7067 40.228 39.5582C40.0161 39.4096 39.7033 39.3351 39.2901 39.3351H38.5336ZM36.4278 37.8744H39.7334C40.7103 37.8744 41.4451 38.0502 41.9371 38.4027C42.4296 38.7548 42.6754 39.2789 42.6754 39.9758C42.6754 40.4441 42.5466 40.8332 42.2893 41.1436C42.0317 41.4535 41.6566 41.6771 41.1641 41.8146C41.7172 41.9172 42.1418 42.1347 42.4393 42.4681C42.7364 42.8006 42.8852 43.2259 42.8852 43.7432C42.8852 44.5039 42.6144 45.068 42.0728 45.435C41.5316 45.802 40.6967 45.9859 39.5685 45.9859H36.4278V37.8744ZM46.262 39.3002V41.3807H47.0176C47.483 41.3807 47.8322 41.296 48.0653 41.1262C48.2979 40.9567 48.4145 40.7025 48.4145 40.3632C48.4145 39.9975 48.2848 39.7289 48.0254 39.5573C47.7661 39.3857 47.3563 39.3002 46.796 39.3002H46.262ZM44.1562 37.8744H47.3639C48.4327 37.8744 49.2265 38.0485 49.7439 38.3967C50.2614 38.745 50.5203 39.275 50.5203 39.9869C50.5203 40.5122 50.3839 40.9444 50.1105 41.2832C49.8376 41.6217 49.4426 41.8482 48.9268 41.9623C49.3515 42.1185 49.6931 42.5617 49.9512 43.2919L50.9157 45.9859H48.6705L47.9602 43.7657C47.8466 43.4081 47.6915 43.1607 47.4944 43.0237C47.2978 42.8866 46.9909 42.8185 46.5743 42.8185H46.262V45.9859H44.1562V37.8744ZM51.801 37.8744H53.9535V45.9859H51.801V37.8744Z" fill="#1F4396"/>
</g>
<defs>
<clipPath id="clip0">
<rect width="53.9071" height="45.9796" fill="white" transform="translate(0.0463867 0.0101929)"/>
</clipPath>
</defs>
</svg>
