<svg width="118" height="36" viewBox="0 0 118 36" fill="none" xmlns="http://www.w3.org/2000/svg">
<path fill-rule="evenodd" clip-rule="evenodd" d="M34.0714 19.2392C34.5401 14.0571 32.2898 9.37841 29.8684 6.64885C27.4801 3.9544 23.9054 1.45311 18.6464 1.00827C16.0771 0.791697 13.539 1.26386 11.4288 2.09697C9.15133 2.99837 6.7377 4.62167 5.1915 6.41667C4.18016 7.59122 3.33801 8.66041 2.61451 10.1452C0.467337 14.5507 0.0900249 19.4206 1.83266 24.072C2.67675 26.3236 3.55001 27.5957 4.98535 29.3555C6.12311 30.7506 8.05246 32.2275 9.6784 33.0938C11.5863 34.1084 13.646 34.7815 16.2055 34.9942C18.7728 35.2068 21.375 34.723 23.4619 33.8918C25.6694 33.0158 27.1553 31.9251 28.6334 30.6296C28.9699 30.335 29.3978 29.8882 29.6876 29.5545C32.2996 26.5518 33.6843 23.5042 34.0714 19.2392Z" fill="#2086C9"/>
<path fill-rule="evenodd" clip-rule="evenodd" d="M7.7957 13.0114C8.50754 12.9801 9.97205 15.2805 14.879 13.7177C16.0013 13.3606 17.0573 12.9158 18.1329 12.5119C20.5368 11.6124 22.7967 10.6993 25.3348 11.6905C25.8036 11.8739 26.4532 12.2114 26.7838 12.4924C27.305 12.9333 27.1786 13.4816 27.1786 14.3205V21.044C27.1786 21.442 27.2622 22.9092 27.0697 23.155C26.8655 23.1726 26.0603 22.677 25.576 22.478C23.7478 21.7327 21.7465 21.998 19.963 22.5034C16.6489 23.4438 12.9847 25.5861 9.4372 24.2788C7.41061 23.5335 7.68095 23.194 7.68095 21.6585V15.058C7.68095 14.5273 7.58371 13.3762 7.7957 13.0114Z" fill="white"/>
<path fill-rule="evenodd" clip-rule="evenodd" d="M106.389 19.2587C106.319 18.6109 106.369 17.5086 106.379 16.8198C106.387 16.0921 106.603 15.4365 106.9 14.9312C108.304 12.5528 111.729 12.5704 113.097 14.9527C113.416 15.5087 113.604 16.0823 113.612 16.8608C113.618 17.4734 113.678 18.7182 113.596 19.2684L106.389 19.2587ZM106.387 22.9755L113.608 22.9794L113.612 26.665L117.237 26.6552C117.29 24.632 117.241 22.5385 117.241 20.5093C117.241 18.7026 117.401 16.3321 116.928 14.7146C116.107 11.9051 113.513 9.43695 109.965 9.44475C106.443 9.4506 103.827 11.9597 103.043 14.7575C102.588 16.3808 102.742 18.7202 102.742 20.5523C102.742 22.5794 102.715 24.6261 102.744 26.6669L106.375 26.6591L106.387 22.9755Z" fill="#2086C9"/>
<path fill-rule="evenodd" clip-rule="evenodd" d="M64.8291 19.2568C64.7649 18.611 64.8038 17.495 64.8213 16.818C64.8719 14.8805 66.3305 13.1499 68.4466 13.1519C70.5568 13.1538 72.0311 14.8923 72.0622 16.859C72.0739 17.5945 72.1069 18.533 72.0583 19.2685L64.8291 19.2568ZM64.8271 22.9756L72.0641 22.9932L72.07 26.667L75.6817 26.6631C75.7478 24.6535 75.6856 22.5327 75.6856 20.5094C75.6856 18.6949 75.847 16.3302 75.3744 14.7049C74.5711 11.9422 71.9883 9.44289 68.4466 9.44289C64.9049 9.44289 62.326 11.913 61.5013 14.7323C61.0384 16.3165 61.1979 18.7554 61.1979 20.5504C61.1979 21.5747 61.1979 22.601 61.1979 23.6253C61.1979 24.595 61.1474 25.709 61.2077 26.6651L64.8213 26.6612L64.8271 22.9756Z" fill="#2086C9"/>
<path fill-rule="evenodd" clip-rule="evenodd" d="M44.0671 13.1537C44.8723 13.1225 46.2902 13.101 47.0564 13.1908C51.3955 13.7039 52.862 19.5025 49.2153 22.0877C47.7663 23.114 45.8837 23.0515 44.0516 22.9501L44.0671 13.1537ZM40.436 26.6649C42.3556 26.6903 44.2888 26.6669 46.2104 26.6669C48.1164 26.6669 49.4234 26.2474 50.777 25.4611C56.0691 22.3921 56.4931 14.1019 50.7712 10.6465C49.509 9.88368 48.0172 9.44468 46.2104 9.44468C44.2927 9.44468 42.3556 9.41737 40.4282 9.44468L40.436 26.6649Z" fill="#2086C9"/>
<path fill-rule="evenodd" clip-rule="evenodd" d="M85.6073 26.665C85.6092 23.8066 85.6112 20.9502 85.6112 18.0919C85.6112 16.4764 85.5703 15.6335 86.3852 14.5663C86.922 13.862 87.9139 13.1459 89.2462 13.1557C90.6213 13.1654 91.547 13.8815 92.1033 14.6112C92.9026 15.6628 92.8404 16.5798 92.8404 18.1348L92.8443 26.6708L96.4715 26.6572C96.5124 24.6261 96.4735 22.5501 96.4735 20.5152C96.4735 18.7163 96.6329 16.3301 96.1623 14.7204C95.3415 11.9128 92.7567 9.44471 89.2034 9.44861C85.6695 9.45252 83.0848 11.9518 82.2776 14.7556C81.8167 16.3574 81.9742 18.7572 81.9742 20.5561L81.9781 26.6708L85.6073 26.665Z" fill="#2086C9"/>
</svg>
