<svg width="113" height="24" viewBox="0 0 113 24" fill="none" xmlns="http://www.w3.org/2000/svg">
<path d="M12.3967 0.11084C19.1951 0.11084 24.7062 5.43244 24.7062 11.997C24.7062 18.5618 19.1951 23.8834 12.3967 23.8834C5.59874 23.8834 0.0876465 18.5618 0.0876465 11.997C0.0876465 5.43244 5.59874 0.11084 12.3967 0.11084Z" fill="#00AED6"/>
<path fill-rule="evenodd" clip-rule="evenodd" d="M19.5781 11.6304C19.4845 10.1178 18.1508 8.95791 16.583 9.02541H8.80788C8.52427 9.02541 8.2947 8.80362 8.2947 8.53017C8.2947 8.25672 8.52427 8.03493 8.80788 8.03493H16.6856C16.6395 7.00966 15.9146 6.12973 14.8903 5.85594C12.5939 5.45954 10.2428 5.45954 7.94604 5.85594C6.64089 6.16555 5.66444 7.21423 5.48408 8.50055C5.1251 10.8318 5.1251 13.2019 5.48408 15.5331C5.75909 16.8942 6.87906 17.9477 8.2947 18.1781C11.1421 18.5245 14.023 18.5245 16.8701 18.1781C18.1387 17.9297 19.0987 16.9231 19.2501 15.6819C19.5107 14.3467 19.6205 12.9884 19.5781 11.6304ZM17.0139 13.2945V13.7305C17.0139 14.004 16.7844 14.2258 16.5011 14.2258C16.2178 14.2258 15.9883 14.004 15.9883 13.7305V13.2945C15.8224 13.1551 15.7288 12.9522 15.7315 12.7401C15.7315 12.3295 16.076 11.9969 16.5011 11.9969C16.9258 11.9969 17.2704 12.3295 17.2704 12.7401C17.2679 12.9512 17.175 13.152 17.0139 13.2945Z" fill="white"/>
<path d="M59.7675 10.6598C59.7844 8.57555 58.0483 6.87286 55.8899 6.85633C53.7319 6.84014 51.9683 8.51632 51.9514 10.6006C51.9346 12.6849 53.6703 14.3876 55.8287 14.4038C55.8493 14.4041 55.8696 14.4041 55.8899 14.4038C57.9378 14.5098 59.687 12.9928 59.7968 11.0152C59.8033 10.8968 59.8037 10.7783 59.7982 10.6598H59.7675ZM48.1558 10.6598C48.1558 6.69756 51.3973 3.67653 55.8899 3.67653C60.3829 3.67653 63.6241 6.71754 63.6241 10.6598C63.6241 14.6021 60.4136 17.6528 55.8899 17.6528C51.3663 17.6528 48.1558 14.6121 48.1558 10.6598Z" fill="#31383F"/>
<path d="M42.0012 11.3829C42.0012 13.0174 40.2782 14.3547 38.0933 14.3547C36.0867 14.5503 34.2956 13.1383 34.0929 11.2007C34.0722 11.0047 34.0688 10.8071 34.0825 10.6104C34.0825 8.45105 35.7236 6.96533 38.2472 6.96533C40.2985 6.96533 42.0012 8.32225 42.0012 9.85756V11.3829ZM42.1554 3.66671V5.23199C40.9067 4.13715 39.2532 3.57613 37.5702 3.6767C33.5904 3.71217 30.3939 6.8565 30.4307 10.6996C30.4676 14.5427 33.7236 17.6292 37.7034 17.5937C39.342 17.6643 40.937 17.072 42.1038 15.9592V17.2965C42.1038 19.1091 40.4833 20.4364 38.3497 20.4364C36.72 20.55 35.1151 20.0045 33.9184 18.9307L31.4258 21.2488C33.2947 23.02 35.8351 23.9726 38.4523 23.8834C42.8221 23.8834 45.8172 21.0504 45.8172 17.2765V3.66671H42.1554Z" fill="#31383F"/>
<path d="M65.8811 4.07316H69.5532V5.24169H69.6045C70.8085 4.18199 72.3982 3.62648 74.0259 3.69673C78.0226 3.84207 81.1405 7.08834 80.9901 10.948C80.8473 14.6034 77.8112 17.5352 74.0259 17.673C72.4709 17.7078 70.9534 17.2132 69.738 16.2761V22.893H65.9121L65.8811 4.07316ZM73.4308 6.96539C71.3791 6.96539 69.7071 8.34228 69.7071 9.83765V11.5118C69.7071 13.1066 71.3588 14.424 73.4515 14.424C75.5844 14.53 77.4023 12.9465 77.5125 10.887C77.6223 8.82719 75.9826 7.07146 73.8493 6.96539C73.7168 6.95885 73.584 6.95885 73.4515 6.96539H73.4308Z" fill="#31383F"/>
<path d="M88.3353 9.38228C90.8486 9.05511 91.5972 8.70865 91.5972 8.03501C91.5972 7.16335 90.6434 6.63849 89.1662 6.63849C87.574 6.51244 86.1243 7.52565 85.7505 9.02549L82.1396 8.3026C82.6528 5.6084 85.5247 3.68668 89.0636 3.68668C93.0641 3.68668 95.5467 5.66764 95.5467 8.87706V17.2865H92.1103V15.8204H92.0591C90.893 17.0878 89.1841 17.7611 87.4329 17.6429C84.4068 17.6429 82.3038 16.0484 82.3038 13.681C82.3038 11.3137 84.0272 9.95673 88.3353 9.38228ZM91.9052 10.7788H91.8539C91.5152 11.2541 90.8279 11.5317 88.9304 11.8485C86.6839 12.2545 85.8531 12.6806 85.8531 13.453C85.8531 14.2259 86.5197 14.6023 87.966 14.6023C90.1715 14.6023 91.8742 13.6118 91.8742 12.3537L91.9052 10.7788Z" fill="#31383F"/>
<path d="M102.47 16.5437L96.1409 4.0731H100.357L104.511 12.7102H104.573L108.676 4.0731H112.912L103.434 22.8929H99.2182L102.47 16.5437Z" fill="#31383F"/>
</svg>
