<svg width="54" height="50" viewBox="0 0 54 50" fill="none" xmlns="http://www.w3.org/2000/svg">
<g clip-path="url(#clip0)">
<path d="M2.22039 48.6153C1.21045 48.0871 0.415269 47.6244 0.452423 47.5871C0.581554 47.4574 5.41289 46.4223 8.78663 45.8012C16.0873 44.4571 24.7672 43.3815 33.4132 42.7495C36.9736 42.4893 49.855 42.4802 52.0888 42.7368L53.5536 42.9051L51.9026 42.9306C48.9715 42.9766 42.2499 43.4489 36.9836 43.9789C27.015 44.9831 15.9324 46.8336 7.91533 48.8333C6.27785 49.2414 4.7396 49.5754 4.49719 49.5754C4.25433 49.5754 3.22989 49.1436 2.22039 48.6153ZM16.1571 38.5394C16.0076 38.124 16.6342 37.9379 16.9074 37.8196C18.1349 37.2914 18.9985 36.4301 19.2875 35.4464C19.4257 34.9759 19.8471 32.3151 20.2236 29.5341C20.6001 26.7532 20.9382 24.6024 20.9753 24.4759C21.0025 24.3826 21.0768 24.0509 21.4742 24.015C22.4882 24.005 23.2412 24.0182 24.2802 24.0182C24.8542 23.9627 24.7414 24.5938 24.6966 24.9978C24.6513 25.5083 24.5144 26.4934 24.3549 27.6955C24.1606 29.1619 23.8701 31.3537 23.7097 32.5658C23.3486 35.2903 23.1483 36.1289 22.5244 37.5325C21.7814 39.2024 20.6459 40.1724 18.5875 40.8631C18.1716 40.9937 16.9799 41.4009 16.8499 41.0392C16.5807 40.1729 16.39 39.4198 16.1571 38.5394ZM39.7955 37.6258C38.4235 37.0702 38.4883 34.9222 39.9273 34.0413C40.8376 33.4835 42.1171 33.5786 42.7745 34.2388C44.3948 35.8654 42.0124 38.5244 39.7955 37.6258ZM29.4273 36.3432C25.3943 35.6516 25.4211 30.8227 26.3245 28.0636C27.4559 24.8695 30.213 23.9413 32.4789 23.8603C34.3914 23.7948 37.042 24.152 37.7076 24.5646C37.8916 24.6788 37.805 25.7859 37.2917 29.8908C36.9355 32.7405 36.5454 35.1916 36.4253 35.3367C35.7869 36.1093 31.5088 36.7244 29.4273 36.3432ZM32.9451 32.5216C33.3783 30.9041 33.5609 29.444 33.8708 27.7378C33.8323 27.1495 32.8436 27.1454 32.5922 27.144C31.2827 27.144 30.5093 27.882 30.0997 29.5232C29.5374 31.7736 30.1242 33.0276 31.7404 33.0276C32.251 32.9803 32.7843 33.0085 32.9451 32.5216ZM3.47048 35.04C4.57286 32.3355 9.00094 22.6523 10.0634 20.6467C10.2642 20.1471 10.7934 20.0483 11.1554 20.0133C12.1971 19.9655 13.0974 19.9783 14.0117 19.9851C14.9537 19.9933 14.9677 20.325 15.0892 21.0284C15.2373 21.7296 17.076 32.7523 17.4919 35.3981C17.5449 35.8377 17.6523 35.9742 17.0828 35.9751C16.2935 35.9773 14.3937 36.0806 13.7494 36.0315C13.5437 36.0046 13.4091 35.8691 13.3774 35.7166C13.3185 35.4327 13.2519 34.9454 13.2066 34.4376L13.0892 33.1195H10.7236H8.35755L7.84057 34.3871C7.65616 34.838 7.45544 35.2826 7.30547 35.5774C7.20035 35.8481 7.04403 35.9728 6.81023 36.0242C6.23073 36.0192 4.17821 36.0956 3.40659 36.0274C3.02509 35.8513 3.37035 35.2862 3.47048 35.04ZM12.6724 29.4495C12.6053 28.7374 12.1527 25.0642 12.0462 24.5219C12.0181 24.4636 12.005 24.4823 11.9764 24.5169C11.6968 24.9382 10.1844 28.666 9.92707 29.5318C9.8958 29.6511 9.97328 29.6947 10.0856 29.6852C10.4694 29.6588 12.0376 29.6292 12.5142 29.611C12.6502 29.6006 12.6638 29.5528 12.6724 29.4495ZM39.9771 31.2349C40.0383 30.7549 40.1724 29.4518 40.2753 28.3393C40.3777 27.2268 40.5422 25.4892 40.6405 24.4782C40.7148 23.7106 40.7805 22.9658 40.8086 22.5736C40.8661 22.2223 41.2893 22.1809 41.5671 22.1782C42.4941 22.1882 43.3667 22.1327 44.2 22.21C44.5942 22.2505 44.7586 22.3379 44.76 22.5731C44.3844 24.5091 43.0337 31.1889 42.93 31.6025C42.8402 31.9593 42.804 32.0644 42.2616 32.0953C41.5974 32.0844 41.0437 32.1194 40.3695 32.1162C39.983 32.1112 39.8797 31.997 39.9771 31.2349ZM21.2771 21.3114C21.2771 20.1311 22.0333 19.2316 22.9798 18.8531C23.7981 18.5655 24.7151 18.5664 25.2036 19.1265C26.0699 20.138 25.5013 21.6326 24.489 22.4111C23.1923 23.307 21.2984 22.7774 21.2771 21.3114ZM44.5094 18.8239C44.2263 18.1919 43.3178 16.1982 42.4905 14.3932C41.6631 12.5882 41.0301 10.9966 41.0836 10.8569C41.1371 10.7173 42.0591 9.56702 43.1325 8.30122L44.8796 6.24053C44.9943 6.10176 45.1252 5.93204 45.2838 5.92977C46.3368 5.93523 47.4278 5.99847 48.4328 5.98846C49.1813 5.98209 49.5578 5.93341 49.0028 6.49897C48.6471 6.94123 47.9466 7.75021 47.1451 8.63791C45.987 9.92101 45.0396 11.0048 45.0396 11.0471C45.0396 11.089 45.9081 13.005 46.9693 15.305C47.8034 17.1118 48.4921 18.7279 48.7246 19.4027C48.8233 19.632 48.7364 19.8281 48.5243 19.8818C48.2434 19.9473 47.7382 19.9733 46.8687 19.9733H45.5665C45.2484 20.0065 45.0142 19.9505 44.8919 19.6771L44.5094 18.8239ZM5.53477 17.479C4.36307 16.8925 3.80894 16.1499 3.7079 15.0315C3.64764 14.3609 4.7396 5.34783 5.2235 2.4818C5.34176 1.80886 5.39296 1.77064 6.03544 1.77064H7.29957C7.96381 1.77064 8.56824 1.75926 8.94838 1.7811C9.46808 1.78838 9.37293 2.11735 9.33306 2.51092C9.2438 3.38997 8.9656 5.29368 8.61627 7.74521C7.99643 12.0945 7.83876 13.6292 7.98692 13.8658C8.16045 14.142 8.60131 14.188 11.521 14.2317L14.1327 14.2708C14.7548 14.2362 14.8835 14.3895 14.8223 14.9505C14.6701 15.8787 14.5862 16.6186 14.4349 17.4503C14.3307 17.9695 13.9972 17.8339 13.4775 17.8657L10.4241 17.9085C6.50893 17.9576 6.48808 17.9558 5.53477 17.479ZM35.6515 17.8129C35.612 17.737 35.7212 16.6823 35.8943 15.4683C36.0674 14.2549 36.4285 11.6486 36.6972 9.67667C37.4602 4.07839 37.7108 2.39171 37.8168 1.74652C37.9292 0.993504 37.9296 1.03536 38.6645 1.03536H39.8294C40.2843 1.03536 40.6391 1.02899 40.9132 1.03809C41.9594 1.07222 41.8267 0.981674 41.5625 2.60874C41.4624 3.2239 41.1303 5.93068 40.824 8.20567C40.0524 13.9359 39.5463 17.4489 39.4538 17.721C39.3668 17.9758 35.7815 18.0623 35.6515 17.8129ZM15.7443 17.377C16.2305 13.2821 16.6945 10.1858 17.2341 6.37567C17.2749 5.9193 17.7212 5.86653 18.2427 5.86607C18.8362 5.86516 19.4393 5.85743 20.0043 5.87654C21.099 5.88018 21.3867 6.02714 21.273 6.76241C20.7882 10.3396 20.1887 13.5323 19.5598 17.1691C19.442 17.7852 19.2984 17.767 18.7126 17.767C18.0302 17.7693 16.8195 17.792 16.2011 17.7752C15.839 17.7106 15.757 17.6696 15.7443 17.377ZM23.4691 8.21022C23.7695 6.62683 23.9775 6.37976 24.4138 6.09266C24.9517 5.73867 28.9276 5.36967 30.3004 5.54621C30.4921 5.57396 30.6742 5.60854 30.8482 5.64995C34.8694 6.60908 34.2446 11.1818 33.9832 13.2857C33.7072 15.2954 33.4372 17.1254 33.3819 17.3534C33.2859 17.7492 33.2002 17.767 31.3792 17.767C30.7671 17.767 30.4477 17.7456 30.0997 17.7128C29.537 17.676 29.4849 17.549 29.541 17.1382C29.7458 15.4592 30.0222 14.0114 30.2284 12.4431C30.5057 10.3028 30.4318 8.18974 27.7871 8.64383C27.334 8.7594 27.2099 8.7958 27.1478 9.24989C26.8175 11.3638 26.5275 13.5478 26.2258 15.6158C26.1596 16.1094 26.0672 16.6249 25.972 17.0822C25.9476 17.1987 25.934 17.3029 25.9131 17.3798C25.8859 17.4712 25.8234 17.5659 25.7636 17.4721C25.3386 16.695 23.3391 16.8247 22.5049 17.3948C22.0863 17.6869 22.0002 17.8443 22.171 16.9534C22.2009 16.7646 22.2304 16.5758 22.2589 16.3874C22.673 13.6593 22.9522 10.9757 23.4691 8.21022ZM17.7606 3.5242C17.3139 1.99404 18.6437 0.482087 20.133 0.429762C22.1511 0.294173 22.7084 3.08149 20.6436 4.34547C19.4479 4.89511 18.191 4.77863 17.7606 3.5242Z" fill="#E9232A"/>
</g>
<defs>
<clipPath id="clip0">
<rect width="53.1144" height="49.1506" fill="white" transform="translate(0.442871 0.424683)"/>
</clipPath>
</defs>
</svg>
