<svg width="96" height="44" viewBox="0 0 96 44" fill="none" xmlns="http://www.w3.org/2000/svg">
<g clip-path="url(#clip0)">
<path fill-rule="evenodd" clip-rule="evenodd" d="M5.45065 7.86352H35.8237C37.8441 7.86352 39.4975 9.5245 39.4975 11.5541V32.9056C39.4975 34.9352 37.8441 36.5961 35.8237 36.5961H4.56731C2.54697 36.5961 0.893555 34.9352 0.893555 32.9056V6.53019C0.893555 5.57001 1.68176 4.90562 2.62851 4.78731L30.637 1.19687C31.5928 1.19687 32.3719 1.97958 32.3719 2.93976V5.92496H3.69757C3.69757 7.17638 4.06902 7.86352 5.44612 7.86352H5.45065ZM22.4831 31.2583C19.9283 31.7497 16.6441 30.8942 14.8593 28.9647C14.053 28.0956 15.353 26.7804 16.1639 27.6587C17.3643 28.9602 19.507 29.5654 21.2555 29.5245C23.4842 29.4744 25.4638 27.4403 24.2 25.165C22.4469 22.0159 18.1344 22.8988 15.9147 20.4232C14.1209 18.4255 14.9725 15.2856 17.0789 13.8976C19.2759 12.446 23.0675 12.5006 24.8749 14.5848C25.6541 15.4767 24.3494 16.7918 23.5703 15.8908C22.1117 14.2116 18.6644 14.4392 17.3462 16.1684C15.4753 18.6394 18.2748 19.9682 20.2318 20.5643C22.9225 21.3834 25.9077 22.8806 26.397 25.9795C26.7865 28.4733 24.8659 30.7986 22.4831 31.2583Z" fill="#EE4E2C"/>
<path fill-rule="evenodd" clip-rule="evenodd" d="M22.483 31.2582C19.9282 31.7497 16.644 30.8942 14.8592 28.9647C14.0529 28.0956 15.353 26.7804 16.1638 27.6587C17.3642 28.9602 19.5069 29.5654 21.2554 29.5245C23.4842 29.4744 25.4637 27.4403 24.1999 25.165C22.4513 22.0159 18.1343 22.8988 15.9147 20.4278C14.1208 18.4301 14.9724 15.2901 17.0789 13.8976C19.2759 12.446 23.0674 12.5006 24.8748 14.5848C25.654 15.4767 24.3494 16.7918 23.5702 15.8908C22.1116 14.2116 18.6643 14.4392 17.3507 16.1684C15.4798 18.6394 18.2793 19.9682 20.2362 20.5643C22.927 21.3834 25.9122 22.8806 26.4014 25.9795C26.791 28.4733 24.8703 30.7986 22.4876 31.2582H22.483Z" fill="#FEFEFE"/>
<path d="M74.7942 6.55299C73.707 6.55299 72.7331 7.01715 72.0627 7.7498V6.89884C72.0627 6.12978 70.8305 6.12523 70.8305 6.89884V16.9739C70.8305 17.7475 72.0627 17.7475 72.0627 16.9739V12.487C72.7331 13.2196 73.707 13.6793 74.7942 13.6793C76.81 13.6793 78.4498 12.082 78.4498 10.1161C78.4498 8.15026 76.81 6.55299 74.7942 6.55299ZM74.7942 12.3914C73.5032 12.3914 72.4568 11.3675 72.4568 10.1161C72.4568 8.98757 73.3039 8.04559 74.4182 7.86812C74.4227 7.86812 74.4318 7.86357 74.4363 7.86357C74.5541 7.84536 74.6719 7.83626 74.7897 7.83626C75.741 7.83626 76.5654 8.39599 76.9278 9.1969C76.9278 9.20145 76.9323 9.206 76.9323 9.206C77.0592 9.48359 77.1271 9.79303 77.1271 10.1116C77.1271 11.3675 76.0807 12.3869 74.7942 12.3869V12.3914ZM65.7163 13.6793C63.7004 13.6793 62.0606 12.082 62.0606 10.1161C62.0606 8.15026 63.7004 6.55299 65.7163 6.55299C67.7321 6.55299 69.3719 8.15026 69.3719 10.1161C69.3719 12.082 67.7321 13.6793 65.7163 13.6793ZM65.7163 7.84081C64.4298 7.84081 63.3788 8.86015 63.3788 10.1161C63.3788 11.3721 64.4252 12.3914 65.7163 12.3914C67.0027 12.3914 68.0537 11.3721 68.0537 10.1161C68.0537 8.86015 67.0073 7.84081 65.7163 7.84081ZM95.1063 10.0479C95.0746 8.40964 94.2139 6.93069 92.4337 6.60305C90.898 6.32091 89.1042 7.10816 88.4474 8.50975C87.7679 9.96595 88.0533 11.9637 89.3941 12.9785C90.8437 14.0752 93.1041 13.7384 94.5945 12.9239C95.2875 12.5462 94.6669 11.5132 93.9739 11.8863C93.0316 12.4005 91.7995 12.6554 90.744 12.3095C89.9558 12.0547 89.5119 11.3903 89.376 10.644H94.4948C94.8209 10.644 95.1154 10.3664 95.1109 10.0433L95.1063 10.0479ZM89.4168 9.44718C89.4258 9.40168 89.4394 9.35617 89.453 9.31521C89.7474 8.33683 90.7531 7.77255 91.7723 7.74525C92.9456 7.7134 93.6024 8.50065 93.8062 9.44718H89.4168ZM86.9117 10.057C86.88 8.41874 86.0193 6.93979 84.2391 6.61215C82.7034 6.33001 80.9096 7.11727 80.2527 8.51886C79.5733 9.97505 79.8586 11.9728 81.1995 12.9876C82.6491 14.0843 84.9095 13.7475 86.3998 12.933C87.0929 12.5553 86.4723 11.5223 85.7792 11.8954C84.837 12.4096 83.6049 12.6645 82.5494 12.3186C81.7612 12.0638 81.3173 11.3994 81.1814 10.6531H86.3002C86.6263 10.6531 86.9208 10.3755 86.9162 10.0524L86.9117 10.057ZM81.2221 9.45628C81.2312 9.41078 81.2448 9.36527 81.2584 9.32432C81.5528 8.34593 82.5585 7.78166 83.5777 7.75435C84.7509 7.7225 85.4078 8.50975 85.6116 9.45628H81.2221ZM60.611 8.90111V13.0649C60.611 13.8522 59.3789 13.8522 59.3789 13.0649V8.98302C59.3381 8.17756 58.6496 7.80441 58.6269 7.79531C57.7527 7.41306 56.1581 7.59053 55.2114 8.79644V13.0649C55.2114 13.8522 53.9792 13.8522 53.9792 13.0649V2.37097C53.9792 1.58826 55.2114 1.58826 55.2114 2.37097V7.17642C56.7198 6.16619 58.6405 6.27995 59.542 6.89884C59.542 6.89884 60.6246 7.49497 60.6065 8.90566L60.611 8.90111ZM51.968 2.86244C50.763 1.52456 48.2308 1.4927 46.7631 2.42558C45.3588 3.3175 44.7881 5.33797 45.9839 6.6167C47.4652 8.20486 50.3463 7.64059 51.5195 9.65651C52.3666 11.1173 51.0393 12.4233 49.5535 12.4551C48.3893 12.4779 46.9579 12.0911 46.1516 11.2538C45.6125 10.6941 44.7428 11.5359 45.2818 12.0956C46.4732 13.3334 48.6702 13.884 50.3734 13.5655C51.9634 13.2697 53.2499 11.7771 52.9872 10.1753C52.661 8.18666 50.6679 7.22648 48.8695 6.69861C47.5604 6.31636 45.6895 5.46084 46.9443 3.87723C47.8231 2.76687 50.1243 2.6167 51.0982 3.69975C51.6192 4.27768 52.4889 3.43582 51.968 2.85789V2.86244Z" fill="#EE4E2C"/>
<path fill-rule="evenodd" clip-rule="evenodd" d="M84.0582 42.8031H80.1489L84.33 34.8623L77.4626 21.8293H81.7026L86.45 30.835L91.1973 21.8293H95.1066L84.0582 42.8031ZM45.1145 36.5915H48.3896V30.5756H52.8063C57.386 30.5756 61.1006 27.3492 61.1006 23.3674C61.1006 19.3857 57.386 16.1593 52.8063 16.1593H45.1145C45.1145 22.9715 45.1145 29.7793 45.1145 36.5915ZM48.3896 27.2855V19.4494H52.8063C55.2932 19.4494 57.3136 21.2014 57.3136 23.3674C57.3136 25.529 55.2977 27.2855 52.8063 27.2855H48.3896ZM73.3676 21.9613H76.2441V36.4641H73.3676V34.835C72.0856 35.9317 70.4231 36.5915 68.6112 36.5915C64.5524 36.5915 61.2636 33.2878 61.2636 29.2104C61.2636 25.1331 64.5524 21.8293 68.6112 21.8293C70.4277 21.8293 72.0856 22.4892 73.3676 23.5859V21.9568V21.9613ZM68.6112 24.942C70.9577 24.942 72.8602 26.8532 72.8602 29.2104C72.8602 31.5677 70.9577 33.4789 68.6112 33.4789C66.2647 33.4789 64.3621 31.5677 64.3621 29.2104C64.3621 26.8532 66.2647 24.942 68.6112 24.942Z" fill="#EE4E2C"/>
</g>
<defs>
<clipPath id="clip0">
<rect width="95.1302" height="42.0159" fill="white" transform="translate(0.434814 0.992065)"/>
</clipPath>
</defs>
</svg>
