<svg width="100" height="43" viewBox="0 0 100 43" fill="none" xmlns="http://www.w3.org/2000/svg">
<path d="M38.728 10.8953C38.728 10.6077 38.8722 10.4434 39.1605 10.4434H41.1995C41.941 10.4434 42.3117 10.505 42.6412 10.6488C43.4033 10.9775 43.9182 11.6966 43.9182 12.7032C43.9182 13.6072 43.4445 14.4495 42.6618 14.7577V14.7782C42.6618 14.7782 42.7648 14.9015 42.909 15.1685L44.1653 17.4489C44.3507 17.7571 44.2065 17.9831 43.8564 17.9831H43.2797C43.0325 17.9831 42.8678 17.8804 42.7648 17.6749L41.4261 15.1685H40.1079V17.5311C40.1079 17.8393 39.9638 17.9831 39.6754 17.9831H39.1811C38.8928 17.9831 38.7486 17.8393 38.7486 17.5311V10.8953H38.728ZM41.3437 13.9975C42.0851 13.9975 42.5382 13.5455 42.5382 12.7854C42.5382 12.3129 42.3529 11.9225 41.941 11.7582C41.7556 11.676 41.529 11.6349 41.1171 11.6349H40.1079V13.9975H41.3437Z" fill="#00AEEF"/>
<path d="M45.0708 13.0115C45.0708 12.7239 45.2356 12.5596 45.5239 12.5596H45.977C46.2859 12.5596 46.4301 12.7239 46.4301 13.0115V15.785C46.4301 16.4424 46.5949 16.8944 47.2745 16.8944C48.2631 16.8944 48.7986 16.0316 48.7986 15.066V13.0321C48.7986 12.7445 48.9428 12.5801 49.2517 12.5801H49.7048C49.9932 12.5801 50.1579 12.7445 50.1579 13.0321V17.5724C50.1579 17.8805 49.9932 18.0243 49.7048 18.0243H49.2929C49.0046 18.0243 48.8604 17.8805 48.8604 17.5724V17.2437C48.8604 17.1204 48.881 16.9971 48.881 16.9971H48.8604C48.6133 17.5518 47.8924 18.1271 46.9656 18.1271C45.8122 18.1271 45.0708 17.5518 45.0708 16.0726V13.0115Z" fill="#00AEEF"/>
<path d="M54.2564 14.6553H54.4829V14.5115C54.4829 13.7925 54.0298 13.5459 53.4738 13.5459C53.0207 13.5459 52.6087 13.7103 52.341 13.8541C52.0732 13.9774 51.8673 13.9363 51.7437 13.6692L51.6407 13.4638C51.5172 13.2172 51.5584 13.0118 51.8055 12.868C52.1556 12.6831 52.7735 12.416 53.5767 12.416C54.9772 12.416 55.8217 13.1967 55.8217 14.5732V17.511C55.8217 17.8192 55.6775 17.963 55.3686 17.963H54.9978C54.7095 17.963 54.5653 17.8192 54.5653 17.511V17.3055C54.5653 17.1617 54.5859 17.0796 54.5859 17.0796H54.5653C54.5653 17.0796 54.0504 18.1068 52.8559 18.1068C51.8673 18.1068 51.0435 17.4699 51.0435 16.4838C51.0846 14.9224 53.0412 14.6553 54.2564 14.6553ZM53.2472 17.1001C54.0092 17.1001 54.5035 16.34 54.5035 15.6826V15.4771H54.277C53.5973 15.4771 52.4234 15.5798 52.4234 16.4016C52.4234 16.7509 52.6911 17.1001 53.2472 17.1001Z" fill="#00AEEF"/>
<path d="M57.0986 13.0118C57.0986 12.7241 57.2428 12.5598 57.5311 12.5598H57.9431C58.2314 12.5598 58.3756 12.7241 58.3756 13.0118V13.3405C58.3756 13.4637 58.355 13.587 58.355 13.587H58.3756C58.6021 13.135 59.1994 12.4365 60.3116 12.4365C61.5267 12.4365 62.2064 13.0734 62.2064 14.4909V17.5315C62.2064 17.8397 62.0622 17.9835 61.7533 17.9835H61.3002C61.0118 17.9835 60.8471 17.8397 60.8471 17.5315V14.758C60.8471 14.1006 60.6823 13.6486 60.0026 13.6486C59.0346 13.6486 58.4374 14.4499 58.4374 15.436V17.5315C58.4374 17.8397 58.2932 17.9835 58.0048 17.9835H57.5311C57.2428 17.9835 57.0986 17.8397 57.0986 17.5315V13.0118Z" fill="#00AEEF"/>
<path d="M64.493 18.8874C64.7402 18.9901 65.0903 19.0928 65.5846 19.0928C66.4084 19.0928 67.1293 18.7436 67.1293 17.778V17.3671C67.1293 17.2438 67.1499 17.1 67.1499 17.1H67.1293C66.8203 17.6136 66.3672 17.9013 65.6258 17.9013C64.0399 17.9013 63.1543 16.6481 63.1543 15.1483C63.1543 13.6691 63.9781 12.457 65.6052 12.457C66.8821 12.457 67.2117 13.2788 67.2117 13.2788H67.2323C67.2323 13.2788 67.2117 13.2172 67.2117 13.135V12.9295C67.2117 12.7241 67.3558 12.5598 67.6442 12.5598H68.0149C68.3032 12.5598 68.4474 12.7241 68.4474 13.0117V17.6547C68.4474 19.5242 66.9851 20.2228 65.6258 20.2228C65.0079 20.2228 64.4106 20.0995 64.0399 19.9351C63.7722 19.8119 63.6898 19.6475 63.8134 19.3599L63.8957 19.1134C64.0399 18.8668 64.2047 18.7847 64.493 18.8874ZM67.1499 15.1689C67.1499 13.9157 66.532 13.587 65.8317 13.587C64.9873 13.587 64.5342 14.1828 64.5342 15.0662C64.5342 16.0523 65.0285 16.7302 65.8935 16.7302C66.532 16.7508 67.1499 16.381 67.1499 15.1689Z" fill="#00AEEF"/>
<path d="M72.6895 10.8953C72.6895 10.6077 72.8336 10.4434 73.122 10.4434H73.6163C73.9046 10.4434 74.0488 10.6077 74.0488 10.8953V17.5517C74.0488 17.8598 73.9046 18.0036 73.6163 18.0036H73.122C72.8336 18.0036 72.6895 17.8598 72.6895 17.5517V10.8953Z" fill="#00AEEF"/>
<path d="M75.5322 13.0118C75.5322 12.7241 75.6764 12.5598 75.9647 12.5598H76.3767C76.665 12.5598 76.8092 12.7241 76.8092 13.0118V13.3405C76.8092 13.4637 76.7886 13.587 76.7886 13.587H76.8092C77.0357 13.135 77.633 12.4365 78.7452 12.4365C79.9603 12.4365 80.64 13.0734 80.64 14.4909V17.5315C80.64 17.8397 80.4958 17.9835 80.1869 17.9835H79.7338C79.4454 17.9835 79.2806 17.8397 79.2806 17.5315V14.758C79.2806 14.1006 79.1159 13.6486 78.4362 13.6486C77.4682 13.6486 76.8709 14.4499 76.8709 15.436V17.5315C76.8709 17.8397 76.7268 17.9835 76.4384 17.9835H75.9647C75.6764 17.9835 75.5322 17.8397 75.5322 17.5315V13.0118Z" fill="#00AEEF"/>
<path d="M81.6904 16.9768L81.814 16.7919C81.9788 16.5659 82.1641 16.5453 82.4319 16.6891C82.679 16.833 83.0909 17.0589 83.647 17.0589C84.1207 17.0589 84.4091 16.8535 84.4091 16.5043C84.4091 15.6208 81.711 15.9496 81.711 14.08C81.711 13.0117 82.6584 12.457 83.7912 12.457C84.512 12.457 85.0269 12.683 85.3153 12.8474C85.5624 12.9706 85.583 13.1966 85.48 13.4432L85.3771 13.6281C85.2535 13.8746 85.0475 13.9157 84.7798 13.7924C84.5532 13.6897 84.2031 13.5253 83.75 13.5253C83.2763 13.5253 83.0086 13.7102 83.0086 14.0595C83.0086 14.9429 85.7066 14.5936 85.7066 16.4632C85.7066 17.4287 84.9034 18.1272 83.647 18.1272C82.782 18.1272 82.1641 17.7985 81.8346 17.5725C81.5463 17.4287 81.5257 17.2028 81.6904 16.9768Z" fill="#00AEEF"/>
<path d="M89.4546 14.6553H89.6812V14.5115C89.6812 13.7925 89.2281 13.5459 88.672 13.5459C88.2189 13.5459 87.807 13.7103 87.5392 13.8541C87.2715 13.9774 87.0655 13.9363 86.942 13.6692L86.839 13.4638C86.7154 13.2172 86.7566 13.0118 87.0037 12.868C87.3539 12.6831 87.9717 12.416 88.775 12.416C90.1755 12.416 91.0199 13.1967 91.0199 14.5732V17.511C91.0199 17.8192 90.8757 17.963 90.5668 17.963H90.1961C89.9077 17.963 89.7636 17.8192 89.7636 17.511V17.3055C89.7636 17.1617 89.7842 17.0796 89.7842 17.0796H89.7636C89.7636 17.0796 89.2487 18.1068 88.0541 18.1068C87.0655 18.1068 86.2417 17.4699 86.2417 16.4838C86.2623 14.9224 88.2395 14.6553 89.4546 14.6553ZM88.4454 17.1001C89.2075 17.1001 89.7018 16.34 89.7018 15.6826V15.4771H89.4752C88.7956 15.4771 87.6216 15.5798 87.6216 16.4016C87.6216 16.7509 87.8894 17.1001 88.4454 17.1001Z" fill="#00AEEF"/>
<path d="M92.2969 13.0118C92.2969 12.7241 92.441 12.5598 92.7294 12.5598H93.1413C93.4296 12.5598 93.5738 12.7241 93.5738 13.0118V13.3405C93.5738 13.4637 93.5532 13.587 93.5532 13.587H93.5738C93.8004 13.135 94.3976 12.4365 95.5098 12.4365C96.725 12.4365 97.4046 13.0734 97.4046 14.4909V17.5315C97.4046 17.8397 97.2605 17.9835 96.9515 17.9835H96.4984C96.2101 17.9835 96.0453 17.8397 96.0453 17.5315V14.758C96.0453 14.1006 95.8805 13.6486 95.2009 13.6486C94.2329 13.6486 93.6356 14.4499 93.6356 15.436V17.5315C93.6356 17.8397 93.4914 17.9835 93.2031 17.9835H92.7294C92.441 17.9835 92.2969 17.8397 92.2969 17.5315V13.0118Z" fill="#00AEEF"/>
<path d="M38.2539 22.4416C38.2539 22.0307 38.4599 21.8047 38.8718 21.8047H42.0847C44.0207 21.8047 45.4212 22.7908 45.4212 24.5576C45.4212 25.5643 44.9269 26.4066 44.1237 26.8586V26.8791C45.2976 27.2284 45.8537 28.3172 45.8537 29.4061C45.8537 31.5427 44.1443 32.5082 42.1465 32.5082H38.8718C38.4599 32.5082 38.2539 32.3028 38.2539 31.8714V22.4416ZM42.1053 26.1806C42.9497 26.1806 43.4234 25.5848 43.4234 24.8041C43.4234 24.044 42.9703 23.4688 42.0641 23.4688H40.2105V26.1806H42.1053ZM42.2701 30.8442C43.2793 30.8442 43.8354 30.1867 43.8354 29.2828C43.8354 28.3994 43.2587 27.742 42.2701 27.742H40.1899V30.8442H42.2701Z" fill="#00AEEF"/>
<path d="M47.7075 22.4406C47.7075 22.0297 47.9135 21.8037 48.3254 21.8037H53.4949C53.9068 21.8037 54.1334 22.0297 54.1334 22.4406V22.872C54.1334 23.2829 53.9068 23.4883 53.4949 23.4883H49.6435V26.3029H52.6505C53.0624 26.3029 53.289 26.5083 53.289 26.9192V27.3507C53.289 27.7821 53.0624 27.9875 52.6505 27.9875H49.6435V30.8637H53.7421C54.154 30.8637 54.3805 31.0692 54.3805 31.4801V31.9115C54.3805 32.3429 54.154 32.5483 53.7421 32.5483H48.3254C47.9135 32.5483 47.7075 32.3429 47.7075 31.9115V22.4406Z" fill="#00AEEF"/>
<path d="M56.1305 22.4406C56.1305 22.0297 56.3364 21.8037 56.7483 21.8037H59.6523C60.7027 21.8037 61.2382 21.8859 61.6913 22.0913C62.7829 22.5433 63.4831 23.5705 63.4831 25.0292C63.4831 26.3029 62.8241 27.515 61.6913 27.967V27.9875C61.6913 27.9875 61.8355 28.1519 62.0414 28.5422L63.8127 31.7677C64.0598 32.1991 63.8745 32.5278 63.3802 32.5278H62.5563C62.2062 32.5278 61.9796 32.384 61.8149 32.0964L59.9201 28.5422H58.0459V31.9115C58.0459 32.3429 57.8399 32.5483 57.428 32.5483H56.7277C56.3158 32.5483 56.1099 32.3429 56.1099 31.9115V22.4406H56.1305ZM59.8171 26.8371C60.8675 26.8371 61.5059 26.1796 61.5059 25.1319C61.5059 24.4539 61.2588 23.8992 60.6615 23.6732C60.4144 23.55 60.0642 23.4883 59.4876 23.4883H58.0459V26.8371H59.8171Z" fill="#00AEEF"/>
<path d="M65.6045 22.4406C65.6045 22.0297 65.8104 21.8037 66.2224 21.8037H69.4353C71.3713 21.8037 72.7718 22.7898 72.7718 24.5566C72.7718 25.5633 72.2775 26.4056 71.4743 26.8576V26.8781C72.6482 27.2274 73.2043 28.3162 73.2043 29.4051C73.2043 31.5417 71.4949 32.5073 69.4971 32.5073H66.243C65.831 32.5073 65.6251 32.3018 65.6251 31.8704V22.4406H65.6045ZM69.4559 26.1796C70.3003 26.1796 70.774 25.5839 70.774 24.8032C70.774 24.043 70.3209 23.4678 69.4147 23.4678H67.5611V26.1796H69.4559ZM69.6207 30.8432C70.6299 30.8432 71.1859 30.1858 71.1859 29.2818C71.1859 28.3984 70.6093 27.741 69.6207 27.741H67.5405V30.8432H69.6207Z" fill="#00AEEF"/>
<path d="M77.4064 22.3173C77.53 21.9681 77.7565 21.8037 78.1273 21.8037H79.0953C79.466 21.8037 79.6925 21.9681 79.8161 22.3173L83.1732 31.8088C83.3174 32.2402 83.132 32.5278 82.6583 32.5278H81.9581C81.5873 32.5278 81.3608 32.3635 81.2372 32.0142L80.4752 29.7749H76.7062L75.9647 31.9937C75.8617 32.3635 75.6146 32.5278 75.2439 32.5278H74.5436C74.0699 32.5278 73.8845 32.2402 74.0287 31.8088L77.4064 22.3173ZM80.0015 28.193L79.0541 25.3168C78.8687 24.721 78.6216 23.6527 78.6216 23.6527H78.601C78.601 23.6527 78.3538 24.7005 78.1685 25.3168L77.2005 28.193H80.0015Z" fill="#00AEEF"/>
<path d="M89.4549 21.6191C91.2262 21.6191 92.5031 22.2766 92.9562 22.6053C93.2857 22.8518 93.3269 23.1394 93.1004 23.4887L92.8326 23.9201C92.6061 24.2693 92.3383 24.2899 91.947 24.0845C91.4733 23.8174 90.7113 23.427 89.5579 23.427C87.21 23.427 85.9125 25.1117 85.9125 27.1455C85.9125 29.3849 87.4983 30.9462 89.4961 30.9462C91.288 30.9462 92.2148 29.7752 92.2148 29.7752V28.5836H91.185C90.7731 28.5836 90.5465 28.3577 90.5465 27.9468V27.5359C90.5465 27.1045 90.7731 26.899 91.185 26.899H93.3269C93.7389 26.899 93.9448 27.1045 93.9448 27.5359V31.9118C93.9448 32.3432 93.7389 32.5487 93.3269 32.5487H92.9562C92.5443 32.5487 92.3383 32.3432 92.3383 32.0351V31.7885C92.3383 31.6447 92.3589 31.542 92.3589 31.542H92.3383C92.3383 31.542 91.2674 32.7541 89.1872 32.7541C86.345 32.7541 83.9147 30.5353 83.9147 27.2688C83.8941 24.0023 86.242 21.6191 89.4549 21.6191Z" fill="#00AEEF"/>
<path d="M95.9424 22.4406C95.9424 22.0297 96.1483 21.8037 96.5603 21.8037H97.2605C97.6724 21.8037 97.8784 22.0297 97.8784 22.4406V31.8909C97.8784 32.3224 97.6724 32.5278 97.2605 32.5278H96.5603C96.1483 32.5278 95.9424 32.3224 95.9424 31.8909V22.4406Z" fill="#00AEEF"/>
<path d="M8.66114 25.8507C8.66114 25.8507 21.5742 22.3126 22.2393 9.32129C22.2393 9.32129 21.0865 14.0092 16.3868 13.6996C11.6871 13.3901 9.3927 14.9159 8.10693 17.7574C8.10693 17.7574 11.7647 14.0756 13.782 16.9945C15.7994 19.9134 8.66114 25.8507 8.66114 25.8507Z" fill="#00AEEF"/>
<path d="M17.2632 12.8816C18.0498 12.6287 18.4347 11.6415 18.1229 10.6767C17.8112 9.71195 16.9208 9.13486 16.1342 9.38777C15.3476 9.64068 14.9627 10.6278 15.2745 11.5926C15.5862 12.5574 16.4766 13.1345 17.2632 12.8816Z" fill="#00AEEF"/>
<path d="M24.8546 13.9761L24.644 9.32129L27.936 12.5719L25.9963 12.2734L24.8546 13.9761Z" fill="#00AEEF"/>
<path d="M26.0186 12.2959C26.6504 13.8659 27.0051 15.5797 27.0051 17.3708C27.0051 24.8339 20.942 30.8818 13.4602 30.8818C8.71618 30.8818 4.53744 28.4494 2.12109 24.7565C4.11625 29.7209 8.9822 33.2037 14.6684 33.2037C22.1502 33.2037 28.2132 27.1558 28.2132 19.6927C28.2243 16.9617 27.4041 14.4187 26.0186 12.2959Z" fill="#00AEEF"/>
</svg>
