<svg width="101" height="100" viewBox="0 0 101 100" fill="none" xmlns="http://www.w3.org/2000/svg">
<g style="mix-blend-mode:multiply">
<g clip-path="url(#clip0)">
<path d="M14.1426 67.4697C14.1426 67.1108 14.322 66.9058 14.681 66.9058H17.2191C18.1421 66.9058 18.6036 66.9827 19.0138 67.1621C19.9624 67.5722 20.6034 68.4694 20.6034 69.7255C20.6034 70.8533 20.0137 71.9043 19.0394 72.2888V72.3145C19.0394 72.3145 19.1676 72.4683 19.3471 72.8015L20.911 75.6468C21.1418 76.0314 20.9623 76.3133 20.5265 76.3133H19.8086C19.5009 76.3133 19.2958 76.1852 19.1676 75.9288L17.5012 72.8015H15.8603V75.7494C15.8603 76.1339 15.6809 76.3133 15.3219 76.3133H14.7066C14.3477 76.3133 14.1682 76.1339 14.1682 75.7494V67.4697H14.1426ZM17.3986 71.3404C18.3216 71.3404 18.8856 70.7765 18.8856 69.828C18.8856 69.2384 18.6549 68.7514 18.1421 68.5463C17.9114 68.4438 17.6294 68.3925 17.1166 68.3925H15.8603V71.3404H17.3986Z" fill="#00AEEF"/>
<path d="M22.0386 70.1098C22.0386 69.751 22.2437 69.5459 22.6026 69.5459H23.1666C23.5512 69.5459 23.7307 69.751 23.7307 70.1098V73.5704C23.7307 74.3907 23.9358 74.9546 24.7818 74.9546C26.0125 74.9546 26.6791 73.878 26.6791 72.6732V70.1355C26.6791 69.7766 26.8585 69.5715 27.2431 69.5715H27.8071C28.1661 69.5715 28.3712 69.7766 28.3712 70.1355V75.8005C28.3712 76.185 28.1661 76.3645 27.8071 76.3645H27.2944C26.9354 76.3645 26.756 76.185 26.756 75.8005V75.3904C26.756 75.2366 26.7816 75.0828 26.7816 75.0828H26.756C26.4483 75.7749 25.551 76.4926 24.3973 76.4926C22.9615 76.4926 22.0386 75.7749 22.0386 73.9293V70.1098Z" fill="#00AEEF"/>
<path d="M33.4732 72.1608H33.7552V71.9813C33.7552 71.0842 33.1912 70.7766 32.4989 70.7766C31.9349 70.7766 31.4221 70.9816 31.0888 71.1611C30.7555 71.3149 30.4992 71.2636 30.3453 70.9304L30.2171 70.674C30.0633 70.3664 30.1146 70.1101 30.4222 69.9306C30.8581 69.6999 31.6272 69.3667 32.6271 69.3667C34.3705 69.3667 35.4217 70.3408 35.4217 72.0582V75.7239C35.4217 76.1084 35.2422 76.2878 34.8576 76.2878H34.3961C34.0372 76.2878 33.8577 76.1084 33.8577 75.7239V75.4675C33.8577 75.2881 33.8834 75.1855 33.8834 75.1855H33.8577C33.8577 75.1855 33.2168 76.4672 31.7298 76.4672C30.4992 76.4672 29.4736 75.6726 29.4736 74.4422C29.5249 72.494 31.9605 72.1608 33.4732 72.1608ZM32.2169 75.2112C33.1655 75.2112 33.7808 74.2627 33.7808 73.4425V73.1861H33.4988C32.6528 73.1861 31.1914 73.3143 31.1914 74.3396C31.1914 74.7754 31.5247 75.2112 32.2169 75.2112Z" fill="#00AEEF"/>
<path d="M37.0112 70.1098C37.0112 69.751 37.1907 69.5459 37.5496 69.5459H38.0624C38.4213 69.5459 38.6008 69.751 38.6008 70.1098V70.52C38.6008 70.6738 38.5752 70.8276 38.5752 70.8276H38.6008C38.8828 70.2636 39.6263 69.3921 41.0108 69.3921C42.5234 69.3921 43.3695 70.1867 43.3695 71.9555V75.7492C43.3695 76.1337 43.19 76.3132 42.8054 76.3132H42.2414C41.8825 76.3132 41.6774 76.1337 41.6774 75.7492V72.2887C41.6774 71.4684 41.4723 70.9045 40.6262 70.9045C39.4212 70.9045 38.6777 71.9042 38.6777 73.1346V75.7492C38.6777 76.1337 38.4982 76.3132 38.1393 76.3132H37.5496C37.1907 76.3132 37.0112 76.1337 37.0112 75.7492V70.1098Z" fill="#00AEEF"/>
<path d="M46.2153 77.4413C46.523 77.5695 46.9588 77.6976 47.5741 77.6976C48.5996 77.6976 49.497 77.2619 49.497 76.0571V75.5444C49.497 75.3906 49.5226 75.2112 49.5226 75.2112H49.497C49.1124 75.852 48.5484 76.2109 47.6254 76.2109C45.6513 76.2109 44.5488 74.6472 44.5488 72.776C44.5488 70.9304 45.5744 69.418 47.5998 69.418C49.1893 69.418 49.5995 70.4433 49.5995 70.4433H49.6252C49.6252 70.4433 49.5995 70.3664 49.5995 70.2639V70.0075C49.5995 69.7512 49.779 69.5461 50.1379 69.5461H50.5994C50.9583 69.5461 51.1378 69.7512 51.1378 70.1101V75.9033C51.1378 78.2359 49.3175 79.1075 47.6254 79.1075C46.8563 79.1075 46.1127 78.9537 45.6513 78.7486C45.318 78.5948 45.2154 78.3897 45.3692 78.0309L45.4718 77.7233C45.6513 77.4157 45.8564 77.3131 46.2153 77.4413ZM49.5226 72.8016C49.5226 71.238 48.7535 70.8278 47.8818 70.8278C46.8306 70.8278 46.2666 71.5712 46.2666 72.6734C46.2666 73.9039 46.8819 74.7498 47.9587 74.7498C48.7535 74.7754 49.5226 74.314 49.5226 72.8016Z" fill="#00AEEF"/>
<path d="M56.4194 67.4697C56.4194 67.1108 56.5989 66.9058 56.9578 66.9058H57.5732C57.9321 66.9058 58.1116 67.1108 58.1116 67.4697V75.775C58.1116 76.1595 57.9321 76.339 57.5732 76.339H56.9578C56.5989 76.339 56.4194 76.1595 56.4194 75.775V67.4697Z" fill="#00AEEF"/>
<path d="M59.957 70.1098C59.957 69.751 60.1365 69.5459 60.4954 69.5459H61.0082C61.3671 69.5459 61.5466 69.751 61.5466 70.1098V70.52C61.5466 70.6738 61.521 70.8276 61.521 70.8276H61.5466C61.8286 70.2636 62.5721 69.3921 63.9566 69.3921C65.4692 69.3921 66.3153 70.1867 66.3153 71.9555V75.7492C66.3153 76.1337 66.1358 76.3132 65.7512 76.3132H65.1872C64.8283 76.3132 64.6232 76.1337 64.6232 75.7492V72.2887C64.6232 71.4684 64.4181 70.9045 63.572 70.9045C62.367 70.9045 61.6235 71.9042 61.6235 73.1346V75.7492C61.6235 76.1337 61.444 76.3132 61.0851 76.3132H60.4954C60.1365 76.3132 59.957 76.1337 59.957 75.7492V70.1098Z" fill="#00AEEF"/>
<path d="M67.6235 75.0574L67.7773 74.8267C67.9824 74.5447 68.2132 74.5191 68.5465 74.6985C68.8541 74.8779 69.3669 75.1599 70.0591 75.1599C70.6488 75.1599 71.0077 74.9036 71.0077 74.4678C71.0077 73.3656 67.6491 73.7757 67.6491 71.443C67.6491 70.1101 68.8285 69.418 70.2386 69.418C71.1359 69.418 71.7768 69.6999 72.1358 69.905C72.4434 70.0588 72.4691 70.3408 72.3409 70.6484L72.2127 70.8791C72.0589 71.1867 71.8025 71.238 71.4692 71.0842C71.1872 70.956 70.7513 70.7509 70.1873 70.7509C69.5976 70.7509 69.2643 70.9816 69.2643 71.4174C69.2643 72.5196 72.6229 72.0839 72.6229 74.4165C72.6229 75.6213 71.623 76.4929 70.0591 76.4929C68.9823 76.4929 68.2132 76.0827 67.8029 75.8008C67.444 75.6213 67.4184 75.3393 67.6235 75.0574Z" fill="#00AEEF"/>
<path d="M77.2886 72.1608H77.5706V71.9813C77.5706 71.0842 77.0066 70.7766 76.3144 70.7766C75.7503 70.7766 75.2376 70.9816 74.9043 71.1611C74.571 71.3149 74.3146 71.2636 74.1608 70.9304L74.0326 70.674C73.8787 70.3664 73.93 70.1101 74.2377 69.9306C74.6735 69.6999 75.4427 69.3667 76.4425 69.3667C78.1859 69.3667 79.2371 70.3408 79.2371 72.0582V75.7239C79.2371 76.1084 79.0576 76.2878 78.6731 76.2878H78.2116C77.8526 76.2878 77.6732 76.1084 77.6732 75.7239V75.4675C77.6732 75.2881 77.6988 75.1855 77.6988 75.1855H77.6732C77.6732 75.1855 77.0322 76.4672 75.5452 76.4672C74.3146 76.4672 73.2891 75.6726 73.2891 74.4422C73.3147 72.494 75.776 72.1608 77.2886 72.1608ZM76.0323 75.2112C76.9809 75.2112 77.5963 74.2627 77.5963 73.4425V73.1861H77.3142C76.4682 73.1861 75.0068 73.3143 75.0068 74.3396C75.0068 74.7754 75.3401 75.2112 76.0323 75.2112Z" fill="#00AEEF"/>
<path d="M80.8267 70.1098C80.8267 69.751 81.0061 69.5459 81.3651 69.5459H81.8778C82.2368 69.5459 82.4162 69.751 82.4162 70.1098V70.52C82.4162 70.6738 82.3906 70.8276 82.3906 70.8276H82.4162C82.6982 70.2636 83.4417 69.3921 84.8262 69.3921C86.3388 69.3921 87.1849 70.1867 87.1849 71.9555V75.7492C87.1849 76.1337 87.0054 76.3132 86.6209 76.3132H86.0568C85.6979 76.3132 85.4928 76.1337 85.4928 75.7492V72.2887C85.4928 71.4684 85.2877 70.9045 84.4416 70.9045C83.2366 70.9045 82.4931 71.9042 82.4931 73.1346V75.7492C82.4931 76.1337 82.3137 76.3132 81.9547 76.3132H81.3651C81.0061 76.3132 80.8267 76.1337 80.8267 75.7492V70.1098Z" fill="#00AEEF"/>
<path d="M13.5527 81.8752C13.5527 81.3625 13.8091 81.0806 14.3219 81.0806H18.3214C20.7314 81.0806 22.4748 82.311 22.4748 84.5155C22.4748 85.7715 21.8595 86.8225 20.8596 87.3864V87.4121C22.321 87.8479 23.0132 89.2064 23.0132 90.565C23.0132 93.2309 20.8852 94.4357 18.3983 94.4357H14.3219C13.8091 94.4357 13.5527 94.1794 13.5527 93.6411V81.8752ZM18.3471 86.5405C19.3982 86.5405 19.9879 85.7972 19.9879 84.8231C19.9879 83.8746 19.4239 83.1569 18.2958 83.1569H15.9884V86.5405H18.3471ZM18.5522 92.3594C19.8084 92.3594 20.5007 91.5391 20.5007 90.4112C20.5007 89.309 19.7828 88.4887 18.5522 88.4887H15.9627V92.3594H18.5522Z" fill="#00AEEF"/>
<path d="M25.3208 81.8752C25.3208 81.3625 25.5772 81.0806 26.0899 81.0806H32.5251C33.0379 81.0806 33.3199 81.3625 33.3199 81.8752V82.4135C33.3199 82.9262 33.0379 83.1825 32.5251 83.1825H27.7308V86.6943H31.4739C31.9867 86.6943 32.2687 86.9507 32.2687 87.4633V88.0017C32.2687 88.54 31.9867 88.7963 31.4739 88.7963H27.7308V92.385H32.8328C33.3455 92.385 33.6275 92.6413 33.6275 93.154V93.6923C33.6275 94.2306 33.3455 94.487 32.8328 94.487H26.0899C25.5772 94.487 25.3208 94.2306 25.3208 93.6923V81.8752Z" fill="#00AEEF"/>
<path d="M35.8069 81.8752C35.8069 81.3625 36.0633 81.0806 36.576 81.0806H40.191C41.4985 81.0806 42.1651 81.1831 42.7292 81.4394C44.088 82.0034 44.9597 83.2851 44.9597 85.1051C44.9597 86.6943 44.1393 88.2067 42.7292 88.7707V88.7963C42.7292 88.7963 42.9086 89.0014 43.165 89.4884L45.3699 93.5129C45.6775 94.0512 45.4468 94.4613 44.8315 94.4613H43.806C43.3701 94.4613 43.0881 94.2819 42.883 93.923L40.5243 89.4884H38.1912V93.6923C38.1912 94.2306 37.9348 94.487 37.4221 94.487H36.5504C36.0376 94.487 35.7812 94.2306 35.7812 93.6923V81.8752H35.8069ZM40.3961 87.3608C41.7036 87.3608 42.4984 86.5405 42.4984 85.2332C42.4984 84.3873 42.1908 83.6952 41.4473 83.4132C41.1396 83.2594 40.7038 83.1825 39.9859 83.1825H38.1912V87.3608H40.3961Z" fill="#00AEEF"/>
<path d="M47.6001 81.8752C47.6001 81.3625 47.8565 81.0806 48.3692 81.0806H52.3688C54.7788 81.0806 56.5221 82.311 56.5221 84.5155C56.5221 85.7715 55.9068 86.8225 54.9069 87.3864V87.4121C56.3683 87.8479 57.0605 89.2064 57.0605 90.565C57.0605 93.2309 54.9326 94.4357 52.4457 94.4357H48.3949C47.8821 94.4357 47.6257 94.1794 47.6257 93.6411V81.8752H47.6001ZM52.3944 86.5405C53.4456 86.5405 54.0352 85.7972 54.0352 84.8231C54.0352 83.8746 53.4712 83.1569 52.3431 83.1569H50.0357V86.5405H52.3944ZM52.5995 92.3594C53.8558 92.3594 54.548 91.5391 54.548 90.4112C54.548 89.309 53.8301 88.4887 52.5995 88.4887H50.0101V92.3594H52.5995Z" fill="#00AEEF"/>
<path d="M62.2909 81.7214C62.4448 81.2856 62.7268 81.0806 63.1883 81.0806H64.3933C64.8547 81.0806 65.1368 81.2856 65.2906 81.7214L69.4696 93.5642C69.6491 94.1025 69.4183 94.4613 68.8286 94.4613H67.9569C67.4955 94.4613 67.2134 94.2563 67.0596 93.8205L66.111 91.0264H61.4192L60.4963 93.7949C60.3681 94.2563 60.0604 94.4613 59.5989 94.4613H58.7272C58.1376 94.4613 57.9068 94.1025 58.0863 93.5642L62.2909 81.7214ZM65.5213 89.0526L64.342 85.4639C64.1112 84.7205 63.8036 83.3876 63.8036 83.3876H63.7779C63.7779 83.3876 63.4703 84.6949 63.2395 85.4639L62.0346 89.0526H65.5213Z" fill="#00AEEF"/>
<path d="M77.2889 80.8501C79.4938 80.8501 81.0833 81.6704 81.6474 82.0805C82.0576 82.3881 82.1089 82.747 81.8268 83.1828L81.4935 83.7211C81.2115 84.1568 80.8782 84.1825 80.3911 83.9261C79.8014 83.5929 78.8528 83.1059 77.4171 83.1059C74.4944 83.1059 72.8791 85.2078 72.8791 87.7456C72.8791 90.5396 74.8533 92.4878 77.3402 92.4878C79.5707 92.4878 80.7244 91.0267 80.7244 91.0267V89.5399H79.4425C78.9297 89.5399 78.6477 89.2579 78.6477 88.7453V88.2326C78.6477 87.6943 78.9297 87.4379 79.4425 87.4379H82.1089C82.6216 87.4379 82.878 87.6943 82.878 88.2326V93.6926C82.878 94.2309 82.6216 94.4872 82.1089 94.4872H81.6474C81.1346 94.4872 80.8782 94.2309 80.8782 93.8464V93.5388C80.8782 93.3593 80.9039 93.2312 80.9039 93.2312H80.8782C80.8782 93.2312 79.5451 94.7435 76.9556 94.7435C73.4176 94.7435 70.3923 91.9751 70.3923 87.8994C70.3666 83.8236 73.2894 80.8501 77.2889 80.8501Z" fill="#00AEEF"/>
<path d="M85.3647 81.8752C85.3647 81.3625 85.6211 81.0806 86.1339 81.0806H87.0056C87.5183 81.0806 87.7747 81.3625 87.7747 81.8752V93.6667C87.7747 94.205 87.5183 94.4613 87.0056 94.4613H86.1339C85.6211 94.4613 85.3647 94.205 85.3647 93.6667V81.8752Z" fill="#00AEEF"/>
<path d="M35.6266 43.6558C35.6266 43.6558 65.495 35.4531 67.0333 5.3335C67.0333 5.3335 64.3669 16.2022 53.4964 15.4844C42.6258 14.7667 37.3187 18.3041 34.3447 24.892C34.3447 24.892 42.8053 16.356 47.4714 23.1233C52.1375 29.8905 35.6266 43.6558 35.6266 43.6558Z" fill="#00AEEF"/>
<path d="M55.5234 13.5888C57.3428 13.0024 58.2331 10.7138 57.512 8.47699C56.7909 6.24019 54.7314 4.90224 52.912 5.4886C51.0926 6.07496 50.2023 8.36358 50.9234 10.6004C51.6445 12.8372 53.704 14.1751 55.5234 13.5888Z" fill="#00AEEF"/>
<path d="M73.0843 16.1253L72.5972 5.3335L80.2117 12.8698L75.725 12.1777L73.0843 16.1253Z" fill="#00AEEF"/>
<path d="M75.7762 12.229C77.2375 15.869 78.058 19.8422 78.058 23.9949C78.058 41.2976 64.0339 55.3192 46.7282 55.3192C35.7551 55.3192 26.0896 49.6798 20.5005 41.1181C25.1153 52.6277 36.3705 60.7023 49.5228 60.7023C66.8285 60.7023 80.8525 46.6806 80.8525 29.3779C80.8782 23.0464 78.9809 17.1507 75.7762 12.229Z" fill="#00AEEF"/>
</g>
</g>
<defs>
<clipPath id="clip0">
<rect width="74.2222" height="89.3333" fill="white" transform="translate(13.5527 5.3335)"/>
</clipPath>
</defs>
</svg>
