<svg width="18" height="19" viewBox="0 0 18 19" fill="none" xmlns="http://www.w3.org/2000/svg">
<path d="M5.10271 10.9599L4.61539 12.7792L2.83424 12.8168C2.30193 11.8295 2 10.6999 2 9.49953C2 8.33875 2.2823 7.24412 2.78269 6.28027H2.78307L4.3688 6.57099L5.06345 8.14721C4.91806 8.57106 4.83882 9.02607 4.83882 9.49953C4.83887 10.0134 4.93195 10.5057 5.10271 10.9599Z" fill="white"/>
<path d="M15.8778 8.19238C15.9581 8.61583 16.0001 9.05314 16.0001 9.50008C16.0001 10.0012 15.9474 10.4901 15.847 10.9616C15.5062 12.5663 14.6158 13.9674 13.3824 14.959L13.382 14.9586L11.3847 14.8567L11.102 13.092C11.9205 12.612 12.5601 11.8609 12.897 10.9616H9.15393V8.19238H12.9516H15.8778Z" fill="white"/>
<path d="M13.382 14.958L13.3824 14.9584C12.1828 15.9227 10.6589 16.4996 9.00003 16.4996C6.33425 16.4996 4.01655 15.0096 2.83423 12.8169L5.10271 10.96C5.69385 12.5376 7.21579 13.6607 9.00003 13.6607C9.76695 13.6607 10.4854 13.4534 11.102 13.0915L13.382 14.958Z" fill="white"/>
<path d="M13.4682 4.11154L11.2005 5.96808C10.5624 5.56924 9.80813 5.33884 9.00006 5.33884C7.17543 5.33884 5.62503 6.51346 5.0635 8.14772L2.7831 6.28079H2.78271C3.94773 4.03462 6.29466 2.5 9.00006 2.5C10.6985 2.5 12.2558 3.10501 13.4682 4.11154Z" fill="white"/>
</svg>
