<svg width="18" height="18" viewBox="0 0 18 18" fill="none" xmlns="http://www.w3.org/2000/svg">
<path d="M5.10271 10.4599L4.61539 12.2792L2.83424 12.3168C2.30193 11.3295 2 10.1999 2 8.99953C2 7.83875 2.2823 6.74412 2.78269 5.78027H2.78307L4.3688 6.07099L5.06345 7.64721C4.91806 8.07106 4.83882 8.52607 4.83882 8.99953C4.83887 9.51337 4.93195 10.0057 5.10271 10.4599Z" fill="#FBBB00"/>
<path d="M15.8778 7.69238C15.9581 8.11583 16.0001 8.55314 16.0001 9.00008C16.0001 9.50124 15.9474 9.99009 15.847 10.4616C15.5062 12.0663 14.6158 13.4674 13.3824 14.459L13.382 14.4586L11.3847 14.3567L11.102 12.592C11.9205 12.112 12.5601 11.3609 12.897 10.4616H9.15393V7.69238H12.9516H15.8778Z" fill="#518EF8"/>
<path d="M13.382 14.458L13.3824 14.4584C12.1828 15.4227 10.6589 15.9996 9.00003 15.9996C6.33425 15.9996 4.01655 14.5096 2.83423 12.3169L5.10271 10.46C5.69385 12.0376 7.21579 13.1607 9.00003 13.1607C9.76695 13.1607 10.4854 12.9534 11.102 12.5915L13.382 14.458Z" fill="#28B446"/>
<path d="M13.4682 3.61154L11.2005 5.46808C10.5624 5.06924 9.80813 4.83884 9.00006 4.83884C7.17543 4.83884 5.62503 6.01346 5.0635 7.64772L2.7831 5.78079H2.78271C3.94773 3.53462 6.29466 2 9.00006 2C10.6985 2 12.2558 2.60501 13.4682 3.61154Z" fill="#F14336"/>
</svg>
