<svg width="36" height="33" viewBox="0 0 36 33" fill="none" xmlns="http://www.w3.org/2000/svg">
<path d="M9.51932 22.4455C9.51932 22.4455 26.6937 17.728 27.5782 0.40625C27.5782 0.40625 26.0451 6.65684 19.7945 6.24406C13.5439 5.83129 10.4923 7.86568 8.78223 11.6544C8.78223 11.6544 13.6471 6.74529 16.3301 10.6372C19.0131 14.529 9.51932 22.4455 9.51932 22.4455Z" fill="#00AEEF"/>
<path d="M31.0565 6.61261L30.7764 0.40625L35.1547 4.74038L32.5749 4.34235L31.0565 6.61261Z" fill="#00AEEF"/>
<path d="M32.6049 4.37207C33.4452 6.46543 33.917 8.75043 33.917 11.1386C33.917 21.0894 25.8531 29.1533 15.9023 29.1533C9.59275 29.1533 4.03503 25.9101 0.821289 20.9862C3.47484 27.6054 9.94656 32.2491 17.5092 32.2491C27.46 32.2491 35.5238 24.1853 35.5238 14.2344C35.5386 10.5932 34.4477 7.20253 32.6049 4.37207Z" fill="#00AEEF"/>
<path d="M20.9603 5.15331C22.0064 4.81609 22.5184 3.4999 22.1037 2.21352C21.6891 0.927128 20.5048 0.157671 19.4587 0.494887C18.4125 0.832102 17.9006 2.14829 18.3152 3.43468C18.7299 4.72107 19.9141 5.49052 20.9603 5.15331Z" fill="#00AEEF"/>
</svg>
