<svg width="33" height="32" viewBox="0 0 33 32" fill="none" xmlns="http://www.w3.org/2000/svg">
<rect x="0.5" width="32" height="32" rx="16" fill="#F2F2F2"/>
<g clip-path="url(#clip0)">
<path d="M22.1562 8H10.8438C9.55151 8 8.5 9.05151 8.5 10.3438V21.6562C8.5 22.9485 9.55151 24 10.8438 24H15.5625V18.3438H13.6875V15.5312H15.5625V13.625C15.5625 12.0741 16.8241 10.8125 18.375 10.8125H21.2188V13.625H18.375V15.5312H21.2188L20.75 18.3438H18.375V24H22.1562C23.4485 24 24.5 22.9485 24.5 21.6562V10.3438C24.5 9.05151 23.4485 8 22.1562 8Z" fill="#91C35D"/>
</g>
<defs>
<clipPath id="clip0">
<rect width="16" height="16" fill="white" transform="translate(8.5 8)"/>
</clipPath>
</defs>
</svg>
