<svg width="33" height="32" viewBox="0 0 33 32" fill="none" xmlns="http://www.w3.org/2000/svg">
<rect x="0.5" width="32" height="32" rx="16" fill="#F2F2F2"/>
<g clip-path="url(#clip0)">
<path d="M17.0207 18.274C16.8506 18.3802 16.6594 18.4227 16.4894 18.4227C16.3194 18.4227 16.1281 18.3802 15.9581 18.274L7.5 13.1099V19.9741C7.5 21.4405 8.69008 22.6305 10.1564 22.6305H22.8436C24.3099 22.6305 25.5 21.4405 25.5 19.9741V13.1099L17.0207 18.274Z" fill="#12BFFF"/>
<path d="M22.8435 9.36963H10.1564C8.90255 9.36963 7.83998 10.2622 7.58496 11.4523L16.5106 16.8926L25.4149 11.4523C25.1599 10.2622 24.0974 9.36963 22.8435 9.36963Z" fill="#12BFFF"/>
</g>
<defs>
<clipPath id="clip0">
<rect width="18" height="18" fill="white" transform="translate(7.5 7)"/>
</clipPath>
</defs>
</svg>
