<svg width="33" height="32" viewBox="0 0 33 32" fill="none" xmlns="http://www.w3.org/2000/svg">
<rect x="0.5" width="32" height="32" rx="16" fill="#F2F2F2"/>
<g clip-path="url(#clip0)">
<path d="M14.2153 23.3843C13.4369 23.3843 12.6357 23.3213 11.8297 23.1949C10.4101 22.9722 8.97313 22.2296 8.5665 22.0073L7.5 21.4242L8.65466 21.0445C9.91686 20.6295 10.6847 20.372 11.6351 19.9688C10.6834 19.5079 9.94995 18.6789 9.59688 17.6071L9.32826 16.7917L9.54854 16.8253C9.33966 16.6148 9.17473 16.4011 9.04688 16.2068C8.59218 15.5162 8.35144 14.6723 8.40266 13.9491L8.4532 13.2373L8.87933 13.4024C8.69957 13.0629 8.56966 12.7004 8.4933 12.3204C8.30722 11.3937 8.46295 10.4092 8.93193 9.54826L9.30313 8.86683L9.79958 9.46311C11.3697 11.3492 13.3583 12.468 15.7186 12.7955C15.6222 12.131 15.6944 11.4897 15.9335 10.9148C16.2119 10.2455 16.7071 9.6779 17.3652 9.27333C18.096 8.82412 18.9824 8.60646 19.8609 8.66043C20.7929 8.71769 21.6391 9.06692 22.3112 9.67103C22.6394 9.58575 22.8813 9.4947 23.2081 9.37165C23.4048 9.29763 23.6278 9.21359 23.9068 9.11746L24.9352 8.76315L24.2646 10.6783C24.3088 10.6746 24.3544 10.6715 24.4021 10.6694L25.5001 10.6197L24.8511 11.5067C24.8139 11.5575 24.8044 11.5719 24.7912 11.5919C24.7389 11.6707 24.6738 11.7687 23.783 12.9583C23.56 13.2561 23.4486 13.6441 23.4693 14.0509C23.5483 15.5966 23.3586 16.9952 22.9053 18.2075C22.4766 19.3545 21.8122 20.3386 20.9308 21.1325C19.8401 22.1147 18.4494 22.7872 16.797 23.1311C15.9865 23.2997 15.1161 23.3843 14.2153 23.3843Z" fill="#91C35D"/>
</g>
<defs>
<clipPath id="clip0">
<rect width="18.0001" height="18" fill="white" transform="translate(7.5 7)"/>
</clipPath>
</defs>
</svg>
