<svg width="33" height="32" viewBox="0 0 33 32" fill="none" xmlns="http://www.w3.org/2000/svg">
<rect x="0.5" width="32" height="32" rx="16" fill="#F2F2F2"/>
<g clip-path="url(#clip0)">
<path d="M16.5 7C11.5567 7 7.5 11.0567 7.5 16C7.5 17.6315 7.93987 19.2197 8.774 20.6092L7.5 25L11.8908 23.726C13.2803 24.5601 14.8685 25 16.5 25C21.4433 25 25.5 20.9433 25.5 16C25.5 11.0567 21.4433 7 16.5 7ZM22.1269 19.8028L21.7082 20.2215C21.1158 20.8139 19.7533 20.767 18.8779 20.5979C15.9669 20.0357 12.5731 16.7461 11.9186 13.8974C11.5945 12.4862 11.7734 11.2593 12.2414 10.7911L12.6601 10.3724C12.8913 10.1414 13.2667 10.1417 13.4976 10.3724L15.1727 12.0477C15.2845 12.1595 15.3457 12.3076 15.3457 12.4662C15.3457 12.6249 15.2845 12.7732 15.1727 12.8846L14.7541 13.3037C14.2927 13.7662 14.2927 14.5175 14.7541 14.979L17.5204 17.7088C17.9832 18.1716 18.7321 18.1721 19.1956 17.7088L19.6143 17.2902C19.8305 17.0728 20.2343 17.0721 20.4522 17.2902L22.1269 18.9649C22.3543 19.1914 22.363 19.5666 22.1269 19.8028Z" fill="#91C35D"/>
</g>
<defs>
<clipPath id="clip0">
<rect width="18" height="18" fill="white" transform="translate(7.5 7)"/>
</clipPath>
</defs>
</svg>
