<svg width="33" height="32" viewBox="0 0 33 32" fill="none" xmlns="http://www.w3.org/2000/svg">
<rect x="0.5" width="32" height="32" rx="16" fill="#F2F2F2"/>
<g clip-path="url(#clip0)">
<path d="M10.1719 25C11.6256 25 12.8086 23.7819 12.8086 22.3281C12.8086 20.8744 11.6256 19.6562 10.1719 19.6562C8.71811 19.6562 7.5 20.8744 7.5 22.3281C7.5 23.7819 8.71811 25 10.1719 25Z" fill="#91C35D"/>
<path d="M16.0078 24.4727C16.0078 24.6506 15.9927 24.8249 15.981 25H19.1451C19.1535 24.8239 19.1719 24.6506 19.1719 24.4727C19.1719 18.3665 14.1335 13.3281 8.02734 13.3281C7.84937 13.3281 7.67606 13.3465 7.5 13.3549V16.519C7.67509 16.5073 7.84937 16.4922 8.02734 16.4922C12.3892 16.4922 16.0078 20.1108 16.0078 24.4727Z" fill="#91C35D"/>
<path d="M8.02734 7C7.84923 7 7.67674 7.02142 7.5 7.02664V10.1908C7.67647 10.1842 7.84937 10.1641 8.02734 10.1641C15.8783 10.1641 22.3359 16.6217 22.3359 24.4727C22.3359 24.6506 22.3158 24.8235 22.3092 25H25.4734C25.4786 24.8233 25.5 24.6508 25.5 24.4727C25.5 14.8615 17.6383 7 8.02734 7Z" fill="#91C35D"/>
</g>
<defs>
<clipPath id="clip0">
<rect width="18" height="18" fill="white" transform="translate(7.5 7)"/>
</clipPath>
</defs>
</svg>
