<svg width="75" height="21" viewBox="0 0 75 21" fill="none" xmlns="http://www.w3.org/2000/svg">
<path d="M0 8.5C0 4.08172 3.58172 0.5 8 0.5H67C71.4183 0.5 75 4.08172 75 8.5V12.5C75 16.9183 71.4183 20.5 67 20.5H8C3.58172 20.5 0 16.9183 0 12.5V8.5Z" fill="#C4E8F5"/>
<path d="M16.4868 8.89538L14.3582 11.0451L13.5395 10.2202C13.4951 10.1679 13.4403 10.1254 13.3788 10.0954C13.3172 10.0654 13.2502 10.0485 13.1818 10.0458C13.1135 10.0432 13.0454 10.0548 12.9817 10.0799C12.918 10.1051 12.8602 10.1432 12.8118 10.1919C12.7635 10.2406 12.7256 10.2989 12.7007 10.363C12.6757 10.4272 12.6642 10.4959 12.6669 10.5647C12.6695 10.6336 12.6862 10.7011 12.716 10.7631C12.7458 10.8252 12.788 10.8803 12.8399 10.9251L14.0059 12.105C14.0523 12.1513 14.1073 12.188 14.1677 12.2129C14.2282 12.2378 14.2929 12.2504 14.3582 12.25C14.4884 12.2494 14.6131 12.1974 14.7055 12.105L17.1864 9.6053C17.2329 9.55882 17.2698 9.50353 17.295 9.4426C17.3202 9.38168 17.3332 9.31634 17.3332 9.25034C17.3332 9.18434 17.3202 9.11899 17.295 9.05807C17.2698 8.99715 17.2329 8.94186 17.1864 8.89538C17.0934 8.80226 16.9677 8.75 16.8366 8.75C16.7055 8.75 16.5798 8.80226 16.4868 8.89538Z" fill="#186D8B"/>
<path d="M14.4491 5.61361C14.7833 5.39306 15.2167 5.39306 15.5509 5.6136L16.5466 6.27084C16.653 6.34109 16.7719 6.39033 16.8969 6.41592L18.0657 6.65527C18.4579 6.73559 18.7644 7.0421 18.8447 7.43432L19.0841 8.60314C19.1097 8.72808 19.1589 8.84697 19.2292 8.9534L19.8864 9.94913C20.1069 10.2833 20.1069 10.7167 19.8864 11.0509L19.2292 12.0466C19.1589 12.153 19.1097 12.2719 19.0841 12.3969L18.8447 13.5657C18.7644 13.9579 18.4579 14.2644 18.0657 14.3447L16.8969 14.5841C16.7719 14.6097 16.653 14.6589 16.5466 14.7292L15.5509 15.3864C15.2167 15.6069 14.7833 15.6069 14.4491 15.3864L13.4534 14.7292C13.347 14.6589 13.2281 14.6097 13.1031 14.5841L11.9343 14.3447C11.5421 14.2644 11.2356 13.9579 11.1553 13.5657L10.9159 12.3969C10.8903 12.2719 10.8411 12.153 10.7708 12.0466L10.1136 11.0509C9.89306 10.7167 9.89306 10.2833 10.1136 9.94913L10.7708 8.9534C10.8411 8.84697 10.8903 8.72808 10.9159 8.60314L11.1553 7.43432C11.2356 7.0421 11.5421 6.73559 11.9343 6.65527L13.1031 6.41592C13.2281 6.39033 13.347 6.34109 13.4534 6.27084L14.4491 5.61361Z" stroke="#186D8B" stroke-width="1.2" stroke-linejoin="round"/>
<path d="M26.5659 10.2C26.5659 9.65067 26.6886 9.16 26.9339 8.728C27.1846 8.29067 27.5233 7.952 27.9499 7.712C28.3819 7.46667 28.8646 7.344 29.3979 7.344C30.0219 7.344 30.5686 7.504 31.0379 7.824C31.5073 8.144 31.8353 8.58667 32.0219 9.152H30.7339C30.6059 8.88533 30.4246 8.68533 30.1899 8.552C29.9606 8.41867 29.6939 8.352 29.3899 8.352C29.0646 8.352 28.7739 8.42933 28.5179 8.584C28.2673 8.73333 28.0699 8.94667 27.9259 9.224C27.7873 9.50133 27.7179 9.82667 27.7179 10.2C27.7179 10.568 27.7873 10.8933 27.9259 11.176C28.0699 11.4533 28.2673 11.6693 28.5179 11.824C28.7739 11.9733 29.0646 12.048 29.3899 12.048C29.6939 12.048 29.9606 11.9813 30.1899 11.848C30.4246 11.7093 30.6059 11.5067 30.7339 11.24H32.0219C31.8353 11.8107 31.5073 12.256 31.0379 12.576C30.5739 12.8907 30.0273 13.048 29.3979 13.048C28.8646 13.048 28.3819 12.928 27.9499 12.688C27.5233 12.4427 27.1846 12.104 26.9339 11.672C26.6886 11.24 26.5659 10.7493 26.5659 10.2ZM34.2986 8.32V9.72H36.1786V10.608H34.2986V12.088H36.4186V13H33.1786V7.408H36.4186V8.32H34.2986ZM40.5164 13L39.2844 10.824H38.7564V13H37.6364V7.416H39.7324C40.1644 7.416 40.5324 7.49333 40.8364 7.648C41.1404 7.79733 41.367 8.00267 41.5164 8.264C41.671 8.52 41.7484 8.808 41.7484 9.128C41.7484 9.496 41.6417 9.82933 41.4284 10.128C41.215 10.4213 40.8977 10.624 40.4764 10.736L41.8124 13H40.5164ZM38.7564 9.984H39.6924C39.9964 9.984 40.223 9.912 40.3724 9.768C40.5217 9.61867 40.5964 9.41333 40.5964 9.152C40.5964 8.896 40.5217 8.69867 40.3724 8.56C40.223 8.416 39.9964 8.344 39.6924 8.344H38.7564V9.984ZM46.7614 7.416V8.32H45.2734V13H44.1534V8.32H42.6654V7.416H46.7614ZM48.8986 7.416V13H47.7786V7.416H48.8986ZM53.6531 7.416V8.32H51.3251V9.752H53.1091V10.64H51.3251V13H50.2051V7.416H53.6531ZM55.7673 7.416V13H54.6473V7.416H55.7673ZM58.1939 8.32V9.72H60.0739V10.608H58.1939V12.088H60.3139V13H57.0739V7.408H60.3139V8.32H58.1939ZM63.4837 7.416C64.0704 7.416 64.585 7.53067 65.0277 7.76C65.4757 7.98933 65.8197 8.31733 66.0597 8.744C66.305 9.16533 66.4277 9.656 66.4277 10.216C66.4277 10.776 66.305 11.2667 66.0597 11.688C65.8197 12.104 65.4757 12.4267 65.0277 12.656C64.585 12.8853 64.0704 13 63.4837 13H61.5317V7.416H63.4837ZM63.4437 12.048C64.0304 12.048 64.4837 11.888 64.8037 11.568C65.1237 11.248 65.2837 10.7973 65.2837 10.216C65.2837 9.63467 65.1237 9.18133 64.8037 8.856C64.4837 8.52533 64.0304 8.36 63.4437 8.36H62.6517V12.048H63.4437Z" fill="#186D8B"/>
</svg>
