<svg width="43" height="42" viewBox="0 0 43 42" fill="none" xmlns="http://www.w3.org/2000/svg">
<path d="M0.5 21C0.5 9.40202 9.90202 0 21.5 0C33.098 0 42.5 9.40202 42.5 21C42.5 32.598 33.098 42 21.5 42C9.90202 42 0.5 32.598 0.5 21Z" fill="#C4E8F5"/>
<path d="M14.75 28.125L14.7905 27.8648C14.9991 26.5239 15.873 25.3704 17.1805 25.007C18.3384 24.6852 19.8758 24.375 21.5 24.375C23.1242 24.375 24.6616 24.6852 25.8195 25.007C27.127 25.3704 28.0009 26.5239 28.2095 27.8648L28.25 28.125" stroke="#186D8B" stroke-width="2" stroke-linecap="round" stroke-linejoin="round"/>
<path d="M21.5 21C23.5711 21 25.25 19.3211 25.25 17.25C25.25 15.1789 23.5711 13.5 21.5 13.5C19.4289 13.5 17.75 15.1789 17.75 17.25C17.75 19.3211 19.4289 21 21.5 21Z" stroke="#186D8B" stroke-width="2" stroke-linecap="round" stroke-linejoin="round"/>
</svg>
