<svg width="29" height="31" viewBox="0 0 29 31" fill="none" xmlns="http://www.w3.org/2000/svg">
<path d="M8.10156 13.1899C8.10032 12.3004 8.27514 11.4194 8.61595 10.5978C8.95676 9.77623 9.45682 9.03019 10.0873 8.40274C10.7178 7.77529 11.4662 7.27883 12.2894 6.94198C13.1127 6.60513 13.9945 6.43455 14.8839 6.44007C18.5955 6.46766 21.5642 9.5527 21.5642 13.2746V13.9399C21.5642 17.2976 22.2667 19.246 22.8855 20.311C22.9521 20.4247 22.9876 20.5541 22.9883 20.686C22.989 20.8178 22.9549 20.9476 22.8895 21.0621C22.824 21.1766 22.7296 21.2718 22.6156 21.3381C22.5016 21.4044 22.3722 21.4395 22.2403 21.4399H7.42474C7.29285 21.4395 7.16339 21.4044 7.04941 21.3381C6.93542 21.2717 6.84096 21.1765 6.77553 21.062C6.71011 20.9475 6.67604 20.8177 6.67677 20.6858C6.6775 20.5539 6.713 20.4246 6.77968 20.3108C7.39874 19.2458 8.10156 17.2974 8.10156 13.9399L8.10156 13.1899Z" stroke="#0098D1" stroke-width="1.5" stroke-linecap="round" stroke-linejoin="round"/>
<path d="M11.832 21.4399V22.1899C11.832 22.9856 12.1481 23.7487 12.7107 24.3113C13.2733 24.8739 14.0364 25.1899 14.832 25.1899C15.6277 25.1899 16.3907 24.8739 16.9534 24.3113C17.516 23.7487 17.832 22.9856 17.832 22.1899V21.4399" stroke="#0098D1" stroke-width="1.5" stroke-linecap="round" stroke-linejoin="round"/>
</svg>
