<svg width="16" height="17" viewBox="0 0 16 17" fill="none" xmlns="http://www.w3.org/2000/svg">
<path fill-rule="evenodd" clip-rule="evenodd" d="M10.85 0C11.3194 0 11.7 0.380558 11.7 0.85V2.1499H12.9999C14.5739 2.1499 15.8499 3.42589 15.8499 4.9999V13.9999C15.8499 15.5739 14.5739 16.8499 12.9999 16.8499H2.9999C1.42589 16.8499 0.149902 15.5739 0.149902 13.9999V4.9999C0.149902 3.42589 1.42589 2.1499 2.9999 2.1499H3.99995V0.85C3.99995 0.380558 4.38051 0 4.84995 0C5.31939 0 5.69995 0.380558 5.69995 0.85V2.1499H9.99995V0.85C9.99995 0.380558 10.3805 0 10.85 0ZM3.99995 3.8499V4.15C3.99995 4.61944 4.38051 5 4.84995 5C5.31939 5 5.69995 4.61944 5.69995 4.15V3.8499H9.99995V4.15C9.99995 4.61944 10.3805 5 10.85 5C11.3194 5 11.7 4.61944 11.7 4.15V3.8499H12.9999C13.635 3.8499 14.1499 4.36478 14.1499 4.9999V5.99995H1.85H1.8499V4.9999C1.8499 4.36478 2.36477 3.8499 2.9999 3.8499H3.99995ZM1.8499 7.69995V13.9999C1.8499 14.635 2.36477 15.1499 2.9999 15.1499H12.9999C13.635 15.1499 14.1499 14.635 14.1499 13.9999V7.69995H1.85H1.8499ZM10.5 11C10.2239 11 10 11.2239 10 11.5V12.5C10 12.7761 10.2239 13 10.5 13H11.5C11.7761 13 12 12.7761 12 12.5V11.5C12 11.2239 11.7761 11 11.5 11H10.5ZM7 11.5C7 11.2239 7.22386 11 7.5 11H8.5C8.77614 11 9 11.2239 9 11.5V12.5C9 12.7761 8.77614 13 8.5 13H7.5C7.22386 13 7 12.7761 7 12.5V11.5Z" fill="black"/>
</svg>
