<svg width="18" height="19" viewBox="0 0 18 19" fill="none" xmlns="http://www.w3.org/2000/svg">
<path d="M13.2847 2.01623L15.1617 2.22478C16.0914 2.32808 16.8069 3.06874 16.671 3.99423C16.4012 5.83158 15.4132 9.04347 11.979 12.4777C8.54473 15.912 5.33246 16.9004 3.49478 17.1705C2.56914 17.3065 1.82824 16.591 1.72492 15.6611L1.51641 13.7846C1.42833 12.9919 1.81961 12.2227 2.5121 11.8271L3.75842 11.1151C4.54146 10.6678 5.52702 10.7998 6.1647 11.4375L6.18344 11.4562C6.65629 11.9291 7.33971 12.1286 7.93056 11.8155C8.44728 11.5416 9.12405 11.09 9.85712 10.3569C10.5902 9.62387 11.0418 8.9471 11.3157 8.43038C11.6288 7.83953 11.4293 7.15611 10.9564 6.68326L10.9377 6.66452C10.3 6.02684 10.1679 5.04129 10.6153 4.25824L11.3273 3.01193C11.7229 2.31943 12.4921 1.92816 13.2847 2.01623Z" stroke="#4EBAE0" stroke-width="2" stroke-linecap="round" stroke-linejoin="round"/>
</svg>
