<svg width="74" height="73" viewBox="0 0 74 73" fill="none" xmlns="http://www.w3.org/2000/svg">
<g clip-path="url(#clip0)">
<path d="M0.5 20C0.5 8.95431 9.45431 0 20.5 0H53.5C64.5457 0 73.5 8.95431 73.5 20V53C73.5 64.0457 64.5457 73 53.5 73H20.5C9.45431 73 0.5 64.0457 0.5 53V20Z" fill="#DDF6FF" fill-opacity="0.7"/>
<path opacity="0.5" fill-rule="evenodd" clip-rule="evenodd" d="M5.48546 -5.9974C15.9814 -5.83292 23.1471 3.21142 26.4387 13.0519C29.7919 23.0769 29.6944 34.7197 21.2874 41.2447C11.9623 48.4822 -1.40979 49.0624 -10.8903 42.0244C-19.9596 35.2918 -21.2406 22.9784 -17.6202 12.3615C-14.1328 2.13476 -5.44348 -6.16866 5.48546 -5.9974Z" fill="#99E3FF"/>
<path opacity="0.5" fill-rule="evenodd" clip-rule="evenodd" d="M47.7785 40C64.7181 39.9714 78.3187 53.936 82.679 70.7774C86.4119 85.1952 76.8672 98.2534 65.1291 107.015C53.4232 115.753 38.2784 121.198 26.2995 112.861C13.2251 103.762 8.64789 86.436 13.2293 70.8949C18.1255 54.2859 30.9094 40.0286 47.7785 40Z" fill="#99E3FF"/>
<path opacity="0.5" fill-rule="evenodd" clip-rule="evenodd" d="M46.5851 13C51.7611 12.9915 55.9168 17.1627 57.2492 22.1932C58.3897 26.4999 55.4733 30.4004 51.8867 33.0175C48.3099 35.6275 43.6823 37.2541 40.0221 34.7638C36.0271 32.0459 34.6285 26.8705 36.0284 22.2283C37.5245 17.2672 41.4307 13.0085 46.5851 13Z" fill="#99E3FF"/>
<g clip-path="url(#clip1)">
<path d="M36.4998 25.219C34.8593 25.219 33.5247 26.5536 33.5247 28.1942C33.5247 29.8347 34.8593 31.1694 36.4998 31.1694C38.1404 31.1694 39.4751 29.8347 39.4751 28.1942C39.4751 26.5536 38.1403 25.219 36.4998 25.219ZM36.4998 29.9397C35.5373 29.9397 34.7543 29.1567 34.7543 28.1942C34.7543 27.2317 35.5373 26.4486 36.4998 26.4486C37.4623 26.4486 38.2454 27.2317 38.2454 28.1942C38.2454 29.1567 37.4623 29.9397 36.4998 29.9397Z" fill="#186D8B"/>
<path d="M51.9639 36.3982C51.962 36.3155 51.9453 36.2448 51.9115 36.167C51.9111 36.1661 48.6778 28.9444 48.6778 28.9444C48.4899 28.5244 48.0711 28.253 47.6108 28.253H44.0703V17.3086C44.0703 16.587 43.4833 16 42.7618 16H30.2377C29.5162 16 28.9292 16.587 28.9292 17.3086V28.253H25.3887C24.9285 28.253 24.5097 28.5243 24.3217 28.9444C24.3217 28.9444 21.0884 36.1664 21.0878 36.1675C21.0533 36.2457 21.0354 36.3296 21.0354 36.4154V44.1018C21.0354 44.4414 21.3107 44.7166 21.6502 44.7166C21.9898 44.7166 22.265 44.4414 22.265 44.1018V37.0302H50.7345V56.7704H22.2651V46.9665C22.2651 46.6269 21.9898 46.3517 21.6503 46.3517C21.3108 46.3517 21.0355 46.6269 21.0355 46.9665V56.8309C21.0355 57.4755 21.5599 58 22.2045 58H50.795C51.4397 58 51.9642 57.4756 51.9642 56.8309C51.9641 56.8309 51.964 36.4038 51.9639 36.3982ZM30.1589 17.3086C30.1589 17.2651 30.1943 17.2297 30.2377 17.2297H42.7618C42.8052 17.2297 42.8407 17.2651 42.8407 17.3086V32.0267H41.7021V25.2245C41.7021 24.8849 41.4269 24.6097 41.0873 24.6097C40.7476 24.6097 40.4724 24.8849 40.4724 25.2245V32.0267H32.5271V19.7368H40.4725V22.3812C40.4725 22.7208 40.7477 22.996 41.0873 22.996C41.427 22.996 41.7022 22.7208 41.7022 22.3812V19.627C41.7022 19.0095 41.1998 18.5072 40.5823 18.5072H32.4173C31.7998 18.5072 31.2974 19.0095 31.2974 19.627V32.0267H30.1589V17.3086ZM22.5992 35.8004L25.4278 29.4826H28.9291V32.0267H28.112C27.7724 32.0267 27.4972 32.3019 27.4972 32.6415C27.4972 32.9811 27.7724 33.2563 28.112 33.2563H44.8874C45.2271 33.2563 45.5023 32.9811 45.5023 32.6415C45.5023 32.3019 45.2271 32.0267 44.8874 32.0267H44.0703V29.4826H47.5716L50.4004 35.8004H22.5992Z" fill="#186D8B"/>
<path d="M36.9326 38.8967C36.8688 38.8954 36.8039 38.8945 36.7396 38.8945C32.3253 38.8945 28.7341 42.4857 28.7341 46.8999C28.7341 51.3141 32.3253 54.9054 36.7396 54.9054C38.3956 54.9054 39.9849 54.404 41.3355 53.4555C42.6554 52.5286 43.6547 51.2449 44.2253 49.7431C44.3263 49.4772 44.2318 49.1767 43.9968 49.0166C43.7615 48.8563 43.4473 48.8784 43.237 49.0698C42.2268 49.9883 40.9177 50.4941 39.5508 50.4941C36.5282 50.4941 34.0691 48.035 34.0691 45.0123C34.0691 42.9145 35.2921 40.9729 37.185 40.0658C37.4416 39.9428 37.5803 39.6598 37.5203 39.3816C37.4602 39.1033 37.2171 38.9029 36.9326 38.8967ZM32.8395 45.0124C32.8395 48.7131 35.8502 51.7238 39.5509 51.7238C40.3551 51.7238 41.1429 51.5808 41.8818 51.3074C40.6143 52.7766 38.7412 53.6758 36.7397 53.6758C33.0034 53.6758 29.9639 50.6362 29.9639 46.9C29.9639 43.9025 31.9201 41.3533 34.6233 40.4626C33.5002 41.6845 32.8395 43.3062 32.8395 45.0124Z" fill="#186D8B"/>
<path d="M42.6351 43.4725C42.5321 43.1559 42.2637 42.9295 41.934 42.8815L40.6391 42.6934L40.0601 41.5201C39.9128 41.2214 39.6145 41.0359 39.2815 41.0358C39.2814 41.0358 39.2814 41.0358 39.2814 41.0358C38.9485 41.0358 38.6501 41.2213 38.5027 41.5199L37.9236 42.6933L36.6285 42.8814C36.2991 42.9294 36.0305 43.1559 35.9276 43.4725C35.8248 43.7891 35.9089 44.1302 36.1474 44.3626L37.0844 45.276L36.8633 46.5656C36.8069 46.8937 36.9393 47.2191 37.2086 47.4148C37.478 47.6107 37.8284 47.6359 38.1233 47.4811L39.2814 46.8721L40.4398 47.4811C40.5679 47.5485 40.7066 47.5818 40.8446 47.5818C41.0239 47.5818 41.2021 47.5256 41.3543 47.415C41.6237 47.2192 41.756 46.8938 41.6997 46.5658L41.4786 45.2761L42.4158 44.3625C42.6539 44.1301 42.738 43.789 42.6351 43.4725ZM40.4841 44.5281C40.2794 44.7276 40.186 45.0149 40.2343 45.2967L40.3639 46.0522L39.6853 45.6954C39.4324 45.5624 39.1303 45.5626 38.8773 45.6954L38.1989 46.0522L38.3284 45.2972C38.377 45.0154 38.2836 44.7279 38.0788 44.5282L37.5299 43.9932L38.2886 43.8829C38.5715 43.8418 38.816 43.6641 38.9423 43.4079L39.2815 42.7206L39.6209 43.4081C39.7475 43.6644 39.9918 43.8419 40.2747 43.8829L41.0331 43.9932L40.4841 44.5281Z" fill="#186D8B"/>
</g>
</g>
<defs>
<clipPath id="clip0">
<path d="M0.5 20C0.5 8.95431 9.45431 0 20.5 0H53.5C64.5457 0 73.5 8.95431 73.5 20V53C73.5 64.0457 64.5457 73 53.5 73H20.5C9.45431 73 0.5 64.0457 0.5 53V20Z" fill="white"/>
</clipPath>
<clipPath id="clip1">
<rect width="42" height="42" fill="white" transform="translate(15.5 16)"/>
</clipPath>
</defs>
</svg>
