<svg width="48" height="48" viewBox="0 0 48 48" fill="none" xmlns="http://www.w3.org/2000/svg">
<path d="M0 14C0 6.26801 6.26801 0 14 0H34C41.732 0 48 6.26801 48 14V34C48 41.732 41.732 48 34 48H14C6.26801 48 0 41.732 0 34V14Z" fill="#84EAF6"/>
<g clip-path="url(#clip0)">
<path d="M24.0003 16.146C22.9066 16.146 22.0168 17.0358 22.0168 18.1295C22.0168 19.2232 22.9066 20.1129 24.0003 20.1129C25.094 20.1129 25.9838 19.2232 25.9838 18.1295C25.9838 17.0358 25.094 16.146 24.0003 16.146ZM24.0003 19.2932C23.3586 19.2932 22.8366 18.7711 22.8366 18.1295C22.8366 17.4878 23.3586 16.9658 24.0003 16.9658C24.6419 16.9658 25.164 17.4878 25.164 18.1295C25.164 18.7711 24.6419 19.2932 24.0003 19.2932Z" fill="#04677B"/>
<path d="M34.3098 23.5988C34.3085 23.5437 34.2974 23.4966 34.2748 23.4446C34.2746 23.444 32.1191 18.6296 32.1191 18.6296C31.9938 18.3496 31.7146 18.1687 31.4077 18.1687H29.0474V10.8724C29.0474 10.3914 28.6561 10 28.1751 10H19.8257C19.3446 10 18.9533 10.3914 18.9533 10.8724V18.1687H16.593C16.2862 18.1687 16.007 18.3495 15.8816 18.6296C15.8816 18.6296 13.7261 23.4443 13.7257 23.445C13.7027 23.4972 13.6908 23.5531 13.6908 23.6102V28.7345C13.6908 28.9609 13.8743 29.1444 14.1007 29.1444C14.327 29.1444 14.5106 28.9609 14.5106 28.7345V24.0201H33.4902V37.1803H14.5106V30.6443C14.5106 30.4179 14.3271 30.2344 14.1007 30.2344C13.8744 30.2344 13.6909 30.4179 13.6909 30.6443V37.2206C13.6909 37.6503 14.0405 38 14.4702 38H33.5306C33.9603 38 34.31 37.6504 34.31 37.2206C34.3099 37.2206 34.3099 23.6025 34.3098 23.5988ZM19.7731 10.8724C19.7731 10.8434 19.7967 10.8198 19.8257 10.8198H28.1751C28.204 10.8198 28.2276 10.8434 28.2276 10.8724V20.6844H27.4686V16.1497C27.4686 15.9233 27.2851 15.7398 27.0587 15.7398C26.8323 15.7398 26.6488 15.9233 26.6488 16.1497V20.6844H21.3519V12.4912H26.6489V14.2541C26.6489 14.4805 26.8323 14.664 27.0588 14.664C27.2852 14.664 27.4686 14.4805 27.4686 14.2541V12.418C27.4686 12.0063 27.1337 11.6714 26.7221 11.6714H21.2787C20.867 11.6714 20.5321 12.0063 20.5321 12.418V20.6844H19.7731V10.8724ZM14.7333 23.2003L16.6191 18.9884H18.9533V20.6844H18.4085C18.1822 20.6844 17.9986 20.8679 17.9986 21.0943C17.9986 21.3207 18.1822 21.5042 18.4085 21.5042H29.5921C29.8186 21.5042 30.002 21.3207 30.002 21.0943C30.002 20.8679 29.8186 20.6844 29.5921 20.6844H29.0474V18.9884H31.3816L33.2675 23.2003H14.7333Z" fill="#04677B"/>
<path d="M24.2891 25.2647C24.2466 25.2638 24.2034 25.2632 24.1605 25.2632C21.2176 25.2632 18.8235 27.6574 18.8235 30.6002C18.8235 33.5429 21.2176 35.9371 24.1605 35.9371C25.2645 35.9371 26.324 35.6029 27.2244 34.9705C28.1043 34.3526 28.7705 33.4968 29.151 32.4956C29.2183 32.3184 29.1553 32.118 28.9986 32.0113C28.8417 31.9044 28.6323 31.9192 28.4921 32.0468C27.8186 32.6591 26.9459 32.9963 26.0346 32.9963C24.0195 32.9963 22.3801 31.3569 22.3801 29.3418C22.3801 27.9432 23.1955 26.6488 24.4574 26.0441C24.6285 25.9621 24.7209 25.7734 24.6809 25.5879C24.6409 25.4024 24.4788 25.2688 24.2891 25.2647ZM21.5604 29.3418C21.5604 31.809 23.5676 33.8161 26.0347 33.8161C26.5708 33.8161 27.096 33.7207 27.5886 33.5385C26.7436 34.518 25.4949 35.1174 24.1605 35.1174C21.6697 35.1174 19.6433 33.091 19.6433 30.6002C19.6433 28.6019 20.9475 26.9024 22.7496 26.3086C22.0009 27.1232 21.5604 28.2044 21.5604 29.3418Z" fill="#04677B"/>
<path d="M28.0907 28.3149C28.0221 28.1038 27.8431 27.9529 27.6233 27.9209L26.7601 27.7955L26.3741 27.0133C26.2759 26.8142 26.077 26.6905 25.855 26.6904C25.8549 26.6904 25.8549 26.6904 25.8549 26.6904C25.633 26.6904 25.434 26.8141 25.3358 27.0131L24.9497 27.7954L24.0863 27.9208C23.8667 27.9528 23.6877 28.1038 23.6191 28.3149C23.5505 28.5259 23.6066 28.7533 23.7656 28.9083L24.3902 29.5172L24.2429 30.377C24.2053 30.5957 24.2935 30.8126 24.473 30.9431C24.6527 31.0737 24.8863 31.0905 25.0828 30.9873L25.8549 30.5813L26.6272 30.9873C26.7126 31.0322 26.8051 31.0544 26.897 31.0544C27.0166 31.0544 27.1354 31.0169 27.2368 30.9432C27.4164 30.8127 27.5046 30.5958 27.4671 30.3771L27.3197 29.5173L27.9445 28.9082C28.1032 28.7533 28.1593 28.5259 28.0907 28.3149ZM26.6567 29.0186C26.5203 29.1516 26.458 29.3431 26.4902 29.531L26.5766 30.0347L26.1242 29.7968C25.9556 29.7081 25.7542 29.7082 25.5855 29.7968L25.1333 30.0347L25.2196 29.5313C25.252 29.3435 25.1897 29.1518 25.0532 29.0187L24.6873 28.662L25.1931 28.5885C25.3817 28.5611 25.5446 28.4426 25.6289 28.2718L25.855 27.8136L26.0813 28.272C26.1656 28.4428 26.3286 28.5611 26.5171 28.5885L27.0227 28.662L26.6567 29.0186Z" fill="#04677B"/>
</g>
<defs>
<clipPath id="clip0">
<rect width="28" height="28" fill="white" transform="translate(10 10)"/>
</clipPath>
</defs>
</svg>
