<svg width="43" height="42" viewBox="0 0 43 42" fill="none" xmlns="http://www.w3.org/2000/svg">
<g clip-path="url(#clip0)">
<path d="M34.5858 31.0785L26.3931 15.2834C26.9455 14.9713 27.3194 14.3789 27.3194 13.7005V12.2901C27.3194 11.2881 26.5043 10.473 25.5023 10.473H25.1575C25.8705 9.34775 26.3924 7.99076 26.7118 6.42367C26.7797 6.09068 26.5648 5.76572 26.2318 5.69788C25.8988 5.62995 25.5739 5.84497 25.506 6.17788C25.1495 7.92702 24.5258 9.37179 23.6521 10.473H19.3478C18.8385 9.82973 18.407 9.01632 18.03 7.98904C17.4369 6.3733 17.1486 4.57748 17.1486 2.4988C17.1486 1.79959 17.7174 1.23065 18.4166 1.23065C18.8289 1.23065 19.217 1.43271 19.4548 1.77129C19.57 1.93528 19.7579 2.03291 19.9583 2.03291C20.1587 2.03291 20.3465 1.93528 20.4618 1.77137C20.6996 1.43288 21.0877 1.23074 21.5 1.23074C21.9124 1.23074 22.3004 1.43288 22.5383 1.77137C22.6535 1.93536 22.8414 2.03291 23.0418 2.03291C23.2422 2.03291 23.4301 1.93528 23.5452 1.77129C23.783 1.4328 24.1711 1.23065 24.5834 1.23065C25.2826 1.23065 25.8515 1.79951 25.8515 2.4988C25.8515 2.83942 25.8435 3.18037 25.8278 3.51222C25.8117 3.85169 26.0737 4.13989 26.4132 4.15605C26.7519 4.17074 27.0409 3.91002 27.057 3.57063C27.0737 3.21942 27.0821 2.8587 27.0821 2.4988C27.082 1.12089 25.9611 0 24.5833 0C24.0184 0 23.4767 0.192215 23.0417 0.533248C22.6066 0.192215 22.0649 0 21.5 0C20.9351 0 20.3933 0.192215 19.9584 0.533248C19.5233 0.192215 18.9816 0 18.4166 0C17.0389 0 15.918 1.12097 15.918 2.49872C15.918 4.72458 16.231 6.65912 16.8748 8.41301C17.1639 9.20074 17.4866 9.88174 17.8507 10.4729H17.4976C16.4957 10.4729 15.6806 11.288 15.6806 12.29V13.7005C15.6806 14.3789 16.0545 14.9712 16.6069 15.2833L10.743 26.5884C10.5866 26.8901 10.7042 27.2614 11.006 27.4179C11.3078 27.5744 11.6791 27.4567 11.8354 27.155L17.8716 15.5175H25.1284L33.4935 31.645C33.9525 32.53 34.1952 33.5247 34.1952 34.5216C34.1952 37.9667 31.3925 40.7693 27.9475 40.7693H15.0525C11.6075 40.7693 8.80479 37.9666 8.80479 34.5216C8.80479 33.5247 9.04746 32.53 9.50646 31.645L10.5106 29.709C10.6671 29.4074 10.5494 29.036 10.2477 28.8796C9.94602 28.7231 9.57472 28.8408 9.41819 29.1425L8.41404 31.0784C7.86463 32.1377 7.57422 33.3283 7.57422 34.5216C7.57422 38.6452 10.9289 41.9999 15.0525 41.9999H27.9475C32.0711 41.9999 35.4258 38.6451 35.4258 34.5216C35.4258 33.3284 35.1353 32.1378 34.5858 31.0785ZM26.0889 13.7005C26.0889 14.0238 25.8258 14.2869 25.5024 14.2869H17.4977C17.1743 14.2869 16.9112 14.0238 16.9112 13.7005V12.29C16.9112 11.9666 17.1743 11.7035 17.4977 11.7035H25.5024C25.8258 11.7035 26.0889 11.9666 26.0889 12.29V13.7005Z" fill="#186D8B"/>
<path d="M25.6472 24.6823H23.6196L22.1858 23.2485C22.0026 23.0653 21.759 22.9644 21.4999 22.9644C21.2408 22.9644 20.9972 23.0653 20.814 23.2485L19.3802 24.6823H17.3525C16.8176 24.6823 16.3824 25.1175 16.3824 25.6524V27.68L14.9486 29.1138C14.7655 29.297 14.6646 29.5406 14.6646 29.7997C14.6646 30.0588 14.7655 30.3025 14.9486 30.4856L16.3824 31.9194V33.9471C16.3824 34.4821 16.8176 34.9172 17.3525 34.9172H19.3802L20.814 36.351C20.9972 36.5342 21.2408 36.6351 21.4999 36.6351C21.759 36.6351 22.0026 36.5342 22.1858 36.351L23.6196 34.9172H25.6472C26.1822 34.9172 26.6173 34.482 26.6173 33.9471V31.9194L28.0511 30.4856C28.2343 30.3025 28.3352 30.0588 28.3352 29.7997C28.3352 29.5406 28.2343 29.297 28.0511 29.1138L26.6173 27.68V25.6524C26.6173 25.1174 26.1822 24.6823 25.6472 24.6823ZM26.9969 29.7998L25.671 31.1257C25.4878 31.3089 25.3869 31.5526 25.3869 31.8116V33.6867H23.5118C23.2526 33.6867 23.0091 33.7876 22.8259 33.9708L21.5 35.2967L20.1741 33.9708C19.9909 33.7876 19.7472 33.6867 19.4881 33.6867H17.6131V31.8116C17.6131 31.5525 17.5122 31.3089 17.329 31.1257L16.0031 29.7998L17.329 28.4739C17.5122 28.2907 17.6131 28.0471 17.6131 27.788V25.9129H19.4881C19.7473 25.9129 19.9909 25.812 20.1741 25.6288L21.5 24.3029L22.8259 25.6288C23.0091 25.812 23.2527 25.9129 23.5118 25.9129H25.3869V27.788C25.3869 28.0471 25.4878 28.2907 25.671 28.4739L26.9969 29.7998Z" fill="#186D8B"/>
</g>
<defs>
<clipPath id="clip0">
<rect width="42" height="42" fill="white" transform="translate(0.5)"/>
</clipPath>
</defs>
</svg>
