<svg width="18" height="19" viewBox="0 0 18 19" fill="none" xmlns="http://www.w3.org/2000/svg">
<path d="M9.00058 5.64893C8.23889 5.64893 7.49431 5.87479 6.86099 6.29796C6.22767 6.72114 5.73405 7.32261 5.44257 8.02632C5.15108 8.73002 5.07482 9.50437 5.22341 10.2514C5.37201 10.9985 5.7388 11.6847 6.2774 12.2233C6.81599 12.7619 7.5022 13.1287 8.24926 13.2773C8.99631 13.4259 9.77065 13.3496 10.4744 13.0581C11.1781 12.7666 11.7795 12.273 12.2027 11.6397C12.6259 11.0064 12.8518 10.2618 12.8518 9.50009C12.8518 8.99435 12.7522 8.49355 12.5586 8.0263C12.3651 7.55905 12.0814 7.1345 11.7238 6.77688C11.3662 6.41927 10.9416 6.13559 10.4744 5.94206C10.0071 5.74852 9.50633 5.64892 9.00058 5.64893ZM9.00058 12.0003C8.50609 12.0003 8.0227 11.8536 7.61155 11.5789C7.20039 11.3042 6.87994 10.9137 6.6907 10.4568C6.50147 9.99999 6.45196 9.49729 6.54843 9.01229C6.64491 8.5273 6.88303 8.08181 7.23269 7.73215C7.58235 7.38249 8.02785 7.14438 8.51284 7.04791C8.99784 6.95144 9.50054 7.00096 9.95739 7.19019C10.4142 7.37943 10.8047 7.69989 11.0794 8.11105C11.3542 8.52221 11.5008 9.0056 11.5008 9.50009C11.5008 9.82844 11.4362 10.1536 11.3106 10.4569C11.1849 10.7603 11.0008 11.0359 10.7686 11.2681C10.5364 11.5003 10.2608 11.6844 9.95742 11.81C9.65406 11.9357 9.32893 12.0003 9.00058 12.0003Z" fill="#4EBAE0"/>
<path d="M16.4551 6.40789C16.4428 5.78574 16.325 5.17018 16.1067 4.58745C15.9181 4.08711 15.6229 3.63378 15.2416 3.25885C14.8673 2.87721 14.414 2.58196 13.9137 2.39375C13.331 2.17534 12.7154 2.05755 12.0932 2.0454C11.2935 2.009 11.0379 2 9.00111 2C6.96435 2 6.7085 2.00844 5.90837 2.0454C5.28622 2.0577 4.67067 2.17549 4.08794 2.39375C3.58746 2.58213 3.13407 2.87735 2.75934 3.25885C2.37749 3.63328 2.08223 4.08676 1.89429 4.58745C1.67603 5.17019 1.55824 5.78574 1.54595 6.40789C1.50898 7.20756 1.50049 7.46324 1.50049 9.5C1.50049 11.5368 1.50898 11.7924 1.54593 12.5921C1.55823 13.2142 1.67602 13.8298 1.89429 14.4126C2.08228 14.9132 2.37754 15.3667 2.75934 15.7411C3.13425 16.1224 3.58759 16.4176 4.08794 16.6062C4.67069 16.8244 5.28623 16.9422 5.90837 16.9546C6.7085 16.9909 6.96373 17 9.00049 17C11.0372 17 11.2929 16.9915 12.0926 16.9546C12.7147 16.9423 13.3303 16.8245 13.913 16.6062C14.4113 16.4135 14.8639 16.1189 15.2416 15.7411C15.6194 15.3634 15.9141 14.9108 16.1067 14.4126C16.3252 13.8299 16.443 13.2143 16.4551 12.5921C16.4915 11.7918 16.4999 11.5368 16.4999 9.5C16.4999 7.46324 16.4915 7.20756 16.4551 6.40789ZM15.1058 12.5309C15.1001 13.0065 15.0128 13.4776 14.8478 13.9237C14.723 14.2472 14.5318 14.5409 14.2866 14.786C14.0414 15.0311 13.7476 15.2221 13.4241 15.3468C12.9781 15.5121 12.507 15.5994 12.0313 15.6048C11.2408 15.6411 11.0033 15.6484 9.00044 15.6484C6.99756 15.6484 6.76077 15.6411 5.97044 15.6048C5.49481 15.5994 5.02366 15.5121 4.57763 15.3468C4.25187 15.2264 3.95713 15.0347 3.71495 14.7858C3.46565 14.5442 3.27391 14.2496 3.15395 13.9238C2.9886 13.4777 2.90132 13.0066 2.89595 12.5309C2.85958 11.7404 2.85234 11.5029 2.85234 9.50005C2.85234 7.49717 2.86021 7.26038 2.89595 6.46915C2.90195 5.99359 2.9892 5.52255 3.15395 5.0764C3.27434 4.75063 3.46601 4.45589 3.71495 4.21372C3.9567 3.96427 4.25157 3.77252 4.57763 3.65272C5.02364 3.48739 5.4948 3.40011 5.97044 3.39472C6.761 3.35836 6.99845 3.35111 9.00044 3.35111C11.0024 3.35111 11.2401 3.35898 12.0313 3.39472C12.5069 3.40071 12.978 3.48797 13.4241 3.65272C13.7477 3.77741 14.0416 3.96852 14.2868 4.21373C14.532 4.45895 14.7231 4.75282 14.8478 5.07641C15.0132 5.5224 15.1004 5.99354 15.1058 6.46916C15.1422 7.26041 15.1494 7.49722 15.1494 9.50006C15.1494 11.5029 15.1422 11.7397 15.1058 12.5309H15.1058Z" fill="#4EBAE0"/>
<path d="M13.0045 4.59668H13.0042C12.7655 4.59672 12.5367 4.69156 12.368 4.86033C12.1992 5.02909 12.1045 5.25797 12.1045 5.4966C12.1045 5.73524 12.1993 5.9641 12.3681 6.13284C12.5368 6.30157 12.7657 6.39636 13.0043 6.39636C13.243 6.39636 13.4718 6.30157 13.6406 6.13284C13.8093 5.9641 13.9042 5.73524 13.9042 5.4966C13.9042 5.25797 13.8094 5.02909 13.6407 4.86033C13.472 4.69156 13.2431 4.59672 13.0045 4.59668Z" fill="#4EBAE0"/>
</svg>
