<svg width="104" height="105" viewBox="0 0 104 105" fill="none" xmlns="http://www.w3.org/2000/svg">
<g filter="url(#filter0_dd)">
<rect x="32" y="28.1333" width="40" height="40" rx="20" fill="#DDF6FF"/>
<path d="M42 45.3902C42 43.5915 43.4582 42.1333 45.2569 42.1333V42.1333C46.3459 42.1333 47.3628 41.5891 47.9669 40.683L48 40.6333C48.6247 39.6962 49.6765 39.1333 50.8028 39.1333H53.1972C54.3235 39.1333 55.3753 39.6962 56 40.6333L56.0331 40.683C56.6372 41.5891 57.6541 42.1333 58.7431 42.1333V42.1333C60.5418 42.1333 62 43.5915 62 45.3902V53.1333C62 55.3424 60.2091 57.1333 58 57.1333H46C43.7909 57.1333 42 55.3424 42 53.1333V45.3902Z" stroke="#0098D1" stroke-width="2" stroke-linecap="round" stroke-linejoin="round"/>
<circle cx="52" cy="49.1333" r="4" stroke="#0098D1" stroke-width="2" stroke-linecap="round" stroke-linejoin="round"/>
</g>
<defs>
<filter id="filter0_dd" x="0" y="0.133301" width="104" height="104" filterUnits="userSpaceOnUse" color-interpolation-filters="sRGB">
<feFlood flood-opacity="0" result="BackgroundImageFix"/>
<feColorMatrix in="SourceAlpha" type="matrix" values="0 0 0 0 0 0 0 0 0 0 0 0 0 0 0 0 0 0 127 0"/>
<feMorphology radius="4" operator="erode" in="SourceAlpha" result="effect1_dropShadow"/>
<feOffset dy="8"/>
<feGaussianBlur stdDeviation="4"/>
<feColorMatrix type="matrix" values="0 0 0 0 0.0941176 0 0 0 0 0.152941 0 0 0 0 0.294118 0 0 0 0.08 0"/>
<feBlend mode="normal" in2="BackgroundImageFix" result="effect1_dropShadow"/>
<feColorMatrix in="SourceAlpha" type="matrix" values="0 0 0 0 0 0 0 0 0 0 0 0 0 0 0 0 0 0 127 0"/>
<feMorphology radius="4" operator="erode" in="SourceAlpha" result="effect2_dropShadow"/>
<feOffset dy="4"/>
<feGaussianBlur stdDeviation="18"/>
<feColorMatrix type="matrix" values="0 0 0 0 0.0941176 0 0 0 0 0.152941 0 0 0 0 0.294118 0 0 0 0.1 0"/>
<feBlend mode="normal" in2="effect1_dropShadow" result="effect2_dropShadow"/>
<feBlend mode="normal" in="SourceGraphic" in2="effect2_dropShadow" result="shape"/>
</filter>
</defs>
</svg>
