<svg width="42" height="42" viewBox="0 0 42 42" fill="none" xmlns="http://www.w3.org/2000/svg">
<g clip-path="url(#clip0)">
<path d="M21.0001 9.21893C19.3596 9.21893 18.0249 10.5536 18.0249 12.1942C18.0249 13.8347 19.3596 15.1693 21.0001 15.1693C22.6407 15.1693 23.9753 13.8347 23.9753 12.1942C23.9753 10.5536 22.6406 9.21893 21.0001 9.21893ZM21.0001 13.9397C20.0376 13.9397 19.2545 13.1567 19.2545 12.1942C19.2545 11.2317 20.0376 10.4486 21.0001 10.4486C21.9625 10.4486 22.7457 11.2317 22.7457 12.1942C22.7457 13.1567 21.9625 13.9397 21.0001 13.9397Z" fill="#186D8B"/>
<path d="M36.4642 20.3982C36.4622 20.3155 36.4456 20.2448 36.4117 20.167C36.4113 20.1661 33.1781 12.9444 33.1781 12.9444C32.9901 12.5244 32.5713 12.253 32.111 12.253H28.5705V1.30859C28.5705 0.587031 27.9836 0 27.262 0H14.738C14.0164 0 13.4295 0.587031 13.4295 1.30859V12.253H9.88891C9.42877 12.253 9.00996 12.5243 8.8219 12.9444C8.8219 12.9444 5.5886 20.1664 5.58803 20.1675C5.55352 20.2457 5.53564 20.3296 5.53564 20.4153V28.1018C5.53564 28.4414 5.81092 28.7166 6.15047 28.7166C6.49001 28.7166 6.76529 28.4414 6.76529 28.1018V21.0302H35.2347V40.7704H6.76537V30.9665C6.76537 30.6269 6.49009 30.3517 6.15055 30.3517C5.811 30.3517 5.53573 30.6269 5.53573 30.9665V40.8309C5.53573 41.4755 6.06013 42 6.70479 42H35.2953C35.9399 42 36.4644 41.4756 36.4644 40.8309C36.4643 40.8309 36.4643 20.4038 36.4642 20.3982ZM14.6591 1.30859C14.6591 1.26506 14.6945 1.22964 14.738 1.22964H27.262C27.3055 1.22964 27.3409 1.26506 27.3409 1.30859V16.0267H26.2023V9.22453C26.2023 8.8849 25.9271 8.60971 25.5875 8.60971C25.2479 8.60971 24.9727 8.8849 24.9727 9.22453V16.0267H17.0273V3.7368H24.9728V6.38119C24.9728 6.72082 25.248 6.99601 25.5876 6.99601C25.9272 6.99601 26.2024 6.72082 26.2024 6.38119V3.62704C26.2024 3.00951 25.7001 2.50716 25.0825 2.50716H16.9175C16.3 2.50716 15.7977 3.00951 15.7977 3.62704V16.0267H14.6591V1.30859ZM7.09942 19.8004L9.92809 13.4826H13.4294V16.0267H12.6122C12.2727 16.0267 11.9974 16.3019 11.9974 16.6415C11.9974 16.9811 12.2727 17.2563 12.6122 17.2563H29.3877C29.7273 17.2563 30.0025 16.9811 30.0025 16.6415C30.0025 16.3019 29.7273 16.0267 29.3877 16.0267H28.5705V13.4826H32.0718L34.9007 19.8004H7.09942Z" fill="#186D8B"/>
<path d="M21.4328 22.8968C21.369 22.8954 21.3042 22.8945 21.2398 22.8945C16.8256 22.8945 13.2344 26.4858 13.2344 30.8999C13.2344 35.3141 16.8256 38.9054 21.2398 38.9054C22.8958 38.9054 24.4851 38.404 25.8358 37.4555C27.1557 36.5286 28.1549 35.2449 28.7256 33.7431C28.8266 33.4773 28.7321 33.1767 28.497 33.0166C28.2618 32.8563 27.9475 32.8784 27.7373 33.0698C26.7271 33.9883 25.4179 34.4941 24.051 34.4941C21.0284 34.4941 18.5693 32.035 18.5693 29.0124C18.5693 26.9145 19.7924 24.9729 21.6852 24.0658C21.9419 23.9429 22.0805 23.6598 22.0205 23.3816C21.9605 23.1033 21.7174 22.9029 21.4328 22.8968ZM17.3397 29.0124C17.3397 32.7132 20.3505 35.7238 24.0511 35.7238C24.8553 35.7238 25.6432 35.5808 26.382 35.3074C25.1145 36.7766 23.2415 37.6758 21.2399 37.6758C17.5037 37.6758 14.4641 34.6362 14.4641 30.9C14.4641 27.9025 16.4204 25.3533 19.1235 24.4626C18.0005 25.6845 17.3397 27.3063 17.3397 29.0124Z" fill="#186D8B"/>
<path d="M27.1353 27.4725C27.0324 27.1559 26.7639 26.9295 26.4343 26.8815L25.1394 26.6934L24.5604 25.5201C24.4131 25.2214 24.1148 25.0359 23.7818 25.0358C23.7817 25.0358 23.7817 25.0358 23.7816 25.0358C23.4487 25.0358 23.1503 25.2213 23.0029 25.5199L22.4238 26.6933L21.1288 26.8814C20.7993 26.9294 20.5308 27.1559 20.4279 27.4725C20.3251 27.7891 20.4092 28.1302 20.6477 28.3626L21.5846 29.276L21.3635 30.5656C21.3072 30.8937 21.4395 31.2191 21.7088 31.4148C21.9783 31.6107 22.3287 31.6359 22.6235 31.4811L23.7817 30.8721L24.94 31.4811C25.0681 31.5485 25.2068 31.5818 25.3448 31.5818C25.5242 31.5818 25.7023 31.5256 25.8545 31.415C26.1239 31.2192 26.2562 30.8938 26.1999 30.5658L25.9788 29.2761L26.916 28.3625C27.1541 28.1301 27.2382 27.789 27.1353 27.4725ZM24.9844 28.5281C24.7797 28.7276 24.6862 29.0149 24.7346 29.2967L24.8641 30.0522L24.1856 29.6954C23.9327 29.5624 23.6305 29.5626 23.3775 29.6954L22.6992 30.0522L22.8286 29.2972C22.8772 29.0154 22.7839 28.7279 22.579 28.5282L22.0302 27.9932L22.7889 27.8829C23.0718 27.8418 23.3162 27.6641 23.4425 27.4079L23.7818 26.7206L24.1212 27.4081C24.2477 27.6644 24.4921 27.8419 24.7749 27.8829L25.5334 27.9932L24.9844 28.5281Z" fill="#186D8B"/>
</g>
<defs>
<clipPath id="clip0">
<rect width="42" height="42" fill="white"/>
</clipPath>
</defs>
</svg>
