<svg width="43" height="36" viewBox="0 0 43 36" fill="none" xmlns="http://www.w3.org/2000/svg">
<path d="M19.1093 26.7582C19.9101 26.7582 20.5615 26.1068 20.5615 25.3061V21.0332C20.5615 20.8068 20.3779 20.6232 20.1515 20.6232C19.9251 20.6232 19.7415 20.8068 19.7415 21.0332V25.3061C19.7415 25.6546 19.4579 25.9382 19.1093 25.9382C18.7608 25.9382 18.4773 25.6546 18.4773 25.3061V24.3681C18.4773 24.1417 18.2937 23.9581 18.0672 23.9581C17.8408 23.9581 17.6572 24.1417 17.6572 24.3681V25.3061C17.6571 26.1068 18.3086 26.7582 19.1093 26.7582Z" fill="#186D8B"/>
<path d="M22.61 24.0487C23.2724 24.0487 23.8114 23.5097 23.8114 22.8473V22.8049C23.8114 22.5785 23.6278 22.3949 23.4014 22.3949C23.1749 22.3949 22.9913 22.5785 22.9913 22.8049V22.8473C22.9913 23.0576 22.8203 23.2286 22.61 23.2286C22.3998 23.2286 22.2287 23.0576 22.2287 22.8473V21.0332C22.2287 20.8068 22.0451 20.6232 21.8187 20.6232C21.5923 20.6232 21.4087 20.8068 21.4087 21.0332V22.8472C21.4087 23.5097 21.9476 24.0487 22.61 24.0487Z" fill="#186D8B"/>
<path d="M24.2859 25.2192C24.4505 25.3392 24.4997 25.5333 24.5144 25.6384C24.5474 25.8746 24.4816 26.1319 24.3425 26.31C24.0274 26.7134 23.4455 26.8355 23.0065 26.8142C22.7814 26.8047 22.5883 26.9782 22.5776 27.2045C22.567 27.4306 22.7416 27.6227 22.9679 27.6333C23.0159 27.6355 23.0636 27.6367 23.1111 27.6367C23.8881 27.6367 24.5827 27.3349 24.9889 26.8147C25.264 26.4624 25.3902 25.9802 25.3266 25.5249C25.2702 25.1216 25.0722 24.7777 24.7692 24.5567C24.5862 24.4233 24.3298 24.4634 24.1964 24.6463C24.0628 24.8293 24.103 25.0858 24.2859 25.2192Z" fill="#186D8B"/>
<path d="M21.9298 25.6791C22.1484 25.6791 22.3255 25.502 22.3255 25.2835C22.3255 25.065 22.1484 24.8878 21.9298 24.8878C21.7113 24.8878 21.5342 25.065 21.5342 25.2835C21.5342 25.502 21.7113 25.6791 21.9298 25.6791Z" fill="#186D8B"/>
<path d="M23.2902 25.6765C23.5087 25.6765 23.6859 25.4994 23.6859 25.2809C23.6859 25.0623 23.5087 24.8852 23.2902 24.8852C23.0717 24.8852 22.8945 25.0623 22.8945 25.2809C22.8945 25.4994 23.0717 25.6765 23.2902 25.6765Z" fill="#186D8B"/>
<path d="M21.5003 30.6192C25.0786 30.6192 27.9898 27.7081 27.9898 24.1297C27.9898 20.5514 25.0786 17.6402 21.5003 17.6402C17.9219 17.6402 15.0107 20.5514 15.0107 24.1297C15.0107 27.7081 17.9219 30.6192 21.5003 30.6192ZM21.5003 18.8702C24.4004 18.8702 26.7598 21.2296 26.7598 24.1297C26.7598 27.0298 24.4004 29.3892 21.5003 29.3892C18.6002 29.3892 16.2408 27.0298 16.2408 24.1297C16.2408 21.2296 18.6002 18.8702 21.5003 18.8702Z" fill="#186D8B"/>
<path d="M40.7054 13.0646H39.2879C39.3141 12.8092 39.3474 12.5704 39.4137 12.3664C39.4948 12.1165 39.6588 11.8438 39.8324 11.5551C40.1496 11.0277 40.509 10.43 40.509 9.71456C40.509 8.9999 40.1465 8.39677 39.8552 7.91214C39.6804 7.62103 39.3025 7.52681 39.0113 7.7018C38.7202 7.87671 38.6259 8.25458 38.8009 8.54577C39.0808 9.01147 39.2789 9.36793 39.2789 9.71464C39.2789 10.0887 39.0357 10.4931 38.7782 10.9213C38.5767 11.2565 38.3682 11.603 38.2437 11.9866C38.1141 12.386 38.0761 12.7995 38.0394 13.1995C37.9944 13.6886 37.952 14.1506 37.7466 14.4328C37.5377 14.7199 37.1092 14.9031 36.6557 15.0971C36.288 15.2543 35.9078 15.4167 35.5716 15.6615C35.2398 15.9029 34.9711 16.2119 34.7112 16.5108C34.3856 16.8852 34.078 17.239 33.7333 17.3509C33.4114 17.4553 32.9638 17.3542 32.4901 17.2469C32.0926 17.157 31.6817 17.0641 31.2522 17.0641C30.8226 17.0641 30.4116 17.157 30.0143 17.2469C29.5404 17.3542 29.093 17.4554 28.771 17.3509C28.4264 17.239 28.1188 16.8853 27.7931 16.5108C27.5333 16.2119 27.2645 15.9029 26.9328 15.6615C26.5966 15.4168 26.2164 15.2543 25.8487 15.0971C25.395 14.9031 24.9666 14.72 24.7576 14.4328C24.5522 14.1507 24.5098 13.6887 24.4649 13.1996C24.4282 12.7997 24.3902 12.386 24.2605 11.9866C24.1359 11.6032 23.9275 11.2565 23.726 10.9214C23.4685 10.4932 23.2253 10.0887 23.2253 9.71464C23.2253 9.34054 23.4685 8.93611 23.726 8.50789C23.9275 8.17274 24.1359 7.8262 24.2605 7.44267C24.3902 7.04332 24.4281 6.6297 24.4649 6.22969C24.5098 5.74062 24.5522 5.27862 24.7576 4.99645C24.9666 4.70928 25.395 4.52616 25.8487 4.33223C26.2163 4.17503 26.5965 4.01258 26.9328 3.76788C27.2645 3.52647 27.5332 3.21748 27.7931 2.91866C28.1187 2.54416 28.4264 2.19048 28.771 2.07855C29.0928 1.97399 29.5404 2.07527 30.0143 2.18253C30.4117 2.2724 30.8226 2.36539 31.2522 2.36539C31.6817 2.36539 32.0927 2.2724 32.4901 2.18253C32.9638 2.07535 33.4114 1.97407 33.7333 2.07855C34.078 2.19048 34.3856 2.54416 34.7112 2.91866C34.9711 3.21748 35.2398 3.52655 35.5716 3.76788C35.9078 4.01258 36.288 4.17511 36.6556 4.33223C37.1092 4.52616 37.5377 4.70928 37.7467 4.99653C37.8518 5.14086 37.923 5.3434 37.9711 5.63402C38.0264 5.96917 38.3428 6.19574 38.6782 6.14047C39.0132 6.08512 39.2401 5.76851 39.1846 5.43336C39.1042 4.94651 38.9633 4.57766 38.7412 4.27261C38.3329 3.71138 37.6987 3.44028 37.1391 3.20116C36.8202 3.06488 36.5191 2.93613 36.2953 2.77327C36.0765 2.61394 35.8642 2.36982 35.6394 2.11143C35.2377 1.64943 34.7823 1.12576 34.1132 0.908531C33.4696 0.699506 32.805 0.849981 32.2186 0.982662C31.8718 1.06114 31.5442 1.13519 31.2521 1.13519C30.96 1.13519 30.6324 1.06106 30.2855 0.982662C29.6991 0.849899 29.0344 0.699506 28.391 0.908531C27.7219 1.12576 27.2665 1.64943 26.8648 2.11143C26.64 2.3699 26.4278 2.61394 26.2088 2.77327C25.9851 2.93613 25.6839 3.06488 25.3651 3.20116C24.8055 3.44037 24.1713 3.71147 23.7629 4.27261C23.3582 4.82875 23.2954 5.51323 23.2399 6.1171C23.208 6.4652 23.1778 6.79395 23.0905 7.06267C23.0094 7.31253 22.8454 7.58528 22.6718 7.87393C22.3547 8.40137 21.9952 8.99917 21.9952 9.71456C21.9952 10.43 22.3547 11.0278 22.6718 11.5552C22.8454 11.8438 23.0094 12.1165 23.0905 12.3664C23.1568 12.5705 23.1901 12.8093 23.2163 13.0647H2.29463C1.30502 13.0646 0.5 13.8697 0.5 14.8592V33.4006C0.5 34.3902 1.30502 35.1952 2.29463 35.1952H40.7054C41.6949 35.1952 42.5 34.3902 42.5 33.4006V14.8592C42.5 13.8697 41.6949 13.0646 40.7054 13.0646ZM41.27 33.4006C41.27 33.7119 41.0167 33.9651 40.7054 33.9651H2.29463C1.98335 33.9651 1.73004 33.7119 1.73004 33.4006V14.8592C1.73004 14.548 1.98327 14.2947 2.29463 14.2947H23.3811C23.4549 14.596 23.5697 14.8909 23.763 15.1564C23.8681 15.3007 23.9881 15.4256 24.1179 15.5359H7.42521C7.15272 15.5359 6.89662 15.642 6.70416 15.8349C6.50924 16.0302 6.40207 16.2907 6.40256 16.5715C6.40256 17.6304 5.48749 18.4934 4.43236 18.442C4.15019 18.4279 3.87162 18.5312 3.66809 18.7249C3.46407 18.9191 3.35173 19.1812 3.35173 19.463V21.1871C3.35173 21.5267 3.62709 21.8021 3.96675 21.8021C4.3064 21.8021 4.58177 21.5267 4.58177 21.1871V19.674C6.20231 19.6467 7.52452 18.3718 7.62637 16.7659H26.3444C26.5164 16.9177 26.6868 17.1128 26.8649 17.3177C27.2666 17.7797 27.722 18.3033 28.391 18.5205C28.6214 18.5953 28.8544 18.6241 29.0856 18.6241C29.5003 18.6241 29.9091 18.5316 30.2855 18.4464C30.6323 18.3679 30.9599 18.2938 31.2521 18.2938C31.5443 18.2938 31.8718 18.368 32.2187 18.4464C32.8051 18.5791 33.4699 18.7295 34.1133 18.5205C34.7074 18.3276 35.1328 17.8932 35.502 17.4748C35.8849 18.7304 37.0443 19.6509 38.4184 19.674V28.5857C36.7979 28.6129 35.4756 29.888 35.3738 31.4938H7.62653C7.5269 29.8904 6.2037 28.6129 4.5816 28.5857V24.0258C4.5816 23.6861 4.30624 23.4107 3.96658 23.4107C3.62693 23.4107 3.35156 23.6861 3.35156 24.0258V28.7968C3.35156 29.0787 3.46391 29.3408 3.66793 29.5349C3.87138 29.7286 4.14986 29.8315 4.43236 29.8178C5.48011 29.7669 6.40247 30.6262 6.40247 31.6915C6.40198 31.9691 6.50908 32.2296 6.70408 32.4249C6.89662 32.6178 7.15272 32.724 7.42513 32.724H35.5747C35.8471 32.724 36.1032 32.6178 36.2957 32.425C36.4906 32.2297 36.5978 31.9692 36.5974 31.6883C36.5974 30.6285 37.5144 29.7657 38.5676 29.8178C38.8496 29.8317 39.1284 29.7286 39.3319 29.5349C39.5359 29.3407 39.6483 29.0786 39.6483 28.7968V19.463C39.6483 19.1812 39.5359 18.9191 39.3319 18.7249C39.1285 18.5313 38.8499 18.4283 38.5676 18.4421C38.0035 18.4697 37.5308 18.2903 37.1283 17.8761C36.7901 17.5281 36.5966 17.0538 36.5974 16.5683C36.5975 16.5374 36.5948 16.5072 36.5922 16.4769C36.7592 16.3906 36.9457 16.3105 37.139 16.228C37.6985 15.9888 38.3327 15.7177 38.7411 15.1565C38.9344 14.891 39.0492 14.596 39.123 14.2947H40.7053C41.0166 14.2947 41.2699 14.548 41.2699 14.8593V33.4006H41.27Z" fill="#186D8B"/>
<path d="M28.4491 10.7866L28.1002 11.5496C28.0061 11.7556 28.0966 11.9989 28.3025 12.093C28.3578 12.1183 28.4158 12.1302 28.4728 12.1302C28.6283 12.1302 28.7771 12.0413 28.846 11.8907L29.1949 11.1277C29.289 10.9217 29.1985 10.6784 28.9926 10.5843C28.7866 10.4902 28.5433 10.5808 28.4491 10.7866Z" fill="#186D8B"/>
<path d="M30.9504 10.7475C30.7557 10.7514 30.5801 10.6494 30.486 10.4814C30.3753 10.2839 30.1254 10.2135 29.9279 10.3242C29.7303 10.435 29.66 10.6848 29.7707 10.8824C30.0086 11.3069 30.4547 11.5675 30.9395 11.5675C30.9486 11.5675 30.9578 11.5674 30.9669 11.5672C31.6653 11.5532 32.2407 10.9961 32.277 10.2989C32.2963 9.92785 32.1661 9.57532 31.9108 9.30626C31.6589 9.04107 31.3049 8.88895 30.9395 8.88895C30.8951 8.88895 30.853 8.88994 30.8131 8.8919L30.8809 8.48238H31.6748C31.9012 8.48238 32.0848 8.29878 32.0848 8.07237C32.0848 7.84596 31.9012 7.66235 31.6748 7.66235H30.5332C30.3326 7.66235 30.1615 7.8075 30.1287 8.00537L29.9025 9.37039C29.8773 9.52267 29.9408 9.67577 30.0651 9.7672C30.1894 9.85872 30.3557 9.872 30.4934 9.80263C30.4962 9.80123 30.5036 9.79763 30.5146 9.79262C30.6301 9.74063 30.7163 9.70906 30.9395 9.70906C31.0831 9.70906 31.2169 9.76655 31.316 9.87102C31.4151 9.97533 31.4655 10.1123 31.458 10.2565C31.4441 10.5264 31.2211 10.7421 30.9504 10.7475Z" fill="#186D8B"/>
<path d="M26.2729 9.37906C25.7924 10.0657 25.5058 10.441 25.3518 10.6426C25.1598 10.894 25.0541 11.0324 25.1228 11.2556C25.1636 11.3883 25.2638 11.49 25.3978 11.5347C25.4523 11.5528 25.4985 11.5682 26.0956 11.5682C26.3289 11.5682 26.6462 11.5659 27.0809 11.5604C27.3073 11.5576 27.4885 11.3717 27.4857 11.1452C27.4829 10.9188 27.2967 10.7352 27.0706 10.7404C26.8125 10.7437 26.5404 10.746 26.3001 10.7469C26.4613 10.5293 26.6728 10.238 26.9449 9.84919C27.1439 9.5648 27.2739 9.29493 27.3313 9.04711C27.3536 8.96191 27.3569 8.85441 27.3569 8.83702C27.3569 8.18223 26.8242 7.64954 26.1695 7.64954C25.6034 7.64954 25.1133 8.05233 25.0043 8.60725C24.9607 8.8294 25.1054 9.04498 25.3276 9.08861C25.5495 9.13232 25.7653 8.98758 25.809 8.76535C25.8427 8.59397 25.9943 8.46957 26.1695 8.46957C26.3649 8.46957 26.5253 8.62299 26.5363 8.8157L26.5281 8.87966C26.5017 8.98151 26.4357 9.1465 26.2729 9.37906Z" fill="#186D8B"/>
<path d="M34.3953 11.6159C34.445 11.6356 34.4963 11.645 34.5468 11.645C34.7098 11.645 34.864 11.5471 34.9278 11.3864L36.216 8.14764C36.2997 7.93722 36.197 7.69876 35.9866 7.61512C35.7762 7.53156 35.5378 7.63414 35.4541 7.84456L34.1659 11.0833C34.0821 11.2938 34.1849 11.5322 34.3953 11.6159Z" fill="#186D8B"/>
<path d="M33.9103 8.96126C34.2561 8.96126 34.5364 8.68095 34.5364 8.33517C34.5364 7.98939 34.2561 7.70908 33.9103 7.70908C33.5645 7.70908 33.2842 7.98939 33.2842 8.33517C33.2842 8.68095 33.5645 8.96126 33.9103 8.96126Z" fill="#186D8B"/>
<path d="M36.4718 11.5223C36.8176 11.5223 37.0979 11.242 37.0979 10.8962C37.0979 10.5504 36.8176 10.2701 36.4718 10.2701C36.126 10.2701 35.8457 10.5504 35.8457 10.8962C35.8457 11.242 36.126 11.5223 36.4718 11.5223Z" fill="#186D8B"/>
</svg>
