<svg width="25" height="25" viewBox="0 0 25 25" fill="none" xmlns="http://www.w3.org/2000/svg">
<path fill-rule="evenodd" clip-rule="evenodd" d="M18.6763 2.93994H18.6666H18.6396H18.6124H18.5851H18.5577H18.5302H18.5025H18.4748H18.4469H18.4189H18.3908H18.3625H18.3342H18.3057H18.2772H18.2485H18.2197H18.1908H18.1618H18.1327H18.1035H18.0742H18.0448H18.0152H17.9856H17.9559H17.926H17.8961H17.8661H17.836H17.8057H17.7754H17.745H17.7145H17.6839H17.6532H17.6224H17.5915H17.5605H17.5295H17.4983H17.4671H17.4358H17.4044H17.3729H17.3413H17.3096H17.2779H17.2461H17.2142H17.1822H17.1501H17.118H17.0858H17.0535H17.0212H16.9887H16.9562H16.9236H16.891H16.8583H16.8255H16.7926H16.7597H16.7267H16.6936H16.6605H16.6273H16.5941H16.5607H16.5274H16.4939H16.4604H16.4269H16.3933H16.3596H16.3259H16.2921H16.2583H16.2244H16.1904H16.1564H16.1224H16.0883H16.0542H16.02H15.9857H15.9515H15.9171H15.8828H15.8483H15.8139H15.7794H15.7448H15.7103H15.6756H15.641H15.6063H15.5716H15.5368H15.502H15.4672H15.4323H15.3974H15.3625H15.3275H15.2925H15.2575H15.2225H15.1874H15.1523H15.1172H15.082H15.0469H15.0117H14.9765H14.9412H14.906H14.8707H14.8354H14.8001H14.7648H14.7295H14.6941H14.6588H14.6234H14.588H14.5526H14.5172H14.4818H14.4464H14.4109H14.3755H14.3401H14.3046H14.2692H14.2337H14.1983H14.1628H14.1274H14.0919H14.0565H14.0211H13.9856H13.9502H13.9148H13.8793H13.8439H13.8085H13.7731H13.7377H13.7024H13.667H13.6317H13.5963H13.561H13.5257H13.4904H13.4551H13.4199H13.3846H13.3494H13.3142H13.2791H13.2439H13.2088H13.1737H13.1386H13.1036H13.0685H13.0335H12.9986H12.9636H12.9287H12.8939H12.859H12.8242H12.7894H12.7547H12.72H12.6853H12.6507H12.6161H12.5816H12.5471H12.5126H12.4782H12.4438H12.4095H12.3752H12.3409H12.3067H12.2726H12.2385H12.2044H12.1704H12.1365H12.1026H12.0687H12.0349H12.0012H11.9675H11.9339H11.9003H11.8668H11.8334H11.8H11.7667H11.7334H11.7002H11.6671H11.634H11.601H11.568H11.5352H11.5023H11.4696H11.4369H11.4044H11.3718H11.3394H11.307H11.2747H11.2425H11.2103H11.1782H11.1463H11.1143H11.0825H11.0507H11.0191H10.9875H10.956H10.9245H10.8932H10.862H10.8308H10.7997H10.7687H10.7378H10.707H10.6763H10.6457H10.6152H10.5847H10.5544H10.5241H10.494H10.4639H10.434H10.4041H10.3744H10.3447H10.3152H10.2857H10.2564H10.2272H10.198H10.169H10.1401H10.1113H10.0826H10.054H10.0255H9.99717H9.96892H9.94078H9.91276H9.88486H9.85707H9.8294H9.80184H9.77441H9.74709H9.7199H9.69283H9.66588H9.63906H9.61236H9.58578H9.55934H9.53301H9.50682H9.48076H9.45483H9.42902H9.40335H9.37781H9.35241H9.32714H9.30201H9.27701H9.25215H9.22742H9.20284H9.1784H9.15409H9.12993H9.10591H9.08204H9.0583H9.03472H9.01128H8.98798H8.96484H8.94184H8.91899H8.8963H8.87375H8.85136H8.82912H8.80703H8.7851H8.76333H8.74171H8.72025H8.69895H8.67781H8.65683H8.63601H8.61535H8.59486H8.57452H8.55436H8.53436H8.51453H8.49486H8.47536H8.45603H8.43688H8.41789H8.39907H8.38043H8.36196H8.34367H8.32555H8.30761H8.28985H8.27226H8.25485H8.23763H8.22058H8.20372H8.18704H8.17054H8.15423H8.1381H8.12216H8.10641H8.09084H8.07546H8.06028H8.04528H8.03048H8.01587H8.00145H7.98722H7.9732H7.95936H7.94573H7.93229H7.91905H7.90601H7.89318H7.88054H7.8681H7.85587H7.84385H7.83203C7.41952 2.93994 7.14338 3.04163 6.95313 3.16846C6.75974 3.29738 6.62458 3.47286 6.52924 3.66354C6.43292 3.85618 6.38226 4.05488 6.35647 4.20963C6.34377 4.28583 6.33762 4.34823 6.33466 4.38962C6.33319 4.41023 6.33253 4.42538 6.33224 4.43413L6.33203 4.44211V16.8399H14.832C15.1634 16.8399 15.432 17.1086 15.432 17.4399V20.4366L15.4322 20.4424C15.4324 20.45 15.433 20.4639 15.4344 20.4831C15.4372 20.5219 15.443 20.5811 15.4551 20.6538C15.4798 20.802 15.5281 20.9904 15.6187 21.1716C15.7081 21.3504 15.8328 21.511 16.0086 21.6282C16.1806 21.7429 16.437 21.8399 16.832 21.8399C17.227 21.8399 17.4834 21.7429 17.6555 21.6282C17.8313 21.511 17.956 21.3504 18.0454 21.1716C18.136 20.9904 18.1842 20.802 18.2089 20.6538C18.2211 20.5811 18.2269 20.5219 18.2296 20.4831L18.2312 20.4588L18.2319 20.4424L18.232 20.4366V7.43994V4.43994H18.832C18.232 4.43994 18.232 4.43963 18.232 4.43933V4.43867L18.232 4.43721L18.2321 4.43372L18.2322 4.42452L18.2328 4.39749C18.2336 4.37576 18.2349 4.34667 18.2375 4.31125C18.2425 4.24061 18.2523 4.14362 18.2714 4.0288C18.3092 3.802 18.386 3.49044 18.5454 3.17161C18.5837 3.09497 18.6271 3.01729 18.6763 2.93994ZM5.33203 16.8399V4.43994H5.83203C5.33203 4.43994 5.33203 4.43968 5.33203 4.43942L5.33203 4.43886L5.33203 4.4376L5.33205 4.43452L5.33215 4.42613L5.33279 4.40082C5.33348 4.38027 5.33477 4.35245 5.3372 4.31837C5.34206 4.25039 5.35153 4.15654 5.37008 4.04524C5.40679 3.82499 5.48113 3.52369 5.63481 3.21633C5.78947 2.90701 6.02931 2.58249 6.39843 2.33641C6.77067 2.08825 7.24453 1.93994 7.83203 1.93994H7.84385H7.85587H7.8681H7.88054H7.89318H7.90601H7.91905H7.93229H7.94573H7.95936H7.9732H7.98722H8.00145H8.01587H8.03048H8.04528H8.06028H8.07546H8.09084H8.10641H8.12216H8.1381H8.15423H8.17054H8.18704H8.20372H8.22058H8.23763H8.25485H8.27226H8.28985H8.30761H8.32555H8.34367H8.36196H8.38043H8.39907H8.41789H8.43688H8.45603H8.47536H8.49486H8.51453H8.53436H8.55436H8.57452H8.59486H8.61535H8.63601H8.65683H8.67781H8.69895H8.72025H8.74171H8.76333H8.7851H8.80703H8.82912H8.85136H8.87375H8.8963H8.91899H8.94184H8.96484H8.98798H9.01128H9.03472H9.0583H9.08204H9.10591H9.12993H9.15409H9.1784H9.20284H9.22742H9.25215H9.27701H9.30201H9.32714H9.35241H9.37781H9.40335H9.42902H9.45483H9.48076H9.50682H9.53301H9.55934H9.58578H9.61236H9.63906H9.66588H9.69283H9.7199H9.74709H9.77441H9.80184H9.8294H9.85707H9.88486H9.91276H9.94078H9.96892H9.99717H10.0255H10.054H10.0826H10.1113H10.1401H10.169H10.198H10.2272H10.2564H10.2857H10.3152H10.3447H10.3744H10.4041H10.434H10.4639H10.494H10.5241H10.5544H10.5847H10.6152H10.6457H10.6763H10.707H10.7378H10.7687H10.7997H10.8308H10.862H10.8932H10.9245H10.956H10.9875H11.0191H11.0507H11.0825H11.1143H11.1463H11.1782H11.2103H11.2425H11.2747H11.307H11.3394H11.3718H11.4044H11.4369H11.4696H11.5023H11.5352H11.568H11.601H11.634H11.6671H11.7002H11.7334H11.7667H11.8H11.8334H11.8668H11.9003H11.9339H11.9675H12.0012H12.0349H12.0687H12.1026H12.1365H12.1704H12.2044H12.2385H12.2726H12.3067H12.3409H12.3752H12.4095H12.4438H12.4782H12.5126H12.5471H12.5816H12.6161H12.6507H12.6853H12.72H12.7547H12.7894H12.8242H12.859H12.8939H12.9287H12.9636H12.9986H13.0335H13.0685H13.1036H13.1386H13.1737H13.2088H13.2439H13.2791H13.3142H13.3494H13.3846H13.4199H13.4551H13.4904H13.5257H13.561H13.5963H13.6317H13.667H13.7024H13.7377H13.7731H13.8085H13.8439H13.8793H13.9148H13.9502H13.9856H14.0211H14.0565H14.0919H14.1274H14.1628H14.1983H14.2337H14.2692H14.3046H14.3401H14.3755H14.4109H14.4464H14.4818H14.5172H14.5526H14.588H14.6234H14.6588H14.6941H14.7295H14.7648H14.8001H14.8354H14.8707H14.906H14.9412H14.9765H15.0117H15.0469H15.082H15.1172H15.1523H15.1874H15.2225H15.2575H15.2925H15.3275H15.3625H15.3974H15.4323H15.4672H15.502H15.5368H15.5716H15.6063H15.641H15.6756H15.7103H15.7448H15.7794H15.8139H15.8483H15.8828H15.9171H15.9515H15.9857H16.02H16.0542H16.0883H16.1224H16.1564H16.1904H16.2244H16.2583H16.2921H16.3259H16.3596H16.3933H16.4269H16.4604H16.4939H16.5274H16.5607H16.5941H16.6273H16.6605H16.6936H16.7267H16.7597H16.7926H16.8255H16.8583H16.891H16.9236H16.9562H16.9887H17.0212H17.0535H17.0858H17.118H17.1501H17.1822H17.2142H17.2461H17.2779H17.3096H17.3413H17.3729H17.4044H17.4358H17.4671H17.4983H17.5295H17.5605H17.5915H17.6224H17.6532H17.6839H17.7145H17.745H17.7754H17.8057H17.836H17.8661H17.8961H17.926H17.9559H17.9856H18.0152H18.0448H18.0742H18.1035H18.1327H18.1618H18.1908H18.2197H18.2485H18.2772H18.3057H18.3342H18.3625H18.3908H18.4189H18.4469H18.4748H18.5025H18.5302H18.5577H18.5851H18.6124H18.6396H18.6666H18.6935H18.7203H18.747H18.7736H18.8H18.8263H18.8525H18.8785H18.9044H18.9302H18.9558H18.9813H19.0067H19.0319H19.0571H19.082H19.1069H19.1316H19.1561H19.1805H19.2048H19.2289H19.2529H19.2768H19.3005H19.324H19.3474H19.3707H19.3938H19.4168H19.4396H19.4623H19.4848H19.5072H19.5294H19.5514H19.5733H19.5951H19.6166H19.6381H19.6593H19.6805H19.7014H19.7222H19.7428H19.7633H19.7836H19.8037H19.8237H19.8435H19.8631H19.8826H19.9019H19.921H19.9399H19.9587H19.9773H19.9958H20.014H20.0321H20.0394C20.2787 1.87493 20.5426 1.83994 20.832 1.83994C21.437 1.83994 21.9306 1.99291 22.3211 2.25321C22.7078 2.511 22.9581 2.85043 23.1187 3.17161C23.2781 3.49044 23.3548 3.802 23.3926 4.0288C23.4117 4.14362 23.4215 4.24061 23.4266 4.31125C23.4291 4.34667 23.4305 4.37576 23.4312 4.39749L23.4319 4.42452L23.432 4.43372L23.432 4.43721L23.432 4.43867L23.432 4.43933C23.432 4.43963 23.432 4.43994 22.832 4.43994H23.432V7.43994C23.432 7.77131 23.1634 8.03994 22.832 8.03994H19.432V20.4399H18.832C19.432 20.4399 19.432 20.4402 19.432 20.4405L19.432 20.4412L19.432 20.4427L19.432 20.4461L19.4319 20.4553L19.4312 20.4824C19.4305 20.5041 19.4291 20.5332 19.4266 20.5686C19.4215 20.6393 19.4117 20.7363 19.3926 20.8511C19.3548 21.0779 19.2781 21.3894 19.1187 21.7083C18.9581 22.0294 18.7078 22.3689 18.3211 22.6267C17.9306 22.887 17.437 23.0399 16.832 23.0399H16.8202H16.8083H16.7963H16.7841H16.7717H16.7593H16.7467H16.7339H16.7211H16.7081H16.6949H16.6817H16.6683H16.6547H16.6411H16.6273H16.6134H16.5994H16.5852H16.5709H16.5565H16.5419H16.5273H16.5125H16.4975H16.4825H16.4673H16.452H16.4366H16.4211H16.4054H16.3896H16.3737H16.3577H16.3416H16.3253H16.309H16.2925H16.2759H16.2591H16.2423H16.2253H16.2083H16.1911H16.1738H16.1564H16.1388H16.1212H16.1035H16.0856H16.0676H16.0496H16.0314H16.0131H15.9947H15.9761H15.9575H15.9388H15.92H15.901H15.882H15.8628H15.8436H15.8242H15.8048H15.7852H15.7655H15.7458H15.7259H15.7059H15.6859H15.6657H15.6454H15.6251H15.6046H15.584H15.5634H15.5426H15.5218H15.5008H15.4798H15.4587H15.4375H15.4161H15.3947H15.3732H15.3516H15.33H15.3082H15.2863H15.2644H15.2423H15.2202H15.198H15.1757H15.1533H15.1308H15.1083H15.0856H15.0629H15.0401H15.0172H14.9942H14.9712H14.948H14.9248H14.9015H14.8781H14.8547H14.8311H14.8075H14.7838H14.76H14.7362H14.7123H14.6883H14.6642H14.64H14.6158H14.5915H14.5671H14.5427H14.5182H14.4936H14.4689H14.4442H14.4194H14.3945H14.3696H14.3446H14.3195H14.2944H14.2692H14.2439H14.2186H14.1932H14.1677H14.1422H14.1166H14.0909H14.0652H14.0394H14.0136H13.9877H13.9617H13.9357H13.9096H13.8835H13.8573H13.831H13.8047H13.7783H13.7519H13.7254H13.6989H13.6723H13.6457H13.619H13.5922H13.5654H13.5386H13.5117H13.4847H13.4577H13.4307H13.4036H13.3764H13.3492H13.322H13.2947H13.2674H13.24H13.2125H13.1851H13.1576H13.13H13.1024H13.0748H13.0471H13.0193H12.9916H12.9638H12.9359H12.908H12.8801H12.8521H12.8241H12.7961H12.768H12.7399H12.7118H12.6836H12.6554H12.6271H12.5988H12.5705H12.5422H12.5138H12.4854H12.4569H12.4285H12.4H12.3714H12.3429H12.3143H12.2857H12.2571H12.2284H12.1997H12.171H12.1422H12.1135H12.0847H12.0559H12.027H11.9982H11.9693H11.9404H11.9115H11.8825H11.8536H11.8246H11.7956H11.7666H11.7376H11.7085H11.6795H11.6504H11.6213H11.5922H11.563H11.5339H11.5048H11.4756H11.4464H11.4172H11.3881H11.3588H11.3296H11.3004H11.2712H11.2419H11.2127H11.1834H11.1542H11.1249H11.0956H11.0664H11.0371H11.0078H10.9785H10.9492H10.9199H10.8906H10.8613H10.832H10.8027H10.7734H10.7441H10.7148H10.6856H10.6563H10.627H10.5977H10.5684H10.5391H10.5099H10.4806H10.4514H10.4221H10.3929H10.3636H10.3344H10.3052H10.276H10.2468H10.2176H10.1884H10.1593H10.1301H10.101H10.0719H10.0428H10.0137H9.9846H9.95553H9.92649H9.89745H9.86844H9.83945H9.81047H9.78151H9.75257H9.72365H9.69475H9.66587H9.63702H9.60818H9.57937H9.55058H9.52181H9.49307H9.46435H9.43566H9.407H9.37836H9.34974H9.32116H9.2926H9.26407H9.23557H9.2071H9.17866H9.15025H9.12187H9.09352H9.06521H9.03693H9.00868H8.98046H8.95228H8.92414H8.89602H8.86795H8.83991H8.81191H8.78395H8.75602H8.72813H8.70029H8.67248H8.64471H8.61698H8.5893H8.56165H8.53405H8.50649H8.47898H8.45151H8.42408H8.3967H8.36936H8.34207H8.31483H8.28763H8.26048H8.23338H8.20633H8.17933H8.15238H8.12548H8.09863H8.07183H8.04508H8.01839H7.99174H7.96516H7.93862H7.91214H7.88572H7.85935H7.83304H7.80679H7.78059H7.75445H7.72837H7.70235H7.67639H7.65048H7.62464H7.59886H7.57314H7.54749H7.52189H7.49636H7.4709H7.44549H7.42016H7.39488H7.36968H7.34454H7.31947H7.29446H7.26953H7.24466H7.21986H7.19513H7.17047H7.14588H7.12137H7.09692H7.07255H7.04825H7.02402H6.99987H6.9758H6.95179H6.92787H6.90402H6.88024H6.85655H6.83293H6.80939H6.78593H6.76254H6.73924H6.71602H6.69288H6.66982H6.64684H6.62395H6.60114H6.57841H6.55577H6.53321H6.51074H6.48835H6.46605H6.44383H6.42171H6.39967H6.37772H6.35586H6.33409H6.3124H6.29081H6.26931H6.24791H6.22659H6.20537H6.18424H6.1632H6.14226H6.12141H6.10066H6.08001H6.05945H6.03899H6.01863H5.99836H5.97819H5.95813H5.93816H5.91829H5.89853H5.87886H5.8593H5.83984H5.82048H5.80123H5.78208H5.76303H5.74409H5.72526H5.70653H5.68791H5.66939H5.65099H5.63269H5.6145H5.59642H5.57845H5.56059H5.54284H5.5252H5.50768H5.49027H5.47297H5.45578H5.43871H5.42176H5.40492H5.38819H5.37158H5.35509H5.33872H5.32246H5.30632H5.29031H5.27441H5.25863H5.24297H5.22744H5.21202H5.19673H5.18156H5.16651H5.15159H5.13679H5.12212H5.10757H5.09315H5.07886H5.06469H5.05065H5.03674H5.02295H5.0093H4.99578H4.98238H4.96912H4.95599H4.94299H4.93012H4.91739H4.90479H4.89232H4.87999H4.8678H4.85574H4.84381H4.83203C4.22703 23.0399 3.7334 22.887 3.34295 22.6267C2.95626 22.3689 2.70596 22.0294 2.54537 21.7083C2.38595 21.3894 2.30924 21.0779 2.27144 20.8511C2.2523 20.7363 2.2425 20.6393 2.23746 20.5686C2.23493 20.5332 2.23357 20.5041 2.23285 20.4824L2.23216 20.4553L2.23205 20.4461L2.23203 20.4427L2.23203 20.4412L2.23203 20.4405C2.23203 20.4402 2.23203 20.4399 2.83203 20.4399H2.23203V17.4399C2.23203 17.1086 2.50065 16.8399 2.83203 16.8399H5.33203ZM22.232 4.44323V6.83994H19.432V4.44323L19.4322 4.43746C19.4324 4.42989 19.433 4.41601 19.4344 4.39675C19.4372 4.35801 19.443 4.29876 19.4551 4.22607C19.4798 4.07787 19.5281 3.88943 19.6187 3.70826C19.7081 3.52944 19.8328 3.36887 20.0086 3.25167C20.1806 3.13696 20.437 3.03994 20.832 3.03994C21.227 3.03994 21.4834 3.13696 21.6555 3.25167C21.8313 3.36887 21.956 3.52944 22.0454 3.70826C22.136 3.88943 22.1842 4.07787 22.2089 4.22607C22.2211 4.29876 22.2269 4.35801 22.2296 4.39675C22.231 4.41601 22.2316 4.42989 22.2319 4.43746L22.232 4.44323ZM14.5454 21.7083C14.5672 21.7519 14.5907 21.7959 14.6159 21.8399H14.6158H14.5915H14.5671H14.5427H14.5182H14.4936H14.4689H14.4442H14.4194H14.3945H14.3696H14.3446H14.3195H14.2944H14.2692H14.2439H14.2186H14.1932H14.1677H14.1422H14.1166H14.0909H14.0652H14.0394H14.0136H13.9877H13.9617H13.9357H13.9096H13.8835H13.8573H13.831H13.8047H13.7783H13.7519H13.7254H13.6989H13.6723H13.6457H13.619H13.5922H13.5654H13.5386H13.5117H13.4847H13.4577H13.4307H13.4036H13.3764H13.3492H13.322H13.2947H13.2674H13.24H13.2125H13.1851H13.1576H13.13H13.1024H13.0748H13.0471H13.0193H12.9916H12.9638H12.9359H12.908H12.8801H12.8521H12.8241H12.7961H12.768H12.7399H12.7118H12.6836H12.6554H12.6271H12.5988H12.5705H12.5422H12.5138H12.4854H12.4569H12.4285H12.4H12.3714H12.3429H12.3143H12.2857H12.2571H12.2284H12.1997H12.171H12.1422H12.1135H12.0847H12.0559H12.027H11.9982H11.9693H11.9404H11.9115H11.8825H11.8536H11.8246H11.7956H11.7666H11.7376H11.7085H11.6795H11.6504H11.6213H11.5922H11.563H11.5339H11.5048H11.4756H11.4464H11.4172H11.3881H11.3588H11.3296H11.3004H11.2712H11.2419H11.2127H11.1834H11.1542H11.1249H11.0956H11.0664H11.0371H11.0078H10.9785H10.9492H10.9199H10.8906H10.8613H10.832H10.8027H10.7734H10.7441H10.7148H10.6856H10.6563H10.627H10.5977H10.5684H10.5391H10.5099H10.4806H10.4514H10.4221H10.3929H10.3636H10.3344H10.3052H10.276H10.2468H10.2176H10.1884H10.1593H10.1301H10.101H10.0719H10.0428H10.0137H9.9846H9.95553H9.92649H9.89745H9.86844H9.83945H9.81047H9.78151H9.75257H9.72365H9.69475H9.66587H9.63702H9.60818H9.57937H9.55058H9.52181H9.49307H9.46435H9.43566H9.407H9.37836H9.34974H9.32116H9.2926H9.26407H9.23557H9.2071H9.17866H9.15025H9.12187H9.09352H9.06521H9.03693H9.00868H8.98046H8.95228H8.92414H8.89602H8.86795H8.83991H8.81191H8.78395H8.75602H8.72813H8.70029H8.67248H8.64471H8.61698H8.5893H8.56165H8.53405H8.50649H8.47898H8.45151H8.42408H8.3967H8.36936H8.34207H8.31483H8.28763H8.26048H8.23338H8.20633H8.17933H8.15238H8.12548H8.09863H8.07183H8.04508H8.01839H7.99174H7.96516H7.93862H7.91214H7.88572H7.85935H7.83304H7.80679H7.78059H7.75445H7.72837H7.70235H7.67639H7.65048H7.62464H7.59886H7.57314H7.54749H7.52189H7.49636H7.4709H7.44549H7.42016H7.39488H7.36968H7.34454H7.31947H7.29446H7.26953H7.24466H7.21986H7.19513H7.17047H7.14588H7.12137H7.09692H7.07255H7.04825H7.02402H6.99987H6.9758H6.95179H6.92787H6.90402H6.88024H6.85655H6.83293H6.80939H6.78593H6.76254H6.73924H6.71602H6.69288H6.66982H6.64684H6.62395H6.60114H6.57841H6.55577H6.53321H6.51074H6.48835H6.46605H6.44383H6.42171H6.39967H6.37772H6.35586H6.33409H6.3124H6.29081H6.26931H6.24791H6.22659H6.20537H6.18424H6.1632H6.14226H6.12141H6.10066H6.08001H6.05945H6.03899H6.01863H5.99836H5.97819H5.95813H5.93816H5.91829H5.89853H5.87886H5.8593H5.83984H5.82048H5.80123H5.78208H5.76303H5.74409H5.72526H5.70653H5.68791H5.66939H5.65099H5.63269H5.6145H5.59642H5.57845H5.56059H5.54284H5.5252H5.50768H5.49027H5.47297H5.45578H5.43871H5.42176H5.40492H5.38819H5.37158H5.35509H5.33872H5.32246H5.30632H5.29031H5.27441H5.25863H5.24297H5.22744H5.21202H5.19673H5.18156H5.16651H5.15159H5.13679H5.12212H5.10757H5.09315H5.07886H5.06469H5.05065H5.03674H5.02295H5.0093H4.99578H4.98238H4.96912H4.95599H4.94299H4.93012H4.91739H4.90479H4.89232H4.87999H4.8678H4.85574H4.84381H4.83203C4.43702 21.8399 4.18065 21.7429 4.0086 21.6282C3.83279 21.511 3.70809 21.3504 3.61868 21.1716C3.5281 20.9904 3.47981 20.802 3.45511 20.6538C3.443 20.5811 3.43717 20.5219 3.43441 20.4831C3.43303 20.4639 3.43243 20.45 3.43218 20.4424L3.43201 20.4366L3.43203 18.0399H14.232V20.4399H14.832C14.232 20.4399 14.232 20.4402 14.232 20.4405L14.232 20.4412L14.232 20.4427L14.2321 20.4461L14.2322 20.4553L14.2328 20.4824C14.2336 20.5041 14.2349 20.5332 14.2375 20.5686C14.2425 20.6393 14.2523 20.7363 14.2714 20.8511C14.3092 21.0779 14.386 21.3894 14.5454 21.7083Z" fill="#0098D1"/>
<path d="M9.83203 8.43994H14.832" stroke="#0098D1" stroke-linecap="round" stroke-linejoin="round"/>
<path d="M9.83203 12.4399H14.832" stroke="#0098D1" stroke-linecap="round" stroke-linejoin="round"/>
</svg>
