<svg width="14" height="14" viewBox="0 0 14 14" fill="none" xmlns="http://www.w3.org/2000/svg">
<path d="M7.17516 7.12829C7.48642 6.85887 7.73607 6.52564 7.90717 6.15122C8.07828 5.7768 8.16683 5.36996 8.16683 4.95829C8.16683 4.18474 7.85954 3.44288 7.31256 2.8959C6.76558 2.34892 6.02371 2.04163 5.25016 2.04163C4.47661 2.04163 3.73475 2.34892 3.18777 2.8959C2.64079 3.44288 2.3335 4.18474 2.3335 4.95829C2.33349 5.36996 2.42205 5.7768 2.59315 6.15122C2.76426 6.52564 3.01391 6.85887 3.32516 7.12829C2.50858 7.49806 1.81577 8.09519 1.32957 8.84828C0.843368 9.60137 0.584355 10.4786 0.583496 11.375C0.583496 11.5297 0.644954 11.678 0.75435 11.7874C0.863747 11.8968 1.01212 11.9583 1.16683 11.9583C1.32154 11.9583 1.46991 11.8968 1.57931 11.7874C1.6887 11.678 1.75016 11.5297 1.75016 11.375C1.75016 10.4467 2.11891 9.55646 2.77529 8.90009C3.43167 8.24371 4.32191 7.87496 5.25016 7.87496C6.17842 7.87496 7.06866 8.24371 7.72504 8.90009C8.38141 9.55646 8.75016 10.4467 8.75016 11.375C8.75016 11.5297 8.81162 11.678 8.92102 11.7874C9.03041 11.8968 9.17879 11.9583 9.3335 11.9583C9.48821 11.9583 9.63658 11.8968 9.74598 11.7874C9.85537 11.678 9.91683 11.5297 9.91683 11.375C9.91597 10.4786 9.65696 9.60137 9.17076 8.84828C8.68456 8.09519 7.99175 7.49806 7.17516 7.12829ZM5.25016 6.70829C4.90405 6.70829 4.5657 6.60566 4.27792 6.41336C3.99013 6.22107 3.76583 5.94776 3.63337 5.62799C3.50092 5.30822 3.46626 4.95635 3.53379 4.61689C3.60131 4.27742 3.76798 3.9656 4.01273 3.72086C4.25747 3.47611 4.56929 3.30944 4.90875 3.24192C5.24822 3.17439 5.60009 3.20905 5.91986 3.3415C6.23963 3.47396 6.51294 3.69826 6.70524 3.98605C6.89753 4.27383 7.00016 4.61218 7.00016 4.95829C7.00016 5.42242 6.81579 5.86754 6.4876 6.19573C6.15941 6.52392 5.71429 6.70829 5.25016 6.70829ZM10.9318 6.89496C11.3051 6.47457 11.549 5.95524 11.634 5.39949C11.7191 4.84374 11.6417 4.27525 11.4112 3.76246C11.1807 3.24967 10.8069 2.81442 10.3348 2.50912C9.86267 2.20382 9.31238 2.04148 8.75016 2.04163C8.59545 2.04163 8.44708 2.10308 8.33768 2.21248C8.22829 2.32188 8.16683 2.47025 8.16683 2.62496C8.16683 2.77967 8.22829 2.92804 8.33768 3.03744C8.44708 3.14683 8.59545 3.20829 8.75016 3.20829C9.21429 3.20829 9.65941 3.39267 9.9876 3.72086C10.3158 4.04905 10.5002 4.49416 10.5002 4.95829C10.4993 5.26468 10.4181 5.56549 10.2645 5.83062C10.111 6.09576 9.89051 6.31593 9.62516 6.46913C9.53868 6.51901 9.46644 6.59026 9.41538 6.67606C9.36431 6.76185 9.33611 6.85932 9.3335 6.95913C9.33106 7.05816 9.35387 7.15617 9.3998 7.24394C9.44573 7.33171 9.51325 7.40634 9.596 7.46079L9.8235 7.61246L9.89933 7.65329C10.6025 7.9868 11.1957 8.51429 11.6091 9.17364C12.0225 9.833 12.2388 10.5968 12.2327 11.375C12.2327 11.5297 12.2941 11.678 12.4035 11.7874C12.5129 11.8968 12.6613 11.9583 12.816 11.9583C12.9707 11.9583 13.1191 11.8968 13.2285 11.7874C13.3379 11.678 13.3993 11.5297 13.3993 11.375C13.4041 10.4798 13.1799 9.59828 12.748 8.81416C12.3161 8.03005 11.6909 7.36939 10.9318 6.89496Z" fill="#239CC6"/>
</svg>
