<svg width="34" height="33" viewBox="0 0 34 33" fill="none" xmlns="http://www.w3.org/2000/svg">
<path d="M12.582 21.9816V21.9816C12.7639 20.8125 13.5261 19.8041 14.6702 19.503C15.5445 19.2729 16.6592 19.0649 17.832 19.0649C19.0049 19.0649 20.1195 19.2729 20.9938 19.503C22.138 19.8041 22.9002 20.8125 23.082 21.9816V21.9816" stroke="#0098D1" stroke-width="1.5" stroke-linecap="round" stroke-linejoin="round"/>
<path d="M17.8317 16.4398C19.4425 16.4398 20.7484 15.1339 20.7484 13.5231C20.7484 11.9123 19.4425 10.6064 17.8317 10.6064C16.2209 10.6064 14.915 11.9123 14.915 13.5231C14.915 15.1339 16.2209 16.4398 17.8317 16.4398Z" stroke="#0098D1" stroke-width="1.5" stroke-linecap="round" stroke-linejoin="round"/>
<path d="M17.832 26.9399C12.033 26.9399 7.33203 22.2389 7.33203 16.4399H4.33203C4.33203 23.8958 10.3762 29.9399 17.832 29.9399V26.9399ZM28.332 16.4399C28.332 22.2389 23.631 26.9399 17.832 26.9399V29.9399C25.2879 29.9399 31.332 23.8958 31.332 16.4399H28.332ZM17.832 5.93994C23.631 5.93994 28.332 10.641 28.332 16.4399H31.332C31.332 8.9841 25.2879 2.93994 17.832 2.93994V5.93994ZM17.832 2.93994C10.3762 2.93994 4.33203 8.9841 4.33203 16.4399H7.33203C7.33203 10.641 12.033 5.93994 17.832 5.93994V2.93994Z" fill="#0098D1"/>
</svg>
