<svg width="33" height="32" viewBox="0 0 33 32" fill="none" xmlns="http://www.w3.org/2000/svg">
<path d="M11.75 21.5417V21.5417C11.9319 20.3726 12.694 19.3641 13.8382 19.063C14.7125 18.833 15.8271 18.625 17 18.625C18.1729 18.625 19.2875 18.833 20.1618 19.063C21.306 19.3641 22.0681 20.3726 22.25 21.5417V21.5417" stroke="#0098D1" stroke-width="1.5" stroke-linecap="round" stroke-linejoin="round"/>
<path d="M16.9999 16C18.6107 16 19.9166 14.6942 19.9166 13.0834C19.9166 11.4725 18.6107 10.1667 16.9999 10.1667C15.3891 10.1667 14.0833 11.4725 14.0833 13.0834C14.0833 14.6942 15.3891 16 16.9999 16Z" stroke="#0098D1" stroke-width="1.5" stroke-linecap="round" stroke-linejoin="round"/>
<path d="M17 26.5C11.201 26.5 6.5 21.799 6.5 16H3.5C3.5 23.4558 9.54416 29.5 17 29.5V26.5ZM27.5 16C27.5 21.799 22.799 26.5 17 26.5V29.5C24.4558 29.5 30.5 23.4558 30.5 16H27.5ZM17 5.5C22.799 5.5 27.5 10.201 27.5 16H30.5C30.5 8.54416 24.4558 2.5 17 2.5V5.5ZM17 2.5C9.54416 2.5 3.5 8.54416 3.5 16H6.5C6.5 10.201 11.201 5.5 17 5.5V2.5Z" fill="#0098D1"/>
</svg>
