<svg width="24" height="24" viewBox="0 0 24 24" fill="none" xmlns="http://www.w3.org/2000/svg">
<path d="M11.9999 5.26801C11.0625 5.26801 10.2998 6.03066 10.2998 6.96814C10.2998 7.90558 11.0625 8.66824 11.9999 8.66824C12.9374 8.66824 13.7 7.90558 13.7 6.96814C13.7 6.03066 12.9373 5.26801 11.9999 5.26801ZM11.9999 7.96558C11.4499 7.96558 11.0025 7.51813 11.0025 6.96814C11.0025 6.41815 11.4499 5.97066 11.9999 5.97066C12.5499 5.97066 12.9974 6.41815 12.9974 6.96814C12.9974 7.51813 12.5499 7.96558 11.9999 7.96558Z" fill="#0098D1"/>
<path d="M20.8366 11.6561C20.8354 11.6089 20.8259 11.5685 20.8066 11.524C20.8064 11.5235 18.9588 7.39678 18.9588 7.39678C18.8514 7.1568 18.6121 7.0017 18.349 7.0017H16.3259V0.747763C16.3259 0.335446 15.9905 0 15.5782 0H8.42158C8.00927 0 7.67387 0.335446 7.67387 0.747763V7.0017H5.6507C5.38776 7.0017 5.14844 7.15675 5.04098 7.39678C5.04098 7.39678 3.19338 11.5236 3.19305 11.5243C3.17333 11.569 3.16312 11.6169 3.16312 11.6659V16.0581C3.16312 16.2522 3.32042 16.4095 3.51444 16.4095C3.70847 16.4095 3.86577 16.2522 3.86577 16.0581V12.0172H20.134V23.2974H3.86582V17.6951C3.86582 17.5011 3.70852 17.3438 3.51449 17.3438C3.32046 17.3438 3.16316 17.5011 3.16316 17.6951V23.332C3.16316 23.7003 3.46282 24 3.8312 24H20.1686C20.537 24 20.8367 23.7003 20.8367 23.332C20.8367 23.332 20.8366 11.6593 20.8366 11.6561V11.6561ZM8.37652 0.747763C8.37652 0.722889 8.39676 0.702653 8.42158 0.702653H15.5782C15.603 0.702653 15.6233 0.722889 15.6233 0.747763V9.1581H14.9727V5.27116C14.9727 5.07709 14.8154 4.91983 14.6213 4.91983C14.4273 4.91983 14.27 5.07709 14.27 5.27116V9.1581H9.72978V2.13532H14.27V3.64639C14.27 3.84047 14.4273 3.99772 14.6214 3.99772C14.8154 3.99772 14.9727 3.84047 14.9727 3.64639V2.07259C14.9727 1.71972 14.6856 1.43266 14.3328 1.43266H9.66706C9.31419 1.43266 9.02713 1.71972 9.02713 2.07259V9.1581H8.37652V0.747763ZM4.0567 11.3145L5.67309 7.70435H7.67382V9.1581H7.20688C7.01286 9.1581 6.85556 9.31535 6.85556 9.50942C6.85556 9.70349 7.01286 9.86075 7.20688 9.86075H16.7928C16.9869 9.86075 17.1442 9.70349 17.1442 9.50942C17.1442 9.31535 16.9869 9.1581 16.7928 9.1581H16.3259V7.70435H18.3266L19.9431 11.3145H4.0567Z" fill="#0098D1"/>
<path d="M12.2473 13.0838C12.2108 13.083 12.1738 13.0825 12.137 13.0825C9.61459 13.0825 7.56247 15.1347 7.56247 17.6571C7.56247 20.1795 9.61459 22.2316 12.137 22.2316C13.0833 22.2316 13.9915 21.9451 14.7633 21.4031C15.5175 20.8734 16.0885 20.1399 16.4146 19.2817C16.4723 19.1298 16.4183 18.9581 16.284 18.8666C16.1495 18.775 15.97 18.7876 15.8498 18.897C15.2726 19.4219 14.5245 19.7109 13.7434 19.7109C12.0162 19.7109 10.611 18.3057 10.611 16.5785C10.611 15.3797 11.3099 14.2702 12.3915 13.7519C12.5382 13.6816 12.6174 13.5198 12.5831 13.3609C12.5488 13.2019 12.4099 13.0873 12.2473 13.0838ZM9.90839 16.5785C9.90839 18.6932 11.6288 20.4136 13.7435 20.4136C14.203 20.4136 14.6532 20.3318 15.0754 20.1756C14.3511 21.0152 13.2808 21.529 12.1371 21.529C10.0021 21.529 8.26517 19.7921 8.26517 17.6571C8.26517 15.9442 9.38304 14.4876 10.9277 13.9786C10.286 14.6768 9.90839 15.6035 9.90839 16.5785V16.5785Z" fill="#0098D1"/>
<path d="M15.5058 15.6986C15.4469 15.5177 15.2935 15.3883 15.1051 15.3609L14.3652 15.2534L14.0344 14.5829C13.9502 14.4122 13.7797 14.3062 13.5894 14.3062C13.5894 14.3062 13.5894 14.3062 13.5893 14.3062C13.3991 14.3062 13.2286 14.4122 13.1444 14.5828L12.8135 15.2533L12.0734 15.3608C11.8852 15.3882 11.7317 15.5177 11.6729 15.6986C11.6142 15.8795 11.6622 16.0744 11.7985 16.2072L12.3339 16.7292L12.2076 17.4661C12.1754 17.6535 12.251 17.8395 12.4049 17.9513C12.5589 18.0633 12.7591 18.0776 12.9276 17.9892L13.5894 17.6412L14.2513 17.9892C14.3245 18.0277 14.4038 18.0467 14.4826 18.0467C14.5851 18.0467 14.6869 18.0146 14.7739 17.9514C14.9278 17.8395 15.0034 17.6536 14.9712 17.4662L14.8449 16.7292L15.3804 16.2071C15.5165 16.0743 15.5645 15.8794 15.5058 15.6986V15.6986ZM14.2766 16.3018C14.1597 16.4158 14.1063 16.5799 14.1339 16.741L14.2079 17.1727L13.8202 16.9688C13.6757 16.8928 13.503 16.8929 13.3584 16.9688L12.9708 17.1727L13.0448 16.7413C13.0726 16.5802 13.0192 16.4159 12.9021 16.3018L12.5885 15.9961L13.0221 15.9331C13.1837 15.9096 13.3234 15.808 13.3956 15.6616L13.5894 15.2689L13.7834 15.6618C13.8557 15.8082 13.9953 15.9096 14.1569 15.9331L14.5903 15.9961L14.2766 16.3018Z" fill="#0098D1"/>
</svg>
