<svg width="64" height="65" viewBox="0 0 64 65" fill="none" xmlns="http://www.w3.org/2000/svg">
<g clip-path="url(#clip0)">
<path d="M30 53.8337H6C2.69333 53.8337 0 51.1403 0 47.8337V25.167C0 21.8603 2.69333 19.167 6 19.167H36.6667C39.9733 19.167 42.6667 21.8603 42.6667 25.167V33.167C42.6667 34.271 41.7707 35.167 40.6667 35.167C39.5627 35.167 38.6667 34.271 38.6667 33.167V25.167C38.6667 24.0657 37.768 23.167 36.6667 23.167H6C4.89867 23.167 4 24.0657 4 25.167V47.8337C4 48.935 4.89867 49.8337 6 49.8337H30C31.104 49.8337 32 50.7297 32 51.8337C32 52.9377 31.104 53.8337 30 53.8337Z" fill="#12BFFF"/>
<path d="M32.6667 23.1667C31.5627 23.1667 30.6667 22.2707 30.6667 21.1667V13.8333C30.6667 8.68667 26.48 4.5 21.3333 4.5C16.1867 4.5 12 8.68667 12 13.8333V21.1667C12 22.2707 11.104 23.1667 10 23.1667C8.896 23.1667 8 22.2707 8 21.1667V13.8333C8 6.48133 13.9813 0.5 21.3333 0.5C28.6853 0.5 34.6667 6.48133 34.6667 13.8333V21.1667C34.6667 22.2707 33.7707 23.1667 32.6667 23.1667Z" fill="#12BFFF"/>
<path d="M62.0001 48.5003H56.6667C55.5627 48.5003 54.6667 47.6043 54.6667 46.5003C54.6667 45.3963 55.5627 44.5003 56.6667 44.5003H60.0001V41.167C60.0001 40.063 60.8961 39.167 62.0001 39.167C63.1041 39.167 64.0001 40.063 64.0001 41.167V46.5003C64.0001 47.6043 63.1041 48.5003 62.0001 48.5003Z" fill="#12BFFF"/>
<path d="M39.3333 63.1663C38.2293 63.1663 37.3333 62.2703 37.3333 61.1663V55.833C37.3333 54.729 38.2293 53.833 39.3333 53.833H44.6666C45.7706 53.833 46.6666 54.729 46.6666 55.833C46.6666 56.937 45.7706 57.833 44.6666 57.833H41.3333V61.1663C41.3333 62.2703 40.4373 63.1663 39.3333 63.1663Z" fill="#12BFFF"/>
<path d="M39.8401 49.833C39.6481 49.833 39.4508 49.8037 39.2588 49.7477C38.2028 49.425 37.6054 48.3077 37.9254 47.2517C39.6401 41.617 44.7601 37.833 50.6668 37.833C55.6001 37.833 60.0988 40.5397 62.4081 44.8943C62.9228 45.8703 62.5521 47.081 61.5761 47.601C60.5921 48.1103 59.3894 47.745 58.8694 46.769C57.2614 43.7237 54.1148 41.833 50.6668 41.833C46.5334 41.833 42.9521 44.4783 41.7548 48.4143C41.4934 49.2783 40.6988 49.833 39.8401 49.833Z" fill="#12BFFF"/>
<path d="M50.6667 64.5001C45.7334 64.5001 41.2347 61.7934 38.9254 57.4387C38.4107 56.4627 38.7814 55.2521 39.7574 54.7321C40.7387 54.2201 41.9441 54.5881 42.4641 55.5641C44.0721 58.6094 47.2187 60.5001 50.6667 60.5001C54.7761 60.5001 58.3601 57.8521 59.5841 53.9054C59.9121 52.8521 61.0294 52.2601 62.0854 52.5908C63.1414 52.9161 63.7281 54.0388 63.4001 55.0921C61.6561 60.7188 56.5387 64.5001 50.6667 64.5001Z" fill="#12BFFF"/>
</g>
<defs>
<clipPath id="clip0">
<rect width="64" height="64" fill="white" transform="translate(0 0.5)"/>
</clipPath>
</defs>
</svg>
