<svg width="19" height="18" viewBox="0 0 19 18" fill="none" xmlns="http://www.w3.org/2000/svg">
<path d="M0.167969 9C0.167969 4.02944 4.19741 0 9.16797 0C14.1385 0 18.168 4.02944 18.168 9C18.168 13.9706 14.1385 18 9.16797 18C4.19741 18 0.167969 13.9706 0.167969 9Z" fill="#C4E8F5"/>
<path d="M8.19116 10.642H9.70528V10.5062C9.71327 9.72714 9.99292 9.36359 10.6241 8.98406C11.3712 8.54062 11.8586 7.95335 11.8586 7.01452C11.8586 5.61626 10.732 4.80127 9.14597 4.80127C7.69578 4.80127 6.51325 5.56033 6.47729 7.15834H8.10727C8.13124 6.50715 8.61464 6.15958 9.13798 6.15958C9.67731 6.15958 10.1128 6.51913 10.1128 7.07444C10.1128 7.59779 9.73324 7.94536 9.24186 8.25697C8.57069 8.68044 8.19516 9.10791 8.19116 10.5062V10.642ZM8.97818 13.1988C9.48955 13.1988 9.93299 12.7714 9.93699 12.24C9.93299 11.7167 9.48955 11.2892 8.97818 11.2892C8.45084 11.2892 8.01538 11.7167 8.01938 12.24C8.01538 12.7714 8.45084 13.1988 8.97818 13.1988Z" fill="#186D8B"/>
</svg>
