<svg width="24" height="24" viewBox="0 0 24 24" fill="none" xmlns="http://www.w3.org/2000/svg">
<g clip-path="url(#clip0)">
<path d="M10.6339 17.0047C11.0915 17.0047 11.4637 16.6324 11.4637 16.1749V13.7333C11.4637 13.6039 11.3588 13.499 11.2294 13.499C11.1001 13.499 10.9951 13.6039 10.9951 13.7333V16.1749C10.9951 16.3741 10.8331 16.5361 10.6339 16.5361C10.4348 16.5361 10.2727 16.3741 10.2727 16.1749V15.6389C10.2727 15.5096 10.1678 15.4046 10.0384 15.4046C9.90906 15.4046 9.80414 15.5096 9.80414 15.6389V16.1749C9.80409 16.6324 10.1763 17.0047 10.6339 17.0047V17.0047Z" fill="#0098D1"/>
<path d="M12.6343 15.4564C13.0128 15.4564 13.3208 15.1484 13.3208 14.7699V14.7457C13.3208 14.6163 13.2159 14.5114 13.0865 14.5114C12.9571 14.5114 12.8522 14.6163 12.8522 14.7457V14.7699C12.8522 14.89 12.7544 14.9878 12.6343 14.9878C12.5141 14.9878 12.4164 14.89 12.4164 14.7699V13.7333C12.4164 13.6039 12.3115 13.499 12.1821 13.499C12.0527 13.499 11.9478 13.6039 11.9478 13.7333V14.7699C11.9478 15.1484 12.2558 15.4564 12.6343 15.4564Z" fill="#0098D1"/>
<path d="M13.5919 16.1252C13.686 16.1938 13.7141 16.3048 13.7225 16.3648C13.7413 16.4998 13.7037 16.6468 13.6242 16.7486C13.4442 16.9791 13.1117 17.0489 12.8608 17.0367C12.7322 17.0313 12.6218 17.1304 12.6157 17.2597C12.6097 17.3889 12.7095 17.4987 12.8387 17.5048C12.8662 17.506 12.8934 17.5067 12.9206 17.5067C13.3646 17.5067 13.7615 17.3342 13.9936 17.037C14.1508 16.8357 14.223 16.5601 14.1866 16.2999C14.1544 16.0695 14.0412 15.873 13.8681 15.7467C13.7635 15.6704 13.617 15.6934 13.5407 15.7979C13.4644 15.9024 13.4874 16.049 13.5919 16.1252V16.1252Z" fill="#0098D1"/>
<path d="M12.2456 16.3881C12.3704 16.3881 12.4717 16.2869 12.4717 16.162C12.4717 16.0371 12.3704 15.9359 12.2456 15.9359C12.1207 15.9359 12.0195 16.0371 12.0195 16.162C12.0195 16.2869 12.1207 16.3881 12.2456 16.3881Z" fill="#0098D1"/>
<path d="M13.023 16.3866C13.1479 16.3866 13.2491 16.2854 13.2491 16.1605C13.2491 16.0356 13.1479 15.9344 13.023 15.9344C12.8981 15.9344 12.7969 16.0356 12.7969 16.1605C12.7969 16.2854 12.8981 16.3866 13.023 16.3866Z" fill="#0098D1"/>
<path d="M12.0001 19.211C14.0448 19.211 15.7084 17.5475 15.7084 15.5027C15.7084 13.4579 14.0448 11.7944 12.0001 11.7944C9.95528 11.7944 8.29175 13.4579 8.29175 15.5027C8.29175 17.5475 9.95528 19.211 12.0001 19.211V19.211ZM12.0001 12.4973C13.6573 12.4973 15.0055 13.8455 15.0055 15.5027C15.0055 17.1599 13.6573 18.5081 12.0001 18.5081C10.3428 18.5081 8.99463 17.1599 8.99463 15.5027C8.99463 13.8455 10.3428 12.4973 12.0001 12.4973V12.4973Z" fill="#0098D1"/>
<path d="M22.9745 9.17979H22.1645C22.1795 9.03383 22.1985 8.89737 22.2364 8.78079C22.2827 8.63801 22.3764 8.48216 22.4756 8.31722C22.6569 8.01582 22.8623 7.67427 22.8623 7.26547C22.8623 6.8571 22.6552 6.51245 22.4887 6.23552C22.3888 6.06917 22.1728 6.01533 22.0064 6.11532C21.8401 6.21527 21.7863 6.4312 21.8863 6.59759C22.0462 6.86371 22.1594 7.0674 22.1594 7.26552C22.1594 7.47929 22.0204 7.71035 21.8733 7.95504C21.7581 8.14656 21.639 8.34458 21.5678 8.56379C21.4938 8.79199 21.4721 9.0283 21.4511 9.25687C21.4254 9.53634 21.4012 9.80034 21.2838 9.96163C21.1644 10.1257 20.9196 10.2304 20.6604 10.3412C20.4503 10.431 20.233 10.5238 20.0409 10.6637C19.8513 10.8017 19.6978 10.9782 19.5493 11.149C19.3632 11.363 19.1874 11.5651 18.9905 11.6291C18.8065 11.6887 18.5508 11.631 18.2801 11.5697C18.0529 11.5183 17.8181 11.4652 17.5727 11.4652C17.3272 11.4652 17.0924 11.5183 16.8653 11.5697C16.5945 11.631 16.3388 11.6888 16.1549 11.6291C15.9579 11.5651 15.7822 11.363 15.5961 11.149C15.4476 10.9782 15.294 10.8017 15.1045 10.6637C14.9123 10.5239 14.6951 10.431 14.485 10.3412C14.2257 10.2304 13.9809 10.1257 13.8615 9.96163C13.7441 9.80039 13.7199 9.53639 13.6942 9.25692C13.6732 9.02839 13.6515 8.79203 13.5774 8.56379C13.5062 8.34467 13.3872 8.1466 13.272 7.95509C13.1248 7.7104 12.9859 7.47929 12.9859 7.26552C12.9859 7.05175 13.1248 6.82064 13.272 6.57595C13.3872 6.38443 13.5062 6.18641 13.5774 5.96725C13.6515 5.73905 13.6732 5.50269 13.6942 5.27412C13.7199 4.99465 13.7441 4.73065 13.8615 4.56941C13.9809 4.40531 14.2257 4.30067 14.485 4.18985C14.695 4.10003 14.9123 4.0072 15.1044 3.86737C15.294 3.72942 15.4475 3.55286 15.596 3.3821C15.7821 3.1681 15.9579 2.966 16.1549 2.90204C16.3387 2.84229 16.5945 2.90016 16.8653 2.96145C17.0924 3.01281 17.3272 3.06595 17.5727 3.06595C17.8181 3.06595 18.053 3.01281 18.2801 2.96145C18.5508 2.90021 18.8065 2.84234 18.9905 2.90204C19.1874 2.966 19.3632 3.1681 19.5493 3.3821C19.6978 3.55286 19.8513 3.72947 20.0409 3.86737C20.233 4.0072 20.4503 4.10007 20.6603 4.18985C20.9196 4.30067 21.1644 4.40531 21.2838 4.56946C21.3439 4.65193 21.3846 4.76767 21.412 4.93374C21.4437 5.12525 21.6245 5.25472 21.8161 5.22313C22.0076 5.1915 22.1372 5.01058 22.1055 4.81907C22.0595 4.54087 21.979 4.3301 21.8521 4.15579C21.6188 3.83509 21.2564 3.68017 20.9366 3.54353C20.7544 3.46565 20.5824 3.39208 20.4545 3.29902C20.3294 3.20798 20.2081 3.06848 20.0797 2.92083C19.8501 2.65682 19.5899 2.35758 19.2075 2.23346C18.8398 2.11401 18.46 2.2 18.1249 2.27582C17.9267 2.32066 17.7395 2.36297 17.5726 2.36297C17.4057 2.36297 17.2185 2.32061 17.0203 2.27582C16.6852 2.19995 16.3054 2.11401 15.9377 2.23346C15.5554 2.35758 15.2952 2.65682 15.0656 2.92083C14.9372 3.06852 14.8159 3.20798 14.6908 3.29902C14.5629 3.39208 14.3908 3.46565 14.2086 3.54353C13.8889 3.68022 13.5265 3.83513 13.2931 4.15579C13.0618 4.47358 13.0259 4.86471 12.9942 5.20978C12.976 5.4087 12.9587 5.59655 12.9089 5.75011C12.8625 5.89289 12.7688 6.04874 12.6696 6.21368C12.4884 6.51508 12.283 6.85668 12.283 7.26547C12.283 7.67427 12.4884 8.01587 12.6696 8.31726C12.7688 8.4822 12.8625 8.63801 12.9089 8.78084C12.9467 8.89742 12.9658 9.03387 12.9808 9.17984H1.0255C0.460012 9.17979 0 9.63985 0 10.2053V20.8004C0 21.3658 0.460012 21.8258 1.0255 21.8258H22.9745C23.5399 21.8258 24 21.3658 24 20.8004V10.2053C24 9.63985 23.5399 9.17979 22.9745 9.17979V9.17979ZM23.2971 20.8004C23.2971 20.9783 23.1524 21.123 22.9745 21.123H1.0255C0.847627 21.123 0.702881 20.9783 0.702881 20.8004V10.2053C0.702881 10.0274 0.84758 9.88267 1.0255 9.88267H13.0749C13.1171 10.0549 13.1827 10.2234 13.2932 10.3751C13.3532 10.4576 13.4218 10.5289 13.4959 10.5919H3.95727C3.80155 10.5919 3.65521 10.6526 3.54524 10.7628C3.43385 10.8744 3.37261 11.0233 3.37289 11.1838C3.37289 11.7888 2.84999 12.282 2.24706 12.2526C2.08582 12.2445 1.92664 12.3035 1.81034 12.4142C1.69375 12.5252 1.62956 12.675 1.62956 12.836V13.8212C1.62956 14.0153 1.78691 14.1726 1.981 14.1726C2.17509 14.1726 2.33244 14.0153 2.33244 13.8212V12.9566C3.25846 12.941 4.01401 12.2124 4.07221 11.2948H14.7682C14.8665 11.3815 14.9639 11.493 15.0656 11.6101C15.2952 11.8741 15.5554 12.1733 15.9377 12.2974C16.0694 12.3402 16.2025 12.3566 16.3346 12.3566C16.5716 12.3566 16.8052 12.3038 17.0203 12.2551C17.2185 12.2102 17.4057 12.1679 17.5726 12.1679C17.7396 12.1679 17.9267 12.2103 18.1249 12.2551C18.46 12.3309 18.8399 12.4169 19.2076 12.2974C19.5471 12.1872 19.7902 11.939 20.0011 11.6999C20.22 12.4174 20.8824 12.9434 21.6677 12.9566V18.049C20.7416 18.0645 19.9861 18.7931 19.9279 19.7108H4.0723C4.01537 18.7945 3.25926 18.0645 2.33235 18.049V15.4433C2.33235 15.2492 2.17499 15.0919 1.98091 15.0919C1.78682 15.0919 1.62946 15.2492 1.62946 15.4433V18.1696C1.62946 18.3307 1.69366 18.4804 1.81025 18.5914C1.9265 18.702 2.08563 18.7609 2.24706 18.753C2.84578 18.7239 3.37284 19.215 3.37284 19.8237C3.37256 19.9824 3.43376 20.1312 3.54519 20.2428C3.65521 20.353 3.80155 20.4137 3.95722 20.4137H20.0427C20.1984 20.4137 20.3447 20.353 20.4547 20.2429C20.5661 20.1313 20.6273 19.9824 20.6271 19.8219C20.6271 19.2163 21.1511 18.7233 21.7529 18.753C21.914 18.761 22.0734 18.7021 22.1897 18.5914C22.3062 18.4804 22.3704 18.3306 22.3704 18.1696V12.836C22.3704 12.675 22.3062 12.5252 22.1897 12.4143C22.0734 12.3036 21.9142 12.2448 21.7529 12.2526C21.4306 12.2684 21.1605 12.1659 20.9305 11.9292C20.7372 11.7304 20.6266 11.4593 20.6271 11.1819C20.6272 11.1643 20.6256 11.147 20.6241 11.1297C20.7196 11.0803 20.8261 11.0346 20.9366 10.9874C21.2563 10.8507 21.6187 10.6959 21.852 10.3752C21.9625 10.2234 22.0281 10.0549 22.0703 9.88272H22.9745C23.1523 9.88272 23.2971 10.0274 23.2971 10.2053V20.8004H23.2971Z" fill="#0098D1"/>
<path d="M15.9709 7.87808L15.7715 8.3141C15.7177 8.43177 15.7694 8.5708 15.8871 8.62459C15.9187 8.63907 15.9518 8.64586 15.9844 8.64586C16.0733 8.64586 16.1583 8.59507 16.1976 8.50899L16.397 8.07297C16.4508 7.9553 16.3991 7.81627 16.2814 7.76248C16.1637 7.70868 16.0247 7.76046 15.9709 7.87808V7.87808Z" fill="#0098D1"/>
<path d="M17.4004 7.85569C17.2891 7.85794 17.1888 7.79965 17.135 7.70368C17.0717 7.5908 16.929 7.5506 16.8161 7.61386C16.7032 7.67712 16.663 7.81989 16.7262 7.93278C16.8622 8.17536 17.1171 8.32428 17.3942 8.32428C17.3994 8.32428 17.4046 8.32423 17.4098 8.32414C17.8089 8.31613 18.1377 7.99777 18.1584 7.59938C18.1694 7.38734 18.0951 7.18589 17.9491 7.03215C17.8052 6.88061 17.603 6.79369 17.3942 6.79369C17.3688 6.79369 17.3447 6.79425 17.3219 6.79537L17.3607 6.56136H17.8143C17.9437 6.56136 18.0486 6.45644 18.0486 6.32707C18.0486 6.19769 17.9437 6.09277 17.8143 6.09277H17.162C17.0474 6.09277 16.9496 6.17571 16.9308 6.28878L16.8016 7.06879C16.7872 7.15581 16.8234 7.2433 16.8945 7.29554C16.9655 7.34784 17.0605 7.35543 17.1393 7.31579C17.1408 7.31499 17.1451 7.31293 17.1513 7.31007C17.2174 7.28036 17.2666 7.26232 17.3941 7.26232C17.4762 7.26232 17.5526 7.29517 17.6093 7.35487C17.6659 7.41447 17.6947 7.49273 17.6904 7.57515C17.6825 7.72936 17.5551 7.8526 17.4004 7.85569V7.85569Z" fill="#0098D1"/>
<path d="M14.7274 7.07375C14.4528 7.4661 14.289 7.68057 14.201 7.7958C14.0913 7.93942 14.0309 8.01852 14.0701 8.14607C14.0935 8.22189 14.1507 8.27999 14.2273 8.30553C14.2584 8.31589 14.2848 8.32469 14.626 8.32469C14.7593 8.32469 14.9407 8.32338 15.1891 8.32024C15.3184 8.3186 15.422 8.21242 15.4204 8.083C15.4188 7.95357 15.3124 7.8487 15.1832 7.85165C15.0357 7.85353 14.8802 7.85484 14.7429 7.85536C14.835 7.73104 14.9558 7.56455 15.1113 7.34239C15.225 7.17989 15.2994 7.02567 15.3322 6.88407C15.3449 6.83538 15.3468 6.77395 15.3468 6.76401C15.3468 6.38984 15.0424 6.08545 14.6683 6.08545C14.3448 6.08545 14.0647 6.31562 14.0025 6.63271C13.9775 6.75965 14.0602 6.88285 14.1872 6.90778C14.314 6.93275 14.4373 6.85005 14.4622 6.72306C14.4815 6.62512 14.5681 6.55404 14.6683 6.55404C14.7799 6.55404 14.8715 6.64171 14.8779 6.75183L14.8732 6.78838C14.8581 6.84658 14.8204 6.94086 14.7274 7.07375V7.07375Z" fill="#0098D1"/>
<path d="M19.3688 8.35193C19.3972 8.36322 19.4265 8.36856 19.4553 8.36856C19.5485 8.36856 19.6366 8.31261 19.6731 8.22082L20.4092 6.37009C20.457 6.24985 20.3983 6.11358 20.2781 6.06579C20.1579 6.01804 20.0216 6.07666 19.9738 6.1969L19.2377 8.04763C19.1898 8.16787 19.2485 8.30413 19.3688 8.35193Z" fill="#0098D1"/>
<path d="M19.0917 6.83501C19.2893 6.83501 19.4495 6.67483 19.4495 6.47724C19.4495 6.27965 19.2893 6.11948 19.0917 6.11948C18.8941 6.11948 18.7339 6.27965 18.7339 6.47724C18.7339 6.67483 18.8941 6.83501 19.0917 6.83501Z" fill="#0098D1"/>
<path d="M20.5552 8.29845C20.7528 8.29845 20.913 8.13827 20.913 7.94068C20.913 7.74309 20.7528 7.58292 20.5552 7.58292C20.3577 7.58292 20.1975 7.74309 20.1975 7.94068C20.1975 8.13827 20.3577 8.29845 20.5552 8.29845Z" fill="#0098D1"/>
</g>
<defs>
<clipPath id="clip0">
<rect width="24" height="24" fill="white"/>
</clipPath>
</defs>
</svg>
