<svg width="18" height="19" viewBox="0 0 18 19" fill="none" xmlns="http://www.w3.org/2000/svg">
<path d="M15.3564 6.35338C15.3641 6.49219 15.3641 6.63101 15.3641 6.76213C15.3621 7.61613 15.2375 8.46541 14.9939 9.28394C14.4806 11.1703 13.3536 12.8319 11.7909 14.0064C10.2282 15.1809 8.31871 15.8014 6.36406 15.7698C4.64338 15.7718 2.95882 15.2763 1.51318 14.3431C1.76391 14.3741 2.01632 14.3896 2.26896 14.3893C3.69278 14.3907 5.07558 13.9126 6.19446 13.032C5.53544 13.0196 4.8967 12.802 4.36724 12.4094C3.83778 12.0168 3.44398 11.4688 3.24072 10.8418C3.43694 10.8754 3.63551 10.8935 3.83457 10.8958C4.1188 10.8969 4.40177 10.8579 4.67515 10.7801C3.99833 10.6461 3.38424 10.2936 2.92725 9.77664C2.47025 9.25973 2.19563 8.60706 2.14558 7.91892C2.13276 7.83991 2.12759 7.75985 2.13014 7.67985V7.64128C2.56966 7.88593 3.06174 8.02086 3.56458 8.03461C3.13178 7.74612 2.77712 7.35501 2.53222 6.89614C2.28732 6.43728 2.15979 5.92493 2.16102 5.40481C2.16047 4.84475 2.30671 4.29433 2.58517 3.8084C3.37943 4.78704 4.3709 5.58744 5.49502 6.15747C6.61915 6.7275 7.85072 7.0544 9.10957 7.11687C8.95028 6.43826 9.01956 5.72604 9.30663 5.09084C9.59371 4.45565 10.0825 3.93304 10.6971 3.60419C11.3117 3.27535 12.0178 3.15868 12.7055 3.2723C13.3932 3.38593 14.0242 3.72349 14.5003 4.23256C15.2104 4.09242 15.8912 3.83157 16.5132 3.46135C16.5399 3.99826 16.4504 4.53463 16.2508 5.03376C16.0511 5.5329 15.746 5.98303 15.3564 6.35338Z" fill="#4EBAE0"/>
</svg>
