<svg width="103" height="103" viewBox="0 0 103 103" fill="none" xmlns="http://www.w3.org/2000/svg">
<path d="M43.2795 53.9268L41.1494 57.1226H80.0017L77.8716 53.9268H43.2795Z" fill="#56D1FF"/>
<path d="M100.489 65.1122C100.01 64.1359 100.639 65.272 89.2203 47.8673C88.7827 47.209 88.1888 46.6695 87.4916 46.297C86.7945 45.9244 86.0159 45.7304 85.2254 45.7324H37.5174C36.727 45.7304 35.9484 45.9244 35.2512 46.297C34.5541 46.6695 33.9602 47.209 33.5226 47.8673C22.1532 65.1889 22.7333 64.1423 22.2539 65.1122H100.489ZM36.8335 57.8336L41.0952 51.4419C41.2412 51.2231 41.4389 51.0437 41.6708 50.9197C41.9027 50.7956 42.1617 50.7307 42.4247 50.7308H78.7266C78.9897 50.7307 79.2486 50.7956 79.4805 50.9197C79.7124 51.0437 79.9102 51.2231 80.0561 51.4419L84.3178 57.8336C84.4784 58.0743 84.5706 58.354 84.5846 58.643C84.5987 58.9319 84.534 59.2193 84.3975 59.4743C84.261 59.7294 84.0579 59.9427 83.8097 60.0913C83.5615 60.24 83.2776 60.3185 82.9883 60.3184H38.163C37.8737 60.3185 37.5898 60.24 37.3416 60.0913C37.0934 59.9427 36.8903 59.7294 36.7538 59.4743C36.6173 59.2193 36.5526 58.9319 36.5667 58.643C36.5807 58.354 36.6729 58.0743 36.8335 57.8336Z" fill="#56D1FF"/>
<path d="M21.4518 68.3086C21.4518 68.4204 21.4263 68.5323 21.4263 68.6458V90.6797C21.4263 91.9511 21.9313 93.1705 22.8303 94.0695C23.7294 94.9685 24.9487 95.4735 26.2201 95.4735H96.5294C97.8008 95.4735 99.0201 94.9685 99.9191 94.0695C100.818 93.1705 101.323 91.9511 101.323 90.6797V68.6458C101.323 68.5323 101.302 68.4204 101.298 68.3086H21.4518Z" fill="#56D1FF"/>
<path d="M69.823 20.5861C69.8054 20.575 69.7942 20.5574 69.7766 20.5478L45.8747 7.74032C44.7473 7.13582 43.4912 6.81086 42.2121 6.79279C40.933 6.77472 39.6682 7.06405 38.5242 7.63645L18.2304 17.785V17.1745C18.2304 15.9031 17.7253 14.6838 16.8263 13.7848C15.9273 12.8858 14.7079 12.3807 13.4365 12.3807H7.04479C5.77339 12.3807 4.55407 12.8858 3.65505 13.7848C2.75604 14.6838 2.25098 15.9031 2.25098 17.1745V49.1333C2.25098 50.4047 2.75604 51.624 3.65505 52.523C4.55407 53.4221 5.77339 53.9271 7.04479 53.9271H13.4365C14.7079 53.9271 15.9273 53.4221 16.8263 52.523C17.7253 51.624 18.2304 50.4047 18.2304 49.1333V48.5229L26.0027 52.4123C28.0007 53.4079 30.2021 53.9275 32.4344 53.9303H46.4212C48.5439 56.1398 51.1295 57.852 53.9923 58.9438C56.8552 60.0357 59.9242 60.4802 62.9792 60.2454C66.0342 60.0106 68.9993 59.1023 71.6616 57.5858C74.324 56.0693 76.6176 53.9821 78.3777 51.4741C80.1379 48.9662 81.3209 46.0996 81.8419 43.0803C82.363 40.0609 82.2091 36.9637 81.3913 34.0109C80.5734 31.058 79.112 28.3229 77.1119 26.0018C75.1118 23.6807 72.6226 21.8312 69.823 20.5861ZM15.0345 49.1333C15.0345 49.5571 14.8661 49.9636 14.5665 50.2632C14.2668 50.5629 13.8603 50.7312 13.4365 50.7312H7.04479C6.62099 50.7312 6.21455 50.5629 5.91488 50.2632C5.61521 49.9636 5.44685 49.5571 5.44685 49.1333V17.1745C5.44685 16.7507 5.61521 16.3443 5.91488 16.0446C6.21455 15.745 6.62099 15.5766 7.04479 15.5766H13.4365C13.8603 15.5766 14.2668 15.745 14.5665 16.0446C14.8661 16.3443 15.0345 16.7507 15.0345 17.1745V49.1333ZM27.4313 49.5488L18.2304 44.9499V21.3579L39.9623 10.492C40.6484 10.1485 41.4069 9.97482 42.1741 9.98539C42.9412 9.99595 43.6947 10.1905 44.371 10.5527L59.8407 18.8556C56.3151 19.1191 52.9151 20.2776 49.9621 22.2215C47.0091 24.1654 44.6008 26.8304 42.9648 29.9644H35.886C34.4027 29.9644 32.9801 30.5537 31.9313 31.6025C30.8824 32.6514 30.2932 34.0739 30.2932 35.5572C30.2932 37.0405 30.8824 38.4631 31.9313 39.5119C32.9801 40.5608 34.4027 41.15 35.886 41.15H54.9829C56.2543 41.15 57.4737 41.6551 58.3727 42.5541C59.2717 43.4531 59.7767 44.6724 59.7767 45.9438C59.7767 47.2152 59.2717 48.4345 58.3727 49.3336C57.4737 50.2326 56.2543 50.7376 54.9829 50.7376H32.4344C30.6972 50.7334 28.9847 50.3265 27.4313 49.5488ZM35.886 37.9477C35.2503 37.9477 34.6406 37.6952 34.1911 37.2457C33.7416 36.7962 33.4891 36.1865 33.4891 35.5508C33.4891 34.9151 33.7416 34.3055 34.1911 33.856C34.6406 33.4065 35.2503 33.1539 35.886 33.1539H41.6178C41.117 34.7091 40.8032 36.3184 40.683 37.9477H35.886ZM54.9829 37.9477H51.9309C52.2285 36.1843 53.0133 34.5393 54.1968 33.1985C55.3802 31.8578 56.9151 30.8747 58.6279 30.3605C60.3407 29.8463 62.1632 29.8213 63.8895 30.2885C65.6157 30.7557 67.1769 31.6964 68.3966 33.0043C69.6163 34.3121 70.4458 35.9351 70.7916 37.6897C71.1373 39.4443 70.9854 41.2606 70.353 42.9335C69.7207 44.6063 68.633 46.0689 67.2131 47.156C65.7931 48.2431 64.0973 48.9114 62.3175 49.0854C62.8411 47.871 63.0547 46.5454 62.9389 45.228C62.8232 43.9106 62.3818 42.6426 61.6545 41.5381C60.9271 40.4336 59.9366 39.5273 58.772 38.9005C57.6075 38.2738 56.3054 37.9464 54.9829 37.9477ZM61.3747 57.123C57.7666 57.1163 54.2477 56.0006 51.2949 53.9271H54.9829C56.7498 53.9201 58.4634 53.3216 59.8503 52.2269C62.358 52.5304 64.8995 52.084 67.1538 50.9443C69.4082 49.8045 71.2743 48.0224 72.5166 45.8229C73.7589 43.6234 74.3218 41.1052 74.1341 38.5861C73.9464 36.067 73.0165 33.6599 71.4619 31.6689C69.9073 29.6778 67.7977 28.1919 65.3994 27.3988C63.001 26.6058 60.4215 26.541 57.9863 27.2128C55.5512 27.8846 53.3697 29.2627 51.7172 31.1733C50.0647 33.0839 49.0153 35.4412 48.7014 37.9477H43.8789C44.1887 34.5531 45.479 31.3219 47.5925 28.6474C49.7059 25.973 52.5514 23.9708 55.7825 22.8846C59.0135 21.7984 62.4907 21.6752 65.7905 22.5298C69.0904 23.3845 72.0705 25.1802 74.368 27.6983C76.6656 30.2164 78.1814 33.3482 78.7309 36.7123C79.2803 40.0764 78.8398 43.5278 77.4628 46.646C76.0858 49.7643 73.8319 52.4149 70.9755 54.275C68.1191 56.1352 64.7834 57.1247 61.3747 57.123Z" fill="#00415A"/>
</svg>
