<svg width="103" height="103" viewBox="0 0 103 103" fill="none" xmlns="http://www.w3.org/2000/svg">
<path d="M90.4935 62.7438L83.0134 58.188L84.3477 39.5062C84.5058 37.1268 84.1737 34.7402 83.3719 32.4944C82.5701 30.2486 81.3157 28.1913 79.6863 26.4501C78.057 24.7089 76.0875 23.3208 73.8998 22.3718C71.7121 21.4228 69.3528 20.9331 66.9682 20.9331C64.5835 20.9331 62.2242 21.4228 60.0366 22.3718C57.8489 23.3208 55.8793 24.7089 54.25 26.4501C52.6207 28.1913 51.3662 30.2486 50.5644 32.4944C49.7626 34.7402 49.4305 37.1268 49.5887 39.5062L50.923 58.188L43.4413 62.7454C40.8731 64.3218 38.7504 66.5283 37.2746 69.1555C35.7988 71.7827 35.0189 74.7434 35.0088 77.7568V95.9448C35.0088 97.2162 35.5139 98.4356 36.4129 99.3346C37.3119 100.234 38.5313 100.739 39.8027 100.739H94.1336C95.4051 100.739 96.6244 100.234 97.5234 99.3346C98.4225 98.4356 98.9275 97.2162 98.9275 95.9448V77.7568C98.9173 74.7431 98.1371 71.782 96.661 69.1545C95.1849 66.5271 93.0619 64.3204 90.4935 62.7438ZM78.6237 44.3928C78.6188 46.5917 78.1044 48.7596 77.121 50.7264C76.1376 52.6932 74.7119 54.4054 72.9558 55.7288L69.4402 58.3686C68.7271 58.8985 67.8622 59.1846 66.9738 59.1846C66.0853 59.1846 65.2204 58.8985 64.5073 58.3686L60.9918 55.7288C59.2356 54.4054 57.8099 52.6932 56.8265 50.7264C55.8431 48.7596 55.3288 46.5917 55.3238 44.3928V38.108C55.3236 37.811 55.4062 37.5199 55.5623 37.2673C55.7184 37.0146 55.9418 36.8105 56.2074 36.6778L66.2651 31.6506C66.4869 31.5397 66.7314 31.482 66.9794 31.482C67.2273 31.482 67.4718 31.5397 67.6936 31.6506L77.7513 36.6778C78.0169 36.8105 78.2403 37.0146 78.3964 37.2673C78.5525 37.5199 78.6351 37.811 78.6349 38.108L78.6237 44.3928Z" fill="#56D1FF"/>
<path d="M58.5083 39.0955V44.3928C58.5123 46.0958 58.9107 47.7747 59.6723 49.2978C60.4339 50.821 61.538 52.1471 62.8979 53.1721L66.4135 55.8135C66.5732 55.9296 66.7656 55.9922 66.9632 55.9922C67.1607 55.9922 67.3531 55.9296 67.5129 55.8135L71.0284 53.1721C72.3883 52.1471 73.4924 50.821 74.254 49.2978C75.0156 47.7747 75.414 46.0958 75.418 44.3928V39.0955L66.9679 34.8657L58.5083 39.0955Z" fill="#56D1FF"/>
<path d="M38.2046 32.0264H35.0086C34.5848 32.0264 34.1784 32.1947 33.8787 32.4944C33.579 32.7941 33.4106 33.2005 33.4106 33.6243C33.4106 34.0481 33.579 34.4546 33.8787 34.7543C34.1784 35.0539 34.5848 35.2223 35.0086 35.2223H38.2046C38.6284 35.2223 39.0348 35.0539 39.3345 34.7543C39.6342 34.4546 39.8025 34.0481 39.8025 33.6243C39.8025 33.2005 39.6342 32.7941 39.3345 32.4944C39.0348 32.1947 38.6284 32.0264 38.2046 32.0264Z" fill="#00415A"/>
<path d="M61.0717 42.9693L51.9633 37.9981C52.8332 35.8169 52.9931 33.4169 52.4203 31.1396L50.9885 25.438V16.0468C50.9885 12.2325 49.4733 8.57444 46.7762 5.87735C44.0791 3.18025 40.4211 1.66504 36.6068 1.66504C32.7925 1.66504 29.1345 3.18025 26.4374 5.87735C23.7403 8.57444 22.2251 12.2325 22.2251 16.0468V25.438L20.7997 31.1396C20.2269 33.4169 20.3868 35.8169 21.2567 37.9981L12.1483 42.9693C9.88043 44.2065 7.98767 46.0316 6.66891 48.253C5.35014 50.4744 4.65406 53.0099 4.65381 55.5933V73.5736C4.65381 74.8451 5.15888 76.0644 6.05791 76.9634C6.95694 77.8625 8.17629 78.3675 9.44772 78.3675H63.7787C65.0501 78.3675 66.2694 77.8625 67.1685 76.9634C68.0675 76.0644 68.5726 74.8451 68.5726 73.5736V55.5949C68.572 53.0106 67.8751 50.4743 66.5551 48.2525C65.2352 46.0308 63.341 44.2058 61.0717 42.9693ZM35.0088 48.3641C36.0606 48.6038 37.1529 48.6038 38.2048 48.3641V61.7263L36.6068 63.3243L35.0088 61.7263V48.3641ZM39.0741 44.6632C38.329 45.1102 37.4765 45.3464 36.6076 45.3464C35.7387 45.3464 34.8862 45.1102 34.1411 44.6632L27.5415 40.7034C26.2062 39.9072 25.1347 38.7357 24.4604 37.3348C23.7862 35.934 23.5389 34.3658 23.7495 32.8254C24.4963 34.1316 25.4997 35.2731 26.6994 36.1812C27.5839 36.8384 28.5313 37.4063 29.5278 37.8766C29.771 37.9925 30.0396 38.0449 30.3085 38.0291C30.5775 38.0134 30.8381 37.9298 31.0661 37.7863C31.2941 37.6428 31.4821 37.444 31.6127 37.2083C31.7433 36.9727 31.8121 36.7078 31.8129 36.4384V33.6244C31.8129 32.353 32.318 31.1336 33.217 30.2346C34.116 29.3356 35.3354 28.8305 36.6068 28.8305C37.8782 28.8305 39.0976 29.3356 39.9966 30.2346C40.8956 31.1336 41.4007 32.353 41.4007 33.6244V36.4352C41.4015 36.7047 41.4703 36.9695 41.6009 37.2052C41.7315 37.4408 41.9195 37.6396 42.1475 37.7831C42.3755 37.9266 42.6361 38.0102 42.905 38.0259C43.174 38.0417 43.4426 37.9893 43.6858 37.8734C44.6822 37.4041 45.6296 36.8373 46.5142 36.1812C47.7138 35.2731 48.7173 34.1316 49.464 32.8254C49.6756 34.3665 49.4289 35.9358 48.7546 37.3376C48.0802 38.7394 47.0082 39.9116 45.6721 40.7082L39.0741 44.6632ZM25.421 19.2427H47.7926V27.2325C47.7895 28.4724 47.4993 29.6947 46.9449 30.8036C46.3904 31.9126 45.5867 32.878 44.5966 33.6244C44.5966 31.5054 43.7548 29.4731 42.2565 27.9747C40.7581 26.4764 38.7258 25.6346 36.6068 25.6346C34.4878 25.6346 32.4555 26.4764 30.9571 27.9747C29.4587 29.4731 28.6169 31.5054 28.6169 33.6244C27.6269 32.878 26.8232 31.9126 26.2687 30.8036C25.7142 29.6947 25.4241 28.4724 25.421 27.2325V19.2427ZM36.6068 4.86098C39.5724 4.86436 42.4156 6.04395 44.5126 8.14095C46.6096 10.238 47.7892 13.0811 47.7926 16.0468H25.421C25.4244 13.0811 26.604 10.238 28.701 8.14095C30.798 6.04395 33.6412 4.86436 36.6068 4.86098ZM65.3702 73.5736C65.3702 73.9974 65.2019 74.4039 64.9022 74.7036C64.6025 75.0032 64.1961 75.1716 63.7723 75.1716H55.7473L55.7824 57.5939C55.7824 57.1701 55.6141 56.7637 55.3144 56.464C55.0147 56.1643 54.6083 55.996 54.1844 55.996C53.7606 55.996 53.3542 56.1643 53.0545 56.464C52.7548 56.7637 52.5865 57.1701 52.5865 57.5939L52.5513 75.1716H20.6623L20.6271 57.5939C20.6271 57.1701 20.4587 56.7637 20.1591 56.464C19.8594 56.1643 19.4529 55.996 19.0291 55.996C18.6053 55.996 18.1989 56.1643 17.8992 56.464C17.5995 56.7637 17.4312 57.1701 17.4312 57.5939L17.4663 75.1716H9.44132C9.01752 75.1716 8.61107 75.0032 8.31139 74.7036C8.01171 74.4039 7.84335 73.9974 7.84335 73.5736V55.5949C7.84228 53.5844 8.38311 51.6107 9.40895 49.8816C10.4348 48.1524 11.9077 46.7317 13.6727 45.769L22.8722 40.7514C23.7095 41.8256 24.7357 42.738 25.9004 43.4439L31.8129 46.993V62.3878C31.813 62.8116 31.9814 63.218 32.2811 63.5176L35.477 66.7136C35.7767 67.0131 36.1831 67.1814 36.6068 67.1814C37.0305 67.1814 37.4369 67.0131 37.7366 66.7136L40.9325 63.5176C41.2322 63.218 41.4006 62.8116 41.4007 62.3878V46.9946L47.3132 43.4439C48.4802 42.7407 49.5091 41.8304 50.3493 40.7577L59.5488 45.7754C61.3114 46.7387 62.7821 48.1588 63.8064 49.8866C64.8308 51.6145 65.3709 53.5862 65.3702 55.5949V73.5736Z" fill="#00415A"/>
</svg>
