<svg width="103" height="103" viewBox="0 0 103 103" fill="none" xmlns="http://www.w3.org/2000/svg">
<path d="M78.5763 60.677C78.5763 63.6651 76.9784 69.4816 65.7928 75.3141C54.6073 69.4816 53.0093 63.6651 53.0093 60.677C53.0093 56.9058 55.4062 54.0615 58.6021 54.0615C59.7435 54.0665 60.8679 54.3377 61.886 54.8537C62.9041 55.3697 63.7877 56.1161 64.4665 57.0337C64.6121 57.2545 64.8102 57.4358 65.0431 57.5613C65.2759 57.6867 65.5363 57.7523 65.8008 57.7523C66.0653 57.7523 66.3257 57.6867 66.5586 57.5613C66.7914 57.4358 66.9895 57.2545 67.1351 57.0337C67.8106 56.1164 68.6913 55.37 69.7068 54.8539C70.7223 54.3378 71.8444 54.0665 72.9835 54.0615C76.1794 54.0615 78.5763 56.9058 78.5763 60.677ZM100.947 55.196C100.947 63.5373 96.4732 79.7883 66.5119 94.9687C66.2889 95.0811 66.0426 95.1397 65.7928 95.1397C65.5431 95.1397 65.2968 95.0811 65.0737 94.9687C35.1124 79.7883 30.6382 63.5373 30.6382 55.196C30.6382 43.5471 38.7078 34.4229 49.0145 34.4229C52.1945 34.4329 55.3358 35.1207 58.229 36.4406C61.1223 37.7604 63.7008 39.6819 65.7928 42.077C67.8848 39.6819 70.4634 37.7604 73.3566 36.4406C76.2498 35.1207 79.3912 34.4329 82.5712 34.4229C92.9578 34.4229 100.947 43.5471 100.947 55.196ZM81.7722 60.677C81.7722 55.1641 77.9052 50.8656 72.9835 50.8656C70.3055 50.8615 67.7293 51.892 65.7928 53.7419C63.8564 51.892 61.2802 50.8615 58.6021 50.8656C53.6805 50.8656 49.8134 55.1641 49.8134 60.677C49.8134 64.4641 51.7949 71.8625 65.0737 78.5419C65.2968 78.6543 65.5431 78.7129 65.7928 78.7129C66.0426 78.7129 66.2889 78.6543 66.5119 78.5419C79.7908 71.8146 81.7722 64.4641 81.7722 60.677ZM94.5557 55.196C94.5557 48.229 90.3531 40.8146 82.5712 40.8146C82.1474 40.8146 81.7409 40.983 81.4413 41.2826C81.1416 41.5823 80.9732 41.9887 80.9732 42.4125C80.9732 42.8363 81.1416 43.2428 81.4413 43.5425C81.7409 43.8421 82.1474 44.0105 82.5712 44.0105C88.2758 44.0105 91.3598 49.779 91.3598 55.196C91.3598 55.6198 91.5282 56.0263 91.8279 56.326C92.1275 56.6256 92.534 56.794 92.9578 56.794C93.3816 56.794 93.788 56.6256 94.0877 56.326C94.3874 56.0263 94.5557 55.6198 94.5557 55.196Z" fill="#56D1FF"/>
<path d="M76.9787 23.0297C76.9787 18.7917 75.2952 14.7273 72.2984 11.7305C69.3017 8.73383 65.2373 7.05029 60.9993 7.05029C56.7613 7.05029 52.6969 8.73383 49.7002 11.7305C46.7035 14.7273 45.0199 18.7917 45.0199 23.0297L42.1436 37.491C41.5364 40.5111 41.089 43.5632 40.7694 46.6312C38.3894 42.3865 34.5947 39.1121 30.0472 37.3792C33.2244 35.7309 35.7562 33.0637 37.2368 29.8051C38.7174 26.5464 39.0611 22.885 38.2129 19.4078C37.3646 15.9305 35.3734 12.8387 32.5585 10.6279C29.7436 8.4172 26.268 7.21552 22.6887 7.21552C19.1095 7.21552 15.6339 8.4172 12.819 10.6279C10.0041 12.8387 8.01292 15.9305 7.16462 19.4078C6.31633 22.885 6.66004 26.5464 8.14067 29.8051C9.62129 33.0637 12.1531 35.7309 15.3302 37.3792C11.3431 38.9985 7.93137 41.7734 5.53374 45.3471C3.13611 48.9207 1.86213 53.1299 1.87559 57.4333V63.1859C1.87559 64.4573 2.38066 65.6766 3.27967 66.5756C4.17868 67.4746 5.39801 67.9797 6.66941 67.9797H38.6282C39.8107 67.9726 40.949 67.5287 41.8241 66.7333C42.6991 67.5287 43.8374 67.9726 45.0199 67.9797H76.9787C78.2501 67.9797 79.4694 67.4746 80.3684 66.5756C81.2674 65.6766 81.7725 64.4573 81.7725 63.1859V56.7941C81.7741 50.3121 81.1318 43.846 79.855 37.491L76.9787 23.0297ZM48.6313 20.0415H73.3673C73.6362 21.0858 73.7757 22.1591 73.7828 23.2374C73.7828 26.6278 72.436 29.8793 70.0386 32.2767C67.6412 34.6741 64.3897 36.0209 60.9993 36.0209C57.6089 36.0209 54.3574 34.6741 51.96 32.2767C49.5626 29.8793 48.2158 26.6278 48.2158 23.2374C48.2229 22.1591 48.3624 21.0858 48.6313 20.0415ZM62.5972 39.2168C65.2506 38.9473 67.7942 38.018 69.9964 36.5136C72.1986 35.0093 73.9892 32.9776 75.205 30.6039L76.8029 38.1941C77.9576 43.9841 78.5781 49.8679 78.6565 55.7714C73.4833 57.413 68.1031 58.3115 62.6771 58.44L62.5972 39.2168ZM60.9993 10.4539C63.2411 10.4562 65.4428 11.048 67.3836 12.1698C69.3245 13.2917 70.9362 14.9042 72.057 16.8457H49.9416C51.0625 14.9042 52.6741 13.2917 54.615 12.1698C56.5558 11.048 58.7576 10.4562 60.9993 10.4539ZM45.2756 38.1142L46.7936 30.524C48.0095 32.8977 49.8001 34.9294 52.0022 36.4338C54.2044 37.9381 56.7481 38.8674 59.4014 39.1369V58.3122C53.9754 58.1837 48.5952 57.2852 43.422 55.6436C43.5033 49.7561 44.1238 43.8885 45.2756 38.1142ZM30.6385 41.1343C32.0784 41.8853 33.4112 42.8258 34.6014 43.9307V52.7993C34.0199 53.2041 33.3284 53.4212 32.6199 53.4212C31.9114 53.4212 31.2199 53.2041 30.6385 52.7993V41.1343ZM22.6488 10.4539C24.8905 10.4562 27.0923 11.048 29.0331 12.1698C30.974 13.2917 32.5856 14.9042 33.7065 16.8457H11.5911C12.7119 14.9042 14.3236 13.2917 16.2645 12.1698C18.2053 11.048 20.407 10.4562 22.6488 10.4539ZM9.86528 23.2374C9.87239 22.1591 10.0119 21.0858 10.2807 20.0415H35.0168C35.2857 21.0858 35.4252 22.1591 35.4323 23.2374C35.4323 26.6278 34.0855 29.8793 31.6881 32.2767C29.2907 34.6741 26.0392 36.0209 22.6488 36.0209C19.2584 36.0209 16.0069 34.6741 13.6095 32.2767C11.2121 29.8793 9.86528 26.6278 9.86528 23.2374ZM10.6802 44.1544C11.8683 43.0088 13.2069 42.0304 14.6591 41.2462V52.7993C14.0612 53.1684 13.3724 53.3639 12.6697 53.3639C11.967 53.3639 11.2782 53.1684 10.6802 52.7993V44.1544ZM5.07147 63.1859V57.4333C5.0759 54.2297 5.907 51.0815 7.48436 48.2931V53.5982C7.48464 53.8251 7.53324 54.0493 7.62692 54.256C7.7206 54.4626 7.85721 54.6469 8.02766 54.7967C9.31197 55.9291 10.9654 56.554 12.6777 56.554C14.3899 56.554 16.0433 55.9291 17.3277 54.7967C17.4952 54.6455 17.6288 54.4605 17.7197 54.254C17.8106 54.0474 17.8567 53.8239 17.855 53.5982V40.0158C18.8969 39.7025 19.9675 39.4937 21.0509 39.3926V64.7838H6.66941C6.24561 64.7838 5.83917 64.6155 5.5395 64.3158C5.23982 64.0161 5.07147 63.6097 5.07147 63.1859ZM38.6282 64.7838H24.2467V39.2967C25.3278 39.3963 26.3975 39.5942 27.4426 39.8879V53.5982C27.4414 53.8085 27.4817 54.017 27.5612 54.2117C27.6407 54.4064 27.7579 54.5835 27.906 54.7328C29.0662 55.8855 30.6106 56.57 32.2438 56.6555C33.877 56.741 35.4844 56.2215 36.7586 55.1962L37.206 54.8446C37.3914 54.6942 37.5407 54.5042 37.6431 54.2885C37.7454 54.0728 37.7981 53.837 37.7972 53.5982V47.8936C39.3849 50.5912 40.2234 53.6639 40.2261 56.7941V63.1859C40.2261 63.6097 40.0578 64.0161 39.7581 64.3158C39.4584 64.6155 39.052 64.7838 38.6282 64.7838ZM76.9787 64.7838H45.0199C44.5961 64.7838 44.1897 64.6155 43.89 64.3158C43.5903 64.0161 43.422 63.6097 43.422 63.1859V58.9833C54.8829 62.4563 67.1157 62.4563 78.5766 58.9833V63.1859C78.5766 63.6097 78.4083 64.0161 78.1086 64.3158C77.8089 64.6155 77.4025 64.7838 76.9787 64.7838ZM22.6488 32.825C20.1068 32.8228 17.6698 31.8112 15.8735 30.0127C15.7063 29.8694 15.5704 29.6931 15.4745 29.4949C15.3786 29.2966 15.3247 29.0807 15.3162 28.8606C15.3077 28.6406 15.3448 28.4211 15.4251 28.2161C15.5054 28.011 15.6273 27.8248 15.783 27.6691C15.9387 27.5133 16.125 27.3915 16.33 27.3111C16.5351 27.2308 16.7545 27.1937 16.9746 27.2022C17.1947 27.2107 17.4106 27.2646 17.6088 27.3605C17.8071 27.4564 17.9834 27.5923 18.1266 27.7596C18.7202 28.3539 19.4252 28.8253 20.2011 29.147C20.9771 29.4686 21.8088 29.6342 22.6488 29.6342C23.4888 29.6342 24.3205 29.4686 25.0964 29.147C25.8724 28.8253 26.5773 28.3539 27.171 27.7596C27.4766 27.4978 27.8699 27.361 28.272 27.3765C28.6742 27.3921 29.0557 27.5588 29.3403 27.8434C29.6248 28.1279 29.7916 28.5094 29.8071 28.9116C29.8226 29.3138 29.6858 29.707 29.424 30.0127C27.6277 31.8112 25.1907 32.8228 22.6488 32.825ZM54.224 30.0127C53.9623 29.707 53.8255 29.3138 53.841 28.9116C53.8565 28.5094 54.0233 28.1279 54.3078 27.8434C54.5924 27.5588 54.9739 27.3921 55.3761 27.3765C55.7782 27.361 56.1714 27.4978 56.4771 27.7596C57.0708 28.3539 57.7757 28.8253 58.5516 29.147C59.3276 29.4686 60.1593 29.6342 60.9993 29.6342C61.8393 29.6342 62.671 29.4686 63.447 29.147C64.2229 28.8253 64.9279 28.3539 65.5215 27.7596C65.8272 27.4978 66.2204 27.361 66.6225 27.3765C67.0247 27.3921 67.4062 27.5588 67.6908 27.8434C67.9754 28.1279 68.1421 28.5094 68.1576 28.9116C68.1731 29.3138 68.0363 29.707 67.7746 30.0127C65.9769 31.8081 63.54 32.8166 60.9993 32.8166C58.4586 32.8166 56.0217 31.8081 54.224 30.0127Z" fill="#00415A"/>
</svg>
