<svg width="103" height="103" viewBox="0 0 103 103" fill="none" xmlns="http://www.w3.org/2000/svg">
<path d="M95.7617 70.1509C95.4533 70.0052 95.1065 69.9619 94.7718 70.0275C94.4371 70.093 94.1322 70.2639 93.9016 70.5152C91.7186 72.9015 89.0747 74.8208 86.1295 76.1572C83.1843 77.4937 79.9989 78.2196 76.7655 78.2911C73.532 78.3626 70.3176 77.7782 67.3163 76.5733C64.3149 75.3684 61.5887 73.5678 59.3023 71.2804C57.0159 68.9929 55.2167 66.2659 54.0131 63.2639C52.8096 60.262 52.2268 57.0473 52.2999 53.8139C52.3729 50.5805 53.1003 47.3954 54.4381 44.4508C55.7759 41.5063 57.6965 38.8633 60.0838 36.6814C60.3349 36.4509 60.5057 36.1461 60.5713 35.8117C60.6369 35.4772 60.5938 35.1305 60.4483 34.8222C60.3029 34.514 60.0626 34.2603 59.7628 34.0983C59.4629 33.9363 59.119 33.8744 58.7815 33.9217C52.6077 34.7897 46.7981 37.3613 42.0049 41.3479C37.2116 45.3346 33.6244 50.5783 31.646 56.4906C29.6676 62.4028 29.3764 68.7494 30.8049 74.818C32.2334 80.8866 35.3252 86.4369 39.7332 90.8458C44.1412 95.2547 49.6908 98.3477 55.7591 99.7775C61.8274 101.207 68.1741 100.917 74.0868 98.9402C79.9994 96.9631 85.2439 93.377 89.2315 88.5846C93.2192 83.7922 95.792 77.9831 96.6613 71.8095C96.7069 71.4734 96.6442 71.1314 96.4825 70.8332C96.3207 70.535 96.0683 70.296 95.7617 70.1509Z" fill="#BDDB9E"/>
<path d="M69.7433 52.2696L68.3755 60.2435C68.3251 60.5374 68.358 60.8395 68.4704 61.1156C68.5827 61.3918 68.7701 61.631 69.0113 61.8062C69.2526 61.9815 69.538 62.0857 69.8354 62.1072C70.1328 62.1286 70.4302 62.0665 70.6941 61.9278L77.8514 58.1661L85.0119 61.9246C85.2755 62.0621 85.5722 62.1235 85.8687 62.1017C86.1652 62.0799 86.4497 61.9758 86.6903 61.8011C86.9309 61.6265 87.1179 61.3881 87.2305 61.113C87.343 60.8378 87.3766 60.5367 87.3274 60.2435L85.9595 52.2728L91.7506 46.6288C91.9642 46.4206 92.1154 46.1568 92.1869 45.8671C92.2583 45.5775 92.2473 45.2736 92.155 44.9899C92.0627 44.7062 91.8928 44.454 91.6646 44.2618C91.4364 44.0697 91.159 43.9453 90.8637 43.9027L82.8626 42.7409L79.2832 35.4894C79.1362 35.2402 78.9267 35.0337 78.6754 34.8903C78.4242 34.7468 78.1399 34.6714 77.8506 34.6714C77.5613 34.6714 77.277 34.7468 77.0258 34.8903C76.7746 35.0337 76.5651 35.2402 76.418 35.4894L72.8402 42.7409L64.8376 43.9027C64.5424 43.9455 64.2652 44.0701 64.0371 44.2624C63.8091 44.4546 63.6395 44.7068 63.5474 44.9905C63.4553 45.2742 63.4444 45.5779 63.5159 45.8675C63.5875 46.157 63.7386 46.4207 63.9523 46.6288L69.7433 52.2696Z" fill="#BDDB9E"/>
<path d="M80.3575 28.3032L56.7027 4.60694C55.7893 3.73399 54.5745 3.24683 53.311 3.24683C52.0476 3.24683 50.8327 3.73399 49.9193 4.60694L45.5745 8.95661C44.6783 9.85759 44.1752 11.0767 44.1752 12.3475C44.1752 13.6183 44.6783 14.8374 45.5745 15.7384L46.0235 16.1874L42.2123 19.5304L37.6645 16.1139L38.0385 15.7384C38.935 14.8376 39.4384 13.6184 39.4384 12.3475C39.4384 11.0766 38.935 9.85738 38.0385 8.95661L33.6968 4.60694C33.2523 4.15988 32.7238 3.8051 32.1418 3.56301C31.5597 3.32092 30.9355 3.19629 30.3051 3.19629C29.6747 3.19629 29.0505 3.32092 28.4684 3.56301C27.8863 3.8051 27.3579 4.15988 26.9134 4.60694L3.25866 28.3032C2.36218 29.2037 1.85889 30.4226 1.85889 31.6933C1.85889 32.964 2.36218 34.1829 3.25866 35.0834L7.60034 39.4331C8.22391 40.066 9.0138 40.5095 9.87877 40.7126C10.7437 40.9156 11.6485 40.8698 12.4885 40.5804L13.564 44.8949L12.4805 45.9784C11.3531 47.1127 10.7203 48.6472 10.7203 50.2465C10.7203 51.8459 11.3531 53.3803 12.4805 54.5147C13.039 55.0772 13.7035 55.5232 14.4357 55.8268C15.1678 56.1305 15.9529 56.2858 16.7455 56.2836C16.835 56.2836 16.9213 56.2613 17.0108 56.2565C16.9689 57.0698 17.0931 57.8831 17.3759 58.6468C17.6587 59.4106 18.0941 60.1087 18.6556 60.6986C19.2171 61.2884 19.8929 61.7578 20.6417 62.0779C21.3906 62.398 22.1968 62.5622 23.0112 62.5605C23.1006 62.5605 23.1869 62.5381 23.2764 62.5349C23.2352 63.348 23.3599 64.1609 23.643 64.9243C23.9261 65.6876 24.3615 66.3853 24.9229 66.9749C25.4843 67.5645 26.1598 68.0337 26.9083 68.3539C27.6568 68.6741 28.4627 68.8386 29.2768 68.8373C29.3663 68.8373 29.4526 68.8149 29.542 68.8101C29.4808 70.0245 29.7894 71.2288 30.4272 72.264C31.0649 73.2993 32.0017 74.1166 33.1138 74.6082C34.2259 75.0997 35.4609 75.2423 36.6558 75.0171C37.8506 74.7919 38.949 74.2094 39.8058 73.3468L41.4166 71.7344L41.4597 71.7792C42.3164 72.6417 43.4147 73.2241 44.6093 73.4493C45.804 73.6746 47.0389 73.5322 48.1509 73.0408C49.263 72.5495 50.1998 71.7324 50.8376 70.6974C51.4755 69.6624 51.7843 68.4583 51.7235 67.2441C51.8129 67.2441 51.8992 67.2713 51.9903 67.2713C52.8044 67.2723 53.6103 67.1077 54.3587 66.7873C55.1071 66.4669 55.7825 65.9976 56.3438 65.4078C56.905 64.818 57.3403 64.1202 57.6231 63.3568C57.906 62.5934 58.0305 61.7804 57.9891 60.9673C58.0786 60.9673 58.1633 60.9945 58.2528 60.9945C59.6798 60.9953 61.0605 60.4874 62.1468 59.5619C63.2331 58.6364 63.9538 57.354 64.1796 55.9449C64.7912 56.1584 65.4334 56.2712 66.0812 56.2789C67.2745 56.2773 68.4405 55.9222 69.4321 55.2583C70.4236 54.5944 71.1962 53.6516 71.6523 52.5489C72.1083 51.4462 72.2273 50.2331 71.9943 49.0628C71.7612 47.8925 71.1866 46.8175 70.343 45.9736L67.2429 42.8687L69.0454 39.2589L69.2212 39.4331C69.6665 39.879 70.1953 40.2328 70.7774 40.4742C71.3595 40.7156 71.9835 40.8399 72.6137 40.8399C73.2439 40.8399 73.8679 40.7156 74.45 40.4742C75.0321 40.2328 75.5609 39.879 76.0062 39.4331L80.3495 35.0834C81.247 34.184 81.7517 32.9656 81.7532 31.695C81.7547 30.4243 81.2529 29.2048 80.3575 28.3032ZM9.86306 37.1751L5.51979 32.8239C5.37097 32.6754 5.25291 32.4991 5.17235 32.305C5.09179 32.1108 5.05032 31.9027 5.05032 31.6925C5.05032 31.4823 5.09179 31.2742 5.17235 31.0801C5.25291 30.8859 5.37097 30.7096 5.51979 30.5611L29.1841 6.87126C29.4838 6.57169 29.8901 6.4034 30.3139 6.4034C30.7376 6.4034 31.144 6.57169 31.4436 6.87126L35.7853 11.2225C35.9344 11.371 36.0526 11.5474 36.1333 11.7417C36.214 11.936 36.2556 12.1443 36.2556 12.3547C36.2556 12.5651 36.214 12.7734 36.1333 12.9677C36.0526 13.1619 35.9344 13.3384 35.7853 13.4869L12.1242 37.1751C11.8201 37.4669 11.415 37.6297 10.9936 37.6297C10.5722 37.6297 10.1672 37.4669 9.86306 37.1751ZM14.7433 52.2536C14.2125 51.7195 13.9146 50.9971 13.9146 50.2441C13.9146 49.4912 14.2125 48.7688 14.7433 48.2347L17.0955 45.8809C17.6337 45.3674 18.3491 45.081 19.0929 45.081C19.8368 45.081 20.5521 45.3674 21.0904 45.8809C21.6215 46.4148 21.9197 47.1372 21.9197 47.8903C21.9197 48.6434 21.6215 49.3659 21.0904 49.8998L18.7462 52.2536C18.2077 52.7697 17.4906 53.0579 16.7447 53.0579C15.9988 53.0579 15.2817 52.7697 14.7433 52.2536ZM21.0089 58.5288C20.4779 57.9952 20.1797 57.273 20.1797 56.5201C20.1797 55.7673 20.4779 55.0451 21.0089 54.5115L23.3579 52.1577C23.8967 51.6414 24.614 51.3532 25.3602 51.3532C26.1063 51.3532 26.8237 51.6414 27.3624 52.1577C27.8938 52.6911 28.1922 53.4134 28.1922 54.1663C28.1922 54.9193 27.8938 55.6416 27.3624 56.175L25.0134 58.5288C24.4748 59.0456 23.7572 59.334 23.0108 59.3337C22.2644 59.3334 21.5471 59.0444 21.0089 58.5272V58.5288ZM27.2745 64.8072C26.7434 64.2733 26.4452 63.5509 26.4452 62.7978C26.4452 62.0447 26.7434 61.3222 27.2745 60.7883L29.6235 58.4329C29.8833 58.1521 30.1972 57.9268 30.5463 57.7705C30.8954 57.6141 31.2725 57.53 31.655 57.5232C32.0374 57.5164 32.4173 57.587 32.7718 57.7308C33.1262 57.8746 33.4479 58.0886 33.7176 58.3599C33.9872 58.6313 34.1991 58.9543 34.3406 59.3097C34.4822 59.6651 34.5504 60.0454 34.5411 60.4278C34.5318 60.8102 34.4453 61.1868 34.2868 61.5349C34.1282 61.883 33.9009 62.1954 33.6185 62.4534L31.2695 64.8072C30.731 65.3204 30.0156 65.6066 29.2717 65.6063C28.5278 65.606 27.8126 65.3193 27.2745 64.8056V64.8072ZM33.5402 71.0824C33.0092 70.5491 32.7112 69.8272 32.7112 69.0746C32.7112 68.322 33.0092 67.6001 33.5402 67.0667L35.8892 64.7129C36.1492 64.434 36.4628 64.2104 36.8112 64.0555C37.1596 63.9005 37.5358 63.8175 37.917 63.8113C38.2983 63.8052 38.6769 63.876 39.0302 64.0196C39.3834 64.1631 39.7041 64.3765 39.973 64.6469C40.2419 64.9173 40.4534 65.2391 40.595 65.5932C40.7366 65.9472 40.8053 66.3262 40.797 66.7074C40.7887 67.0887 40.7036 67.4643 40.5467 67.8119C40.3899 68.1594 40.1645 68.4718 39.8841 68.7302L37.5367 71.084C36.9979 71.5975 36.282 71.8837 35.5378 71.8831C34.7935 71.8825 34.0781 71.5952 33.5402 71.0808V71.0824ZM68.0882 52.2536C67.5584 52.7832 66.84 53.0808 66.0908 53.0808C65.3416 53.0808 64.6231 52.7832 64.0933 52.2536L57.0495 45.1969C56.7494 44.8958 56.342 44.7262 55.917 44.7255C55.4919 44.7247 55.0839 44.8929 54.7828 45.193C54.4816 45.493 54.3121 45.9004 54.3113 46.3255C54.3106 46.7506 54.4787 47.1586 54.7788 47.4597L60.2678 52.9583C60.7933 53.4936 61.0867 54.2143 61.0846 54.9644C61.0826 55.7145 60.7851 56.4336 60.2566 56.966C59.9941 57.2294 59.6822 57.4385 59.3387 57.5811C58.9953 57.7238 58.627 57.7972 58.2551 57.7972C57.8832 57.7972 57.515 57.7238 57.1715 57.5811C56.8281 57.4385 56.5162 57.2294 56.2537 56.966L50.7695 51.4738C50.4683 51.1825 50.0648 51.0211 49.6458 51.0244C49.2268 51.0278 48.8259 51.1956 48.5294 51.4916C48.2329 51.7877 48.0645 52.1884 48.0606 52.6074C48.0567 53.0263 48.2175 53.4301 48.5083 53.7317L53.991 59.2239C54.5228 59.7571 54.8214 60.4795 54.8214 61.2326C54.8214 61.9856 54.5228 62.708 53.991 63.2412C53.4527 63.7577 52.7355 64.0462 51.9895 64.0462C51.2435 64.0462 50.5263 63.7577 49.9881 63.2412L44.5102 57.7554C44.3629 57.6027 44.1867 57.4808 43.9918 57.3969C43.7969 57.313 43.5872 57.2688 43.3751 57.2668C43.1629 57.2648 42.9524 57.3051 42.756 57.3853C42.5596 57.4655 42.3811 57.584 42.2309 57.734C42.0808 57.8839 41.962 58.0622 41.8815 58.2586C41.801 58.4549 41.7604 58.6653 41.7621 58.8775C41.7638 59.0896 41.8078 59.2993 41.8914 59.4944C41.975 59.6894 42.0966 59.8658 42.2491 60.0133L45.3747 63.1453L47.7237 65.4975C48.2549 66.0314 48.553 66.7539 48.553 67.507C48.553 68.2601 48.2549 68.9825 47.7237 69.5164C47.1855 70.0299 46.4702 70.3163 45.7263 70.3163C44.9824 70.3163 44.2671 70.0299 43.7288 69.5164L43.3885 69.1761C43.8011 68.2592 43.9775 67.2536 43.9016 66.2511C43.8256 65.2485 43.4998 64.281 42.9538 63.4367C42.4078 62.5924 41.6591 61.8984 40.7759 61.4179C39.8927 60.9374 38.9032 60.6858 37.8978 60.6861C37.8083 60.6861 37.722 60.7084 37.6326 60.7116C37.6738 59.8985 37.549 59.0856 37.266 58.3223C36.9829 57.5589 36.5474 56.8612 35.9861 56.2716C35.4247 55.682 34.7492 55.2128 34.0007 54.8926C33.2522 54.5724 32.4463 54.408 31.6322 54.4092C31.5427 54.4092 31.4564 54.4316 31.3669 54.4364C31.4165 53.6023 31.2878 52.7672 30.9895 51.9866C30.6912 51.2061 30.2302 50.498 29.637 49.9095C29.0438 49.321 28.3321 48.8656 27.5492 48.5735C26.7663 48.2814 25.9302 48.1594 25.0965 48.2155C25.1466 47.371 25.0177 46.5253 24.718 45.7341C24.4184 44.9429 23.9549 44.224 23.3579 43.6245C22.4305 42.7423 21.2518 42.1702 19.9849 41.9876C18.718 41.8049 17.4257 42.0207 16.2869 42.605L15.2818 38.543L35.3858 18.3974L39.7579 21.6828L34.4111 26.3665C33.2829 27.5002 32.6496 29.0345 32.6496 30.6339C32.6496 32.2332 33.2829 33.7675 34.4111 34.9012C35.5471 35.9883 37.0553 36.6005 38.6276 36.613C40.1998 36.6255 41.7176 36.0372 42.8707 34.9683L49.5215 29.6391L68.0882 48.2331C68.6199 48.767 68.9183 49.4898 68.9183 50.2433C68.9183 50.9968 68.6199 51.7196 68.0882 52.2536ZM64.8699 40.4861L63.3087 38.9201C63.2975 38.9105 63.2832 38.9073 63.2736 38.8978L50.7695 26.3665C50.4911 26.0881 50.1198 25.9222 49.7267 25.9007C49.3336 25.8791 48.9464 26.0035 48.6394 26.2498L40.8093 32.5251C40.5466 32.8062 40.2308 33.0325 39.8801 33.1907C39.5294 33.349 39.1508 33.4362 38.7662 33.4472C38.3816 33.4582 37.9987 33.3928 37.6395 33.2548C37.2803 33.1168 36.9521 32.909 36.6738 32.6433C36.1506 32.1247 35.8499 31.4227 35.8356 30.6862C35.8213 29.9496 36.0944 29.2365 36.5971 28.6979L48.2894 18.4485L66.6724 36.8731L64.8699 40.4861ZM78.0947 32.8255L73.7514 37.1751C73.4476 37.4668 73.0428 37.6296 72.6217 37.6296C72.2006 37.6296 71.7957 37.4668 71.4919 37.1751L47.8372 13.4805C47.6881 13.332 47.5699 13.1556 47.4892 12.9613C47.4085 12.767 47.3669 12.5587 47.3669 12.3483C47.3669 12.1379 47.4085 11.9296 47.4892 11.7353C47.5699 11.541 47.6881 11.3646 47.8372 11.2161L52.1805 6.87126C52.4801 6.57218 52.8861 6.40419 53.3094 6.40419C53.7328 6.40419 54.1388 6.57218 54.4384 6.87126L78.0883 30.5675C78.3878 30.8662 78.5566 31.2714 78.5578 31.6944C78.559 32.1173 78.3925 32.5235 78.0947 32.8239V32.8255Z" fill="#293B16"/>
</svg>
