<svg width="24" height="22" viewBox="0 0 24 22" fill="none" xmlns="http://www.w3.org/2000/svg">
<path d="M7.25977 4.25L19.2598 16.25" stroke="#A6B0B9" stroke-width="2" stroke-linecap="round"/>
<path fill-rule="evenodd" clip-rule="evenodd" d="M13.3046 5.51117C13.4847 4.98906 14.0539 4.71177 14.576 4.89182C16.9854 5.72274 19.0056 7.57355 20.3857 9.97725C20.7756 10.6565 20.8685 11.4542 20.6646 12.1898C20.517 12.722 19.966 13.0338 19.4338 12.8862C18.9016 12.7387 18.5897 12.1876 18.7373 11.6554C18.8002 11.4284 18.7714 11.1825 18.6512 10.9731C17.4616 8.90104 15.789 7.42571 13.924 6.78255C13.4019 6.60249 13.1246 6.03328 13.3046 5.51117ZM9.79435 5.61168C10.0022 6.12336 9.75587 6.70665 9.24419 6.91449C7.52126 7.61433 5.98243 9.03288 4.86845 10.9731C4.71051 11.2482 4.71052 11.5862 4.86846 11.8613C6.50342 14.709 9.03244 16.4172 11.7598 16.4172C13.6974 16.4172 15.5207 15.5618 17.0076 14.0489C17.3948 13.655 18.0279 13.6496 18.4218 14.0367C18.8157 14.4238 18.8212 15.057 18.434 15.4509C16.6361 17.28 14.3201 18.4172 11.7598 18.4172C8.13321 18.4172 5.02403 16.149 3.134 12.8571C2.622 11.9654 2.622 10.8691 3.13399 9.97732C4.42726 7.72477 6.28121 5.95934 8.49153 5.06152C9.00321 4.85368 9.5865 5.09999 9.79435 5.61168Z" fill="#A6B0B9"/>
<path d="M13.9419 10.8685C14.061 11.3424 14.0226 11.8422 13.8325 12.2923C13.6424 12.7424 13.311 13.1184 12.8883 13.3635C12.4656 13.6086 11.9746 13.7094 11.4895 13.6507C11.0045 13.592 10.5517 13.377 10.1996 13.0382C9.84755 12.6994 9.61534 12.2552 9.53807 11.7728C9.46081 11.2903 9.5427 10.7958 9.77136 10.364C10 9.93222 10.363 9.58659 10.8055 9.37937C11.248 9.17214 11.7459 9.11459 12.224 9.21541" stroke="#A6B0B9" stroke-width="2"/>
</svg>
