<svg width="32" height="33" viewBox="0 0 32 33" fill="none" xmlns="http://www.w3.org/2000/svg">
<rect y="0.185425" width="32" height="32" rx="16" fill="#F2F2F2"/>
<g clip-path="url(#clip0)">
<path d="M21.6562 8.18542H10.3438C9.05151 8.18542 8 9.23694 8 10.5292V21.8417C8 23.1339 9.05151 24.1854 10.3438 24.1854H15.0625V18.5292H13.1875V15.7167H15.0625V13.8104C15.0625 12.2595 16.3241 10.9979 17.875 10.9979H20.7188V13.8104H17.875V15.7167H20.7188L20.25 18.5292H17.875V24.1854H21.6562C22.9485 24.1854 24 23.1339 24 21.8417V10.5292C24 9.23694 22.9485 8.18542 21.6562 8.18542Z" fill="#D2D2D2"/>
</g>
<defs>
<clipPath id="clip0">
<rect width="16" height="16" fill="white" transform="translate(8 8.18542)"/>
</clipPath>
</defs>
</svg>
