<svg width="32" height="33" viewBox="0 0 32 33" fill="none" xmlns="http://www.w3.org/2000/svg">
<rect y="0.185425" width="32" height="32" rx="16" fill="#F2F2F2"/>
<g clip-path="url(#clip0)">
<path d="M13.7153 23.5697C12.9369 23.5697 12.1357 23.5067 11.3297 23.3804C9.91014 23.1576 8.47313 22.4151 8.0665 22.1927L7 21.6096L8.15466 21.2299C9.41686 20.8149 10.1847 20.5574 11.1351 20.1542C10.1834 19.6934 9.44995 18.8643 9.09688 17.7926L8.82826 16.9771L9.04854 17.0108C8.83966 16.8002 8.67473 16.5866 8.54688 16.3922C8.09218 15.7016 7.85144 14.8577 7.90266 14.1345L7.9532 13.4228L8.37933 13.5878C8.19957 13.2484 8.06966 12.8858 7.9933 12.5058C7.80722 11.5791 7.96295 10.5946 8.43193 9.7337L8.80313 9.05227L9.29958 9.64855C10.8697 11.5346 12.8583 12.6535 15.2186 12.981C15.1222 12.3164 15.1944 11.6751 15.4335 11.1003C15.7119 10.4309 16.2071 9.86334 16.8652 9.45877C17.596 9.00956 18.4824 8.7919 19.3609 8.84587C20.2929 8.90313 21.1391 9.25236 21.8112 9.85647C22.1394 9.77119 22.3813 9.68014 22.7081 9.55709C22.9048 9.48307 23.1278 9.39903 23.4068 9.3029L24.4352 8.94859L23.7646 10.8638C23.8088 10.8601 23.8544 10.8569 23.9021 10.8549L25.0001 10.8051L24.3511 11.6921C24.3139 11.743 24.3044 11.7574 24.2912 11.7773C24.2389 11.8561 24.1738 11.9542 23.283 13.1437C23.06 13.4416 22.9486 13.8295 22.9693 14.2363C23.0483 15.7821 22.8586 17.1806 22.4053 18.393C21.9766 19.54 21.3122 20.5241 20.4308 21.318C19.3401 22.3001 17.9494 22.9726 16.297 23.3165C15.4865 23.4851 14.6161 23.5697 13.7153 23.5697Z" fill="#D2D2D2"/>
</g>
<defs>
<clipPath id="clip0">
<rect width="18.0001" height="18" fill="white" transform="translate(7 7.18542)"/>
</clipPath>
</defs>
</svg>
