<svg width="32" height="33" viewBox="0 0 32 33" fill="none" xmlns="http://www.w3.org/2000/svg">
<rect y="0.185425" width="32" height="32" rx="16" fill="#F2F2F2"/>
<g clip-path="url(#clip0)">
<path d="M16 7.18542C11.0567 7.18542 7 11.2421 7 16.1854C7 17.8169 7.43987 19.4051 8.274 20.7946L7 25.1854L11.3908 23.9114C12.7803 24.7456 14.3685 25.1854 16 25.1854C20.9433 25.1854 25 21.1287 25 16.1854C25 11.2421 20.9433 7.18542 16 7.18542ZM21.6269 19.9882L21.2082 20.4069C20.6158 20.9994 19.2533 20.9524 18.3779 20.7833C15.4669 20.2211 12.0731 16.9315 11.4186 14.0828C11.0945 12.6716 11.2734 11.4447 11.7414 10.9765L12.1601 10.5578C12.3913 10.3268 12.7667 10.3271 12.9976 10.5578L14.6727 12.2331C14.7845 12.3449 14.8457 12.4931 14.8457 12.6517C14.8457 12.8103 14.7845 12.9586 14.6727 13.07L14.2541 13.4891C13.7927 13.9516 13.7927 14.703 14.2541 15.1644L17.0204 17.8942C17.4832 18.357 18.2321 18.3576 18.6956 17.8942L19.1143 17.4756C19.3305 17.2582 19.7343 17.2576 19.9522 17.4756L21.6269 19.1504C21.8543 19.3768 21.863 19.752 21.6269 19.9882Z" fill="#D2D2D2"/>
</g>
<defs>
<clipPath id="clip0">
<rect width="18" height="18" fill="white" transform="translate(7 7.18542)"/>
</clipPath>
</defs>
</svg>
