<svg width="32" height="33" viewBox="0 0 32 33" fill="none" xmlns="http://www.w3.org/2000/svg">
<rect y="0.185425" width="32" height="32" rx="16" fill="#F2F2F2"/>
<g clip-path="url(#clip0)">
<path d="M9.67188 25.1854C11.1256 25.1854 12.3086 23.9673 12.3086 22.5135C12.3086 21.0598 11.1256 19.8417 9.67188 19.8417C8.21811 19.8417 7 21.0598 7 22.5135C7 23.9673 8.21811 25.1854 9.67188 25.1854Z" fill="#D2D2D2"/>
<path d="M15.5078 24.6581C15.5078 24.8361 15.4927 25.0103 15.481 25.1854H18.6451C18.6535 25.0094 18.6719 24.8361 18.6719 24.6581C18.6719 18.5519 13.6335 13.5135 7.52734 13.5135C7.34937 13.5135 7.17606 13.532 7 13.5403V16.7044C7.17509 16.6927 7.34937 16.6776 7.52734 16.6776C11.8892 16.6776 15.5078 20.2962 15.5078 24.6581Z" fill="#D2D2D2"/>
<path d="M7.52734 7.18542C7.34923 7.18542 7.17674 7.20685 7 7.21207V10.3763C7.17647 10.3697 7.34937 10.3495 7.52734 10.3495C15.3783 10.3495 21.8359 16.8071 21.8359 24.6581C21.8359 24.8361 21.8158 25.009 21.8092 25.1854H24.9734C24.9786 25.0087 25 24.8362 25 24.6581C25 15.047 17.1383 7.18542 7.52734 7.18542Z" fill="#D2D2D2"/>
</g>
<defs>
<clipPath id="clip0">
<rect width="18" height="18" fill="white" transform="translate(7 7.18542)"/>
</clipPath>
</defs>
</svg>
